<svg xmlns="http://www.w3.org/2000/svg" xmlns:xlink="http://www.w3.org/1999/xlink" width="500" zoomAndPan="magnify" viewBox="0 0 375 374.999991" height="500" preserveAspectRatio="xMidYMid meet" version="1.0"><defs><g/></defs><path fill="#2d5a66" d="M 241.402344 234.832031 L 140.386719 234.832031 C 140.09375 234.832031 139.855469 234.59375 139.855469 234.296875 L 139.855469 210.109375 C 139.855469 203.21875 141.203125 196.535156 143.867188 190.242188 C 146.4375 184.164062 150.117188 178.707031 154.804688 174.019531 C 159.492188 169.332031 164.949219 165.652344 171.027344 163.082031 C 177.320312 160.417969 184.003906 159.070312 190.894531 159.070312 C 197.785156 159.070312 204.46875 160.417969 210.761719 163.082031 C 216.839844 165.652344 222.300781 169.332031 226.988281 174.019531 C 231.675781 178.707031 235.355469 184.164062 237.925781 190.242188 C 240.585938 196.535156 241.9375 203.21875 241.9375 210.109375 L 241.9375 234.296875 C 241.9375 234.59375 241.699219 234.832031 241.402344 234.832031 Z M 140.921875 233.765625 L 240.871094 233.765625 L 240.871094 210.109375 C 240.871094 182.554688 218.449219 160.136719 190.894531 160.136719 C 163.339844 160.136719 140.921875 182.554688 140.921875 210.109375 Z M 140.921875 233.765625 " fill-opacity="1" fill-rule="nonzero"/><path fill="#2d5a66" d="M 238.230469 247.164062 L 143.457031 247.164062 C 139.609375 247.164062 136.480469 244.035156 136.480469 240.1875 L 136.480469 234.296875 C 136.480469 234.003906 136.71875 233.765625 137.015625 233.765625 L 244.671875 233.765625 C 244.964844 233.765625 245.203125 234.003906 245.203125 234.296875 L 245.203125 240.1875 C 245.203125 244.035156 242.074219 247.164062 238.230469 247.164062 Z M 137.546875 234.832031 L 137.546875 240.1875 C 137.546875 243.445312 140.199219 246.09375 143.457031 246.09375 L 238.230469 246.09375 C 241.488281 246.09375 244.136719 243.445312 244.136719 240.1875 L 244.136719 234.832031 Z M 137.546875 234.832031 " fill-opacity="1" fill-rule="nonzero"/><path fill="#2d5a66" d="M 244.117188 242.175781 L 137.226562 242.175781 C 136.933594 242.175781 136.691406 241.933594 136.691406 241.640625 C 136.691406 241.347656 136.933594 241.105469 137.226562 241.105469 L 244.117188 241.105469 C 244.414062 241.105469 244.652344 241.347656 244.652344 241.640625 C 244.652344 241.933594 244.414062 242.175781 244.117188 242.175781 Z M 244.117188 242.175781 " fill-opacity="1" fill-rule="nonzero"/><path fill="#2d5a66" d="M 212.367188 234.746094 L 169.773438 234.746094 C 169.546875 234.746094 169.34375 234.601562 169.269531 234.386719 L 162.082031 213.875 C 162.027344 213.710938 162.050781 213.53125 162.152344 213.390625 C 162.253906 213.25 162.414062 213.164062 162.585938 213.164062 L 162.589844 213.164062 L 218.378906 213.425781 C 218.546875 213.425781 218.703125 213.507812 218.804688 213.640625 C 218.90625 213.777344 218.9375 213.953125 218.886719 214.113281 L 212.878906 234.363281 C 212.8125 234.589844 212.601562 234.746094 212.367188 234.746094 Z M 170.152344 233.679688 L 211.96875 233.679688 L 217.664062 214.492188 L 163.339844 214.238281 Z M 170.152344 233.679688 " fill-opacity="1" fill-rule="nonzero"/><path fill="#2d5a66" d="M 218.136719 214.492188 C 218 214.492188 217.863281 214.441406 217.757812 214.335938 C 217.550781 214.125 217.550781 213.789062 217.761719 213.582031 C 218.917969 212.433594 219.160156 210.664062 219.164062 209.382812 C 219.164062 208.019531 218.777344 206.539062 217.984375 204.863281 C 217.058594 202.90625 215.988281 201.777344 214.710938 201.398438 C 213.269531 200.976562 211.777344 201.558594 210.203125 202.175781 C 209.597656 202.410156 208.96875 202.65625 208.339844 202.839844 C 205.945312 203.546875 203.441406 203.363281 201.019531 203.1875 C 199.152344 203.046875 197.21875 202.90625 195.386719 203.1875 C 193.457031 203.484375 191.578125 204.257812 189.761719 205.007812 C 187.953125 205.757812 186.085938 206.527344 184.105469 206.863281 C 180.632812 207.457031 176.804688 206.769531 172.058594 204.703125 L 171.695312 204.546875 C 170.019531 203.8125 168.28125 203.050781 166.578125 203.316406 C 164.71875 203.605469 163.027344 205.253906 162.46875 207.324219 C 161.933594 209.296875 162.148438 211.484375 163.070312 213.476562 C 163.195312 213.742188 163.078125 214.058594 162.8125 214.183594 C 162.542969 214.308594 162.226562 214.191406 162.101562 213.925781 C 161.074219 211.703125 160.835938 209.261719 161.4375 207.046875 C 162.117188 204.542969 164.113281 202.621094 166.414062 202.261719 C 168.425781 201.949219 170.304688 202.773438 172.121094 203.570312 L 172.480469 203.726562 C 177.027344 205.707031 180.664062 206.367188 183.921875 205.8125 C 185.785156 205.496094 187.597656 204.75 189.351562 204.023438 C 191.226562 203.25 193.164062 202.449219 195.226562 202.132812 C 197.175781 201.835938 199.167969 201.980469 201.097656 202.121094 C 203.53125 202.300781 205.828125 202.46875 208.039062 201.816406 C 208.621094 201.644531 209.226562 201.410156 209.8125 201.179688 C 211.484375 200.527344 213.21875 199.851562 215.007812 200.378906 C 216.597656 200.84375 217.886719 202.160156 218.945312 204.40625 C 219.808594 206.230469 220.230469 207.859375 220.226562 209.386719 C 220.226562 210.871094 219.925781 212.9375 218.511719 214.339844 C 218.40625 214.441406 218.273438 214.496094 218.136719 214.496094 Z M 218.136719 214.492188 " fill-opacity="1" fill-rule="nonzero"/><path fill="#2d5a66" d="M 166.667969 203.140625 C 166.378906 203.140625 166.140625 202.910156 166.136719 202.621094 C 166.113281 201.703125 166.609375 200.757812 167.457031 200.09375 C 168.199219 199.515625 169.082031 199.210938 169.851562 198.972656 C 169.949219 198.945312 170.042969 198.914062 170.140625 198.886719 C 168.800781 196.058594 169.476562 192.394531 171.808594 190.28125 C 173.386719 188.851562 175.660156 188.039062 178.757812 187.796875 C 179.535156 187.734375 180.328125 187.707031 181.089844 187.675781 C 182.660156 187.617188 184.285156 187.558594 185.816406 187.214844 C 187.023438 186.941406 189.945312 186.039062 191.042969 183.484375 C 191.929688 181.425781 191.265625 178.9375 190.6875 177.242188 C 190.558594 176.855469 190.414062 176.460938 190.277344 176.082031 C 189.636719 174.304688 188.972656 172.464844 188.992188 170.519531 C 188.996094 170.253906 189.191406 170.03125 189.453125 169.996094 C 189.714844 169.960938 189.964844 170.121094 190.039062 170.375 C 191.023438 173.769531 193.320312 176.765625 196.347656 178.589844 C 196.828125 178.882812 197.34375 179.152344 197.839844 179.414062 C 198.589844 179.8125 199.371094 180.21875 200.09375 180.726562 C 201.136719 181.457031 202.449219 182.699219 202.761719 184.441406 C 203.023438 185.929688 202.523438 187.554688 201.269531 189.277344 C 198.394531 193.210938 193.445312 195.867188 186.554688 197.167969 C 184.515625 197.554688 182.425781 197.824219 180.402344 198.082031 C 176.996094 198.519531 173.476562 198.972656 170.164062 199.996094 C 169.488281 200.203125 168.714844 200.464844 168.117188 200.9375 C 167.53125 201.394531 167.1875 202.015625 167.203125 202.597656 C 167.207031 202.894531 166.976562 203.136719 166.679688 203.144531 C 166.675781 203.144531 166.671875 203.144531 166.667969 203.144531 Z M 190.984375 174.882812 C 191.082031 175.164062 191.183594 175.441406 191.28125 175.71875 C 191.421875 176.105469 191.5625 176.503906 191.699219 176.894531 C 192.332031 178.757812 193.058594 181.507812 192.023438 183.90625 C 191.113281 186.019531 188.9375 187.605469 186.050781 188.253906 C 184.421875 188.621094 182.75 188.683594 181.128906 188.742188 C 180.378906 188.773438 179.597656 188.800781 178.84375 188.859375 C 175.988281 189.085938 173.921875 189.808594 172.527344 191.070312 C 170.488281 192.917969 169.933594 196.15625 171.1875 198.59375 C 174.175781 197.804688 177.269531 197.40625 180.269531 197.023438 C 182.273438 196.765625 184.347656 196.5 186.355469 196.117188 C 192.972656 194.867188 197.703125 192.355469 200.40625 188.644531 C 201.484375 187.171875 201.921875 185.816406 201.710938 184.625 C 201.464844 183.242188 200.363281 182.214844 199.484375 181.597656 C 198.816406 181.132812 198.101562 180.753906 197.34375 180.355469 C 196.835938 180.089844 196.308594 179.808594 195.796875 179.503906 C 193.878906 178.34375 192.234375 176.746094 190.988281 174.886719 Z M 190.984375 174.882812 " fill-opacity="1" fill-rule="nonzero"/><path fill="#2d5a66" d="M 177.109375 189.011719 C 176.886719 189.011719 176.675781 188.867188 176.601562 188.640625 C 175.851562 186.285156 176.5 183.414062 178.34375 180.964844 C 179.726562 179.128906 181.550781 177.703125 183.316406 176.324219 C 183.578125 176.121094 183.835938 175.917969 184.09375 175.714844 C 185.910156 174.28125 187.941406 172.554688 189.074219 170.28125 C 189.207031 170.015625 189.527344 169.90625 189.792969 170.039062 C 190.054688 170.171875 190.164062 170.492188 190.03125 170.753906 C 188.800781 173.230469 186.664062 175.046875 184.753906 176.554688 C 184.496094 176.757812 184.234375 176.960938 183.976562 177.164062 C 182.265625 178.5 180.496094 179.882812 179.199219 181.609375 C 177.5625 183.78125 176.972656 186.289062 177.621094 188.316406 C 177.710938 188.597656 177.554688 188.898438 177.273438 188.988281 C 177.21875 189.003906 177.164062 189.011719 177.113281 189.011719 Z M 177.109375 189.011719 " fill-opacity="1" fill-rule="nonzero"/><path fill="#2d5a66" d="M 195.679688 203.140625 C 195.457031 203.140625 195.253906 203.003906 195.175781 202.785156 C 195.078125 202.507812 195.222656 202.203125 195.5 202.105469 C 198.5 201.039062 201.679688 199.355469 204.421875 197.859375 C 206.699219 196.613281 209.417969 194.84375 210.234375 192.15625 C 211.199219 188.984375 209.128906 185.535156 206.582031 183.765625 C 205.21875 182.816406 203.652344 182.421875 201.996094 182.007812 C 200.300781 181.585938 198.546875 181.144531 196.828125 180.082031 C 196.578125 179.929688 196.5 179.597656 196.65625 179.347656 C 196.8125 179.097656 197.140625 179.019531 197.390625 179.175781 C 198.964844 180.152344 200.636719 180.570312 202.253906 180.972656 C 203.929688 181.394531 205.667969 181.828125 207.191406 182.890625 C 209.964844 184.820312 212.421875 188.640625 211.253906 192.46875 C 210.324219 195.527344 207.386719 197.457031 204.933594 198.796875 C 202.152344 200.3125 198.929688 202.019531 195.855469 203.113281 C 195.796875 203.132812 195.734375 203.144531 195.675781 203.144531 Z M 195.679688 203.140625 " fill-opacity="1" fill-rule="nonzero"/><path fill="#2d5a66" d="M 214.234375 201.257812 C 214.128906 201.257812 214.019531 201.226562 213.925781 201.15625 C 213.6875 200.984375 213.632812 200.652344 213.804688 200.414062 C 214.800781 199.027344 215.078125 197.164062 214.53125 195.550781 C 213.984375 193.933594 212.628906 192.625 210.996094 192.132812 C 210.710938 192.046875 210.554688 191.75 210.640625 191.46875 C 210.722656 191.183594 211.023438 191.027344 211.304688 191.113281 C 213.261719 191.703125 214.886719 193.269531 215.542969 195.207031 C 216.199219 197.144531 215.863281 199.378906 214.671875 201.039062 C 214.566406 201.183594 214.402344 201.257812 214.238281 201.257812 Z M 214.234375 201.257812 " fill-opacity="1" fill-rule="nonzero"/><path fill="#2d5a66" d="M 192.140625 234.816406 C 192.140625 234.816406 192.136719 234.816406 192.132812 234.816406 C 191.839844 234.8125 191.605469 234.570312 191.609375 234.277344 L 191.859375 214.011719 C 191.863281 213.71875 192.101562 213.484375 192.394531 213.484375 C 192.398438 213.484375 192.398438 213.484375 192.402344 213.484375 C 192.695312 213.488281 192.933594 213.730469 192.929688 214.023438 L 192.675781 234.289062 C 192.671875 234.582031 192.433594 234.816406 192.140625 234.816406 Z M 192.140625 234.816406 " fill-opacity="1" fill-rule="nonzero"/><path fill="#2d5a66" d="M 198.707031 234.503906 C 198.675781 234.503906 198.644531 234.5 198.613281 234.496094 C 198.320312 234.445312 198.128906 234.167969 198.179688 233.878906 L 201.703125 213.773438 C 201.753906 213.484375 202.03125 213.289062 202.320312 213.339844 C 202.613281 213.390625 202.804688 213.667969 202.753906 213.957031 L 199.230469 234.0625 C 199.183594 234.320312 198.960938 234.503906 198.707031 234.503906 Z M 198.707031 234.503906 " fill-opacity="1" fill-rule="nonzero"/><path fill="#2d5a66" d="M 206.597656 234.832031 C 206.550781 234.832031 206.507812 234.824219 206.460938 234.8125 C 206.175781 234.738281 206.007812 234.441406 206.082031 234.160156 L 211.570312 213.921875 C 211.648438 213.636719 211.941406 213.46875 212.222656 213.546875 C 212.507812 213.621094 212.675781 213.914062 212.601562 214.199219 L 207.113281 234.4375 C 207.046875 234.675781 206.835938 234.832031 206.597656 234.832031 Z M 206.597656 234.832031 " fill-opacity="1" fill-rule="nonzero"/><path fill="#2d5a66" d="M 185.265625 234.597656 C 185.011719 234.597656 184.785156 234.417969 184.742188 234.15625 L 181.214844 214.054688 C 181.164062 213.765625 181.359375 213.488281 181.648438 213.4375 C 181.9375 213.386719 182.214844 213.578125 182.265625 213.871094 L 185.792969 233.972656 C 185.84375 234.265625 185.648438 234.539062 185.359375 234.589844 C 185.328125 234.597656 185.296875 234.597656 185.265625 234.597656 Z M 185.265625 234.597656 " fill-opacity="1" fill-rule="nonzero"/><path fill="#2d5a66" d="M 177.304688 234.503906 C 177.070312 234.503906 176.855469 234.347656 176.792969 234.109375 L 171.371094 214.296875 C 171.292969 214.011719 171.460938 213.71875 171.742188 213.640625 C 172.027344 213.5625 172.320312 213.730469 172.398438 214.015625 L 177.820312 233.828125 C 177.898438 234.113281 177.730469 234.40625 177.445312 234.484375 C 177.398438 234.496094 177.351562 234.503906 177.304688 234.503906 Z M 177.304688 234.503906 " fill-opacity="1" fill-rule="nonzero"/><path fill="#2d5a66" d="M 190.894531 157.730469 C 188.882812 157.730469 187.25 156.097656 187.25 154.085938 C 187.25 152.074219 188.882812 150.441406 190.894531 150.441406 C 192.90625 150.441406 194.539062 152.074219 194.539062 154.085938 C 194.539062 156.097656 192.90625 157.730469 190.894531 157.730469 Z M 190.894531 151.507812 C 189.472656 151.507812 188.316406 152.664062 188.316406 154.085938 C 188.316406 155.507812 189.472656 156.664062 190.894531 156.664062 C 192.316406 156.664062 193.472656 155.507812 193.472656 154.085938 C 193.472656 152.664062 192.316406 151.507812 190.894531 151.507812 Z M 190.894531 151.507812 " fill-opacity="1" fill-rule="nonzero"/><path fill="#2d5a66" d="M 190.691406 160.027344 C 190.394531 160.027344 190.15625 159.789062 190.15625 159.492188 L 190.15625 157.421875 C 190.15625 157.125 190.394531 156.886719 190.691406 156.886719 C 190.984375 156.886719 191.222656 157.125 191.222656 157.421875 L 191.222656 159.492188 C 191.222656 159.789062 190.984375 160.027344 190.691406 160.027344 Z M 190.691406 160.027344 " fill-opacity="1" fill-rule="nonzero"/><path fill="#2d5a66" d="M 190.691406 254.113281 C 190.394531 254.113281 190.15625 253.875 190.15625 253.582031 L 190.15625 246.820312 C 190.15625 246.527344 190.394531 246.289062 190.691406 246.289062 C 190.984375 246.289062 191.222656 246.527344 191.222656 246.820312 L 191.222656 253.582031 C 191.222656 253.875 190.984375 254.113281 190.691406 254.113281 Z M 190.691406 254.113281 " fill-opacity="1" fill-rule="nonzero"/><path fill="#2d5a66" d="M 196.628906 152.484375 C 196.417969 152.484375 196.210938 152.460938 196.011719 152.414062 C 195.082031 152.191406 194.257812 151.4375 193.804688 150.394531 C 193.425781 149.511719 193.328125 148.546875 193.242188 147.691406 C 193.1875 147.152344 193.074219 146.03125 193.816406 145.367188 C 194.363281 144.871094 195.097656 144.859375 195.742188 144.882812 C 196.796875 144.929688 197.820312 145.003906 198.75 145.460938 C 199.707031 145.933594 200.628906 146.972656 200.539062 148.230469 C 200.488281 148.902344 200.09375 150.066406 199.351562 151.03125 C 198.636719 151.953125 197.617188 152.488281 196.628906 152.488281 Z M 195.398438 145.945312 C 195.050781 145.945312 194.726562 145.984375 194.53125 146.15625 C 194.230469 146.425781 194.246094 147.003906 194.304688 147.585938 C 194.386719 148.398438 194.46875 149.238281 194.785156 149.96875 C 195.105469 150.703125 195.65625 151.230469 196.257812 151.375 C 197.117188 151.582031 198.007812 151.023438 198.503906 150.375 C 199.082031 149.628906 199.433594 148.671875 199.472656 148.148438 C 199.527344 147.390625 198.890625 146.722656 198.277344 146.417969 C 197.535156 146.050781 196.667969 145.988281 195.695312 145.949219 C 195.597656 145.945312 195.496094 145.941406 195.398438 145.941406 Z M 195.398438 145.945312 " fill-opacity="1" fill-rule="nonzero"/><path fill="#2d5a66" d="M 184.101562 157.160156 C 183.917969 157.160156 183.742188 157.0625 183.644531 156.898438 C 182.65625 155.242188 182.023438 153.265625 181.714844 150.859375 C 181.695312 150.730469 181.730469 150.597656 181.804688 150.488281 C 182.011719 150.1875 182.34375 149.992188 182.734375 149.945312 C 183.195312 149.890625 183.679688 150.039062 184.023438 150.347656 C 184.582031 150.84375 184.753906 151.589844 184.835938 152.109375 C 185.09375 153.78125 184.859375 155.453125 184.628906 156.722656 C 184.585938 156.941406 184.414062 157.113281 184.195312 157.152344 C 184.164062 157.160156 184.132812 157.160156 184.101562 157.160156 Z M 182.8125 151.015625 C 183.015625 152.464844 183.351562 153.742188 183.820312 154.871094 C 183.898438 154.042969 183.917969 153.152344 183.78125 152.273438 C 183.726562 151.917969 183.617188 151.410156 183.316406 151.144531 C 183.199219 151.042969 183.019531 150.984375 182.863281 151.003906 C 182.847656 151.007812 182.828125 151.007812 182.8125 151.015625 Z M 182.8125 151.015625 " fill-opacity="1" fill-rule="nonzero"/><path fill="#2d5a66" d="M 139.351562 154.820312 C 139.199219 154.820312 139.046875 154.753906 138.941406 154.628906 C 138.75 154.402344 138.78125 154.066406 139.007812 153.878906 C 140.476562 152.644531 141.804688 151.238281 142.949219 149.699219 C 143.257812 149.28125 143.539062 148.84375 143.476562 148.453125 C 143.410156 148 142.882812 147.636719 142.394531 147.332031 C 142.144531 147.175781 142.070312 146.847656 142.226562 146.597656 C 142.382812 146.347656 142.710938 146.273438 142.960938 146.429688 C 143.457031 146.738281 144.382812 147.316406 144.53125 148.289062 C 144.652344 149.070312 144.230469 149.761719 143.804688 150.335938 C 142.609375 151.941406 141.226562 153.410156 139.691406 154.695312 C 139.589844 154.777344 139.46875 154.820312 139.347656 154.820312 Z M 139.351562 154.820312 " fill-opacity="1" fill-rule="nonzero"/><path fill="#2d5a66" d="M 131.453125 132.089844 C 131.355469 132.089844 131.257812 132.0625 131.171875 132.011719 C 131.019531 131.917969 130.925781 131.753906 130.921875 131.574219 C 130.878906 130.382812 131.195312 129.484375 131.914062 128.75 C 132.488281 128.160156 133.203125 127.746094 133.824219 127.402344 C 134.171875 127.214844 134.886719 126.820312 135.601562 127.082031 C 136.039062 127.246094 136.390625 127.636719 136.542969 128.132812 C 136.792969 128.949219 136.464844 129.925781 135.722656 130.5625 C 135.085938 131.113281 134.292969 131.355469 133.597656 131.519531 C 133.445312 131.554688 133.292969 131.585938 133.140625 131.621094 C 132.617188 131.734375 132.121094 131.84375 131.671875 132.042969 C 131.601562 132.074219 131.527344 132.089844 131.453125 132.089844 Z M 135.097656 128.0625 C 134.878906 128.0625 134.597656 128.199219 134.339844 128.339844 C 133.757812 128.65625 133.152344 129.011719 132.679688 129.496094 C 132.40625 129.773438 132.132812 130.144531 132.027344 130.789062 C 132.324219 130.707031 132.621094 130.640625 132.914062 130.578125 C 133.058594 130.546875 133.207031 130.515625 133.351562 130.480469 C 133.921875 130.347656 134.5625 130.15625 135.027344 129.757812 C 135.445312 129.394531 135.648438 128.855469 135.523438 128.445312 C 135.46875 128.269531 135.355469 128.128906 135.234375 128.085938 C 135.191406 128.070312 135.144531 128.0625 135.097656 128.0625 Z M 135.097656 128.0625 " fill-opacity="1" fill-rule="nonzero"/><path fill="#2d5a66" d="M 144.855469 109.847656 C 144.578125 109.847656 144.316406 109.832031 144.070312 109.820312 C 143.773438 109.800781 143.550781 109.550781 143.566406 109.253906 C 143.582031 108.960938 143.835938 108.734375 144.128906 108.753906 C 144.789062 108.789062 145.535156 108.832031 146.117188 108.558594 C 146.566406 108.347656 146.953125 107.808594 146.789062 107.378906 C 146.6875 107.101562 146.824219 106.792969 147.101562 106.691406 C 147.378906 106.585938 147.683594 106.726562 147.789062 107 C 148.175781 108.023438 147.457031 109.105469 146.574219 109.523438 C 146.019531 109.785156 145.417969 109.847656 144.855469 109.847656 Z M 144.855469 109.847656 " fill-opacity="1" fill-rule="nonzero"/><path fill="#2d5a66" d="M 235.089844 171.246094 C 234.820312 171.246094 234.597656 171.046875 234.558594 170.785156 L 234.171875 167.972656 C 233.917969 166.117188 232.515625 164.632812 230.765625 164.363281 L 228.097656 163.957031 C 227.839844 163.917969 227.648438 163.691406 227.648438 163.429688 C 227.648438 163.164062 227.839844 162.941406 228.097656 162.902344 L 230.769531 162.492188 C 232.519531 162.226562 233.917969 160.742188 234.171875 158.886719 L 234.558594 156.074219 C 234.597656 155.808594 234.820312 155.613281 235.089844 155.613281 C 235.355469 155.613281 235.582031 155.808594 235.617188 156.074219 L 236.003906 158.886719 C 236.257812 160.742188 237.660156 162.226562 239.410156 162.492188 L 242.078125 162.902344 C 242.335938 162.941406 242.53125 163.164062 242.53125 163.429688 C 242.53125 163.691406 242.335938 163.917969 242.078125 163.957031 L 239.410156 164.363281 C 237.660156 164.632812 236.257812 166.117188 236.003906 167.972656 L 235.617188 170.785156 C 235.582031 171.046875 235.355469 171.246094 235.089844 171.246094 Z M 231.484375 163.425781 C 233.214844 163.90625 234.597656 165.332031 235.089844 167.132812 C 235.578125 165.332031 236.960938 163.90625 238.691406 163.425781 C 236.960938 162.949219 235.578125 161.523438 235.089844 159.722656 C 234.597656 161.523438 233.214844 162.949219 231.484375 163.425781 Z M 231.484375 163.425781 " fill-opacity="1" fill-rule="nonzero"/><path fill="#2d5a66" d="M 137.226562 195.546875 C 136.960938 195.546875 136.734375 195.351562 136.699219 195.085938 L 136.308594 192.273438 C 136.054688 190.417969 134.65625 188.933594 132.90625 188.664062 L 130.238281 188.257812 C 129.976562 188.21875 129.785156 187.992188 129.785156 187.730469 C 129.785156 187.464844 129.976562 187.242188 130.238281 187.203125 L 132.90625 186.792969 C 134.65625 186.527344 136.054688 185.042969 136.3125 183.1875 L 136.699219 180.375 C 136.734375 180.113281 136.960938 179.914062 137.226562 179.914062 C 137.492188 179.914062 137.71875 180.113281 137.753906 180.375 L 138.140625 183.1875 C 138.398438 185.042969 139.796875 186.527344 141.546875 186.792969 L 144.214844 187.203125 C 144.476562 187.242188 144.667969 187.464844 144.667969 187.730469 C 144.667969 187.992188 144.476562 188.21875 144.214844 188.257812 L 141.546875 188.664062 C 139.796875 188.933594 138.398438 190.417969 138.144531 192.273438 L 137.753906 195.085938 C 137.71875 195.347656 137.492188 195.546875 137.226562 195.546875 Z M 133.625 187.730469 C 135.355469 188.207031 136.738281 189.632812 137.226562 191.433594 C 137.71875 189.632812 139.101562 188.207031 140.832031 187.730469 C 139.101562 187.25 137.71875 185.824219 137.226562 184.023438 C 136.738281 185.824219 135.355469 187.25 133.625 187.730469 Z M 133.625 187.730469 " fill-opacity="1" fill-rule="nonzero"/><path fill="#2d5a66" d="M 228.101562 131.789062 C 227.839844 131.789062 227.617188 131.597656 227.574219 131.335938 L 226.945312 127.238281 C 226.511719 124.425781 224.117188 122.175781 221.117188 121.765625 L 216.765625 121.171875 C 216.503906 121.132812 216.304688 120.910156 216.304688 120.644531 C 216.304688 120.375 216.503906 120.152344 216.765625 120.113281 L 221.117188 119.519531 C 224.117188 119.109375 226.511719 116.859375 226.945312 114.046875 L 227.574219 109.949219 C 227.617188 109.691406 227.839844 109.496094 228.101562 109.496094 C 228.367188 109.496094 228.589844 109.691406 228.628906 109.949219 L 229.261719 114.046875 C 229.695312 116.859375 232.089844 119.109375 235.085938 119.519531 L 239.4375 120.113281 C 239.703125 120.152344 239.898438 120.375 239.898438 120.644531 C 239.898438 120.910156 239.703125 121.132812 239.4375 121.171875 L 235.085938 121.765625 C 232.089844 122.175781 229.695312 124.425781 229.261719 127.238281 L 228.628906 131.335938 C 228.589844 131.597656 228.363281 131.789062 228.101562 131.789062 Z M 220.777344 120.644531 L 221.261719 120.710938 C 224.722656 121.183594 227.496094 123.800781 228 127.074219 L 228.101562 127.75 L 228.207031 127.074219 C 228.710938 123.800781 231.484375 121.183594 234.945312 120.710938 L 235.429688 120.644531 L 234.945312 120.574219 C 231.480469 120.101562 228.710938 117.484375 228.207031 114.210938 L 228.105469 113.535156 L 228 114.210938 C 227.496094 117.484375 224.726562 120.101562 221.265625 120.574219 Z M 220.777344 120.644531 " fill-opacity="1" fill-rule="nonzero"/><path fill="#2d5a66" d="M 185.34375 157.847656 C 184.257812 157.847656 183.308594 157.078125 182.820312 156.253906 C 182.304688 155.371094 182.152344 154.382812 182.003906 153.429688 L 181.96875 153.195312 C 181.125 147.847656 179.082031 142.683594 177.109375 137.6875 C 176.449219 136.015625 175.765625 134.289062 175.136719 132.574219 C 172.914062 126.53125 170.601562 118.601562 172.4375 110.886719 C 172.507812 110.601562 172.792969 110.421875 173.082031 110.492188 C 173.367188 110.558594 173.546875 110.847656 173.476562 111.132812 C 171.707031 118.570312 173.96875 126.304688 176.136719 132.207031 C 176.761719 133.90625 177.445312 135.628906 178.101562 137.296875 C 180.097656 142.34375 182.160156 147.566406 183.019531 153.027344 L 183.058594 153.265625 C 183.199219 154.160156 183.328125 155.007812 183.742188 155.710938 C 184.125 156.363281 184.898438 156.925781 185.636719 156.746094 C 186.347656 156.566406 186.867188 155.78125 187.175781 154.402344 C 188.1875 149.90625 187.761719 145.164062 187.347656 140.578125 C 187.210938 139.078125 187.070312 137.527344 186.984375 136.003906 C 186.636719 129.988281 187.070312 123.941406 188.277344 118.035156 C 188.496094 116.96875 188.824219 115.90625 189.753906 115.355469 C 191 114.613281 192.570312 115.300781 193.308594 116.367188 C 194.011719 117.378906 194.136719 118.613281 194.167969 119.792969 C 194.277344 123.804688 193.519531 127.867188 192.785156 131.796875 C 191.667969 137.796875 190.609375 143.464844 192.347656 148.988281 C 192.980469 151.011719 194.425781 152.984375 196.222656 152.832031 C 197.652344 152.714844 198.632812 151.316406 199.042969 150.15625 C 199.347656 149.296875 199.476562 148.394531 199.617188 147.4375 C 199.707031 146.828125 199.796875 146.203125 199.9375 145.585938 C 200.539062 142.917969 201.996094 140.582031 203.40625 138.320312 C 203.953125 137.445312 204.519531 136.539062 205.019531 135.632812 C 207.871094 130.480469 209.117188 124.558594 210.238281 118.441406 L 210.421875 117.433594 C 211.449219 111.820312 212.507812 106.011719 214.957031 100.75 C 217.898438 94.429688 222.660156 89.847656 228.019531 88.175781 C 228.300781 88.089844 228.601562 88.246094 228.6875 88.527344 C 228.777344 88.808594 228.621094 89.105469 228.339844 89.195312 C 223.265625 90.777344 218.742188 95.152344 215.925781 101.199219 C 213.535156 106.335938 212.488281 112.078125 211.472656 117.625 L 211.289062 118.632812 C 210.152344 124.839844 208.886719 130.855469 205.953125 136.148438 C 205.4375 137.078125 204.867188 137.996094 204.3125 138.882812 C 202.886719 141.167969 201.542969 143.328125 200.980469 145.820312 C 200.847656 146.394531 200.761719 147.003906 200.675781 147.589844 C 200.535156 148.554688 200.386719 149.554688 200.050781 150.511719 C 199.539062 151.972656 198.25 153.734375 196.3125 153.898438 C 193.765625 154.109375 192.039062 151.558594 191.332031 149.3125 C 189.515625 143.53125 190.644531 137.46875 191.738281 131.601562 C 192.460938 127.726562 193.207031 123.71875 193.101562 119.824219 C 193.074219 118.808594 192.976562 117.761719 192.433594 116.980469 C 191.972656 116.316406 190.984375 115.863281 190.300781 116.273438 C 189.699219 116.628906 189.480469 117.480469 189.324219 118.25 C 188.136719 124.066406 187.707031 130.019531 188.050781 135.945312 C 188.136719 137.449219 188.277344 138.992188 188.410156 140.484375 C 188.832031 145.152344 189.265625 149.980469 188.21875 154.636719 C 187.808594 156.441406 187.027344 157.5 185.894531 157.78125 C 185.707031 157.828125 185.523438 157.847656 185.34375 157.847656 Z M 185.34375 157.847656 " fill-opacity="1" fill-rule="nonzero"/><path fill="#2d5a66" d="M 142.949219 157.304688 C 141.621094 157.304688 140.253906 156.851562 139.371094 155.703125 C 138.429688 154.476562 138.296875 152.941406 138.976562 151.144531 C 139.449219 149.890625 140.324219 148.5 141.582031 147.007812 C 149.535156 137.554688 156.105469 127.039062 161.117188 115.746094 C 161.597656 114.664062 162.082031 113.542969 162.546875 112.460938 C 165.46875 105.65625 168.492188 98.621094 174.214844 93.859375 C 176.976562 91.5625 180.230469 89.9375 183.371094 88.367188 C 184.835938 87.636719 186.351562 86.878906 187.792969 86.070312 C 193.261719 82.980469 198.148438 78.789062 202.871094 74.738281 C 204.320312 73.496094 205.820312 72.210938 207.316406 70.976562 C 213.257812 66.0625 220.492188 60.804688 229.074219 59.042969 C 229.363281 58.984375 229.644531 59.171875 229.703125 59.460938 C 229.765625 59.75 229.578125 60.03125 229.289062 60.089844 C 220.933594 61.800781 213.835938 66.96875 207.996094 71.796875 C 206.507812 73.027344 205.011719 74.308594 203.566406 75.550781 C 198.804688 79.632812 193.878906 83.859375 188.316406 87 C 186.851562 87.824219 185.324219 88.585938 183.847656 89.324219 C 180.757812 90.867188 177.5625 92.464844 174.898438 94.683594 C 169.371094 99.28125 166.398438 106.195312 163.527344 112.882812 C 163.058594 113.96875 162.578125 115.09375 162.09375 116.183594 C 157.042969 127.566406 150.414062 138.167969 142.398438 147.695312 C 140.527344 149.917969 138.632812 152.996094 140.214844 155.054688 C 141.195312 156.328125 143.152344 156.476562 144.578125 155.960938 C 146.140625 155.398438 147.425781 154.183594 148.71875 152.882812 C 157.449219 144.09375 165.644531 133.550781 172.414062 122.398438 C 172.566406 122.144531 172.894531 122.066406 173.144531 122.21875 C 173.398438 122.371094 173.476562 122.699219 173.324219 122.949219 C 166.511719 134.175781 158.265625 144.785156 149.476562 153.636719 C 148.09375 155.027344 146.710938 156.324219 144.941406 156.964844 C 144.339844 157.179688 143.648438 157.308594 142.949219 157.308594 Z M 142.949219 157.304688 " fill-opacity="1" fill-rule="nonzero"/><path fill="#2d5a66" d="M 134.886719 134.230469 C 134.214844 134.230469 133.507812 134.136719 132.855469 133.953125 C 131.753906 133.644531 130.902344 132.867188 130.632812 131.921875 C 130.355469 130.941406 130.703125 129.785156 131.539062 128.90625 C 132.207031 128.207031 133.046875 127.765625 133.859375 127.335938 L 133.949219 127.289062 C 146.195312 120.835938 157.351562 111.132812 167.734375 101.75 C 167.953125 101.550781 168.289062 101.566406 168.484375 101.785156 C 168.683594 102.003906 168.664062 102.339844 168.449219 102.539062 C 158.019531 111.96875 146.800781 121.722656 134.445312 128.234375 L 134.355469 128.28125 C 133.585938 128.6875 132.859375 129.070312 132.3125 129.644531 C 131.742188 130.242188 131.488281 131.019531 131.660156 131.628906 C 131.828125 132.210938 132.410156 132.71875 133.144531 132.925781 C 133.941406 133.148438 134.835938 133.21875 135.59375 133.117188 C 144.375 131.941406 151.890625 126.328125 158.519531 121.371094 C 158.757812 121.195312 159.089844 121.246094 159.269531 121.480469 C 159.445312 121.714844 159.394531 122.050781 159.160156 122.226562 C 152.425781 127.261719 144.792969 132.964844 135.734375 134.175781 C 135.464844 134.214844 135.175781 134.230469 134.886719 134.230469 Z M 134.886719 134.230469 " fill-opacity="1" fill-rule="nonzero"/><path fill="#2d5a66" d="M 148.933594 111.675781 C 148.355469 111.675781 147.777344 111.660156 147.203125 111.628906 C 147.09375 111.625 146.972656 111.621094 146.839844 111.613281 C 146 111.582031 144.847656 111.539062 144.195312 111.136719 C 143.410156 110.65625 142.789062 109.644531 143.125 108.640625 C 143.40625 107.804688 144.613281 107.320312 145.824219 106.898438 L 146.003906 106.832031 C 148.308594 106.011719 150.792969 105.28125 153.417969 104.507812 C 160.230469 102.5 167.277344 100.425781 171.351562 96.667969 C 171.566406 96.46875 171.902344 96.480469 172.105469 96.699219 C 172.304688 96.914062 172.289062 97.25 172.074219 97.453125 C 167.816406 101.378906 160.652344 103.488281 153.722656 105.53125 C 151.109375 106.300781 148.640625 107.027344 146.363281 107.835938 L 146.175781 107.902344 C 144.914062 108.34375 144.230469 108.707031 144.136719 108.980469 C 143.984375 109.433594 144.328125 109.96875 144.75 110.226562 C 145.167969 110.484375 146.242188 110.523438 146.882812 110.550781 C 147.019531 110.554688 147.148438 110.558594 147.261719 110.566406 C 151.578125 110.796875 156.003906 110.125 160.054688 108.613281 C 160.332031 108.511719 160.640625 108.652344 160.742188 108.929688 C 160.847656 109.203125 160.707031 109.511719 160.429688 109.613281 C 156.78125 110.972656 152.839844 111.679688 148.933594 111.679688 Z M 148.933594 111.675781 " fill-opacity="1" fill-rule="nonzero"/><g fill="#2d5a66" fill-opacity="1"><g transform="translate(92.390623, 288.621953)"><g><path d="M 23.515625 -10.3125 L 14.3125 -10.3125 L 14.3125 -18.984375 L 23.515625 -18.984375 Z M 11.609375 -21.53125 L 11.609375 -7.796875 L 26.296875 -7.796875 L 26.296875 -21.53125 Z M 6.125 -1.828125 L 6.125 -27.4375 L 31.8125 -27.4375 L 31.8125 -1.828125 Z M 3.265625 -30.25 L 3.265625 2.890625 L 6.125 2.890625 L 6.125 0.84375 L 31.8125 0.84375 L 31.8125 2.890625 L 34.8125 2.890625 L 34.8125 -30.25 Z M 3.265625 -30.25 "/></g></g></g><g fill="#2d5a66" fill-opacity="1"><g transform="translate(130.429707, 288.621953)"><g><path d="M 13.921875 -9.546875 L 21.5 -9.546875 L 21.5 -12.0625 L 13.921875 -12.0625 L 13.921875 -16.171875 L 11.21875 -16.171875 L 11.21875 -12.0625 L 3.796875 -12.0625 L 3.796875 -9.546875 L 11.21875 -9.546875 L 11.21875 -3.15625 C 7.90625 -2.59375 4.828125 -2.015625 2.515625 -1.640625 L 3.125 1.03125 C 8.109375 0.03125 15.296875 -1.328125 22.03125 -2.625 L 21.84375 -5.09375 C 19.21875 -4.609375 16.515625 -4.109375 13.921875 -3.609375 Z M 2.8125 -26.828125 L 8.828125 -26.828125 C 7.609375 -24.125 6.09375 -21.765625 5.515625 -21 C 4.875 -20.09375 4.296875 -19.4375 3.6875 -19.328125 C 4.03125 -18.609375 4.484375 -17.265625 4.640625 -16.671875 C 5.5625 -17.078125 6.921875 -17.234375 18.75 -18.375 C 19.328125 -17.5 19.78125 -16.671875 20.09375 -16.015625 L 22.25 -17.421875 C 21.15625 -19.59375 18.640625 -23.015625 16.515625 -25.5625 L 14.5 -24.34375 C 15.40625 -23.203125 16.390625 -21.921875 17.3125 -20.578125 L 7.609375 -19.75 C 9.125 -21.765625 10.6875 -24.3125 11.984375 -26.828125 L 22.25 -26.828125 L 22.25 -29.328125 L 2.8125 -29.328125 Z M 27.015625 -28.53125 L 24.34375 -28.53125 L 24.34375 -5.671875 L 27.015625 -5.671875 Z M 31.8125 -31.203125 L 31.8125 -1.484375 C 31.8125 -0.84375 31.65625 -0.6875 31.015625 -0.640625 C 30.359375 -0.609375 28.265625 -0.609375 26.0625 -0.6875 C 26.484375 0.078125 26.96875 1.375 27.09375 2.09375 C 29.828125 2.09375 31.84375 2.015625 33.03125 1.5625 C 34.171875 1.140625 34.578125 0.265625 34.578125 -1.515625 L 34.578125 -31.203125 Z M 31.8125 -31.203125 "/></g></g></g><g fill="#2d5a66" fill-opacity="1"><g transform="translate(168.46879, 288.621953)"><g><path d="M 9.546875 -28.5 L 28.578125 -28.5 L 28.578125 -19.140625 L 31.34375 -19.140625 L 31.34375 -30.59375 L 6.84375 -30.59375 L 6.84375 -19.140625 L 9.546875 -19.140625 Z M 26.59375 -26.296875 L 11.21875 -26.296875 L 11.21875 -24.421875 L 26.59375 -24.421875 Z M 26.59375 -20.390625 L 26.59375 -22.25 L 11.265625 -22.25 L 11.265625 -20.390625 Z M 15.1875 -12.328125 L 8.1875 -12.328125 L 8.1875 -14.921875 L 15.1875 -14.921875 Z M 8.1875 -5.484375 L 15.1875 -5.484375 L 15.1875 -3.203125 C 12.78125 -2.890625 10.390625 -2.625 8.1875 -2.359375 Z M 15.1875 -7.578125 L 8.1875 -7.578125 L 8.1875 -10.203125 L 15.1875 -10.203125 Z M 35.609375 -14.921875 L 35.609375 -17.265625 L 2.359375 -17.265625 L 2.359375 -14.921875 L 5.625 -14.921875 L 5.625 -2.125 C 4.34375 -2.015625 3.078125 -1.90625 2.015625 -1.78125 L 2.28125 0.765625 C 5.859375 0.296875 10.5 -0.234375 15.1875 -0.84375 L 15.1875 2.921875 L 17.84375 2.921875 L 17.84375 -14.921875 Z M 31.125 -10.265625 C 30.171875 -8.1875 28.796875 -6.3125 27.125 -4.75 C 25.53125 -6.359375 24.203125 -8.1875 23.28125 -10.265625 Z M 32.828125 -12.625 L 32.34375 -12.5625 L 19.296875 -12.5625 L 19.296875 -10.265625 L 21.453125 -10.265625 L 20.8125 -10.078125 C 21.875 -7.453125 23.40625 -5.140625 25.265625 -3.15625 C 23.015625 -1.515625 20.46875 -0.234375 17.921875 0.5 C 18.453125 1.03125 19.140625 2.015625 19.4375 2.703125 C 22.140625 1.78125 24.8125 0.421875 27.171875 -1.40625 C 29.328125 0.34375 31.921875 1.75 34.8125 2.59375 C 35.1875 1.859375 35.953125 0.875 36.484375 0.34375 C 33.703125 -0.34375 31.203125 -1.515625 29.109375 -3.078125 C 31.5 -5.4375 33.4375 -8.328125 34.578125 -11.90625 Z M 32.828125 -12.625 "/></g></g></g><g fill="#2d5a66" fill-opacity="1"><g transform="translate(206.507873, 288.621953)"><g><path d="M 19.25 -1.71875 L 19.25 -16.78125 L 33.40625 -16.78125 L 33.40625 -19.59375 L 19.25 -19.59375 L 19.25 -31.234375 L 16.28125 -31.234375 L 16.28125 -1.71875 L 2.09375 -1.71875 L 2.09375 1.109375 L 36 1.109375 L 36 -1.71875 Z M 19.25 -1.71875 "/></g></g></g><g fill="#2d5a66" fill-opacity="1"><g transform="translate(244.546956, 288.621953)"><g><path d="M 29.375 -6.359375 L 29.375 -4.1875 L 14.5 -4.1875 L 14.5 -6.359375 Z M 14.5 -0.234375 L 14.5 -2.4375 L 29.375 -2.4375 L 29.375 -0.234375 Z M 11.75 2.890625 L 14.5 2.890625 L 14.5 1.671875 L 29.375 1.671875 L 29.375 2.8125 L 32.1875 2.8125 L 32.1875 -8.25 L 11.75 -8.25 Z M 14.234375 -16.546875 C 15.296875 -15.296875 16.390625 -13.546875 16.9375 -12.4375 L 18.71875 -13.46875 C 18.21875 -14.578125 17.078125 -16.25 15.984375 -17.421875 Z M 26.21875 -12.4375 C 27.09375 -13.46875 28.15625 -14.984375 29.03125 -16.515625 L 27.203125 -17.46875 C 26.59375 -16.28125 25.453125 -14.421875 24.609375 -13.3125 Z M 30.8125 -24.6875 L 8.109375 -24.6875 L 8.109375 -27.8125 L 30.8125 -27.8125 Z M 18.21875 -19.859375 C 17.84375 -20.65625 17.125 -21.65625 16.46875 -22.40625 L 27.203125 -22.40625 C 26.828125 -21.65625 26.140625 -20.703125 25.484375 -19.859375 Z M 30.859375 -11.75 L 22.984375 -11.75 L 22.984375 -18.078125 L 30.859375 -18.078125 Z M 12.625 -18.078125 L 20.3125 -18.078125 L 20.3125 -11.75 L 12.625 -11.75 Z M 33.671875 -30.09375 L 5.28125 -30.09375 L 5.28125 -19.0625 C 5.28125 -13.015625 4.984375 -4.6875 1.375 1.25 C 2.09375 1.515625 3.3125 2.203125 3.84375 2.703125 C 7.578125 -3.46875 8.109375 -12.703125 8.109375 -19.0625 L 8.109375 -22.40625 L 15.90625 -22.40625 L 14.15625 -21.765625 C 14.640625 -21.1875 15.109375 -20.546875 15.515625 -19.859375 L 10 -19.859375 L 10 -9.96875 L 33.59375 -9.96875 L 33.59375 -19.859375 L 28.265625 -19.859375 C 28.71875 -20.46875 29.21875 -21.109375 29.71875 -21.765625 L 27.65625 -22.40625 L 33.671875 -22.40625 Z M 33.671875 -30.09375 "/></g></g></g></svg>