<svg xmlns="http://www.w3.org/2000/svg" xmlns:xlink="http://www.w3.org/1999/xlink" width="500" zoomAndPan="magnify" viewBox="0 0 375 374.999991" height="500" preserveAspectRatio="xMidYMid meet" version="1.0"><defs><clipPath id="ff3d15d2cc"><path d="M 66.269531 28.796875 L 308 28.796875 L 308 332.546875 L 66.269531 332.546875 Z M 66.269531 28.796875 " clip-rule="nonzero"/></clipPath><clipPath id="33183569f4"><path d="M 66.269531 73 L 308 73 L 308 214 L 66.269531 214 Z M 66.269531 73 " clip-rule="nonzero"/></clipPath></defs><g clip-path="url(#ff3d15d2cc)"><path fill="#f7e7d8" d="M 304.898438 87.90625 C 300.773438 82.164062 295.417969 77.953125 288.363281 76.28125 C 286.675781 75.878906 284.910156 75.671875 283.320312 75.03125 C 280.488281 73.886719 277.554688 73.773438 274.585938 73.59375 C 268.019531 73.195312 261.847656 75.214844 255.597656 76.683594 C 251.640625 77.617188 247.988281 79.449219 244.308594 81.144531 C 244.222656 80.96875 244.011719 80.734375 244.0625 80.621094 C 245.1875 78.203125 247.007812 76.226562 248.125 73.75 C 249.222656 71.308594 251.035156 69.1875 252.554688 66.9375 C 253.71875 65.203125 254.757812 63.359375 256.121094 61.796875 C 258.628906 58.925781 261.253906 56.191406 263.386719 52.980469 C 265.511719 49.789062 267.605469 46.609375 269.171875 43.101562 C 270.328125 40.511719 270.914062 37.90625 269.621094 35.140625 C 269.226562 34.292969 268.859375 33.5625 267.90625 33.363281 C 265.792969 32.914062 263.6875 32.234375 261.554688 32.125 C 255.859375 31.824219 250.148438 31.789062 244.445312 31.625 C 240.097656 31.5 235.75 31.367188 231.40625 31.179688 C 230.632812 31.144531 229.789062 30.988281 229.121094 30.625 C 226.9375 29.429688 224.496094 29.121094 222.1875 29.261719 C 219.71875 29.414062 217.242188 30.238281 214.878906 31.070312 C 212.285156 31.984375 209.851562 33.332031 207.28125 34.320312 C 205.820312 34.882812 204.164062 35.578125 202.707031 35.382812 C 200.082031 35.035156 197.46875 34.253906 195.511719 32.144531 C 194.835938 31.414062 193.90625 30.914062 193.082031 30.324219 C 191.261719 29.023438 189.191406 28.949219 187.046875 28.984375 C 183.488281 29.035156 179.972656 29.242188 176.550781 30.347656 C 172.867188 31.535156 169.65625 33.640625 166.300781 35.472656 C 164.863281 36.261719 163.296875 36.949219 161.707031 37.289062 C 157.226562 38.242188 152.796875 37.875 148.496094 36.21875 C 148.230469 36.117188 147.941406 36.054688 147.65625 36.015625 C 145.222656 35.710938 142.757812 35.542969 140.355469 35.082031 C 137.542969 34.542969 134.617188 34.34375 132.1875 32.453125 C 130.632812 31.246094 128.867188 31.949219 127.253906 32.511719 C 126.816406 32.667969 126.496094 33.3125 126.234375 33.792969 C 125.308594 35.476562 125.421875 37.234375 125.816406 39.058594 C 126.410156 41.808594 126.660156 44.644531 127.421875 47.339844 C 128.660156 51.714844 130.726562 55.824219 131.527344 60.359375 C 131.941406 62.703125 132.722656 64.980469 133.214844 67.316406 C 133.882812 70.488281 134.398438 73.695312 135.046875 76.875 C 135.910156 81.089844 137.996094 84.714844 140.542969 88.121094 C 142.230469 90.382812 143.835938 92.699219 145.476562 94.992188 C 143.519531 94.539062 141.546875 94.140625 139.605469 93.617188 C 132.113281 91.597656 124.621094 89.753906 116.800781 89.265625 C 109.828125 88.828125 102.964844 89.027344 96.0625 90.117188 C 88.109375 91.371094 81.125 94.53125 74.898438 99.574219 C 71.273438 102.507812 69.175781 106.441406 67.367188 110.582031 C 67.027344 111.363281 66.882812 112.253906 66.789062 113.113281 C 66.273438 118.054688 67.390625 122.78125 68.789062 127.453125 C 68.992188 128.125 69.480469 128.734375 69.925781 129.300781 C 72.070312 132.027344 74.175781 134.785156 76.433594 137.410156 C 77.746094 138.933594 79.148438 140.484375 80.804688 141.578125 C 84.0625 143.730469 87.753906 145.089844 91.386719 146.503906 C 94.140625 147.574219 96.941406 148.558594 99.789062 149.347656 C 102.5 150.097656 105.273438 150.761719 108.140625 150.390625 C 111.007812 150.019531 113.882812 149.667969 116.730469 149.164062 C 119.441406 148.679688 122.171875 148.183594 124.804688 147.390625 C 128.40625 146.300781 131.921875 144.921875 135.472656 143.675781 C 139.101562 142.402344 142.730469 141.136719 146.359375 139.871094 C 146.351562 140.054688 146.347656 140.242188 146.34375 140.429688 C 142.890625 143.625 139.4375 146.820312 135.988281 150.023438 C 133.59375 152.242188 131.121094 154.386719 128.84375 156.71875 C 124.082031 161.597656 119.421875 166.574219 114.734375 171.519531 C 112.292969 174.101562 109.78125 176.628906 107.46875 179.320312 C 105.589844 181.511719 103.921875 183.886719 102.226562 186.222656 C 98.695312 191.089844 94.914062 195.789062 91.980469 201.0625 C 90.820312 203.148438 89.707031 205.285156 89.464844 207.726562 C 89.4375 208.015625 89.578125 208.410156 89.78125 208.597656 C 89.921875 208.722656 90.335938 208.621094 90.585938 208.519531 C 90.757812 208.449219 90.855469 208.203125 91.007812 208.050781 C 92.28125 206.78125 93.539062 205.484375 94.847656 204.25 C 97.84375 201.429688 100.867188 198.636719 103.875 195.832031 C 104.410156 195.332031 104.941406 194.828125 105.472656 194.324219 C 105.625 194.429688 105.777344 194.53125 105.925781 194.636719 C 105.164062 196.5625 104.59375 198.59375 103.597656 200.390625 C 101.390625 204.367188 99.542969 208.433594 99.027344 213.007812 C 98.71875 213.453125 98.273438 213.859375 98.125 214.355469 C 96.976562 218.238281 95.8125 222.125 94.800781 226.046875 C 94.226562 228.28125 93.589844 230.589844 93.59375 232.863281 C 93.605469 237.855469 93.066406 242.84375 93.507812 247.835938 C 93.820312 251.367188 93.785156 254.972656 94.542969 258.40625 C 95.566406 263.066406 95.550781 267.886719 96.964844 272.472656 C 97.859375 275.367188 98.210938 278.453125 99.335938 281.238281 C 101.085938 285.582031 102.585938 290.03125 104.761719 294.21875 C 107.394531 299.296875 109.671875 304.558594 112.148438 309.71875 C 113.199219 311.90625 114.5625 313.917969 116.859375 314.929688 C 118.765625 315.769531 120.25 317.101562 121.753906 318.449219 C 122.1875 318.835938 122.570312 319.3125 123.066406 319.589844 C 126.03125 321.257812 129.007812 322.914062 132.015625 324.496094 C 132.835938 324.925781 133.78125 325.144531 134.691406 325.378906 C 138.46875 326.355469 142.25 327.316406 146.039062 328.242188 C 147.160156 328.519531 148.320312 328.871094 149.449219 328.832031 C 155.542969 328.609375 161.582031 329.34375 167.640625 329.75 C 169.78125 329.894531 171.921875 330.09375 174.066406 330.152344 C 176.710938 330.226562 179.363281 330.234375 182.011719 330.171875 C 184.324219 330.121094 186.640625 329.769531 188.945312 329.84375 C 192.410156 329.960938 195.867188 330.28125 199.320312 330.613281 C 203.101562 330.976562 206.867188 331.5 210.648438 331.863281 C 213.171875 332.109375 215.707031 332.34375 218.234375 332.328125 C 222.875 332.296875 227.515625 332.09375 232.152344 331.933594 C 237.859375 331.734375 243.476562 331.144531 248.925781 329.167969 C 252.9375 327.714844 256.613281 325.785156 259.960938 323.164062 C 260.855469 322.464844 261.726562 321.667969 262.738281 321.191406 C 266.632812 319.367188 269.625 316.425781 272.257812 313.207031 C 273.875 311.226562 274.824219 308.703125 276.058594 306.417969 C 276.574219 305.464844 276.992188 304.453125 277.566406 303.539062 C 278.449219 302.144531 279.832031 300.929688 280.277344 299.421875 C 280.878906 297.398438 281.808594 295.585938 282.753906 293.757812 C 283.90625 291.523438 285.207031 289.359375 286.390625 287.136719 C 287.207031 285.605469 288.125 284.089844 288.667969 282.453125 C 290.640625 276.53125 293.21875 270.863281 295.878906 265.238281 C 297.300781 262.234375 297.949219 259.078125 298.339844 255.839844 C 298.574219 253.902344 298.574219 251.933594 298.847656 250.003906 C 299.296875 246.824219 299.734375 243.679688 298.441406 240.582031 C 298.308594 240.265625 298.382812 239.863281 298.347656 239.5 C 298.050781 236.476562 297.863281 233.4375 297.414062 230.4375 C 297.070312 228.164062 296.273438 225.964844 295.882812 223.695312 C 295.449219 221.191406 294.054688 219.140625 293.042969 216.90625 C 291.519531 213.539062 289.996094 210.171875 288.515625 206.78125 C 287.535156 204.53125 286.539062 202.28125 285.71875 199.96875 C 284.816406 197.441406 283.65625 195.058594 282.277344 192.765625 C 281.199219 190.980469 280.214844 189.136719 279.097656 187.378906 C 276.890625 183.894531 274.917969 180.261719 272.027344 177.226562 C 270.035156 175.132812 268.300781 172.792969 266.441406 170.574219 C 264.53125 168.296875 262.570312 166.0625 260.714844 163.746094 C 259.507812 162.234375 257.898438 160.996094 257.320312 159.027344 C 261.152344 161.984375 265.09375 164.8125 268.789062 167.933594 C 273.375 171.8125 277.710938 175.980469 282.238281 179.929688 C 284.789062 182.152344 287.507812 184.1875 290.15625 186.296875 C 290.835938 186.839844 291.492188 187.445312 292.25 187.839844 C 293.804688 188.652344 294.898438 188.027344 294.792969 186.300781 C 294.726562 185.261719 294.328125 184.183594 293.851562 183.238281 C 292.609375 180.789062 291.242188 178.40625 289.925781 175.996094 C 289.8125 175.691406 289.699219 175.386719 289.585938 175.082031 C 289.804688 175.292969 290.023438 175.503906 290.246094 175.714844 C 291.601562 176.78125 292.964844 177.84375 294.3125 178.917969 C 295.109375 179.546875 295.867188 180.226562 296.683594 180.828125 C 296.875 180.972656 297.28125 181.015625 297.484375 180.90625 C 297.632812 180.828125 297.71875 180.390625 297.644531 180.171875 C 297.320312 179.214844 297.011719 178.242188 296.550781 177.347656 C 293.757812 171.890625 289.667969 167.5 285.074219 163.527344 C 281.242188 160.214844 277.476562 156.816406 273.550781 153.613281 C 271.035156 151.558594 268.375 149.648438 265.617188 147.929688 C 261.265625 145.222656 256.78125 142.722656 252.34375 140.148438 C 246.25 136.613281 239.863281 133.722656 233.203125 131.417969 C 231.800781 130.933594 230.417969 130.382812 228.90625 129.820312 C 229.210938 129.597656 229.320312 129.445312 229.417969 129.457031 C 232.503906 129.785156 235.582031 130.183594 238.671875 130.460938 C 242.203125 130.777344 245.742188 131.011719 249.28125 131.246094 C 250.582031 131.332031 251.898438 131.238281 253.195312 131.355469 C 257.621094 131.761719 262.042969 131.5 266.425781 130.980469 C 270.125 130.542969 273.753906 129.542969 277.441406 128.960938 C 281.511719 128.316406 285.304688 126.785156 288.988281 125.128906 C 293.019531 123.308594 296.621094 120.65625 299.820312 117.550781 C 302.226562 115.214844 304.179688 112.585938 305.417969 109.375 C 306.582031 106.355469 307.097656 103.238281 307.6875 100.097656 C 308.535156 95.59375 307.46875 91.476562 304.898438 87.90625 Z M 139.238281 130.644531 C 135.347656 132.265625 131.3125 133.277344 127.167969 133.960938 C 125.675781 134.207031 124.230469 134.738281 122.75 135.0625 C 120.5625 135.542969 118.367188 136.011719 116.15625 136.371094 C 115.175781 136.53125 114.152344 136.382812 113.148438 136.433594 C 108.171875 136.683594 103.1875 137.683594 98.242188 136.160156 C 95.265625 135.242188 92.246094 134.445312 89.320312 133.382812 C 87.988281 132.902344 86.617188 132.117188 85.667969 131.097656 C 83.71875 129 81.503906 127.125 80.074219 124.539062 C 77.96875 120.71875 76.964844 116.746094 77.761719 112.398438 C 78.03125 110.929688 79.078125 109.964844 80.148438 109.125 C 81.101562 108.375 82.210938 107.785156 83.328125 107.289062 C 89.660156 104.488281 96.316406 102.828125 103.191406 102.316406 C 105.886719 102.113281 108.648438 102.773438 111.378906 103.050781 C 113.253906 103.246094 115.128906 103.421875 116.996094 103.679688 C 119.28125 103.996094 121.570312 104.324219 123.835938 104.757812 C 128.667969 105.691406 133.492188 106.675781 138.3125 107.675781 C 140.351562 108.097656 142.371094 108.621094 144.402344 109.082031 C 150.539062 110.46875 156.65625 111.917969 162.523438 114.253906 C 162.664062 114.503906 162.773438 114.789062 162.902344 115.050781 C 163.027344 115.328125 163.117188 115.488281 163.347656 115.683594 C 165.480469 117.464844 167.667969 119.175781 169.835938 120.910156 C 167.277344 121.890625 164.765625 123.042969 162.144531 123.804688 C 159.042969 124.703125 155.847656 125.273438 152.691406 125.96875 C 148.019531 126.996094 143.625 128.8125 139.238281 130.644531 Z M 293.015625 106.226562 C 289.988281 110.535156 286.246094 114.03125 281.386719 116.097656 C 278.734375 117.226562 275.902344 117.941406 273.132812 118.777344 C 267.664062 120.425781 262.066406 121.117188 256.367188 120.757812 C 251.097656 120.425781 245.835938 119.964844 240.570312 119.605469 C 235.21875 119.238281 229.863281 118.929688 224.511719 118.585938 C 223.933594 118.550781 223.363281 118.449219 222.789062 118.375 C 222.644531 118.378906 222.503906 118.382812 222.359375 118.386719 C 221.355469 118.414062 220.351562 118.445312 219.347656 118.472656 C 219.371094 118.382812 219.390625 118.289062 219.410156 118.195312 C 219.605469 117.363281 219.757812 116.507812 219.996094 115.695312 C 220.085938 115.394531 220.1875 115.097656 220.3125 114.808594 C 220.894531 113.441406 221.816406 112.21875 222.46875 110.875 C 222.828125 110.132812 222.9375 109.265625 223.160156 108.457031 C 225.53125 106.867188 227.882812 105.238281 230.289062 103.695312 C 232.347656 102.378906 234.464844 101.140625 236.570312 99.894531 C 238.53125 98.730469 240.589844 97.710938 242.476562 96.433594 C 245.90625 94.109375 249.710938 92.570312 253.460938 90.90625 C 255.027344 90.210938 256.539062 89.402344 258.117188 88.746094 C 259.9375 87.988281 261.800781 87.324219 263.65625 86.640625 C 265.398438 86 267.113281 85.230469 268.910156 84.796875 C 270.644531 84.378906 272.492188 84.003906 274.238281 84.164062 C 278.804688 84.574219 283.273438 85.660156 287.476562 87.496094 C 289.929688 88.566406 291.867188 90.398438 292.757812 93.097656 C 293.34375 94.878906 294.058594 96.621094 294.601562 98.414062 C 295.480469 101.285156 294.695312 103.832031 293.015625 106.226562 Z M 293.015625 106.226562 " fill-opacity="1" fill-rule="nonzero"/></g><g clip-path="url(#33183569f4)"><path fill="#c29e63" d="M 257.320312 159.027344 C 256.109375 158.117188 254.882812 157.222656 253.691406 156.289062 C 252.167969 155.101562 250.75 153.757812 249.148438 152.699219 C 246.082031 150.683594 242.988281 148.691406 239.777344 146.921875 C 236.414062 145.070312 232.921875 143.457031 229.449219 141.816406 C 227.949219 141.109375 226.371094 140.550781 224.796875 140.007812 C 222.078125 139.0625 219.328125 138.273438 216.945312 136.5 C 215.84375 135.683594 214.308594 135.472656 213.015625 134.886719 C 210.054688 133.542969 207.097656 132.179688 204.183594 130.734375 C 202.871094 130.082031 201.894531 130.269531 200.875 131.285156 C 200.171875 131.984375 199.355469 132.667969 198.457031 133.058594 C 195.917969 134.160156 193.546875 133.023438 191.171875 132.25 C 190.769531 132.121094 190.402344 131.867188 190.023438 131.667969 C 189.214844 131.246094 188.652344 131.363281 187.964844 132.101562 C 186.898438 133.242188 185.617188 134.1875 184.378906 135.152344 C 184 135.445312 183.4375 135.71875 182.992188 135.675781 C 180.929688 135.472656 178.734375 135.546875 177.019531 134.160156 C 176.253906 133.542969 175.917969 133.859375 175.421875 134.335938 C 171.335938 138.25 167.292969 142.207031 163.144531 146.054688 C 160.414062 148.585938 157.515625 150.9375 154.726562 153.410156 C 153.589844 154.421875 152.527344 155.523438 151.464844 156.617188 C 149.734375 158.394531 148.003906 160.160156 146.058594 161.71875 C 145.117188 162.472656 144.472656 163.589844 143.59375 164.441406 C 139.898438 168.015625 136.386719 171.738281 133.285156 175.863281 C 131.566406 178.148438 129.402344 180.09375 127.542969 182.28125 C 123.429688 187.121094 119.4375 192.0625 115.292969 196.878906 C 111.382812 201.425781 107.339844 205.863281 103.363281 210.355469 C 102.5 211.332031 101.703125 212.367188 100.820312 213.320312 C 100.121094 214.078125 99.453125 214.105469 99.027344 213.007812 C 99.542969 208.433594 101.390625 204.367188 103.597656 200.390625 C 104.597656 198.59375 105.164062 196.5625 105.929688 194.636719 C 105.777344 194.53125 105.625 194.429688 105.472656 194.324219 C 104.941406 194.828125 104.414062 195.332031 103.875 195.832031 C 100.867188 198.636719 97.84375 201.429688 94.847656 204.25 C 93.539062 205.484375 92.285156 206.78125 91.007812 208.050781 C 90.855469 208.203125 90.761719 208.449219 90.585938 208.519531 C 90.335938 208.621094 89.921875 208.722656 89.785156 208.597656 C 89.578125 208.410156 89.4375 208.015625 89.464844 207.726562 C 89.707031 205.285156 90.820312 203.148438 91.980469 201.0625 C 94.914062 195.789062 98.695312 191.089844 102.226562 186.222656 C 103.921875 183.882812 105.59375 181.511719 107.472656 179.320312 C 109.785156 176.628906 112.292969 174.101562 114.734375 171.519531 C 119.425781 166.574219 124.082031 161.597656 128.84375 156.71875 C 131.121094 154.386719 133.59375 152.242188 135.988281 150.023438 C 139.4375 146.820312 142.890625 143.625 146.34375 140.429688 L 146.359375 139.871094 C 142.730469 141.136719 139.101562 142.40625 135.476562 143.675781 C 131.921875 144.921875 128.40625 146.300781 124.804688 147.390625 C 122.175781 148.183594 119.441406 148.679688 116.730469 149.164062 C 113.882812 149.667969 111.007812 150.019531 108.140625 150.390625 C 105.273438 150.761719 102.5 150.097656 99.789062 149.347656 C 96.941406 148.558594 94.140625 147.574219 91.386719 146.503906 C 87.757812 145.089844 84.066406 143.730469 80.804688 141.578125 C 79.148438 140.484375 77.746094 138.933594 76.4375 137.410156 C 74.179688 134.785156 72.070312 132.027344 69.925781 129.300781 C 69.480469 128.734375 68.992188 128.125 68.789062 127.453125 C 67.390625 122.78125 66.273438 118.054688 66.792969 113.113281 C 66.882812 112.257812 67.027344 111.363281 67.367188 110.582031 C 69.175781 106.441406 71.277344 102.507812 74.898438 99.574219 C 81.125 94.53125 88.109375 91.367188 96.0625 90.117188 C 102.96875 89.03125 109.832031 88.828125 116.804688 89.265625 C 124.621094 89.753906 132.113281 91.597656 139.605469 93.617188 C 141.546875 94.140625 143.519531 94.539062 145.480469 94.992188 C 149.183594 96.425781 152.886719 97.847656 156.585938 99.292969 C 157.460938 99.632812 158.335938 99.996094 159.171875 100.425781 C 161.285156 101.515625 163.324219 102.757812 165.484375 103.734375 C 168.125 104.933594 170.746094 106.070312 172.921875 108.09375 C 174.46875 109.535156 174.570312 109.421875 176.425781 108.164062 C 176.726562 107.960938 177.015625 107.734375 177.332031 107.570312 C 179.035156 106.683594 180.628906 105.496094 182.773438 106.386719 C 183.796875 106.8125 184.691406 106.40625 185.324219 105.332031 C 186.3125 103.648438 188.160156 103.140625 189.839844 102.523438 C 190.433594 102.304688 191.277344 102.539062 191.9375 102.773438 C 193.078125 103.175781 194.195312 103.675781 195.253906 104.261719 C 196.050781 104.699219 196.742188 105.332031 197.484375 105.875 C 197.019531 107.734375 197.441406 109.597656 197.441406 111.457031 C 197.441406 115.574219 197.421875 119.691406 197.460938 123.808594 C 197.464844 124.511719 197.636719 125.238281 197.878906 125.898438 C 198.003906 126.242188 198.457031 126.46875 198.761719 126.746094 C 199.070312 126.402344 199.476562 126.105469 199.660156 125.707031 C 199.894531 125.191406 200.03125 124.601562 200.066406 124.035156 C 200.246094 121.007812 200.46875 117.976562 200.507812 114.945312 C 200.542969 112.195312 200.132812 109.476562 199.1875 106.867188 C 200.289062 106.402344 201.277344 106.554688 202.210938 107.328125 C 202.65625 107.691406 203.285156 107.855469 203.667969 108.261719 C 204.535156 109.191406 205.085938 108.757812 205.769531 108.023438 C 207.4375 106.230469 209.179688 104.503906 210.871094 102.730469 C 215.152344 98.25 220.1875 94.730469 225.367188 91.410156 C 227.964844 89.746094 230.769531 88.40625 233.386719 86.769531 C 236.878906 84.585938 240.5 82.6875 244.3125 81.144531 C 247.992188 79.449219 251.644531 77.617188 255.601562 76.6875 C 261.851562 75.214844 268.023438 73.195312 274.589844 73.59375 C 277.554688 73.773438 280.492188 73.890625 283.324219 75.03125 C 284.914062 75.671875 286.679688 75.878906 288.367188 76.28125 C 295.421875 77.953125 300.777344 82.164062 304.902344 87.90625 C 307.46875 91.476562 308.539062 95.59375 307.691406 100.097656 C 307.101562 103.238281 306.585938 106.355469 305.421875 109.378906 C 304.183594 112.589844 302.230469 115.21875 299.824219 117.554688 C 296.628906 120.65625 293.023438 123.3125 288.992188 125.128906 C 285.3125 126.789062 281.515625 128.316406 277.445312 128.960938 C 273.757812 129.546875 270.128906 130.546875 266.429688 130.984375 C 262.046875 131.503906 257.628906 131.765625 253.199219 131.359375 C 251.902344 131.238281 250.589844 131.332031 249.289062 131.246094 C 245.75 131.011719 242.210938 130.78125 238.675781 130.460938 C 235.585938 130.183594 232.507812 129.789062 229.421875 129.457031 C 229.324219 129.449219 229.214844 129.601562 228.910156 129.820312 C 230.421875 130.386719 231.804688 130.9375 233.210938 131.421875 C 239.867188 133.722656 246.253906 136.613281 252.351562 140.148438 C 256.785156 142.722656 261.269531 145.222656 265.621094 147.933594 C 268.378906 149.648438 271.039062 151.5625 273.558594 153.613281 C 277.480469 156.816406 281.246094 160.21875 285.082031 163.53125 C 289.671875 167.5 293.761719 171.890625 296.554688 177.347656 C 297.015625 178.242188 297.324219 179.21875 297.648438 180.175781 C 297.722656 180.390625 297.636719 180.828125 297.488281 180.910156 C 297.285156 181.015625 296.878906 180.976562 296.6875 180.832031 C 295.871094 180.226562 295.113281 179.550781 294.316406 178.917969 C 292.96875 177.84375 291.605469 176.785156 290.25 175.71875 C 290.027344 175.507812 289.808594 175.296875 289.589844 175.085938 C 289.703125 175.390625 289.816406 175.691406 289.929688 176 C 291.246094 178.40625 292.613281 180.792969 293.855469 183.238281 C 294.332031 184.183594 294.730469 185.261719 294.796875 186.304688 C 294.90625 188.027344 293.808594 188.65625 292.257812 187.84375 C 291.496094 187.445312 290.839844 186.839844 290.160156 186.300781 C 287.511719 184.1875 284.792969 182.15625 282.242188 179.929688 C 277.714844 175.984375 273.378906 171.8125 268.792969 167.9375 C 265.097656 164.8125 261.152344 161.988281 257.320312 159.027344 Z M 222.359375 118.386719 C 222.503906 118.382812 222.644531 118.378906 222.789062 118.375 C 223.363281 118.449219 223.933594 118.550781 224.511719 118.585938 C 229.863281 118.929688 235.21875 119.238281 240.570312 119.605469 C 245.835938 119.964844 251.097656 120.425781 256.367188 120.757812 C 262.066406 121.117188 267.664062 120.425781 273.132812 118.777344 C 275.902344 117.941406 278.734375 117.226562 281.386719 116.097656 C 286.246094 114.03125 289.988281 110.539062 293.015625 106.230469 C 294.695312 103.832031 295.480469 101.285156 294.605469 98.417969 C 294.058594 96.625 293.347656 94.882812 292.757812 93.101562 C 291.867188 90.398438 289.933594 88.566406 287.480469 87.496094 C 283.277344 85.660156 278.808594 84.578125 274.242188 84.164062 C 272.492188 84.007812 270.644531 84.378906 268.914062 84.796875 C 267.117188 85.230469 265.402344 86 263.65625 86.644531 C 261.804688 87.328125 259.941406 87.988281 258.117188 88.75 C 256.542969 89.40625 255.027344 90.214844 253.464844 90.90625 C 249.710938 92.574219 245.910156 94.113281 242.476562 96.4375 C 240.589844 97.714844 238.535156 98.734375 236.570312 99.898438 C 234.464844 101.144531 232.351562 102.378906 230.289062 103.699219 C 227.886719 105.242188 225.535156 106.867188 223.160156 108.460938 C 220.824219 109.71875 218.296875 110.582031 216.140625 112.238281 C 214.328125 113.628906 212.316406 114.792969 210.277344 115.832031 C 209.304688 116.324219 209.238281 116.796875 209.464844 117.675781 C 209.730469 118.71875 210.414062 119.074219 211.382812 119.011719 C 214.039062 118.847656 216.695312 118.65625 219.347656 118.476562 C 220.351562 118.445312 221.355469 118.417969 222.359375 118.386719 Z M 169.835938 120.910156 C 170.585938 120.660156 171.335938 120.40625 172.085938 120.152344 C 173.429688 119.699219 173.269531 118.4375 173.421875 117.433594 C 173.585938 116.371094 172.566406 116.246094 171.847656 115.96875 C 171.382812 115.789062 170.890625 115.65625 170.398438 115.566406 C 168.839844 115.28125 167.273438 115.023438 165.710938 114.765625 C 164.648438 114.589844 163.585938 114.421875 162.523438 114.253906 C 156.65625 111.917969 150.539062 110.46875 144.402344 109.082031 C 142.371094 108.625 140.351562 108.097656 138.3125 107.675781 C 133.492188 106.675781 128.667969 105.691406 123.835938 104.757812 C 121.570312 104.324219 119.28125 103.996094 116.996094 103.679688 C 115.128906 103.421875 113.253906 103.246094 111.378906 103.054688 C 108.648438 102.773438 105.886719 102.117188 103.191406 102.316406 C 96.316406 102.828125 89.660156 104.488281 83.328125 107.292969 C 82.210938 107.785156 81.101562 108.375 80.148438 109.125 C 79.078125 109.964844 78.035156 110.933594 77.761719 112.398438 C 76.964844 116.746094 77.96875 120.71875 80.074219 124.539062 C 81.503906 127.125 83.71875 129 85.667969 131.097656 C 86.617188 132.121094 87.988281 132.902344 89.320312 133.386719 C 92.242188 134.445312 95.265625 135.242188 98.242188 136.160156 C 103.1875 137.683594 108.171875 136.683594 113.148438 136.433594 C 114.148438 136.386719 115.175781 136.535156 116.15625 136.375 C 118.367188 136.011719 120.5625 135.542969 122.75 135.0625 C 124.230469 134.738281 125.675781 134.207031 127.167969 133.960938 C 131.3125 133.277344 135.347656 132.265625 139.238281 130.644531 C 143.625 128.816406 148.019531 126.996094 152.691406 125.96875 C 155.847656 125.277344 159.042969 124.707031 162.144531 123.808594 C 164.765625 123.046875 167.277344 121.890625 169.835938 120.910156 Z M 186.824219 121.550781 C 186.445312 118.257812 186.191406 114.9375 185.621094 111.679688 C 185.410156 110.484375 184.539062 109.355469 183.804688 108.316406 C 183.355469 107.675781 182.816406 107.914062 182.664062 108.726562 C 182.609375 109.007812 182.613281 109.304688 182.625 109.59375 C 182.773438 114.078125 182.867188 118.566406 183.125 123.042969 C 183.199219 124.316406 183.714844 125.574219 184.109375 126.8125 C 184.4375 127.832031 185.160156 128.546875 186.195312 128.882812 C 186.875 129.101562 187.515625 128.589844 187.210938 128.003906 C 186.136719 125.929688 186.699219 123.726562 186.824219 121.550781 Z M 186.824219 121.550781 " fill-opacity="1" fill-rule="nonzero"/></g><path fill="#be795a" d="M 280.804688 261.734375 C 280.1875 263.347656 279.5 264.933594 278.84375 266.53125 C 278.816406 266.4375 278.789062 266.339844 278.761719 266.242188 C 278.789062 266.339844 278.816406 266.4375 278.84375 266.53125 C 278.753906 267.046875 278.660156 267.558594 278.570312 268.074219 C 278.285156 269.984375 278.027344 271.902344 277.699219 273.804688 C 277.632812 274.183594 277.300781 274.515625 277.09375 274.867188 C 275.839844 279.089844 275.300781 283.582031 273.089844 287.441406 C 271.335938 290.503906 269.546875 293.621094 266.859375 296.039062 C 263.460938 299.09375 260.144531 302.246094 256.640625 305.179688 C 253.59375 307.730469 249.902344 309.125 246.144531 310.292969 C 245.667969 310.441406 245.140625 310.5 244.644531 310.488281 C 242.132812 310.417969 239.75 311.003906 237.378906 311.757812 C 236.640625 311.992188 235.832031 312.011719 235.054688 312.125 C 233.503906 312.71875 231.910156 313.21875 230.414062 313.921875 C 224.988281 316.480469 219.285156 317.445312 213.332031 317.148438 C 212.101562 317.085938 210.863281 317.074219 209.632812 317.140625 C 204.988281 317.40625 200.800781 315.800781 196.644531 314.046875 C 194.582031 313.179688 192.453125 312.417969 190.488281 311.363281 C 187.941406 310.003906 185.527344 308.394531 183.054688 306.894531 C 179.664062 307.613281 176.195312 307.832031 172.8125 308.691406 C 170.457031 309.289062 167.949219 309.273438 165.511719 309.546875 C 162.785156 309.851562 160.066406 310.34375 157.332031 310.453125 C 152.84375 310.636719 149.011719 308.925781 145.78125 305.835938 C 145.996094 305.753906 146.210938 305.695312 146.421875 305.65625 C 146.210938 305.695312 145.996094 305.753906 145.78125 305.835938 C 143.984375 304.925781 142.140625 304.101562 140.410156 303.082031 C 137.726562 301.503906 135.125 299.789062 132.492188 298.128906 C 132.308594 298.011719 132.117188 297.890625 131.980469 297.726562 C 128.578125 293.671875 124.101562 290.90625 119.988281 287.703125 C 118.25 286.34375 117.085938 284.574219 116.066406 282.578125 C 114.257812 279.039062 112.214844 275.605469 110.042969 272.28125 C 108.695312 270.21875 107.550781 268.132812 107.542969 265.679688 C 107.53125 261.109375 107.578125 256.527344 107.871094 251.972656 C 108.035156 249.464844 108.660156 246.988281 109.964844 244.730469 C 111.691406 241.746094 112.097656 238.300781 113.113281 235.066406 C 113.476562 233.90625 113.855469 232.742188 114.105469 231.550781 C 114.910156 227.726562 115.558594 223.867188 116.46875 220.070312 C 116.933594 218.117188 117.65625 216.183594 118.5625 214.390625 C 119.804688 211.949219 121.335938 209.652344 122.742188 207.289062 C 123 205.703125 123.992188 204.558594 125.050781 203.453125 C 125.953125 197.464844 127.773438 191.765625 130.46875 186.34375 C 131.085938 183.050781 132.96875 180.503906 135.378906 178.339844 C 136.832031 177.035156 138.4375 175.898438 140.023438 174.761719 C 144.582031 171.503906 148.699219 167.789062 152.183594 163.378906 C 152.980469 162.371094 153.957031 161.488281 154.929688 160.640625 C 155.746094 159.929688 156.714844 159.402344 157.546875 158.707031 C 160.085938 156.582031 163.054688 155.265625 166.097656 154.09375 C 166.742188 153.84375 167.507812 153.90625 168.21875 153.824219 C 172.019531 152.207031 175.9375 150.859375 180.011719 150.261719 C 182.332031 149.921875 184.761719 150.320312 187.140625 150.394531 C 187.792969 150.417969 188.441406 150.515625 189.09375 150.503906 C 193.25 150.445312 197.359375 150.878906 201.394531 151.859375 C 203.078125 152.269531 204.8125 152.695312 206.335938 153.472656 C 210.984375 155.839844 215.898438 157.75 219.980469 161.148438 C 220.230469 161.355469 220.550781 161.476562 220.894531 161.578125 C 221.234375 161.675781 221.59375 161.75 221.921875 161.867188 C 221.996094 161.851562 222.070312 161.816406 222.136719 161.832031 C 226.011719 162.609375 229.914062 163.296875 233.402344 165.316406 C 234.28125 165.824219 235.113281 166.433594 236.027344 166.859375 C 238.78125 168.144531 241.015625 170.046875 242.867188 172.429688 C 243.027344 172.554688 243.1875 172.675781 243.347656 172.800781 C 243.347656 172.800781 243.347656 172.792969 243.347656 172.792969 C 243.429688 172.953125 243.511719 173.113281 243.59375 173.277344 C 243.511719 173.113281 243.429688 172.953125 243.347656 172.792969 C 246.199219 173.992188 248.585938 175.894531 250.804688 177.972656 C 255.425781 182.304688 259.515625 187.105469 263.171875 192.289062 C 264.671875 194.417969 266.433594 196.363281 267.902344 198.511719 C 269.742188 201.203125 271.453125 203.988281 273.117188 206.796875 C 274.105469 208.464844 274.886719 210.257812 275.761719 211.996094 C 275.761719 211.996094 275.769531 212.054688 275.765625 212.058594 C 275.867188 212.238281 275.972656 212.421875 276.074219 212.605469 C 276.113281 212.667969 276.136719 212.746094 276.1875 212.789062 C 278.488281 214.621094 278.308594 217 277.664062 219.476562 C 277.445312 220.316406 277.171875 221.140625 276.910156 221.96875 C 276.546875 223.101562 276.679688 224.175781 276.875 225.359375 C 277.222656 227.480469 277.144531 229.675781 277.246094 231.835938 C 277.285156 234.144531 277.578125 236.480469 277.300781 238.75 C 276.957031 241.601562 277.722656 244.171875 278.492188 246.800781 C 279.417969 249.988281 280.386719 253.164062 281.179688 256.382812 C 281.613281 258.15625 281.46875 259.996094 280.804688 261.734375 Z M 280.804688 261.734375 " fill-opacity="1" fill-rule="nonzero"/><path fill="#95593f" d="M 221.480469 297.859375 C 221.484375 297.855469 221.488281 297.851562 221.492188 297.847656 C 221.496094 297.847656 221.503906 297.84375 221.511719 297.84375 Z M 245.601562 284.660156 C 246.914062 283.808594 248.199219 282.917969 249.496094 282.042969 C 250.71875 279.597656 252.953125 278.066406 254.804688 276.191406 C 255.050781 275.941406 255.613281 276.003906 256.03125 275.917969 C 255.484375 275.289062 255.628906 274.753906 256.226562 274.242188 C 256.828125 273.730469 257.496094 273.253906 257.964844 272.632812 C 260.144531 269.753906 262.28125 266.84375 264.394531 263.917969 C 265.023438 263.042969 265.582031 262.105469 266.074219 261.148438 C 268.1875 257.042969 270.226562 252.898438 272.367188 248.804688 C 274.195312 245.3125 275.628906 241.710938 276.203125 237.785156 C 276.496094 235.792969 276.890625 233.820312 277.242188 231.839844 C 277.140625 229.675781 277.222656 227.484375 276.871094 225.363281 C 276.679688 224.175781 276.542969 223.105469 276.90625 221.972656 C 277.171875 221.144531 277.441406 220.316406 277.660156 219.476562 C 278.304688 217.003906 278.484375 214.621094 276.1875 212.792969 C 276.132812 212.75 276.109375 212.667969 276.074219 212.605469 C 275.96875 212.425781 275.867188 212.242188 275.765625 212.058594 C 275.765625 212.058594 275.761719 212 275.761719 212 C 274.742188 212.308594 274.695312 212.96875 274.96875 213.878906 C 275.832031 216.71875 276.039062 219.554688 274.953125 222.421875 C 274.6875 223.125 274.664062 224.058594 274.886719 224.777344 C 275.210938 225.828125 275.042969 226.75 274.808594 227.753906 C 274.445312 229.300781 274.21875 230.878906 273.886719 232.433594 C 273.210938 235.617188 272.742188 238.863281 271.332031 241.839844 C 270.433594 243.738281 269.460938 245.605469 268.480469 247.464844 C 266.957031 250.347656 265.507812 253.277344 263.816406 256.0625 C 262.132812 258.839844 260.214844 261.476562 258.355469 264.140625 C 257.121094 265.910156 255.894531 267.699219 254.507812 269.347656 C 252.554688 271.671875 250.488281 273.898438 248.417969 276.117188 C 247.089844 277.542969 245.875 279.238281 244.246094 280.183594 C 241.355469 281.859375 239.105469 284.347656 236.074219 285.882812 C 232.421875 287.734375 229.179688 290.328125 225.199219 291.675781 C 222.125 292.71875 219.238281 294.296875 216.234375 295.5625 C 215.644531 295.808594 214.910156 295.707031 214.246094 295.769531 C 214.570312 295.144531 214.878906 294.507812 215.234375 293.898438 C 215.335938 293.726562 215.5625 293.621094 215.742188 293.5 C 218.332031 291.761719 220.945312 290.0625 223.5 288.273438 C 224.25 287.746094 224.867188 287.007812 225.472656 286.304688 C 226.082031 285.59375 226.582031 284.789062 227.167969 284.054688 C 229.511719 281.105469 231.988281 278.253906 234.179688 275.195312 C 235.566406 273.261719 236.445312 270.96875 237.703125 268.933594 C 241.902344 262.117188 244.277344 254.589844 246.480469 246.980469 C 246.898438 245.542969 247.328125 244.105469 247.75 242.664062 C 247.285156 239.636719 246.878906 236.609375 247.679688 233.570312 C 246.644531 233.585938 246.398438 232.761719 246.074219 232.039062 C 245.566406 230.914062 245.09375 229.773438 244.570312 228.660156 C 243.234375 225.800781 242.28125 222.867188 242.4375 219.644531 C 242.480469 218.71875 242.460938 217.707031 242.128906 216.867188 C 241.097656 214.242188 239.960938 211.65625 238.761719 209.101562 C 236.941406 205.214844 233.75 202.371094 230.980469 199.226562 C 229.707031 197.785156 227.917969 196.808594 226.484375 195.488281 C 222.9375 192.214844 218.917969 189.714844 214.539062 187.730469 C 214.148438 187.550781 213.882812 187.09375 213.558594 186.765625 C 212.4375 186.96875 211.453125 186.617188 210.457031 186.109375 C 207.832031 184.769531 205.25 183.324219 202.285156 182.800781 C 201.425781 182.648438 200.871094 182.109375 200.957031 181.128906 C 200.175781 182.167969 199.148438 182.164062 198.039062 181.832031 C 197.273438 181.605469 196.519531 181.242188 195.742188 181.179688 C 192.925781 180.964844 190.105469 180.816406 187.28125 180.699219 C 180.804688 180.425781 174.433594 181.398438 168.0625 182.375 C 167.640625 182.4375 167.1875 182.308594 166.378906 182.234375 C 167.113281 181.671875 167.484375 181.34375 167.898438 181.074219 C 171.367188 178.828125 174.832031 176.578125 178.320312 174.363281 C 180.039062 173.269531 181.851562 172.539062 183.957031 172.320312 C 187.488281 171.949219 191.023438 171.214844 194.175781 169.542969 C 198.015625 167.507812 202.058594 166.785156 206.308594 166.675781 C 207.457031 166.644531 208.601562 166.429688 209.75 166.335938 C 211.914062 166.160156 214.078125 165.898438 216.242188 165.886719 C 218.332031 165.875 220.425781 166.226562 222.519531 166.25 C 225.355469 166.273438 228.1875 166.078125 230.808594 167.519531 C 231.554688 167.929688 232.378906 168.234375 233.203125 168.460938 C 236.382812 169.339844 238.878906 171.164062 241.027344 173.644531 C 241.871094 174.625 243.085938 175.367188 244.78125 175.65625 C 244.210938 174.519531 243.777344 173.65625 243.347656 172.792969 C 243.347656 172.792969 243.34375 172.800781 243.34375 172.800781 C 243.183594 172.679688 243.023438 172.554688 242.863281 172.433594 C 241.011719 170.050781 238.78125 168.148438 236.023438 166.863281 C 235.109375 166.433594 234.277344 165.828125 233.398438 165.316406 C 229.910156 163.296875 226.007812 162.609375 222.132812 161.832031 C 222.070312 161.820312 221.992188 161.855469 221.921875 161.867188 C 220.839844 162.480469 219.753906 162.878906 218.464844 162.445312 C 217.945312 162.269531 217.269531 162.25 216.75 162.417969 C 212.824219 163.707031 208.765625 163.492188 204.722656 163.691406 C 200.535156 163.894531 196.347656 164.441406 192.582031 166.542969 C 189.875 168.054688 186.859375 168.628906 183.898438 169.195312 C 180.488281 169.847656 177.457031 171.011719 174.722656 173.222656 C 171.632812 175.714844 168.320312 177.929688 165.109375 180.273438 C 164.703125 180.570312 164.257812 180.867188 163.957031 181.257812 C 162.554688 183.066406 160.675781 183.757812 158.457031 183.765625 C 157.960938 183.769531 157.457031 184.023438 156.96875 183.984375 C 156.734375 183.960938 156.535156 183.527344 156.320312 183.28125 C 156.183594 183.441406 156.078125 183.691406 155.90625 183.757812 C 153.625 184.628906 151.332031 185.472656 149.042969 186.324219 C 147.75 187.339844 146.453125 188.359375 145.160156 189.375 C 144.761719 189.6875 144.328125 189.964844 143.980469 190.324219 C 141.390625 193.003906 138.261719 194.933594 134.996094 196.621094 C 132.199219 198.058594 129.664062 199.804688 127.410156 202 C 126.761719 202.628906 125.84375 202.980469 125.050781 203.457031 C 123.988281 204.5625 122.996094 205.707031 122.742188 207.292969 C 122.753906 207.441406 122.742188 207.589844 122.78125 207.730469 C 122.890625 208.117188 123.023438 208.503906 123.148438 208.890625 C 123.464844 208.652344 123.9375 208.484375 124.070312 208.171875 C 124.667969 206.742188 125.804688 205.894531 127.023438 205.0625 C 128.269531 204.210938 129.4375 203.238281 130.644531 202.320312 C 131.734375 201.484375 132.765625 200.550781 133.9375 199.84375 C 136.847656 198.078125 139.824219 196.421875 142.769531 194.71875 C 143.019531 194.574219 143.253906 194.402344 143.496094 194.246094 C 146.046875 192.59375 148.53125 190.824219 151.175781 189.335938 C 152.796875 188.421875 154.609375 187.644531 156.425781 187.332031 C 160.261719 186.679688 164.160156 186.378906 168.03125 185.917969 C 170.613281 185.609375 173.1875 185.25 175.769531 184.945312 C 178.136719 184.667969 180.503906 184.300781 182.878906 184.230469 C 184.964844 184.167969 187.0625 184.503906 189.15625 184.59375 C 192.484375 184.738281 195.785156 185.042969 199.015625 185.925781 C 201.667969 186.648438 204.335938 187.289062 206.671875 188.84375 C 207.269531 189.242188 207.929688 189.550781 208.582031 189.863281 C 210.535156 190.792969 212.605469 191.535156 214.441406 192.664062 C 218.511719 195.160156 222.480469 197.828125 226.457031 200.480469 C 227.230469 200.996094 227.871094 201.730469 228.511719 202.417969 C 229.648438 203.636719 230.816406 204.839844 231.832031 206.15625 C 233.113281 207.8125 234.339844 209.523438 235.433594 211.308594 C 236.183594 212.53125 236.507812 214.027344 237.304688 215.203125 C 238.785156 217.382812 238.960938 219.742188 239 222.261719 C 239.058594 225.863281 240.125 229.242188 241.929688 232.382812 C 243.78125 235.609375 244.171875 239.117188 243.523438 242.691406 C 243.0625 245.242188 242.347656 247.769531 241.542969 250.238281 C 240.488281 253.476562 239.425781 256.738281 238.015625 259.824219 C 236.140625 263.917969 233.929688 267.855469 231.847656 271.851562 C 231.582031 272.363281 231.261719 272.859375 230.910156 273.3125 C 228.238281 276.738281 225.585938 280.183594 222.847656 283.554688 C 221.855469 284.773438 220.664062 285.832031 219.519531 286.917969 C 217.257812 289.070312 214.828125 291.0625 212.730469 293.359375 C 210.785156 295.488281 208.675781 297.054688 205.929688 298.085938 C 200.898438 299.972656 195.679688 301.078125 190.507812 302.394531 C 189.183594 302.734375 187.804688 302.851562 186.457031 303.09375 C 184.039062 303.527344 181.628906 304.007812 179.207031 304.410156 C 177.570312 304.683594 175.917969 304.855469 174.277344 305.078125 C 172.78125 305.285156 171.289062 305.53125 169.792969 305.707031 C 167.855469 305.9375 165.902344 306.050781 163.976562 306.332031 C 161.902344 306.632812 159.863281 307.257812 157.789062 307.398438 C 155.355469 307.5625 152.898438 307.738281 150.511719 306.644531 C 149.078125 305.984375 147.507812 305.183594 145.78125 305.84375 C 149.011719 308.933594 152.84375 310.640625 157.332031 310.460938 C 160.066406 310.347656 162.785156 309.859375 165.511719 309.554688 C 167.949219 309.28125 170.457031 309.292969 172.8125 308.695312 C 176.195312 307.835938 179.664062 307.621094 183.054688 306.898438 C 185.460938 306.191406 187.835938 305.335938 190.28125 304.8125 C 194.144531 303.992188 198.054688 303.375 201.949219 302.710938 C 204.851562 302.210938 207.765625 301.792969 210.667969 301.296875 C 211.65625 301.128906 212.730469 301.039062 213.582031 300.578125 C 216.078125 299.21875 218.792969 298.582031 221.488281 297.855469 C 221.632812 297.703125 221.777344 297.554688 221.921875 297.40625 C 224.75 295.628906 227.839844 294.519531 231.109375 293.890625 C 232.871094 292.796875 234.644531 291.71875 236.390625 290.601562 C 239.472656 288.632812 242.539062 286.652344 245.601562 284.660156 Z M 278.480469 265.257812 C 278.214844 265.507812 277.996094 265.621094 277.925781 265.792969 C 276.910156 268.265625 275.570312 270.582031 275.09375 273.296875 C 274.695312 275.558594 273.601562 277.695312 273.140625 279.953125 C 272.574219 282.714844 271.40625 285.214844 269.925781 287.484375 C 267.910156 290.570312 265.671875 293.535156 262.867188 296.019531 C 260.371094 298.234375 257.996094 300.585938 255.558594 302.871094 C 252.738281 305.515625 249.34375 307.160156 245.671875 308.160156 C 244.019531 308.609375 242.214844 308.46875 240.515625 308.796875 C 238.316406 309.21875 236.042969 309.660156 235.054688 312.128906 C 235.832031 312.011719 236.640625 311.996094 237.382812 311.761719 C 239.75 311.003906 242.132812 310.421875 244.644531 310.488281 C 245.140625 310.503906 245.667969 310.445312 246.144531 310.296875 C 249.902344 309.125 253.597656 307.730469 256.640625 305.179688 C 260.144531 302.246094 263.460938 299.097656 266.859375 296.039062 C 269.546875 293.621094 271.335938 290.503906 273.089844 287.445312 C 275.300781 283.585938 275.84375 279.089844 277.09375 274.867188 C 276.742188 273.488281 276.957031 272.125 277.578125 270.910156 C 278.050781 269.992188 277.222656 268.648438 278.570312 268.074219 C 278.660156 267.5625 278.753906 267.046875 278.84375 266.535156 C 278.734375 266.148438 278.621094 265.761719 278.480469 265.257812 Z M 132.222656 184.992188 C 133.332031 183.484375 134.378906 181.839844 135.792969 180.660156 C 139.339844 177.699219 143.164062 175.066406 146.710938 172.105469 C 149.367188 169.886719 152.199219 167.789062 153.957031 164.667969 C 154.132812 164.359375 154.460938 164.144531 154.664062 163.847656 C 155.660156 162.382812 157.308594 161.890625 158.734375 161.0625 C 161.046875 159.714844 163.378906 158.390625 165.679688 157.019531 C 166.671875 156.425781 167.632812 155.777344 168.554688 155.082031 C 169.355469 154.476562 168.726562 154.140625 168.21875 153.828125 C 167.507812 153.90625 166.742188 153.84375 166.097656 154.09375 C 163.054688 155.265625 160.085938 156.582031 157.546875 158.707031 C 156.714844 159.402344 155.742188 159.933594 154.929688 160.640625 C 153.957031 161.492188 152.980469 162.371094 152.183594 163.378906 C 148.695312 167.789062 144.582031 171.503906 140.023438 174.765625 C 138.433594 175.902344 136.828125 177.039062 135.378906 178.339844 C 132.96875 180.503906 131.085938 183.050781 130.46875 186.34375 C 131.46875 186.421875 131.742188 185.644531 132.222656 184.992188 Z M 183.125 123.042969 C 183.199219 124.316406 183.714844 125.574219 184.109375 126.8125 C 184.4375 127.832031 185.160156 128.546875 186.195312 128.882812 C 186.875 129.101562 187.515625 128.589844 187.210938 128.003906 C 186.136719 125.929688 186.703125 123.726562 186.824219 121.550781 C 186.445312 118.253906 186.191406 114.9375 185.621094 111.675781 C 185.414062 110.480469 184.542969 109.355469 183.804688 108.316406 C 183.355469 107.675781 182.816406 107.914062 182.664062 108.726562 C 182.609375 109.007812 182.613281 109.304688 182.625 109.59375 C 182.773438 114.078125 182.867188 118.566406 183.125 123.042969 Z M 197.457031 123.804688 C 197.464844 124.507812 197.632812 125.238281 197.875 125.898438 C 198 126.242188 198.453125 126.464844 198.757812 126.746094 C 199.066406 126.402344 199.476562 126.105469 199.660156 125.707031 C 199.894531 125.191406 200.03125 124.601562 200.0625 124.035156 C 200.246094 121.007812 200.464844 117.976562 200.503906 114.945312 C 200.539062 112.195312 200.128906 109.476562 199.183594 106.867188 C 198.808594 106.210938 198.277344 105.8125 197.480469 105.875 C 197.015625 107.734375 197.4375 109.597656 197.4375 111.457031 C 197.4375 115.574219 197.421875 119.691406 197.457031 123.804688 Z M 197.457031 123.804688 " fill-opacity="1" fill-rule="nonzero"/><path fill="#653d2c" d="M 185.609375 249.003906 C 183.449219 249.765625 182.398438 251.625 180.949219 253.109375 C 179.894531 254.191406 178.875 255.371094 177.640625 256.207031 C 175.140625 257.902344 172.566406 257.648438 170.257812 255.730469 C 169.757812 255.316406 169.28125 254.867188 168.78125 254.449219 C 165.539062 251.738281 165.5 249.925781 166.667969 246.546875 C 167.582031 243.902344 168.074219 241.3125 168.269531 238.519531 C 168.582031 234.074219 171.914062 231.683594 175.96875 232.960938 C 180.878906 234.511719 184.902344 237.414062 186.867188 242.480469 C 187.226562 243.410156 187.394531 244.414062 187.648438 245.382812 C 187.621094 247.023438 187.171875 248.453125 185.609375 249.003906 Z M 146.5 231.027344 C 147.375 230.089844 148.21875 229.066406 149.265625 228.355469 C 151.699219 226.695312 152.480469 224.742188 151.714844 221.875 C 151.105469 219.597656 149.875 217.761719 147.933594 216.484375 C 146.140625 215.308594 144.273438 214.667969 142.027344 215.601562 C 141.152344 215.96875 140.203125 216.140625 139.671875 216.945312 C 138.644531 218.492188 137.339844 219.691406 135.746094 220.609375 C 135.503906 220.746094 135.273438 220.96875 135.128906 221.207031 C 133.472656 223.957031 132.003906 226.769531 131.988281 230.558594 C 132.023438 230.75 132.109375 231.394531 132.242188 232.027344 C 132.953125 235.5 136.03125 237.25 139.207031 235.65625 C 141.765625 234.371094 144.46875 233.207031 146.5 231.027344 Z M 148.941406 260.722656 C 147.691406 259.824219 146.410156 259.347656 144.90625 259.378906 C 143.148438 259.3125 141.285156 259.855469 140.414062 261.125 C 138.820312 263.449219 138.058594 266.070312 138.902344 269.152344 C 139.523438 271.414062 141.691406 272.609375 142.0625 274.90625 C 142.128906 275.3125 142.882812 275.808594 143.390625 275.910156 C 145.039062 276.242188 145.570312 277.328125 145.835938 278.816406 C 145.953125 279.476562 146.304688 280.410156 146.808594 280.628906 C 148.65625 281.433594 150.53125 282.15625 152.433594 280.40625 C 153.578125 279.351562 154.390625 278.160156 154.566406 276.742188 C 154.878906 274.25 154.90625 271.726562 155 269.214844 C 155.015625 268.808594 154.746094 268.390625 154.605469 267.980469 C 153.546875 264.914062 151.550781 262.609375 148.941406 260.722656 Z M 175.5 204.914062 C 175.425781 206.191406 175.511719 207.308594 175.914062 208.492188 C 176.351562 209.789062 176.585938 211.15625 177.011719 212.460938 C 177.207031 213.054688 177.515625 213.78125 177.996094 214.082031 C 181.449219 216.226562 185.03125 217.519531 189.058594 215.484375 C 190.703125 214.652344 191.652344 213.457031 191.761719 211.601562 C 191.84375 210.226562 192.136719 208.84375 192.019531 207.492188 C 191.925781 206.382812 191.546875 205.199219 190.964844 204.253906 C 190.210938 203.035156 189.152344 201.992188 188.171875 200.917969 C 187.003906 199.636719 185.613281 199.097656 183.855469 199.703125 C 183.121094 199.953125 182.300781 199.949219 181.519531 200.0625 C 177.890625 199.851562 175.722656 201.15625 175.5 204.914062 Z M 213.085938 258.222656 C 211.800781 257.066406 210.480469 256.046875 208.746094 255.511719 C 206.84375 254.925781 204.222656 255.78125 203.675781 257.6875 C 203.132812 259.574219 202.027344 260.992188 200.824219 262.46875 C 199.222656 264.425781 197.875 266.597656 197.9375 269.304688 C 197.9375 269.59375 197.925781 269.886719 197.9375 270.175781 C 198.035156 272.210938 198.402344 272.5625 200.441406 272.980469 C 202.636719 273.429688 204.289062 272.277344 205.609375 270.925781 C 206.644531 269.863281 207.582031 269.679688 208.859375 269.917969 C 209.320312 270.003906 209.894531 270.066406 210.277344 269.867188 C 212.183594 268.878906 213.933594 267.59375 214.285156 265.339844 C 214.601562 263.304688 214.589844 261.195312 213.925781 259.1875 C 213.804688 258.8125 213.40625 258.507812 213.085938 258.222656 Z M 222.257812 237.6875 C 224.683594 238.6875 227.667969 236.734375 227.496094 234.078125 C 227.292969 231.019531 226.664062 227.988281 224.585938 225.59375 C 223.132812 223.917969 221.429688 222.453125 219.777344 220.957031 C 219.375 220.59375 218.703125 220.234375 218.214844 220.304688 C 215.960938 220.625 212.90625 222.496094 213.199219 225.34375 C 213.210938 226.46875 215.136719 231.347656 215.914062 232.082031 C 216.277344 232.425781 216.789062 232.605469 217.15625 232.941406 C 217.941406 233.65625 218.871094 234.304688 219.382812 235.191406 C 220.085938 236.402344 221.011719 237.175781 222.257812 237.6875 Z M 193.617188 284.738281 C 190.851562 284.804688 188.40625 285.390625 186.101562 286.476562 C 185.695312 286.667969 185.351562 287.28125 185.25 287.753906 C 185.117188 288.375 185.285156 289.050781 185.265625 289.699219 C 185.238281 290.722656 185.765625 291.355469 186.664062 291.65625 C 187.34375 291.886719 188.0625 292.101562 188.769531 292.121094 C 191.9375 292.214844 194.703125 291.042969 197.210938 289.222656 C 198.25 288.464844 198.203125 286.9375 197.171875 286.039062 C 196.105469 285.109375 194.902344 284.476562 193.617188 284.738281 Z M 157.777344 202.183594 C 155.121094 202.242188 153.3125 204.199219 153.355469 206.972656 C 153.382812 208.644531 155.402344 210.425781 157.207031 210.363281 C 159.460938 210.289062 161.34375 208.402344 161.226562 206.339844 C 161.117188 204.414062 159.242188 202.152344 157.777344 202.183594 Z M 198.714844 228.296875 C 199.976562 229.109375 201.292969 229.929688 202.699219 230.390625 C 204.53125 230.988281 206.171875 229.566406 206.230469 227.210938 C 206.34375 225.402344 204.734375 224.097656 203.539062 222.589844 C 203.414062 222.433594 202.996094 222.40625 202.75 222.46875 C 201.769531 222.714844 200.800781 223.003906 199.832031 223.300781 C 198.3125 223.769531 197.335938 227.410156 198.714844 228.296875 Z M 172.785156 267.222656 C 170.773438 267.441406 169.554688 268.585938 169.570312 270.503906 C 169.585938 272.269531 171.070312 273.75 172.78125 273.707031 C 174.132812 273.675781 175.601562 272.347656 175.558594 271.191406 C 175.382812 269.109375 173.855469 267.105469 172.785156 267.222656 Z M 233.140625 179.835938 C 232.675781 179.898438 232.082031 180.050781 231.824219 180.375 C 230.183594 182.441406 230.367188 184.183594 232.324219 186.089844 C 232.582031 186.34375 232.84375 186.597656 233.109375 186.84375 C 233.980469 187.644531 234.636719 188.46875 234.660156 189.800781 C 234.679688 191.082031 236.605469 192.761719 237.722656 192.777344 C 239.964844 192.816406 241.503906 191.886719 241.917969 190.152344 C 242.066406 189.523438 242.027344 188.851562 242.074219 188.199219 C 242.390625 184.085938 238.550781 179.105469 233.140625 179.835938 Z M 250.355469 243.097656 C 252.546875 243.105469 254.496094 242.433594 254.957031 240.109375 C 255.253906 238.617188 255.179688 236.828125 254.621094 235.433594 C 253.402344 232.394531 252.589844 232.378906 249.515625 232.890625 C 248.882812 232.996094 248.292969 233.335938 247.683594 233.566406 C 246.882812 236.605469 247.289062 239.636719 247.753906 242.664062 C 248.386719 243.480469 249.136719 242.828125 249.835938 242.835938 C 250.011719 242.921875 250.183594 243.011719 250.355469 243.097656 Z M 250.414062 205.425781 C 251.816406 206.085938 254.105469 205.910156 254.90625 205.117188 C 255.800781 204.230469 255.828125 202.203125 254.949219 200.605469 C 254.601562 199.980469 254.1875 199.394531 253.847656 198.765625 C 253.085938 197.378906 252.027344 196.46875 249.9375 196.398438 C 248.832031 196.101562 248.019531 196.972656 247.496094 198.210938 C 246.210938 201.242188 246.722656 203.683594 250.414062 205.425781 Z M 202.289062 182.796875 C 205.253906 183.324219 207.835938 184.769531 210.460938 186.109375 C 211.453125 186.617188 212.4375 186.964844 213.5625 186.761719 C 213.640625 185.867188 214.109375 184.707031 213.722656 184.125 C 212.785156 182.726562 211.644531 181.21875 210.214844 180.453125 C 208.5625 179.566406 206.519531 179.367188 204.625 178.976562 C 202.816406 178.605469 201.527344 179.296875 200.960938 181.128906 C 200.871094 182.109375 201.425781 182.648438 202.289062 182.796875 Z M 221.921875 297.398438 C 221.773438 297.550781 221.628906 297.703125 221.480469 297.859375 C 221.480469 297.859375 221.511719 297.84375 221.511719 297.84375 C 221.25 298.511719 220.769531 299.179688 220.777344 299.84375 C 220.785156 300.777344 219.257812 301.367188 220.179688 302.355469 C 220.859375 303.082031 221.65625 303.890625 222.554688 304.167969 C 223.894531 304.582031 225.425781 304.859375 226.671875 303.773438 C 227.90625 302.695312 229.136719 301.59375 230.261719 300.398438 C 232.421875 298.105469 232.5625 296.710938 231.109375 293.882812 C 227.839844 294.511719 224.753906 295.621094 221.921875 297.398438 Z M 256.035156 275.917969 C 255.617188 276.003906 255.050781 275.941406 254.804688 276.191406 C 252.953125 278.066406 250.71875 279.597656 249.5 282.042969 C 249.597656 282.390625 249.730469 282.730469 249.792969 283.082031 C 250.238281 285.714844 251.03125 286.441406 253.574219 286.480469 C 254.441406 286.492188 255.308594 286.503906 256.167969 286.421875 C 257.738281 286.277344 259.160156 284.992188 259.019531 283.460938 C 258.769531 280.695312 258.625 277.796875 256.035156 275.917969 Z M 269.5 270.375 C 267.863281 269.226562 266.851562 269.347656 264.992188 270.585938 C 264.234375 271.09375 263.328125 271.75 263.683594 272.574219 C 264.0625 273.457031 264.144531 274.636719 265.445312 275.09375 C 267.773438 275.90625 270.199219 274.429688 270.351562 271.523438 C 270.199219 271.3125 269.953125 270.695312 269.5 270.375 Z M 156.320312 183.277344 C 156.226562 182.714844 156.164062 182.148438 156.023438 181.597656 C 155.773438 180.601562 155.191406 179.851562 154.105469 179.847656 C 152.628906 179.84375 151.039062 179.375 149.789062 180.617188 C 149.605469 180.796875 149.507812 181.125 149.480469 181.398438 C 149.316406 183.039062 149.1875 184.679688 149.046875 186.324219 C 151.335938 185.472656 153.625 184.625 155.90625 183.757812 C 156.082031 183.6875 156.183594 183.441406 156.320312 183.277344 Z M 172.09375 167.554688 C 172.378906 167.597656 172.671875 167.589844 172.960938 167.605469 C 173 167.695312 173.039062 167.785156 173.078125 167.875 C 174.320312 167.355469 175.621094 166.9375 176.789062 166.285156 C 177.878906 165.675781 178.097656 164.105469 177.433594 163.039062 C 176.269531 161.179688 175.546875 160.890625 173.304688 161.410156 C 172.816406 161.523438 172.324219 161.636719 171.84375 161.773438 C 170.277344 162.222656 168.996094 163.941406 169.105469 165.429688 C 169.164062 166.285156 170.621094 167.328125 172.09375 167.554688 Z M 172.09375 167.554688 " fill-opacity="1" fill-rule="nonzero"/></svg>