<svg xmlns="http://www.w3.org/2000/svg" xmlns:xlink="http://www.w3.org/1999/xlink" width="65" zoomAndPan="magnify" viewBox="0 0 48.75 48.75" height="65" preserveAspectRatio="xMidYMid meet" version="1.0"><defs><clipPath id="2ee0d44bc4"><path d="M 0 0 L 48.5 0 L 48.5 48.5 L 0 48.5 Z M 0 0 " clip-rule="nonzero"/></clipPath><clipPath id="88f21ef054"><path d="M 0.570312 14.515625 L 48.191406 14.515625 L 48.191406 30.960938 L 0.570312 30.960938 Z M 0.570312 14.515625 " clip-rule="nonzero"/></clipPath></defs><g clip-path="url(#2ee0d44bc4)"><path fill="#ffffff" d="M 0 0 L 48.5 0 L 48.5 48.5 L 0 48.5 Z M 0 0 " fill-opacity="1" fill-rule="nonzero"/><path fill="#ffffff" d="M 0 0 L 48.5 0 L 48.5 48.5 L 0 48.5 Z M 0 0 " fill-opacity="1" fill-rule="nonzero"/></g><g clip-path="url(#88f21ef054)"><path fill="#000000" d="M 21.78125 30.867188 C 18.742188 30.867188 16.015625 30.492188 14.355469 29.628906 C 11.367188 28.058594 10.320312 27.273438 10.203125 26.425781 C 10.148438 26.007812 10.335938 25.597656 10.789062 25.167969 C 11.695312 24.3125 13.1875 25.089844 14.761719 25.917969 C 15.636719 26.378906 16.539062 26.851562 17.304688 27.011719 C 18.109375 27.179688 18.4375 26.695312 18.917969 25.898438 C 19.398438 25.097656 19.960938 24.136719 21.394531 24.441406 C 22.625 24.703125 22.960938 25.582031 23.238281 26.289062 C 23.554688 27.117188 23.730469 27.570312 25.0625 27.09375 C 26.074219 26.703125 26.964844 26.121094 27.730469 25.351562 C 28.558594 24.605469 29.269531 23.964844 30.421875 24.378906 C 30.933594 24.574219 31.398438 24.84375 31.820312 25.191406 C 32.480469 25.699219 32.8125 25.953125 34.136719 25.066406 C 34.996094 24.492188 35.886719 23.96875 36.8125 23.496094 C 36.667969 23.132812 36.503906 22.769531 36.347656 22.421875 L 36.234375 22.175781 C 35.714844 21.035156 34.214844 20.308594 32.882812 19.671875 L 32.402344 19.441406 C 32.425781 19.621094 32.425781 19.800781 32.410156 19.980469 C 32.394531 20.160156 32.359375 20.335938 32.304688 20.507812 C 32.25 20.679688 32.175781 20.847656 32.085938 21.003906 C 31.996094 21.160156 31.890625 21.304688 31.769531 21.4375 C 30.859375 22.429688 30.109375 22.808594 29.597656 22.53125 C 29.035156 22.226562 28.953125 21.257812 29.351562 19.652344 C 30.078125 16.734375 29.519531 16.199219 27.746094 15.40625 C 27.382812 15.25 27.007812 15.164062 26.617188 15.144531 C 26.226562 15.125 25.847656 15.175781 25.472656 15.292969 C 25.972656 16.507812 26.957031 20.789062 25.589844 21.761719 C 25.476562 21.855469 25.34375 21.914062 25.199219 21.9375 C 25.054688 21.957031 24.914062 21.941406 24.773438 21.886719 C 23.898438 21.53125 23.425781 19.570312 23.078125 17.703125 L 23.078125 17.636719 C 22.992188 17.292969 22.847656 16.972656 22.640625 16.6875 C 22.433594 16.398438 22.179688 16.15625 21.878906 15.964844 C 21.703125 15.851562 21.515625 15.753906 21.316406 15.675781 C 21.117188 15.601562 20.914062 15.546875 20.703125 15.511719 C 20.496094 15.476562 20.285156 15.464844 20.074219 15.476562 C 19.863281 15.484375 19.652344 15.515625 19.445312 15.570312 C 19.277344 15.597656 19.113281 15.644531 18.957031 15.714844 C 18.796875 15.789062 18.652344 15.878906 18.523438 15.992188 C 18.390625 16.105469 18.277344 16.234375 18.183594 16.378906 C 18.085938 16.523438 18.015625 16.679688 17.960938 16.84375 C 19.046875 17.167969 20.394531 18.625 21.089844 19.984375 C 21.636719 21.054688 21.699219 21.929688 21.269531 22.449219 C 20.402344 23.496094 19.003906 22.402344 17.773438 21.441406 C 17.148438 20.949219 16.5 20.445312 15.964844 20.230469 C 14.683594 19.707031 12.742188 18.921875 10.527344 23.273438 C 10.296875 23.746094 10.015625 24.1875 9.683594 24.59375 C 9.347656 25 8.972656 25.363281 8.554688 25.679688 C 8.136719 26 7.691406 26.261719 7.210938 26.476562 C 6.730469 26.6875 6.234375 26.84375 5.71875 26.9375 C 4.855469 27.101562 3.988281 27.132812 3.117188 27.03125 C 2.246094 26.929688 1.410156 26.699219 0.605469 26.34375 L 0.824219 25.871094 C 3.265625 26.992188 7.929688 27.214844 10.0625 23.039062 C 12.289062 18.636719 14.367188 19.03125 16.144531 19.742188 C 16.75 19.984375 17.421875 20.523438 18.078125 21.023438 C 19.421875 22.070312 20.347656 22.722656 20.855469 22.109375 C 21.136719 21.769531 21.050781 21.078125 20.609375 20.21875 C 19.914062 18.855469 18.609375 17.554688 17.769531 17.339844 C 17.5625 17.9375 17.335938 18.546875 16.648438 18.910156 C 16.226562 19.148438 15.90625 19.171875 15.691406 19 C 15.585938 18.914062 15.433594 18.703125 15.570312 18.269531 C 15.640625 18.074219 15.734375 17.890625 15.855469 17.71875 C 15.976562 17.546875 16.121094 17.394531 16.28125 17.265625 C 16.445312 17.132812 16.621094 17.023438 16.8125 16.941406 C 17.003906 16.859375 17.203125 16.800781 17.410156 16.773438 C 17.671875 16.0625 18.066406 15.335938 19.3125 15.050781 C 19.554688 14.992188 19.796875 14.957031 20.039062 14.945312 C 20.285156 14.9375 20.53125 14.953125 20.773438 14.992188 C 21.015625 15.03125 21.25 15.097656 21.480469 15.1875 C 21.710938 15.273438 21.929688 15.386719 22.136719 15.519531 C 22.496094 15.75 22.796875 16.039062 23.042969 16.386719 C 23.289062 16.738281 23.460938 17.117188 23.5625 17.535156 L 23.5625 17.597656 C 23.992188 19.921875 24.460938 21.199219 24.941406 21.398438 C 24.996094 21.417969 25.054688 21.421875 25.109375 21.410156 C 25.167969 21.398438 25.21875 21.371094 25.261719 21.332031 C 26.261719 20.621094 25.472656 16.570312 24.945312 15.441406 L 24.632812 15.550781 C 24.113281 15.734375 23.707031 15.882812 23.363281 15.78125 C 23.316406 15.773438 23.269531 15.753906 23.226562 15.730469 C 23.183594 15.707031 23.144531 15.675781 23.113281 15.636719 C 23.082031 15.597656 23.058594 15.554688 23.039062 15.507812 C 23.023438 15.460938 23.015625 15.414062 23.015625 15.363281 C 23.015625 15.011719 23.511719 14.730469 23.960938 14.621094 C 24.160156 14.554688 24.367188 14.539062 24.578125 14.574219 C 24.789062 14.613281 24.980469 14.695312 25.148438 14.832031 C 25.601562 14.671875 26.066406 14.601562 26.546875 14.617188 C 27.027344 14.632812 27.488281 14.734375 27.929688 14.921875 C 29.992188 15.84375 30.589844 16.714844 29.828125 19.773438 C 29.457031 21.261719 29.589844 21.9375 29.828125 22.058594 C 30.070312 22.179688 30.609375 21.910156 31.367188 21.074219 C 31.484375 20.941406 31.582031 20.800781 31.660156 20.644531 C 31.738281 20.492188 31.800781 20.328125 31.835938 20.160156 C 31.875 19.992188 31.894531 19.820312 31.890625 19.644531 C 31.886719 19.472656 31.859375 19.300781 31.8125 19.132812 C 31.09375 18.738281 30.601562 18.347656 30.570312 17.824219 C 30.546875 17.402344 30.746094 17.277344 30.863281 17.238281 C 31.277344 17.101562 31.695312 17.675781 31.859375 17.929688 C 32.027344 18.195312 32.160156 18.480469 32.253906 18.78125 C 32.515625 18.921875 32.804688 19.042969 33.09375 19.195312 C 34.503906 19.875 36.101562 20.640625 36.691406 21.957031 L 36.804688 22.203125 C 36.957031 22.539062 37.117188 22.894531 37.261719 23.269531 C 39.390625 22.261719 41.660156 21.699219 43.429688 22.484375 C 44.390625 22.914062 45.015625 23.601562 45.570312 24.207031 C 46.679688 25.425781 47.414062 26.234375 50.121094 24.46875 L 50.402344 24.90625 C 47.328125 26.898438 46.285156 25.753906 45.195312 24.546875 C 44.652344 23.949219 44.089844 23.335938 43.226562 22.949219 C 41.609375 22.222656 39.476562 22.773438 37.449219 23.734375 C 37.757812 24.660156 37.890625 25.640625 37.46875 26.5625 C 36.949219 27.734375 35.601562 28.617188 33.398438 29.265625 C 29.597656 30.316406 25.722656 30.851562 21.78125 30.867188 Z M 11.785156 25.328125 C 11.542969 25.3125 11.328125 25.386719 11.148438 25.546875 C 10.71875 25.953125 10.699219 26.203125 10.71875 26.355469 C 10.816406 27.058594 12.339844 27.988281 14.59375 29.160156 C 18.265625 31.078125 27.371094 30.496094 33.25 28.777344 C 35.300781 28.175781 36.527344 27.386719 36.996094 26.355469 C 37.335938 25.609375 37.238281 24.789062 36.980469 23.980469 C 36.097656 24.4375 35.242188 24.945312 34.417969 25.503906 C 32.851562 26.550781 32.296875 26.21875 31.496094 25.605469 C 31.117188 25.292969 30.699219 25.046875 30.242188 24.871094 C 29.378906 24.5625 28.859375 25.03125 28.074219 25.738281 C 27.253906 26.554688 26.304688 27.171875 25.226562 27.585938 C 23.429688 28.234375 23.070312 27.300781 22.75 26.480469 C 22.488281 25.800781 22.230469 25.15625 21.285156 24.953125 C 20.226562 24.726562 19.824219 25.394531 19.363281 26.167969 C 18.902344 26.9375 18.402344 27.773438 17.199219 27.523438 C 16.363281 27.347656 15.425781 26.855469 14.519531 26.382812 C 13.539062 25.859375 12.496094 25.328125 11.785156 25.328125 Z M 17.210938 17.339844 C 17 17.40625 16.8125 17.507812 16.640625 17.644531 C 16.46875 17.777344 16.324219 17.941406 16.210938 18.125 C 16.109375 18.265625 16.050781 18.421875 16.03125 18.59375 C 16.164062 18.574219 16.289062 18.527344 16.40625 18.457031 C 16.851562 18.195312 17.042969 17.804688 17.210938 17.339844 Z M 31.101562 17.804688 C 31.164062 18.027344 31.292969 18.195312 31.492188 18.308594 C 31.386719 18.121094 31.257812 17.953125 31.101562 17.804688 Z M 24.394531 15.089844 C 24.152344 15.097656 23.921875 15.164062 23.710938 15.285156 C 23.945312 15.242188 24.171875 15.175781 24.394531 15.089844 Z M 24.394531 15.089844 " fill-opacity="1" fill-rule="nonzero"/></g><path fill="#000000" d="M 7.679688 20.058594 L 5.589844 19.40625 L 5.808594 19.054688 L 7.441406 19.628906 L 6.246094 18.355469 L 6.476562 17.992188 L 8.136719 18.519531 L 6.90625 17.300781 L 7.128906 16.945312 L 8.621094 18.554688 L 8.375 18.945312 L 6.824219 18.472656 L 7.921875 19.667969 Z M 7.679688 20.058594 " fill-opacity="1" fill-rule="nonzero"/><path fill="#000000" d="M 9.78125 17.039062 L 8.773438 15.015625 L 9.070312 14.699219 L 11.140625 15.597656 L 10.859375 15.894531 L 10.386719 15.679688 L 9.816406 16.28125 L 10.058594 16.742188 Z M 9.671875 15.996094 L 10.09375 15.550781 L 9.246094 15.171875 Z M 9.671875 15.996094 " fill-opacity="1" fill-rule="nonzero"/><path fill="#000000" d="M 12.269531 14.617188 L 10.996094 12.925781 L 11.617188 12.460938 C 11.753906 12.359375 11.882812 12.296875 12.007812 12.28125 C 12.128906 12.261719 12.238281 12.273438 12.339844 12.316406 C 12.441406 12.363281 12.53125 12.429688 12.601562 12.523438 C 12.679688 12.628906 12.722656 12.746094 12.734375 12.871094 C 12.742188 12.996094 12.707031 13.121094 12.621094 13.246094 L 13.503906 13.691406 L 13.148438 13.957031 L 12.332031 13.527344 L 12.078125 13.71875 L 12.578125 14.386719 Z M 11.90625 13.492188 L 12.199219 13.273438 C 12.300781 13.195312 12.355469 13.113281 12.367188 13.027344 C 12.378906 12.941406 12.355469 12.855469 12.292969 12.769531 C 12.230469 12.691406 12.160156 12.644531 12.078125 12.632812 C 11.992188 12.621094 11.898438 12.65625 11.792969 12.734375 L 11.5 12.953125 Z M 11.90625 13.492188 " fill-opacity="1" fill-rule="nonzero"/><path fill="#000000" d="M 14.804688 12.855469 L 13.859375 10.957031 L 14.265625 10.753906 L 15.472656 11.65625 L 15.46875 10.15625 L 15.878906 9.949219 L 16.824219 11.847656 L 16.476562 12.019531 L 15.824219 10.710938 L 15.816406 12.011719 L 15.542969 12.152344 L 14.496094 11.371094 L 15.152344 12.679688 Z M 14.804688 12.855469 " fill-opacity="1" fill-rule="nonzero"/><path fill="#000000" d="M 20.261719 10.765625 L 19.90625 8.675781 L 20.621094 8.554688 C 20.863281 8.515625 21.070312 8.523438 21.242188 8.585938 C 21.414062 8.644531 21.554688 8.746094 21.65625 8.890625 C 21.761719 9.03125 21.832031 9.210938 21.867188 9.421875 C 21.902344 9.632812 21.894531 9.820312 21.84375 9.992188 C 21.792969 10.160156 21.695312 10.300781 21.554688 10.414062 C 21.410156 10.523438 21.21875 10.601562 20.972656 10.644531 Z M 20.585938 10.371094 L 20.898438 10.320312 C 21.074219 10.289062 21.207031 10.238281 21.300781 10.164062 C 21.390625 10.089844 21.449219 9.996094 21.476562 9.882812 C 21.5 9.769531 21.5 9.636719 21.476562 9.484375 C 21.449219 9.335938 21.40625 9.210938 21.34375 9.113281 C 21.28125 9.011719 21.195312 8.945312 21.082031 8.902344 C 20.972656 8.863281 20.832031 8.855469 20.65625 8.886719 L 20.34375 8.9375 Z M 20.585938 10.371094 " fill-opacity="1" fill-rule="nonzero"/><path fill="#000000" d="M 23.601562 10.351562 L 23.597656 8.234375 L 24.980469 8.230469 L 24.980469 8.542969 L 23.988281 8.546875 L 23.988281 9.125 L 24.890625 9.121094 L 24.890625 9.425781 L 23.988281 9.429688 L 23.988281 10.042969 L 24.984375 10.039062 L 24.984375 10.347656 Z M 23.601562 10.351562 " fill-opacity="1" fill-rule="nonzero"/><path fill="#000000" d="M 26.574219 10.472656 L 26.894531 8.378906 L 27.277344 8.4375 L 27.003906 10.230469 L 27.925781 10.375 L 27.882812 10.671875 Z M 26.574219 10.472656 " fill-opacity="1" fill-rule="nonzero"/><path fill="#000000" d="M 29.429688 11.046875 L 30.019531 9.011719 L 30.390625 9.121094 L 29.804688 11.15625 Z M 29.429688 11.046875 " fill-opacity="1" fill-rule="nonzero"/><path fill="#000000" d="M 32.191406 12.089844 C 32.011719 12.007812 31.871094 11.894531 31.773438 11.746094 C 31.671875 11.605469 31.621094 11.441406 31.613281 11.261719 C 31.605469 11.078125 31.648438 10.886719 31.738281 10.695312 C 31.828125 10.496094 31.945312 10.335938 32.09375 10.222656 C 32.242188 10.105469 32.40625 10.039062 32.585938 10.019531 C 32.769531 10 32.960938 10.035156 33.15625 10.125 C 33.382812 10.230469 33.546875 10.367188 33.644531 10.546875 C 33.746094 10.722656 33.773438 10.914062 33.734375 11.125 L 33.335938 10.945312 C 33.351562 10.84375 33.328125 10.75 33.273438 10.664062 C 33.21875 10.578125 33.132812 10.507812 33.011719 10.453125 C 32.820312 10.363281 32.640625 10.355469 32.480469 10.429688 C 32.320312 10.507812 32.195312 10.648438 32.097656 10.863281 C 32 11.074219 31.972656 11.261719 32.023438 11.425781 C 32.074219 11.589844 32.1875 11.710938 32.367188 11.792969 C 32.542969 11.871094 32.695312 11.886719 32.828125 11.832031 C 32.957031 11.777344 33.070312 11.679688 33.160156 11.53125 L 32.671875 11.3125 L 32.792969 11.046875 L 33.636719 11.433594 L 33.152344 12.488281 L 32.828125 12.339844 L 32.914062 12.078125 C 32.808594 12.140625 32.699219 12.171875 32.585938 12.179688 C 32.46875 12.1875 32.335938 12.15625 32.191406 12.089844 Z M 32.191406 12.089844 " fill-opacity="1" fill-rule="nonzero"/><path fill="#000000" d="M 34.519531 13.285156 L 35.730469 11.550781 L 36.050781 11.769531 L 35.546875 12.492188 L 36.324219 13.035156 L 36.824219 12.3125 L 37.144531 12.535156 L 35.933594 14.273438 L 35.613281 14.050781 L 36.144531 13.296875 L 35.367188 12.75 L 34.839844 13.507812 Z M 34.519531 13.285156 " fill-opacity="1" fill-rule="nonzero"/><path fill="#000000" d="M 37.53125 15.671875 L 38.796875 14.382812 L 38.355469 13.949219 L 38.574219 13.726562 L 39.734375 14.863281 L 39.515625 15.089844 L 39.074219 14.652344 L 37.808594 15.941406 Z M 37.53125 15.671875 " fill-opacity="1" fill-rule="nonzero"/><path fill="#000000" d="M 39.636719 18.121094 C 39.542969 18 39.484375 17.875 39.457031 17.746094 C 39.429688 17.617188 39.433594 17.496094 39.472656 17.382812 C 39.511719 17.269531 39.589844 17.167969 39.703125 17.082031 L 39.945312 17.410156 C 39.867188 17.46875 39.820312 17.550781 39.808594 17.644531 C 39.792969 17.738281 39.820312 17.832031 39.894531 17.929688 C 39.957031 18.011719 40.023438 18.0625 40.101562 18.082031 C 40.175781 18.101562 40.246094 18.089844 40.3125 18.039062 C 40.382812 17.984375 40.417969 17.925781 40.425781 17.851562 C 40.4375 17.78125 40.425781 17.703125 40.398438 17.613281 C 40.367188 17.523438 40.335938 17.429688 40.304688 17.324219 C 40.25 17.160156 40.238281 17.019531 40.257812 16.894531 C 40.277344 16.773438 40.347656 16.671875 40.464844 16.582031 C 40.566406 16.503906 40.671875 16.464844 40.777344 16.460938 C 40.886719 16.457031 40.992188 16.484375 41.09375 16.542969 C 41.195312 16.597656 41.289062 16.683594 41.375 16.796875 C 41.457031 16.910156 41.511719 17.023438 41.535156 17.140625 C 41.558594 17.253906 41.554688 17.363281 41.515625 17.46875 C 41.480469 17.574219 41.414062 17.664062 41.316406 17.742188 L 41.070312 17.410156 C 41.128906 17.363281 41.164062 17.300781 41.175781 17.222656 C 41.1875 17.144531 41.167969 17.0625 41.105469 16.984375 C 41.0625 16.914062 41.003906 16.867188 40.933594 16.847656 C 40.863281 16.828125 40.792969 16.84375 40.730469 16.894531 C 40.671875 16.933594 40.640625 16.984375 40.632812 17.046875 C 40.628906 17.105469 40.636719 17.175781 40.65625 17.253906 C 40.679688 17.332031 40.707031 17.421875 40.742188 17.519531 C 40.773438 17.625 40.796875 17.726562 40.808594 17.828125 C 40.820312 17.925781 40.8125 18.019531 40.777344 18.105469 C 40.746094 18.195312 40.679688 18.277344 40.578125 18.351562 C 40.488281 18.417969 40.386719 18.457031 40.28125 18.46875 C 40.171875 18.480469 40.058594 18.457031 39.945312 18.398438 C 39.832031 18.34375 39.730469 18.25 39.636719 18.121094 Z M 39.636719 18.121094 " fill-opacity="1" fill-rule="nonzero"/><path fill="#000000" d="M 12.519531 34.277344 L 12.519531 32.691406 L 13.007812 32.691406 C 13.285156 32.691406 13.492188 32.761719 13.625 32.90625 C 13.753906 33.046875 13.820312 33.242188 13.820312 33.488281 C 13.820312 33.730469 13.753906 33.925781 13.625 34.066406 C 13.492188 34.207031 13.285156 34.277344 13.007812 34.277344 Z M 12.707031 34.117188 L 13 34.117188 C 13.15625 34.117188 13.277344 34.09375 13.371094 34.046875 C 13.460938 33.996094 13.527344 33.921875 13.566406 33.828125 C 13.605469 33.730469 13.625 33.621094 13.625 33.488281 C 13.625 33.355469 13.605469 33.242188 13.566406 33.148438 C 13.527344 33.050781 13.460938 32.976562 13.371094 32.925781 C 13.277344 32.875 13.15625 32.847656 13 32.847656 L 12.707031 32.847656 Z M 12.707031 34.117188 " fill-opacity="1" fill-rule="nonzero"/><path fill="#000000" d="M 14.804688 34.304688 C 14.699219 34.304688 14.601562 34.28125 14.519531 34.230469 C 14.433594 34.183594 14.371094 34.113281 14.324219 34.027344 C 14.277344 33.9375 14.253906 33.835938 14.253906 33.71875 C 14.253906 33.597656 14.273438 33.496094 14.320312 33.40625 C 14.367188 33.320312 14.433594 33.25 14.519531 33.199219 C 14.601562 33.152344 14.699219 33.125 14.808594 33.125 C 14.917969 33.125 15.011719 33.152344 15.089844 33.199219 C 15.171875 33.25 15.234375 33.316406 15.273438 33.394531 C 15.316406 33.472656 15.339844 33.558594 15.339844 33.652344 C 15.339844 33.667969 15.335938 33.683594 15.335938 33.703125 C 15.335938 33.71875 15.335938 33.738281 15.335938 33.757812 L 14.441406 33.757812 C 14.445312 33.847656 14.464844 33.917969 14.5 33.972656 C 14.535156 34.03125 14.578125 34.074219 14.632812 34.105469 C 14.6875 34.132812 14.746094 34.144531 14.804688 34.144531 C 14.882812 34.144531 14.949219 34.128906 15.003906 34.09375 C 15.054688 34.054688 15.09375 34.003906 15.117188 33.941406 L 15.304688 33.941406 C 15.277344 34.046875 15.21875 34.132812 15.132812 34.203125 C 15.046875 34.269531 14.9375 34.304688 14.804688 34.304688 Z M 14.804688 33.285156 C 14.714844 33.285156 14.632812 33.3125 14.5625 33.367188 C 14.492188 33.425781 14.453125 33.503906 14.441406 33.609375 L 15.148438 33.609375 C 15.144531 33.511719 15.113281 33.433594 15.046875 33.375 C 14.980469 33.316406 14.902344 33.285156 14.804688 33.285156 Z M 14.804688 33.285156 " fill-opacity="1" fill-rule="nonzero"/><path fill="#000000" d="M 15.804688 32.644531 L 15.996094 32.644531 L 15.996094 34.277344 L 15.804688 34.277344 Z M 15.804688 32.644531 " fill-opacity="1" fill-rule="nonzero"/><path fill="#000000" d="M 16.636719 32.90625 C 16.597656 32.90625 16.566406 32.894531 16.539062 32.867188 C 16.515625 32.839844 16.503906 32.808594 16.503906 32.773438 C 16.503906 32.738281 16.515625 32.707031 16.539062 32.683594 C 16.566406 32.660156 16.597656 32.644531 16.636719 32.644531 C 16.671875 32.644531 16.703125 32.660156 16.730469 32.683594 C 16.753906 32.707031 16.769531 32.738281 16.769531 32.773438 C 16.769531 32.808594 16.753906 32.839844 16.730469 32.867188 C 16.703125 32.894531 16.671875 32.90625 16.636719 32.90625 Z M 16.539062 34.277344 L 16.539062 33.152344 L 16.730469 33.152344 L 16.730469 34.277344 Z M 16.539062 34.277344 " fill-opacity="1" fill-rule="nonzero"/><path fill="#000000" d="M 17.722656 33.925781 C 17.65625 33.925781 17.597656 33.917969 17.542969 33.902344 L 17.433594 34.007812 C 17.449219 34.019531 17.46875 34.027344 17.492188 34.035156 C 17.519531 34.042969 17.554688 34.050781 17.601562 34.058594 C 17.648438 34.066406 17.714844 34.074219 17.796875 34.082031 C 17.949219 34.09375 18.058594 34.128906 18.125 34.1875 C 18.1875 34.246094 18.21875 34.320312 18.21875 34.417969 C 18.21875 34.480469 18.203125 34.542969 18.167969 34.601562 C 18.132812 34.664062 18.078125 34.710938 18.003906 34.75 C 17.933594 34.785156 17.835938 34.804688 17.722656 34.804688 C 17.621094 34.804688 17.53125 34.789062 17.453125 34.761719 C 17.375 34.738281 17.3125 34.699219 17.265625 34.644531 C 17.222656 34.589844 17.203125 34.523438 17.203125 34.441406 C 17.203125 34.398438 17.210938 34.355469 17.234375 34.304688 C 17.257812 34.257812 17.300781 34.210938 17.363281 34.167969 C 17.332031 34.152344 17.300781 34.136719 17.277344 34.121094 C 17.253906 34.105469 17.234375 34.089844 17.214844 34.070312 L 17.214844 34.015625 L 17.410156 33.824219 C 17.316406 33.75 17.273438 33.648438 17.273438 33.527344 C 17.273438 33.449219 17.289062 33.382812 17.324219 33.324219 C 17.359375 33.265625 17.410156 33.214844 17.476562 33.179688 C 17.542969 33.144531 17.625 33.125 17.722656 33.125 C 17.785156 33.125 17.84375 33.136719 17.894531 33.152344 L 18.3125 33.152344 L 18.3125 33.296875 L 18.101562 33.308594 C 18.144531 33.371094 18.167969 33.441406 18.167969 33.527344 C 18.167969 33.601562 18.148438 33.667969 18.113281 33.730469 C 18.078125 33.789062 18.027344 33.835938 17.960938 33.871094 C 17.894531 33.90625 17.816406 33.925781 17.722656 33.925781 Z M 17.722656 33.769531 C 17.800781 33.769531 17.863281 33.746094 17.910156 33.707031 C 17.960938 33.664062 17.984375 33.605469 17.984375 33.527344 C 17.984375 33.449219 17.960938 33.390625 17.910156 33.347656 C 17.863281 33.308594 17.800781 33.285156 17.722656 33.285156 C 17.640625 33.285156 17.574219 33.308594 17.527344 33.347656 C 17.480469 33.390625 17.457031 33.449219 17.457031 33.527344 C 17.457031 33.605469 17.480469 33.664062 17.527344 33.707031 C 17.574219 33.746094 17.640625 33.769531 17.722656 33.769531 Z M 17.386719 34.421875 C 17.386719 34.5 17.417969 34.554688 17.480469 34.589844 C 17.546875 34.628906 17.628906 34.648438 17.722656 34.648438 C 17.816406 34.648438 17.890625 34.628906 17.949219 34.585938 C 18.003906 34.546875 18.035156 34.492188 18.035156 34.421875 C 18.035156 34.375 18.015625 34.332031 17.976562 34.296875 C 17.9375 34.261719 17.863281 34.238281 17.757812 34.234375 C 17.675781 34.226562 17.601562 34.222656 17.542969 34.214844 C 17.476562 34.246094 17.4375 34.28125 17.417969 34.320312 C 17.398438 34.359375 17.386719 34.394531 17.386719 34.421875 Z M 17.386719 34.421875 " fill-opacity="1" fill-rule="nonzero"/><path fill="#000000" d="M 18.742188 34.277344 L 18.742188 32.644531 L 18.933594 32.644531 L 18.933594 33.34375 C 18.96875 33.277344 19.023438 33.222656 19.09375 33.1875 C 19.160156 33.148438 19.238281 33.125 19.320312 33.125 C 19.449219 33.125 19.554688 33.167969 19.632812 33.246094 C 19.710938 33.328125 19.75 33.453125 19.75 33.621094 L 19.75 34.277344 L 19.5625 34.277344 L 19.5625 33.640625 C 19.5625 33.40625 19.46875 33.289062 19.277344 33.289062 C 19.179688 33.289062 19.097656 33.324219 19.03125 33.394531 C 18.964844 33.464844 18.933594 33.566406 18.933594 33.695312 L 18.933594 34.277344 Z M 18.742188 34.277344 " fill-opacity="1" fill-rule="nonzero"/><path fill="#000000" d="M 20.699219 34.277344 C 20.59375 34.277344 20.511719 34.253906 20.453125 34.203125 C 20.394531 34.152344 20.363281 34.0625 20.363281 33.933594 L 20.363281 33.316406 L 20.167969 33.316406 L 20.167969 33.152344 L 20.363281 33.152344 L 20.390625 32.882812 L 20.554688 32.882812 L 20.554688 33.152344 L 20.886719 33.152344 L 20.886719 33.316406 L 20.554688 33.316406 L 20.554688 33.933594 C 20.554688 34.003906 20.570312 34.050781 20.597656 34.078125 C 20.625 34.105469 20.675781 34.117188 20.75 34.117188 L 20.867188 34.117188 L 20.867188 34.277344 Z M 20.699219 34.277344 " fill-opacity="1" fill-rule="nonzero"/><path fill="#000000" d="M 22.273438 32.90625 C 22.234375 32.90625 22.203125 32.894531 22.175781 32.867188 C 22.152344 32.839844 22.140625 32.808594 22.140625 32.773438 C 22.140625 32.738281 22.152344 32.707031 22.175781 32.683594 C 22.203125 32.660156 22.234375 32.644531 22.273438 32.644531 C 22.308594 32.644531 22.339844 32.660156 22.367188 32.683594 C 22.390625 32.707031 22.40625 32.738281 22.40625 32.773438 C 22.40625 32.808594 22.390625 32.839844 22.367188 32.867188 C 22.339844 32.894531 22.308594 32.90625 22.273438 32.90625 Z M 22.175781 34.277344 L 22.175781 33.152344 L 22.367188 33.152344 L 22.367188 34.277344 Z M 22.175781 34.277344 " fill-opacity="1" fill-rule="nonzero"/><path fill="#000000" d="M 22.914062 34.277344 L 22.914062 33.152344 L 23.082031 33.152344 L 23.09375 33.355469 C 23.132812 33.285156 23.183594 33.230469 23.253906 33.1875 C 23.320312 33.148438 23.398438 33.125 23.484375 33.125 C 23.617188 33.125 23.722656 33.167969 23.800781 33.246094 C 23.882812 33.328125 23.921875 33.453125 23.921875 33.621094 L 23.921875 34.277344 L 23.730469 34.277344 L 23.730469 33.640625 C 23.730469 33.40625 23.632812 33.289062 23.441406 33.289062 C 23.34375 33.289062 23.265625 33.324219 23.199219 33.394531 C 23.136719 33.464844 23.105469 33.566406 23.105469 33.695312 L 23.105469 34.277344 Z M 22.914062 34.277344 " fill-opacity="1" fill-rule="nonzero"/><path fill="#000000" d="M 25.25 34.277344 L 25.25 32.691406 L 26.230469 32.691406 L 26.230469 32.847656 L 25.4375 32.847656 L 25.4375 33.402344 L 26.160156 33.402344 L 26.160156 33.554688 L 25.4375 33.554688 L 25.4375 34.121094 L 26.230469 34.121094 L 26.230469 34.277344 Z M 25.25 34.277344 " fill-opacity="1" fill-rule="nonzero"/><path fill="#000000" d="M 27.054688 34.277344 L 26.625 33.152344 L 26.828125 33.152344 L 27.164062 34.09375 L 27.507812 33.152344 L 27.703125 33.152344 L 27.273438 34.277344 Z M 27.054688 34.277344 " fill-opacity="1" fill-rule="nonzero"/><path fill="#000000" d="M 28.628906 34.304688 C 28.523438 34.304688 28.429688 34.28125 28.34375 34.230469 C 28.261719 34.183594 28.195312 34.113281 28.148438 34.027344 C 28.101562 33.9375 28.078125 33.835938 28.078125 33.71875 C 28.078125 33.597656 28.101562 33.496094 28.144531 33.40625 C 28.191406 33.320312 28.257812 33.25 28.34375 33.199219 C 28.429688 33.152344 28.523438 33.125 28.636719 33.125 C 28.742188 33.125 28.835938 33.152344 28.917969 33.199219 C 28.996094 33.25 29.058594 33.316406 29.101562 33.394531 C 29.144531 33.472656 29.164062 33.558594 29.164062 33.652344 C 29.164062 33.667969 29.164062 33.683594 29.160156 33.703125 C 29.160156 33.71875 29.160156 33.738281 29.160156 33.757812 L 28.265625 33.757812 C 28.269531 33.847656 28.289062 33.917969 28.324219 33.972656 C 28.363281 34.03125 28.40625 34.074219 28.457031 34.105469 C 28.511719 34.132812 28.570312 34.144531 28.628906 34.144531 C 28.707031 34.144531 28.773438 34.128906 28.828125 34.09375 C 28.882812 34.054688 28.917969 34.003906 28.941406 33.941406 L 29.132812 33.941406 C 29.101562 34.046875 29.042969 34.132812 28.957031 34.203125 C 28.875 34.269531 28.765625 34.304688 28.628906 34.304688 Z M 28.628906 33.285156 C 28.539062 33.285156 28.457031 33.3125 28.386719 33.367188 C 28.320312 33.425781 28.277344 33.503906 28.265625 33.609375 L 28.976562 33.609375 C 28.972656 33.511719 28.9375 33.433594 28.871094 33.375 C 28.808594 33.316406 28.726562 33.285156 28.628906 33.285156 Z M 28.628906 33.285156 " fill-opacity="1" fill-rule="nonzero"/><path fill="#000000" d="M 29.628906 34.277344 L 29.628906 33.152344 L 29.800781 33.152344 L 29.816406 33.367188 C 29.851562 33.292969 29.902344 33.234375 29.976562 33.191406 C 30.046875 33.148438 30.136719 33.125 30.242188 33.125 L 30.242188 33.324219 L 30.1875 33.324219 C 30.121094 33.324219 30.058594 33.335938 30 33.359375 C 29.945312 33.382812 29.902344 33.425781 29.867188 33.480469 C 29.835938 33.535156 29.820312 33.613281 29.820312 33.710938 L 29.820312 34.277344 Z M 29.628906 34.277344 " fill-opacity="1" fill-rule="nonzero"/><path fill="#000000" d="M 30.785156 34.777344 L 31.066406 34.167969 L 31.003906 34.167969 L 30.554688 33.152344 L 30.761719 33.152344 L 31.132812 34.03125 L 31.527344 33.152344 L 31.726562 33.152344 L 30.988281 34.777344 Z M 30.785156 34.777344 " fill-opacity="1" fill-rule="nonzero"/><path fill="#000000" d="M 32.964844 34.277344 L 32.964844 32.691406 L 33.523438 32.691406 C 33.636719 32.691406 33.730469 32.707031 33.800781 32.742188 C 33.875 32.777344 33.929688 32.828125 33.964844 32.890625 C 34 32.953125 34.019531 33.019531 34.019531 33.09375 C 34.019531 33.195312 33.992188 33.277344 33.9375 33.335938 C 33.882812 33.394531 33.816406 33.4375 33.738281 33.460938 C 33.800781 33.472656 33.851562 33.496094 33.898438 33.53125 C 33.949219 33.566406 33.988281 33.613281 34.015625 33.667969 C 34.042969 33.71875 34.054688 33.78125 34.054688 33.84375 C 34.054688 33.925781 34.035156 34 33.996094 34.066406 C 33.957031 34.132812 33.898438 34.183594 33.824219 34.222656 C 33.746094 34.261719 33.652344 34.277344 33.542969 34.277344 Z M 33.15625 33.382812 L 33.511719 33.382812 C 33.613281 33.382812 33.691406 33.359375 33.742188 33.3125 C 33.796875 33.265625 33.824219 33.199219 33.824219 33.113281 C 33.824219 33.035156 33.796875 32.96875 33.742188 32.921875 C 33.691406 32.875 33.609375 32.847656 33.503906 32.847656 L 33.15625 32.847656 Z M 33.15625 34.117188 L 33.523438 34.117188 C 33.628906 34.117188 33.714844 34.09375 33.773438 34.046875 C 33.832031 33.996094 33.859375 33.921875 33.859375 33.832031 C 33.859375 33.742188 33.828125 33.671875 33.765625 33.617188 C 33.707031 33.5625 33.621094 33.539062 33.515625 33.539062 L 33.15625 33.539062 Z M 33.15625 34.117188 " fill-opacity="1" fill-rule="nonzero"/><path fill="#000000" d="M 34.648438 32.90625 C 34.609375 32.90625 34.578125 32.894531 34.554688 32.867188 C 34.53125 32.839844 34.519531 32.808594 34.519531 32.773438 C 34.519531 32.738281 34.53125 32.707031 34.554688 32.683594 C 34.578125 32.660156 34.609375 32.644531 34.648438 32.644531 C 34.683594 32.644531 34.71875 32.660156 34.742188 32.683594 C 34.769531 32.707031 34.78125 32.738281 34.78125 32.773438 C 34.78125 32.808594 34.769531 32.839844 34.742188 32.867188 C 34.71875 32.894531 34.683594 32.90625 34.648438 32.90625 Z M 34.554688 34.277344 L 34.554688 33.152344 L 34.742188 33.152344 L 34.742188 34.277344 Z M 34.554688 34.277344 " fill-opacity="1" fill-rule="nonzero"/><path fill="#000000" d="M 35.734375 34.277344 C 35.628906 34.277344 35.546875 34.253906 35.488281 34.203125 C 35.429688 34.152344 35.402344 34.0625 35.402344 33.933594 L 35.402344 33.316406 L 35.207031 33.316406 L 35.207031 33.152344 L 35.402344 33.152344 L 35.425781 32.882812 L 35.59375 32.882812 L 35.59375 33.152344 L 35.921875 33.152344 L 35.921875 33.316406 L 35.59375 33.316406 L 35.59375 33.933594 C 35.59375 34.003906 35.605469 34.050781 35.632812 34.078125 C 35.664062 34.105469 35.714844 34.117188 35.789062 34.117188 L 35.90625 34.117188 L 35.90625 34.277344 Z M 35.734375 34.277344 " fill-opacity="1" fill-rule="nonzero"/><path fill="#000000" d="M 36.886719 34.304688 C 36.777344 34.304688 36.683594 34.28125 36.597656 34.230469 C 36.515625 34.183594 36.449219 34.113281 36.402344 34.027344 C 36.355469 33.9375 36.332031 33.835938 36.332031 33.71875 C 36.332031 33.597656 36.355469 33.496094 36.402344 33.40625 C 36.449219 33.320312 36.511719 33.25 36.597656 33.199219 C 36.683594 33.152344 36.78125 33.125 36.890625 33.125 C 37 33.125 37.09375 33.152344 37.171875 33.199219 C 37.25 33.25 37.3125 33.316406 37.355469 33.394531 C 37.398438 33.472656 37.417969 33.558594 37.417969 33.652344 C 37.417969 33.667969 37.417969 33.683594 37.417969 33.703125 C 37.417969 33.71875 37.417969 33.738281 37.417969 33.757812 L 36.523438 33.757812 C 36.523438 33.847656 36.546875 33.917969 36.582031 33.972656 C 36.617188 34.03125 36.660156 34.074219 36.714844 34.105469 C 36.769531 34.132812 36.824219 34.144531 36.886719 34.144531 C 36.964844 34.144531 37.03125 34.128906 37.082031 34.09375 C 37.136719 34.054688 37.175781 34.003906 37.199219 33.941406 L 37.386719 33.941406 C 37.355469 34.046875 37.300781 34.132812 37.210938 34.203125 C 37.128906 34.269531 37.019531 34.304688 36.886719 34.304688 Z M 36.886719 33.285156 C 36.792969 33.285156 36.714844 33.3125 36.644531 33.367188 C 36.574219 33.425781 36.535156 33.503906 36.523438 33.609375 L 37.230469 33.609375 C 37.226562 33.511719 37.191406 33.433594 37.128906 33.375 C 37.0625 33.316406 36.980469 33.285156 36.886719 33.285156 Z M 36.886719 33.285156 " fill-opacity="1" fill-rule="nonzero"/></svg>