<svg xmlns="http://www.w3.org/2000/svg" xmlns:xlink="http://www.w3.org/1999/xlink" width="65" zoomAndPan="magnify" viewBox="0 0 48.75 48.75" height="65" preserveAspectRatio="xMidYMid meet" version="1.0"><defs><clipPath id="a8e5cb353f"><path d="M 0 0 L 48.5 0 L 48.5 48.5 L 0 48.5 Z M 0 0 " clip-rule="nonzero"/></clipPath><clipPath id="78779a8738"><path d="M 0.570312 15.710938 L 48.191406 15.710938 L 48.191406 32.15625 L 0.570312 32.15625 Z M 0.570312 15.710938 " clip-rule="nonzero"/></clipPath></defs><g clip-path="url(#a8e5cb353f)"><path fill="#ffffff" d="M 0 0 L 48.5 0 L 48.5 48.5 L 0 48.5 Z M 0 0 " fill-opacity="1" fill-rule="nonzero"/><path fill="#e8dfd3" d="M 0 0 L 48.5 0 L 48.5 48.5 L 0 48.5 Z M 0 0 " fill-opacity="1" fill-rule="nonzero"/></g><g clip-path="url(#78779a8738)"><path fill="#000000" d="M 21.78125 32.0625 C 18.742188 32.0625 16.015625 31.6875 14.355469 30.820312 C 11.367188 29.25 10.320312 28.464844 10.203125 27.617188 C 10.148438 27.199219 10.335938 26.789062 10.789062 26.363281 C 11.695312 25.503906 13.1875 26.285156 14.761719 27.109375 C 15.636719 27.570312 16.539062 28.046875 17.304688 28.203125 C 18.109375 28.371094 18.4375 27.886719 18.917969 27.089844 C 19.398438 26.292969 19.960938 25.332031 21.394531 25.636719 C 22.625 25.898438 22.960938 26.777344 23.238281 27.484375 C 23.554688 28.308594 23.730469 28.765625 25.0625 28.289062 C 26.074219 27.898438 26.964844 27.316406 27.730469 26.546875 C 28.558594 25.800781 29.269531 25.15625 30.421875 25.570312 C 30.933594 25.765625 31.398438 26.035156 31.820312 26.382812 C 32.480469 26.890625 32.8125 27.148438 34.136719 26.261719 C 34.996094 25.683594 35.886719 25.160156 36.8125 24.691406 C 36.667969 24.324219 36.503906 23.964844 36.347656 23.617188 L 36.234375 23.371094 C 35.714844 22.226562 34.214844 21.5 32.882812 20.863281 L 32.402344 20.632812 C 32.425781 20.8125 32.425781 20.992188 32.410156 21.171875 C 32.394531 21.351562 32.359375 21.53125 32.304688 21.703125 C 32.25 21.875 32.175781 22.039062 32.085938 22.195312 C 31.996094 22.351562 31.890625 22.496094 31.769531 22.632812 C 30.859375 23.625 30.109375 24 29.597656 23.722656 C 29.035156 23.417969 28.953125 22.449219 29.351562 20.84375 C 30.078125 17.925781 29.519531 17.390625 27.746094 16.597656 C 27.382812 16.445312 27.007812 16.359375 26.617188 16.339844 C 26.226562 16.320312 25.847656 16.367188 25.472656 16.484375 C 25.972656 17.703125 26.957031 21.980469 25.589844 22.957031 C 25.476562 23.046875 25.34375 23.105469 25.199219 23.128906 C 25.054688 23.152344 24.914062 23.136719 24.773438 23.082031 C 23.898438 22.722656 23.425781 20.765625 23.078125 18.894531 L 23.078125 18.832031 C 22.992188 18.484375 22.847656 18.167969 22.640625 17.878906 C 22.433594 17.589844 22.179688 17.347656 21.878906 17.15625 C 21.703125 17.042969 21.515625 16.945312 21.316406 16.871094 C 21.117188 16.792969 20.914062 16.738281 20.703125 16.703125 C 20.496094 16.671875 20.285156 16.660156 20.074219 16.667969 C 19.863281 16.679688 19.652344 16.710938 19.445312 16.761719 C 19.277344 16.789062 19.113281 16.835938 18.957031 16.910156 C 18.796875 16.980469 18.652344 17.074219 18.523438 17.1875 C 18.390625 17.300781 18.277344 17.425781 18.183594 17.574219 C 18.085938 17.71875 18.015625 17.871094 17.960938 18.039062 C 19.046875 18.363281 20.394531 19.816406 21.089844 21.175781 C 21.636719 22.246094 21.699219 23.125 21.269531 23.640625 C 20.402344 24.6875 19.003906 23.597656 17.773438 22.632812 C 17.148438 22.140625 16.5 21.636719 15.964844 21.421875 C 14.683594 20.898438 12.742188 20.113281 10.527344 24.46875 C 10.296875 24.941406 10.015625 25.378906 9.683594 25.785156 C 9.347656 26.191406 8.972656 26.554688 8.554688 26.875 C 8.136719 27.191406 7.691406 27.457031 7.210938 27.667969 C 6.730469 27.882812 6.234375 28.035156 5.71875 28.132812 C 4.855469 28.292969 3.988281 28.324219 3.117188 28.222656 C 2.246094 28.121094 1.410156 27.894531 0.605469 27.539062 L 0.824219 27.0625 C 3.265625 28.1875 7.929688 28.410156 10.0625 24.230469 C 12.289062 19.828125 14.367188 20.222656 16.144531 20.933594 C 16.75 21.175781 17.421875 21.71875 18.078125 22.21875 C 19.421875 23.265625 20.347656 23.917969 20.855469 23.304688 C 21.136719 22.960938 21.050781 22.273438 20.609375 21.414062 C 19.914062 20.046875 18.609375 18.75 17.769531 18.535156 C 17.5625 19.132812 17.335938 19.738281 16.648438 20.105469 C 16.226562 20.339844 15.90625 20.367188 15.691406 20.195312 C 15.585938 20.105469 15.433594 19.894531 15.570312 19.464844 C 15.640625 19.265625 15.734375 19.082031 15.855469 18.910156 C 15.976562 18.742188 16.121094 18.589844 16.28125 18.457031 C 16.445312 18.324219 16.621094 18.21875 16.8125 18.132812 C 17.003906 18.050781 17.203125 17.996094 17.410156 17.964844 C 17.671875 17.253906 18.066406 16.527344 19.3125 16.246094 C 19.554688 16.183594 19.796875 16.148438 20.039062 16.140625 C 20.285156 16.128906 20.53125 16.144531 20.773438 16.183594 C 21.015625 16.226562 21.25 16.289062 21.480469 16.378906 C 21.710938 16.46875 21.929688 16.578125 22.136719 16.714844 C 22.496094 16.941406 22.796875 17.234375 23.042969 17.582031 C 23.289062 17.929688 23.460938 18.3125 23.5625 18.726562 L 23.5625 18.789062 C 23.992188 21.113281 24.460938 22.394531 24.941406 22.589844 C 24.996094 22.609375 25.054688 22.617188 25.109375 22.605469 C 25.167969 22.59375 25.21875 22.566406 25.261719 22.523438 C 26.261719 21.8125 25.472656 17.765625 24.945312 16.636719 L 24.632812 16.746094 C 24.113281 16.929688 23.707031 17.074219 23.363281 16.972656 C 23.316406 16.964844 23.269531 16.949219 23.226562 16.921875 C 23.183594 16.898438 23.144531 16.867188 23.113281 16.828125 C 23.082031 16.792969 23.058594 16.75 23.039062 16.703125 C 23.023438 16.65625 23.015625 16.605469 23.015625 16.554688 C 23.015625 16.203125 23.511719 15.921875 23.960938 15.8125 C 24.160156 15.746094 24.367188 15.730469 24.578125 15.769531 C 24.789062 15.804688 24.980469 15.890625 25.148438 16.023438 C 25.601562 15.863281 26.066406 15.792969 26.546875 15.808594 C 27.027344 15.824219 27.488281 15.925781 27.929688 16.113281 C 29.992188 17.035156 30.589844 17.90625 29.828125 20.964844 C 29.457031 22.457031 29.589844 23.128906 29.828125 23.253906 C 30.070312 23.375 30.609375 23.105469 31.367188 22.265625 C 31.484375 22.136719 31.582031 21.992188 31.660156 21.839844 C 31.738281 21.683594 31.800781 21.523438 31.835938 21.351562 C 31.875 21.183594 31.894531 21.011719 31.890625 20.839844 C 31.886719 20.664062 31.859375 20.496094 31.8125 20.328125 C 31.09375 19.929688 30.601562 19.542969 30.570312 19.019531 C 30.546875 18.597656 30.746094 18.46875 30.863281 18.429688 C 31.277344 18.292969 31.695312 18.871094 31.859375 19.121094 C 32.027344 19.390625 32.160156 19.675781 32.253906 19.976562 C 32.515625 20.113281 32.804688 20.238281 33.09375 20.390625 C 34.503906 21.066406 36.101562 21.832031 36.691406 23.148438 L 36.804688 23.394531 C 36.957031 23.734375 37.117188 24.089844 37.261719 24.460938 C 39.390625 23.457031 41.660156 22.890625 43.429688 23.675781 C 44.390625 24.105469 45.015625 24.796875 45.570312 25.398438 C 46.679688 26.621094 47.414062 27.429688 50.121094 25.660156 L 50.402344 26.101562 C 47.328125 28.09375 46.285156 26.949219 45.195312 25.738281 C 44.652344 25.144531 44.089844 24.527344 43.226562 24.140625 C 41.609375 23.417969 39.476562 23.964844 37.449219 24.925781 C 37.757812 25.851562 37.890625 26.832031 37.46875 27.753906 C 36.949219 28.925781 35.601562 29.8125 33.398438 30.457031 C 29.597656 31.511719 25.722656 32.046875 21.78125 32.0625 Z M 11.785156 26.519531 C 11.542969 26.507812 11.328125 26.582031 11.148438 26.742188 C 10.71875 27.144531 10.699219 27.394531 10.71875 27.546875 C 10.816406 28.25 12.339844 29.179688 14.59375 30.355469 C 18.265625 32.269531 27.371094 31.6875 33.25 29.972656 C 35.300781 29.367188 36.527344 28.578125 36.996094 27.550781 C 37.335938 26.800781 37.238281 25.980469 36.980469 25.175781 C 36.097656 25.632812 35.242188 26.140625 34.417969 26.699219 C 32.851562 27.742188 32.296875 27.410156 31.496094 26.800781 C 31.117188 26.484375 30.699219 26.242188 30.242188 26.066406 C 29.378906 25.753906 28.859375 26.222656 28.074219 26.933594 C 27.253906 27.75 26.304688 28.367188 25.226562 28.78125 C 23.429688 29.429688 23.070312 28.496094 22.75 27.671875 C 22.488281 26.992188 22.230469 26.351562 21.285156 26.148438 C 20.226562 25.921875 19.824219 26.585938 19.363281 27.359375 C 18.902344 28.132812 18.402344 28.964844 17.199219 28.71875 C 16.363281 28.542969 15.425781 28.050781 14.519531 27.578125 C 13.539062 27.054688 12.496094 26.519531 11.785156 26.519531 Z M 17.210938 18.535156 C 17 18.601562 16.8125 18.703125 16.640625 18.835938 C 16.46875 18.972656 16.324219 19.132812 16.210938 19.320312 C 16.109375 19.457031 16.050781 19.613281 16.03125 19.785156 C 16.164062 19.765625 16.289062 19.722656 16.40625 19.648438 C 16.851562 19.386719 17.042969 18.996094 17.210938 18.535156 Z M 31.101562 18.996094 C 31.164062 19.21875 31.292969 19.386719 31.492188 19.503906 C 31.386719 19.3125 31.257812 19.144531 31.101562 18.996094 Z M 24.394531 16.28125 C 24.152344 16.289062 23.921875 16.355469 23.710938 16.476562 C 23.945312 16.433594 24.171875 16.371094 24.394531 16.28125 Z M 24.394531 16.28125 " fill-opacity="1" fill-rule="nonzero"/></g><path fill="#000000" d="M 7.679688 21.25 L 5.589844 20.601562 L 5.808594 20.25 L 7.441406 20.820312 L 6.246094 19.546875 L 6.476562 19.183594 L 8.136719 19.710938 L 6.90625 18.496094 L 7.128906 18.140625 L 8.621094 19.75 L 8.375 20.140625 L 6.824219 19.664062 L 7.921875 20.859375 Z M 7.679688 21.25 " fill-opacity="1" fill-rule="nonzero"/><path fill="#000000" d="M 9.78125 18.230469 L 8.773438 16.210938 L 9.070312 15.894531 L 11.140625 16.789062 L 10.859375 17.085938 L 10.386719 16.871094 L 9.816406 17.472656 L 10.058594 17.933594 Z M 9.671875 17.191406 L 10.09375 16.746094 L 9.246094 16.363281 Z M 9.671875 17.191406 " fill-opacity="1" fill-rule="nonzero"/><path fill="#000000" d="M 12.269531 15.8125 L 10.996094 14.121094 L 11.617188 13.652344 C 11.753906 13.550781 11.882812 13.492188 12.007812 13.472656 C 12.128906 13.453125 12.238281 13.464844 12.339844 13.511719 C 12.441406 13.554688 12.53125 13.625 12.601562 13.71875 C 12.679688 13.824219 12.722656 13.9375 12.734375 14.0625 C 12.742188 14.1875 12.707031 14.3125 12.621094 14.4375 L 13.503906 14.882812 L 13.148438 15.152344 L 12.332031 14.71875 L 12.078125 14.910156 L 12.578125 15.578125 Z M 11.90625 14.683594 L 12.199219 14.464844 C 12.300781 14.386719 12.355469 14.308594 12.367188 14.21875 C 12.378906 14.132812 12.355469 14.046875 12.292969 13.964844 C 12.230469 13.886719 12.160156 13.839844 12.078125 13.828125 C 11.992188 13.816406 11.898438 13.847656 11.792969 13.929688 L 11.5 14.144531 Z M 11.90625 14.683594 " fill-opacity="1" fill-rule="nonzero"/><path fill="#000000" d="M 14.804688 14.046875 L 13.859375 12.152344 L 14.265625 11.945312 L 15.472656 12.847656 L 15.46875 11.347656 L 15.878906 11.144531 L 16.824219 13.039062 L 16.476562 13.214844 L 15.824219 11.90625 L 15.816406 13.207031 L 15.542969 13.34375 L 14.496094 12.5625 L 15.152344 13.871094 Z M 14.804688 14.046875 " fill-opacity="1" fill-rule="nonzero"/><path fill="#000000" d="M 20.261719 11.957031 L 19.90625 9.871094 L 20.621094 9.75 C 20.863281 9.707031 21.070312 9.71875 21.242188 9.777344 C 21.414062 9.835938 21.554688 9.9375 21.65625 10.082031 C 21.761719 10.226562 21.832031 10.402344 21.867188 10.613281 C 21.902344 10.824219 21.894531 11.015625 21.84375 11.183594 C 21.792969 11.351562 21.695312 11.492188 21.554688 11.605469 C 21.410156 11.71875 21.21875 11.796875 20.972656 11.835938 Z M 20.585938 11.566406 L 20.898438 11.511719 C 21.074219 11.480469 21.207031 11.429688 21.300781 11.359375 C 21.390625 11.285156 21.449219 11.1875 21.476562 11.074219 C 21.5 10.960938 21.5 10.828125 21.476562 10.679688 C 21.449219 10.53125 21.40625 10.40625 21.34375 10.304688 C 21.28125 10.207031 21.195312 10.136719 21.082031 10.097656 C 20.972656 10.054688 20.832031 10.050781 20.65625 10.078125 L 20.34375 10.132812 Z M 20.585938 11.566406 " fill-opacity="1" fill-rule="nonzero"/><path fill="#000000" d="M 23.601562 11.542969 L 23.597656 9.425781 L 24.980469 9.425781 L 24.980469 9.738281 L 23.988281 9.738281 L 23.988281 10.320312 L 24.890625 10.316406 L 24.890625 10.621094 L 23.988281 10.625 L 23.988281 11.234375 L 24.984375 11.230469 L 24.984375 11.542969 Z M 23.601562 11.542969 " fill-opacity="1" fill-rule="nonzero"/><path fill="#000000" d="M 26.574219 11.667969 L 26.894531 9.574219 L 27.277344 9.628906 L 27.003906 11.425781 L 27.925781 11.566406 L 27.882812 11.867188 Z M 26.574219 11.667969 " fill-opacity="1" fill-rule="nonzero"/><path fill="#000000" d="M 29.429688 12.238281 L 30.019531 10.203125 L 30.390625 10.3125 L 29.804688 12.347656 Z M 29.429688 12.238281 " fill-opacity="1" fill-rule="nonzero"/><path fill="#000000" d="M 32.191406 13.285156 C 32.011719 13.199219 31.871094 13.085938 31.773438 12.941406 C 31.671875 12.796875 31.621094 12.636719 31.613281 12.453125 C 31.605469 12.269531 31.648438 12.082031 31.738281 11.886719 C 31.828125 11.6875 31.945312 11.53125 32.09375 11.414062 C 32.242188 11.296875 32.40625 11.230469 32.585938 11.214844 C 32.769531 11.195312 32.960938 11.230469 33.15625 11.320312 C 33.382812 11.421875 33.546875 11.5625 33.644531 11.738281 C 33.746094 11.914062 33.773438 12.105469 33.734375 12.316406 L 33.335938 12.136719 C 33.351562 12.035156 33.328125 11.941406 33.273438 11.855469 C 33.21875 11.769531 33.132812 11.699219 33.011719 11.644531 C 32.820312 11.554688 32.640625 11.550781 32.480469 11.625 C 32.320312 11.699219 32.195312 11.84375 32.097656 12.054688 C 32 12.269531 31.972656 12.457031 32.023438 12.617188 C 32.074219 12.78125 32.1875 12.902344 32.367188 12.984375 C 32.542969 13.066406 32.695312 13.078125 32.828125 13.023438 C 32.957031 12.96875 33.070312 12.871094 33.160156 12.726562 L 32.671875 12.503906 L 32.792969 12.242188 L 33.636719 12.625 L 33.152344 13.683594 L 32.828125 13.535156 L 32.914062 13.273438 C 32.808594 13.332031 32.699219 13.367188 32.585938 13.371094 C 32.46875 13.378906 32.335938 13.351562 32.191406 13.285156 Z M 32.191406 13.285156 " fill-opacity="1" fill-rule="nonzero"/><path fill="#000000" d="M 34.519531 14.480469 L 35.730469 12.742188 L 36.050781 12.964844 L 35.546875 13.683594 L 36.324219 14.226562 L 36.824219 13.507812 L 37.144531 13.730469 L 35.933594 15.464844 L 35.613281 15.246094 L 36.144531 14.488281 L 35.367188 13.945312 L 34.839844 14.699219 Z M 34.519531 14.480469 " fill-opacity="1" fill-rule="nonzero"/><path fill="#000000" d="M 37.53125 16.863281 L 38.796875 15.574219 L 38.355469 15.144531 L 38.574219 14.917969 L 39.734375 16.058594 L 39.515625 16.28125 L 39.074219 15.847656 L 37.808594 17.136719 Z M 37.53125 16.863281 " fill-opacity="1" fill-rule="nonzero"/><path fill="#000000" d="M 39.636719 19.316406 C 39.542969 19.191406 39.484375 19.066406 39.457031 18.941406 C 39.429688 18.8125 39.433594 18.691406 39.472656 18.578125 C 39.511719 18.460938 39.589844 18.363281 39.703125 18.273438 L 39.945312 18.601562 C 39.867188 18.664062 39.820312 18.742188 39.808594 18.835938 C 39.792969 18.929688 39.820312 19.027344 39.894531 19.121094 C 39.957031 19.207031 40.023438 19.257812 40.101562 19.277344 C 40.175781 19.296875 40.246094 19.28125 40.3125 19.230469 C 40.382812 19.179688 40.417969 19.117188 40.425781 19.046875 C 40.4375 18.976562 40.425781 18.894531 40.398438 18.808594 C 40.367188 18.71875 40.335938 18.621094 40.304688 18.515625 C 40.25 18.355469 40.238281 18.210938 40.257812 18.089844 C 40.277344 17.96875 40.347656 17.863281 40.464844 17.777344 C 40.566406 17.699219 40.671875 17.65625 40.777344 17.65625 C 40.886719 17.652344 40.992188 17.679688 41.09375 17.734375 C 41.195312 17.792969 41.289062 17.875 41.375 17.988281 C 41.457031 18.101562 41.511719 18.21875 41.535156 18.335938 C 41.558594 18.449219 41.554688 18.558594 41.515625 18.664062 C 41.480469 18.765625 41.414062 18.859375 41.316406 18.9375 L 41.070312 18.601562 C 41.128906 18.554688 41.164062 18.492188 41.175781 18.414062 C 41.1875 18.335938 41.167969 18.257812 41.105469 18.179688 C 41.0625 18.105469 41.003906 18.0625 40.933594 18.042969 C 40.863281 18.023438 40.792969 18.039062 40.730469 18.085938 C 40.671875 18.128906 40.640625 18.179688 40.632812 18.238281 C 40.628906 18.300781 40.636719 18.367188 40.65625 18.445312 C 40.679688 18.527344 40.707031 18.613281 40.742188 18.710938 C 40.773438 18.820312 40.796875 18.921875 40.808594 19.019531 C 40.820312 19.117188 40.8125 19.210938 40.777344 19.300781 C 40.746094 19.390625 40.679688 19.46875 40.578125 19.546875 C 40.488281 19.613281 40.386719 19.648438 40.28125 19.660156 C 40.171875 19.671875 40.058594 19.648438 39.945312 19.59375 C 39.832031 19.539062 39.730469 19.445312 39.636719 19.316406 Z M 39.636719 19.316406 " fill-opacity="1" fill-rule="nonzero"/><path fill="#000000" d="M 12.519531 35.472656 L 12.519531 33.882812 L 13.007812 33.882812 C 13.285156 33.882812 13.492188 33.957031 13.625 34.097656 C 13.753906 34.238281 13.820312 34.433594 13.820312 34.683594 C 13.820312 34.925781 13.753906 35.117188 13.625 35.257812 C 13.492188 35.402344 13.285156 35.472656 13.007812 35.472656 Z M 12.707031 35.3125 L 13 35.3125 C 13.15625 35.3125 13.277344 35.289062 13.371094 35.238281 C 13.460938 35.1875 13.527344 35.113281 13.566406 35.019531 C 13.605469 34.925781 13.625 34.8125 13.625 34.683594 C 13.625 34.550781 13.605469 34.433594 13.566406 34.339844 C 13.527344 34.246094 13.460938 34.171875 13.371094 34.117188 C 13.277344 34.066406 13.15625 34.042969 13 34.042969 L 12.707031 34.042969 Z M 12.707031 35.3125 " fill-opacity="1" fill-rule="nonzero"/><path fill="#000000" d="M 14.804688 35.5 C 14.699219 35.5 14.601562 35.472656 14.519531 35.425781 C 14.433594 35.375 14.371094 35.308594 14.324219 35.21875 C 14.277344 35.132812 14.253906 35.027344 14.253906 34.910156 C 14.253906 34.792969 14.273438 34.6875 14.320312 34.601562 C 14.367188 34.511719 14.433594 34.441406 14.519531 34.394531 C 14.601562 34.34375 14.699219 34.320312 14.808594 34.320312 C 14.917969 34.320312 15.011719 34.34375 15.089844 34.394531 C 15.171875 34.441406 15.234375 34.507812 15.273438 34.589844 C 15.316406 34.667969 15.339844 34.753906 15.339844 34.84375 C 15.339844 34.863281 15.335938 34.878906 15.335938 34.894531 C 15.335938 34.910156 15.335938 34.929688 15.335938 34.953125 L 14.441406 34.953125 C 14.445312 35.039062 14.464844 35.109375 14.5 35.167969 C 14.535156 35.226562 14.578125 35.269531 14.632812 35.296875 C 14.6875 35.324219 14.746094 35.339844 14.804688 35.339844 C 14.882812 35.339844 14.949219 35.320312 15.003906 35.285156 C 15.054688 35.25 15.09375 35.199219 15.117188 35.136719 L 15.304688 35.136719 C 15.277344 35.238281 15.21875 35.328125 15.132812 35.394531 C 15.046875 35.464844 14.9375 35.5 14.804688 35.5 Z M 14.804688 34.480469 C 14.714844 34.480469 14.632812 34.507812 14.5625 34.5625 C 14.492188 34.617188 14.453125 34.699219 14.441406 34.804688 L 15.148438 34.804688 C 15.144531 34.703125 15.113281 34.625 15.046875 34.566406 C 14.980469 34.507812 14.902344 34.480469 14.804688 34.480469 Z M 14.804688 34.480469 " fill-opacity="1" fill-rule="nonzero"/><path fill="#000000" d="M 15.804688 33.839844 L 15.996094 33.839844 L 15.996094 35.472656 L 15.804688 35.472656 Z M 15.804688 33.839844 " fill-opacity="1" fill-rule="nonzero"/><path fill="#000000" d="M 16.636719 34.097656 C 16.597656 34.097656 16.566406 34.085938 16.539062 34.058594 C 16.515625 34.035156 16.503906 34.003906 16.503906 33.964844 C 16.503906 33.929688 16.515625 33.902344 16.539062 33.875 C 16.566406 33.851562 16.597656 33.839844 16.636719 33.839844 C 16.671875 33.839844 16.703125 33.851562 16.730469 33.875 C 16.753906 33.902344 16.769531 33.929688 16.769531 33.964844 C 16.769531 34.003906 16.753906 34.035156 16.730469 34.058594 C 16.703125 34.085938 16.671875 34.097656 16.636719 34.097656 Z M 16.539062 35.472656 L 16.539062 34.347656 L 16.730469 34.347656 L 16.730469 35.472656 Z M 16.539062 35.472656 " fill-opacity="1" fill-rule="nonzero"/><path fill="#000000" d="M 17.722656 35.117188 C 17.65625 35.117188 17.597656 35.109375 17.542969 35.09375 L 17.433594 35.199219 C 17.449219 35.210938 17.46875 35.222656 17.492188 35.230469 C 17.519531 35.238281 17.554688 35.246094 17.601562 35.253906 C 17.648438 35.257812 17.714844 35.265625 17.796875 35.273438 C 17.949219 35.285156 18.058594 35.320312 18.125 35.378906 C 18.1875 35.4375 18.21875 35.515625 18.21875 35.609375 C 18.21875 35.675781 18.203125 35.738281 18.167969 35.796875 C 18.132812 35.855469 18.078125 35.902344 18.003906 35.941406 C 17.933594 35.976562 17.835938 35.996094 17.722656 35.996094 C 17.621094 35.996094 17.53125 35.984375 17.453125 35.957031 C 17.375 35.929688 17.3125 35.890625 17.265625 35.839844 C 17.222656 35.785156 17.203125 35.71875 17.203125 35.632812 C 17.203125 35.59375 17.210938 35.546875 17.234375 35.5 C 17.257812 35.449219 17.300781 35.402344 17.363281 35.359375 C 17.332031 35.347656 17.300781 35.332031 17.277344 35.316406 C 17.253906 35.300781 17.234375 35.28125 17.214844 35.261719 L 17.214844 35.207031 L 17.410156 35.015625 C 17.316406 34.941406 17.273438 34.84375 17.273438 34.71875 C 17.273438 34.644531 17.289062 34.578125 17.324219 34.519531 C 17.359375 34.457031 17.410156 34.410156 17.476562 34.371094 C 17.542969 34.335938 17.625 34.320312 17.722656 34.320312 C 17.785156 34.320312 17.84375 34.328125 17.894531 34.347656 L 18.3125 34.347656 L 18.3125 34.488281 L 18.101562 34.5 C 18.144531 34.5625 18.167969 34.636719 18.167969 34.71875 C 18.167969 34.792969 18.148438 34.863281 18.113281 34.921875 C 18.078125 34.980469 18.027344 35.027344 17.960938 35.0625 C 17.894531 35.097656 17.816406 35.117188 17.722656 35.117188 Z M 17.722656 34.960938 C 17.800781 34.960938 17.863281 34.941406 17.910156 34.898438 C 17.960938 34.855469 17.984375 34.796875 17.984375 34.71875 C 17.984375 34.640625 17.960938 34.582031 17.910156 34.542969 C 17.863281 34.5 17.800781 34.480469 17.722656 34.480469 C 17.640625 34.480469 17.574219 34.5 17.527344 34.542969 C 17.480469 34.582031 17.457031 34.640625 17.457031 34.71875 C 17.457031 34.796875 17.480469 34.855469 17.527344 34.898438 C 17.574219 34.941406 17.640625 34.960938 17.722656 34.960938 Z M 17.386719 35.617188 C 17.386719 35.691406 17.417969 35.75 17.480469 35.785156 C 17.546875 35.820312 17.628906 35.839844 17.722656 35.839844 C 17.816406 35.839844 17.890625 35.820312 17.949219 35.777344 C 18.003906 35.738281 18.035156 35.683594 18.035156 35.617188 C 18.035156 35.570312 18.015625 35.527344 17.976562 35.488281 C 17.9375 35.453125 17.863281 35.433594 17.757812 35.425781 C 17.675781 35.421875 17.601562 35.414062 17.542969 35.40625 C 17.476562 35.441406 17.4375 35.476562 17.417969 35.511719 C 17.398438 35.550781 17.386719 35.585938 17.386719 35.617188 Z M 17.386719 35.617188 " fill-opacity="1" fill-rule="nonzero"/><path fill="#000000" d="M 18.742188 35.472656 L 18.742188 33.839844 L 18.933594 33.839844 L 18.933594 34.539062 C 18.96875 34.46875 19.023438 34.417969 19.09375 34.378906 C 19.160156 34.339844 19.238281 34.320312 19.320312 34.320312 C 19.449219 34.320312 19.554688 34.359375 19.632812 34.441406 C 19.710938 34.523438 19.75 34.644531 19.75 34.8125 L 19.75 35.472656 L 19.5625 35.472656 L 19.5625 34.832031 C 19.5625 34.601562 19.46875 34.480469 19.277344 34.480469 C 19.179688 34.480469 19.097656 34.519531 19.03125 34.589844 C 18.964844 34.660156 18.933594 34.761719 18.933594 34.890625 L 18.933594 35.472656 Z M 18.742188 35.472656 " fill-opacity="1" fill-rule="nonzero"/><path fill="#000000" d="M 20.699219 35.472656 C 20.59375 35.472656 20.511719 35.449219 20.453125 35.398438 C 20.394531 35.347656 20.363281 35.257812 20.363281 35.125 L 20.363281 34.507812 L 20.167969 34.507812 L 20.167969 34.347656 L 20.363281 34.347656 L 20.390625 34.078125 L 20.554688 34.078125 L 20.554688 34.347656 L 20.886719 34.347656 L 20.886719 34.507812 L 20.554688 34.507812 L 20.554688 35.125 C 20.554688 35.195312 20.570312 35.246094 20.597656 35.269531 C 20.625 35.296875 20.675781 35.308594 20.75 35.308594 L 20.867188 35.308594 L 20.867188 35.472656 Z M 20.699219 35.472656 " fill-opacity="1" fill-rule="nonzero"/><path fill="#000000" d="M 22.273438 34.097656 C 22.234375 34.097656 22.203125 34.085938 22.175781 34.058594 C 22.152344 34.035156 22.140625 34.003906 22.140625 33.964844 C 22.140625 33.929688 22.152344 33.902344 22.175781 33.875 C 22.203125 33.851562 22.234375 33.839844 22.273438 33.839844 C 22.308594 33.839844 22.339844 33.851562 22.367188 33.875 C 22.390625 33.902344 22.40625 33.929688 22.40625 33.964844 C 22.40625 34.003906 22.390625 34.035156 22.367188 34.058594 C 22.339844 34.085938 22.308594 34.097656 22.273438 34.097656 Z M 22.175781 35.472656 L 22.175781 34.347656 L 22.367188 34.347656 L 22.367188 35.472656 Z M 22.175781 35.472656 " fill-opacity="1" fill-rule="nonzero"/><path fill="#000000" d="M 22.914062 35.472656 L 22.914062 34.347656 L 23.082031 34.347656 L 23.09375 34.546875 C 23.132812 34.476562 23.183594 34.421875 23.253906 34.382812 C 23.320312 34.339844 23.398438 34.320312 23.484375 34.320312 C 23.617188 34.320312 23.722656 34.359375 23.800781 34.441406 C 23.882812 34.523438 23.921875 34.644531 23.921875 34.8125 L 23.921875 35.472656 L 23.730469 35.472656 L 23.730469 34.832031 C 23.730469 34.601562 23.632812 34.480469 23.441406 34.480469 C 23.34375 34.480469 23.265625 34.519531 23.199219 34.589844 C 23.136719 34.660156 23.105469 34.761719 23.105469 34.890625 L 23.105469 35.472656 Z M 22.914062 35.472656 " fill-opacity="1" fill-rule="nonzero"/><path fill="#000000" d="M 25.25 35.472656 L 25.25 33.882812 L 26.230469 33.882812 L 26.230469 34.039062 L 25.4375 34.039062 L 25.4375 34.59375 L 26.160156 34.59375 L 26.160156 34.75 L 25.4375 34.75 L 25.4375 35.316406 L 26.230469 35.316406 L 26.230469 35.472656 Z M 25.25 35.472656 " fill-opacity="1" fill-rule="nonzero"/><path fill="#000000" d="M 27.054688 35.472656 L 26.625 34.347656 L 26.828125 34.347656 L 27.164062 35.289062 L 27.507812 34.347656 L 27.703125 34.347656 L 27.273438 35.472656 Z M 27.054688 35.472656 " fill-opacity="1" fill-rule="nonzero"/><path fill="#000000" d="M 28.628906 35.5 C 28.523438 35.5 28.429688 35.472656 28.34375 35.425781 C 28.261719 35.375 28.195312 35.308594 28.148438 35.21875 C 28.101562 35.132812 28.078125 35.027344 28.078125 34.910156 C 28.078125 34.792969 28.101562 34.6875 28.144531 34.601562 C 28.191406 34.511719 28.257812 34.441406 28.34375 34.394531 C 28.429688 34.34375 28.523438 34.320312 28.636719 34.320312 C 28.742188 34.320312 28.835938 34.34375 28.917969 34.394531 C 28.996094 34.441406 29.058594 34.507812 29.101562 34.589844 C 29.144531 34.667969 29.164062 34.753906 29.164062 34.84375 C 29.164062 34.863281 29.164062 34.878906 29.160156 34.894531 C 29.160156 34.910156 29.160156 34.929688 29.160156 34.953125 L 28.265625 34.953125 C 28.269531 35.039062 28.289062 35.109375 28.324219 35.167969 C 28.363281 35.226562 28.40625 35.269531 28.457031 35.296875 C 28.511719 35.324219 28.570312 35.339844 28.628906 35.339844 C 28.707031 35.339844 28.773438 35.320312 28.828125 35.285156 C 28.882812 35.25 28.917969 35.199219 28.941406 35.136719 L 29.132812 35.136719 C 29.101562 35.238281 29.042969 35.328125 28.957031 35.394531 C 28.875 35.464844 28.765625 35.5 28.628906 35.5 Z M 28.628906 34.480469 C 28.539062 34.480469 28.457031 34.507812 28.386719 34.5625 C 28.320312 34.617188 28.277344 34.699219 28.265625 34.804688 L 28.976562 34.804688 C 28.972656 34.703125 28.9375 34.625 28.871094 34.566406 C 28.808594 34.507812 28.726562 34.480469 28.628906 34.480469 Z M 28.628906 34.480469 " fill-opacity="1" fill-rule="nonzero"/><path fill="#000000" d="M 29.628906 35.472656 L 29.628906 34.347656 L 29.800781 34.347656 L 29.816406 34.5625 C 29.851562 34.488281 29.902344 34.429688 29.976562 34.386719 C 30.046875 34.34375 30.136719 34.320312 30.242188 34.320312 L 30.242188 34.519531 L 30.1875 34.519531 C 30.121094 34.519531 30.058594 34.53125 30 34.554688 C 29.945312 34.578125 29.902344 34.617188 29.867188 34.675781 C 29.835938 34.730469 29.820312 34.804688 29.820312 34.90625 L 29.820312 35.472656 Z M 29.628906 35.472656 " fill-opacity="1" fill-rule="nonzero"/><path fill="#000000" d="M 30.785156 35.972656 L 31.066406 35.363281 L 31.003906 35.363281 L 30.554688 34.347656 L 30.761719 34.347656 L 31.132812 35.222656 L 31.527344 34.347656 L 31.726562 34.347656 L 30.988281 35.972656 Z M 30.785156 35.972656 " fill-opacity="1" fill-rule="nonzero"/><path fill="#000000" d="M 32.964844 35.472656 L 32.964844 33.882812 L 33.523438 33.882812 C 33.636719 33.882812 33.730469 33.902344 33.800781 33.9375 C 33.875 33.972656 33.929688 34.019531 33.964844 34.082031 C 34 34.144531 34.019531 34.210938 34.019531 34.289062 C 34.019531 34.390625 33.992188 34.46875 33.9375 34.53125 C 33.882812 34.589844 33.816406 34.628906 33.738281 34.652344 C 33.800781 34.664062 33.851562 34.6875 33.898438 34.722656 C 33.949219 34.761719 33.988281 34.804688 34.015625 34.859375 C 34.042969 34.914062 34.054688 34.972656 34.054688 35.039062 C 34.054688 35.117188 34.035156 35.191406 33.996094 35.257812 C 33.957031 35.324219 33.898438 35.375 33.824219 35.414062 C 33.746094 35.453125 33.652344 35.472656 33.542969 35.472656 Z M 33.15625 34.578125 L 33.511719 34.578125 C 33.613281 34.578125 33.691406 34.554688 33.742188 34.507812 C 33.796875 34.457031 33.824219 34.394531 33.824219 34.308594 C 33.824219 34.226562 33.796875 34.164062 33.742188 34.117188 C 33.691406 34.066406 33.609375 34.042969 33.503906 34.042969 L 33.15625 34.042969 Z M 33.15625 35.3125 L 33.523438 35.3125 C 33.628906 35.3125 33.714844 35.289062 33.773438 35.238281 C 33.832031 35.1875 33.859375 35.117188 33.859375 35.027344 C 33.859375 34.9375 33.828125 34.863281 33.765625 34.808594 C 33.707031 34.757812 33.621094 34.730469 33.515625 34.730469 L 33.15625 34.730469 Z M 33.15625 35.3125 " fill-opacity="1" fill-rule="nonzero"/><path fill="#000000" d="M 34.648438 34.097656 C 34.609375 34.097656 34.578125 34.085938 34.554688 34.058594 C 34.53125 34.035156 34.519531 34.003906 34.519531 33.964844 C 34.519531 33.929688 34.53125 33.902344 34.554688 33.875 C 34.578125 33.851562 34.609375 33.839844 34.648438 33.839844 C 34.683594 33.839844 34.71875 33.851562 34.742188 33.875 C 34.769531 33.902344 34.78125 33.929688 34.78125 33.964844 C 34.78125 34.003906 34.769531 34.035156 34.742188 34.058594 C 34.71875 34.085938 34.683594 34.097656 34.648438 34.097656 Z M 34.554688 35.472656 L 34.554688 34.347656 L 34.742188 34.347656 L 34.742188 35.472656 Z M 34.554688 35.472656 " fill-opacity="1" fill-rule="nonzero"/><path fill="#000000" d="M 35.734375 35.472656 C 35.628906 35.472656 35.546875 35.449219 35.488281 35.398438 C 35.429688 35.347656 35.402344 35.257812 35.402344 35.125 L 35.402344 34.507812 L 35.207031 34.507812 L 35.207031 34.347656 L 35.402344 34.347656 L 35.425781 34.078125 L 35.59375 34.078125 L 35.59375 34.347656 L 35.921875 34.347656 L 35.921875 34.507812 L 35.59375 34.507812 L 35.59375 35.125 C 35.59375 35.195312 35.605469 35.246094 35.632812 35.269531 C 35.664062 35.296875 35.714844 35.308594 35.789062 35.308594 L 35.90625 35.308594 L 35.90625 35.472656 Z M 35.734375 35.472656 " fill-opacity="1" fill-rule="nonzero"/><path fill="#000000" d="M 36.886719 35.5 C 36.777344 35.5 36.683594 35.472656 36.597656 35.425781 C 36.515625 35.375 36.449219 35.308594 36.402344 35.21875 C 36.355469 35.132812 36.332031 35.027344 36.332031 34.910156 C 36.332031 34.792969 36.355469 34.6875 36.402344 34.601562 C 36.449219 34.511719 36.511719 34.441406 36.597656 34.394531 C 36.683594 34.34375 36.78125 34.320312 36.890625 34.320312 C 37 34.320312 37.09375 34.34375 37.171875 34.394531 C 37.25 34.441406 37.3125 34.507812 37.355469 34.589844 C 37.398438 34.667969 37.417969 34.753906 37.417969 34.84375 C 37.417969 34.863281 37.417969 34.878906 37.417969 34.894531 C 37.417969 34.910156 37.417969 34.929688 37.417969 34.953125 L 36.523438 34.953125 C 36.523438 35.039062 36.546875 35.109375 36.582031 35.167969 C 36.617188 35.226562 36.660156 35.269531 36.714844 35.296875 C 36.769531 35.324219 36.824219 35.339844 36.886719 35.339844 C 36.964844 35.339844 37.03125 35.320312 37.082031 35.285156 C 37.136719 35.25 37.175781 35.199219 37.199219 35.136719 L 37.386719 35.136719 C 37.355469 35.238281 37.300781 35.328125 37.210938 35.394531 C 37.128906 35.464844 37.019531 35.5 36.886719 35.5 Z M 36.886719 34.480469 C 36.792969 34.480469 36.714844 34.507812 36.644531 34.5625 C 36.574219 34.617188 36.535156 34.699219 36.523438 34.804688 L 37.230469 34.804688 C 37.226562 34.703125 37.191406 34.625 37.128906 34.566406 C 37.0625 34.507812 36.980469 34.480469 36.886719 34.480469 Z M 36.886719 34.480469 " fill-opacity="1" fill-rule="nonzero"/></svg>