<svg xmlns="http://www.w3.org/2000/svg" xmlns:xlink="http://www.w3.org/1999/xlink" width="500" zoomAndPan="magnify" viewBox="0 0 375 149.999998" height="200" preserveAspectRatio="xMidYMid meet" version="1.0"><defs><g/><clipPath id="2989722396"><path d="M 91.019531 56.160156 L 276.207031 56.160156 L 276.207031 120 L 91.019531 120 Z M 91.019531 56.160156 " clip-rule="nonzero"/></clipPath></defs><g clip-path="url(#2989722396)"><path fill="#000000" d="M 173.832031 119.683594 C 162.050781 119.683594 151.488281 118.234375 145.046875 114.875 C 133.464844 108.792969 129.40625 105.75 128.960938 102.464844 C 128.738281 100.839844 129.476562 99.25 131.230469 97.597656 C 134.746094 94.269531 140.523438 97.292969 146.621094 100.496094 C 150.011719 102.28125 153.515625 104.117188 156.476562 104.734375 C 159.597656 105.386719 160.878906 103.507812 162.738281 100.414062 C 164.59375 97.324219 166.777344 93.601562 172.339844 94.777344 C 177.09375 95.792969 178.398438 99.199219 179.476562 101.9375 C 180.710938 105.140625 181.386719 106.90625 186.546875 105.058594 C 190.46875 103.542969 193.921875 101.289062 196.894531 98.304688 C 200.097656 95.417969 202.863281 92.921875 207.328125 94.535156 C 209.304688 95.285156 211.105469 96.332031 212.738281 97.679688 C 215.304688 99.644531 216.597656 100.640625 221.714844 97.199219 C 225.054688 94.96875 228.511719 92.941406 232.085938 91.117188 C 231.53125 89.695312 230.894531 88.296875 230.289062 86.949219 L 229.855469 85.996094 C 227.835938 81.5625 222.019531 78.753906 216.859375 76.28125 L 215 75.386719 C 215.171875 76.796875 215.046875 78.179688 214.617188 79.53125 C 214.1875 80.882812 213.5 82.085938 212.546875 83.136719 C 209.023438 86.980469 206.117188 88.4375 204.125 87.363281 C 201.957031 86.1875 201.632812 82.4375 203.175781 76.210938 C 205.996094 64.902344 203.832031 62.824219 196.945312 59.75 C 195.550781 59.15625 194.097656 58.820312 192.582031 58.746094 C 191.070312 58.667969 189.589844 58.859375 188.140625 59.316406 C 190.082031 64.03125 193.886719 80.609375 188.597656 84.394531 C 188.152344 84.75 187.644531 84.972656 187.082031 85.0625 C 186.515625 85.148438 185.96875 85.085938 185.4375 84.878906 C 182.042969 83.492188 180.207031 75.894531 178.863281 68.65625 L 178.863281 68.402344 C 178.53125 67.0625 177.960938 65.832031 177.160156 64.710938 C 176.355469 63.59375 175.375 62.664062 174.21875 61.921875 C 172.820312 61.015625 171.300781 60.429688 169.660156 60.164062 C 168.019531 59.894531 166.394531 59.972656 164.785156 60.390625 C 164.125 60.488281 163.488281 60.675781 162.878906 60.957031 C 162.269531 61.234375 161.710938 61.59375 161.203125 62.027344 C 160.691406 62.464844 160.253906 62.964844 159.886719 63.523438 C 159.515625 64.085938 159.230469 64.6875 159.03125 65.328125 C 163.230469 66.585938 168.460938 72.222656 171.148438 77.496094 C 173.269531 81.644531 173.519531 85.042969 171.84375 87.050781 C 168.480469 91.105469 163.070312 86.878906 158.292969 83.144531 C 155.871094 81.238281 153.367188 79.28125 151.296875 78.449219 C 146.316406 76.421875 138.796875 73.378906 130.210938 90.253906 C 129.320312 92.085938 128.226562 93.789062 126.933594 95.363281 C 125.644531 96.941406 124.191406 98.34375 122.570312 99.578125 C 120.953125 100.808594 119.214844 101.835938 117.355469 102.660156 C 115.496094 103.484375 113.570312 104.082031 111.574219 104.453125 C 108.230469 105.082031 104.871094 105.199219 101.492188 104.808594 C 98.117188 104.414062 94.871094 103.527344 91.761719 102.148438 L 92.609375 100.3125 C 102.058594 104.664062 120.144531 105.527344 128.414062 89.332031 C 137.039062 72.273438 145.097656 73.796875 151.984375 76.554688 C 154.324219 77.496094 156.941406 79.597656 159.476562 81.535156 C 164.695312 85.589844 168.269531 88.113281 170.238281 85.742188 C 171.339844 84.414062 170.996094 81.746094 169.289062 78.410156 C 166.59375 73.117188 161.535156 68.085938 158.285156 67.253906 C 157.484375 69.566406 156.605469 71.921875 153.929688 73.339844 C 152.296875 74.253906 151.054688 74.355469 150.234375 73.683594 C 149.820312 73.351562 149.226562 72.527344 149.75 70.855469 C 150.027344 70.089844 150.398438 69.378906 150.867188 68.714844 C 151.335938 68.054688 151.886719 67.46875 152.515625 66.957031 C 153.144531 66.445312 153.832031 66.027344 154.574219 65.703125 C 155.316406 65.382812 156.089844 65.164062 156.890625 65.054688 C 157.898438 62.296875 159.433594 59.476562 164.269531 58.382812 C 166.140625 57.910156 168.027344 57.832031 169.925781 58.148438 C 171.828125 58.464844 173.589844 59.148438 175.207031 60.195312 C 176.597656 61.089844 177.773438 62.210938 178.726562 63.558594 C 179.683594 64.910156 180.351562 66.394531 180.730469 68.003906 L 180.730469 68.25 C 182.40625 77.253906 184.214844 82.214844 186.082031 82.972656 C 186.296875 83.054688 186.515625 83.070312 186.738281 83.027344 C 186.964844 82.980469 187.160156 82.878906 187.324219 82.71875 C 191.203125 79.960938 188.140625 64.273438 186.09375 59.894531 L 184.890625 60.320312 C 182.871094 61.027344 181.296875 61.597656 179.972656 61.199219 C 179.582031 61.132812 179.257812 60.949219 179 60.644531 C 178.742188 60.339844 178.613281 59.988281 178.609375 59.589844 C 178.609375 58.21875 180.539062 57.132812 182.273438 56.707031 C 183.0625 56.449219 183.863281 56.390625 184.679688 56.535156 C 185.492188 56.679688 186.226562 57.007812 186.878906 57.519531 C 188.636719 56.90625 190.445312 56.628906 192.304688 56.691406 C 194.164062 56.75 195.949219 57.144531 197.664062 57.875 C 205.660156 61.445312 207.972656 64.820312 205.023438 76.675781 C 203.589844 82.457031 204.097656 85.0625 205.023438 85.539062 C 205.953125 86.015625 208.054688 84.972656 210.992188 81.714844 C 211.4375 81.214844 211.816406 80.664062 212.125 80.0625 C 212.433594 79.464844 212.664062 78.835938 212.8125 78.179688 C 212.960938 77.523438 213.027344 76.859375 213.011719 76.183594 C 212.992188 75.511719 212.894531 74.851562 212.710938 74.203125 C 209.921875 72.671875 208.011719 71.160156 207.902344 69.132812 C 207.8125 67.5 208.578125 67 209.042969 66.847656 C 210.640625 66.320312 212.265625 68.554688 212.890625 69.535156 C 213.550781 70.570312 214.0625 71.671875 214.425781 72.84375 C 215.433594 73.378906 216.566406 73.855469 217.675781 74.445312 C 223.140625 77.070312 229.339844 80.042969 231.632812 85.144531 L 232.066406 86.097656 C 232.652344 87.40625 233.277344 88.785156 233.84375 90.222656 C 242.09375 86.332031 250.886719 84.140625 257.742188 87.183594 C 261.46875 88.855469 263.894531 91.523438 266.035156 93.863281 C 270.335938 98.589844 273.183594 101.722656 283.683594 94.878906 L 284.773438 96.582031 C 272.851562 104.300781 268.8125 99.867188 264.578125 95.183594 C 262.480469 92.871094 260.296875 90.488281 256.957031 88.988281 C 250.6875 86.179688 242.414062 88.308594 234.570312 92.03125 C 235.75 95.621094 236.277344 99.421875 234.640625 102.992188 C 232.621094 107.535156 227.402344 110.960938 218.859375 113.46875 C 204.125 117.550781 189.117188 119.621094 173.832031 119.683594 Z M 135.089844 98.203125 C 134.148438 98.152344 133.324219 98.441406 132.617188 99.066406 C 130.960938 100.628906 130.878906 101.601562 130.960938 102.191406 C 131.332031 104.917969 137.242188 108.519531 145.972656 113.070312 C 160.203125 120.496094 195.503906 118.242188 218.28125 111.582031 C 226.230469 109.25 230.984375 106.1875 232.804688 102.199219 C 234.125 99.300781 233.742188 96.117188 232.742188 92.992188 C 229.316406 94.765625 226.003906 96.734375 222.804688 98.894531 C 216.746094 102.949219 214.585938 101.664062 211.488281 99.289062 C 210.019531 98.074219 208.398438 97.125 206.621094 96.441406 C 203.289062 95.242188 201.269531 97.058594 198.21875 99.808594 C 195.042969 102.972656 191.371094 105.359375 187.191406 106.964844 C 180.226562 109.480469 178.820312 105.863281 177.589844 102.675781 C 176.582031 100.039062 175.570312 97.546875 171.914062 96.765625 C 167.804688 95.882812 166.25 98.46875 164.464844 101.460938 C 162.675781 104.453125 160.738281 107.6875 156.070312 106.722656 C 152.832031 106.042969 149.195312 104.136719 145.691406 102.300781 C 141.886719 100.273438 137.847656 98.203125 135.089844 98.203125 Z M 156.113281 67.253906 C 154.445312 67.789062 153.152344 68.800781 152.234375 70.296875 C 151.84375 70.835938 151.613281 71.4375 151.546875 72.101562 C 152.066406 72.03125 152.550781 71.855469 152.992188 71.574219 C 154.730469 70.5625 155.464844 69.050781 156.113281 67.253906 Z M 209.953125 69.050781 C 210.195312 69.90625 210.699219 70.558594 211.46875 71.007812 C 211.066406 70.273438 210.558594 69.621094 209.953125 69.050781 Z M 183.960938 58.523438 C 183.015625 58.554688 182.132812 58.808594 181.316406 59.285156 C 182.222656 59.117188 183.105469 58.863281 183.960938 58.523438 Z M 183.960938 58.523438 " fill-opacity="1" fill-rule="nonzero"/></g><g fill="#000000" fill-opacity="1"><g transform="translate(88.754509, 85.407849)"><g><path d="M 2.125 -3.015625 L -9.8125 -7.453125 L -8.421875 -9.421875 L 0.859375 -5.59375 L -5.640625 -13.359375 L -4.21875 -15.390625 L 5.234375 -11.8125 L -1.484375 -19.265625 L -0.09375 -21.25 L 8.046875 -11.421875 L 6.5 -9.234375 L -2.34375 -12.5 L 3.65625 -5.1875 Z M 2.125 -3.015625 "/></g></g></g><g fill="#000000" fill-opacity="1"><g transform="translate(103.622212, 65.930583)"><g><path d="M 0.296875 -0.28125 L -4.90625 -12.3125 L -3.078125 -14.0625 L 8.65625 -8.21875 L 6.921875 -6.578125 L 4.265625 -7.953125 L 0.78125 -4.65625 L 2 -1.90625 Z M 0 -6.359375 L 2.59375 -8.8125 L -2.21875 -11.28125 Z M 0 -6.359375 "/></g></g></g><g fill="#000000" fill-opacity="1"><g transform="translate(118.023321, 53.157783)"><g><path d="M 1 -0.671875 L -5.859375 -10.90625 L -2.109375 -13.421875 C -1.296875 -13.960938 -0.53125 -14.269531 0.1875 -14.34375 C 0.914062 -14.425781 1.566406 -14.316406 2.140625 -14.015625 C 2.722656 -13.710938 3.207031 -13.273438 3.59375 -12.703125 C 4.007812 -12.078125 4.222656 -11.398438 4.234375 -10.671875 C 4.253906 -9.941406 3.992188 -9.226562 3.453125 -8.53125 L 8.453125 -5.65625 L 6.3125 -4.234375 L 1.703125 -6.984375 L 0.171875 -5.953125 L 2.875 -1.921875 Z M -0.75 -7.328125 L 1.015625 -8.515625 C 1.628906 -8.929688 1.976562 -9.382812 2.0625 -9.875 C 2.15625 -10.375 2.039062 -10.867188 1.71875 -11.359375 C 1.382812 -11.847656 0.976562 -12.140625 0.5 -12.234375 C 0.0195312 -12.335938 -0.535156 -12.175781 -1.171875 -11.75 L -2.921875 -10.578125 Z M -0.75 -7.328125 "/></g></g></g><g fill="#000000" fill-opacity="1"><g transform="translate(133.055573, 43.589043)"><g><path d="M 1.109375 -0.484375 L -3.78125 -11.78125 L -1.328125 -12.828125 L 5.359375 -7.21875 L 5.8125 -15.921875 L 8.265625 -16.984375 L 13.15625 -5.6875 L 11.09375 -4.796875 L 7.734375 -12.578125 L 7.25 -5.0625 L 5.609375 -4.359375 L -0.1875 -9.15625 L 3.171875 -1.375 Z M 1.109375 -0.484375 "/></g></g></g><g fill="#000000" fill-opacity="1"><g transform="translate(154.093664, 35.557599)"><g/></g></g><g fill="#000000" fill-opacity="1"><g transform="translate(165.073413, 32.914847)"><g><path d="M 1.1875 -0.140625 L -0.21875 -12.375 L 3.953125 -12.84375 C 5.390625 -13.007812 6.597656 -12.890625 7.578125 -12.484375 C 8.566406 -12.085938 9.335938 -11.457031 9.890625 -10.59375 C 10.441406 -9.726562 10.785156 -8.675781 10.921875 -7.4375 C 11.066406 -6.207031 10.96875 -5.109375 10.625 -4.140625 C 10.289062 -3.179688 9.6875 -2.394531 8.8125 -1.78125 C 7.945312 -1.164062 6.796875 -0.773438 5.359375 -0.609375 Z M 3.21875 -2.3125 L 5.046875 -2.53125 C 6.066406 -2.644531 6.851562 -2.898438 7.40625 -3.296875 C 7.957031 -3.703125 8.328125 -4.226562 8.515625 -4.875 C 8.703125 -5.53125 8.742188 -6.300781 8.640625 -7.1875 C 8.546875 -8.0625 8.332031 -8.796875 8 -9.390625 C 7.664062 -9.992188 7.179688 -10.429688 6.546875 -10.703125 C 5.921875 -10.972656 5.097656 -11.050781 4.078125 -10.9375 L 2.25 -10.71875 Z M 3.21875 -2.3125 "/></g></g></g><g fill="#000000" fill-opacity="1"><g transform="translate(184.450627, 31.369808)"><g><path d="M 1.203125 0.0625 L 1.84375 -12.234375 L 9.859375 -11.8125 L 9.765625 -10 L 4 -10.3125 L 3.828125 -6.9375 L 9.0625 -6.65625 L 8.96875 -4.90625 L 3.734375 -5.1875 L 3.546875 -1.640625 L 9.3125 -1.328125 L 9.21875 0.484375 Z M 1.203125 0.0625 "/></g></g></g><g fill="#000000" fill-opacity="1"><g transform="translate(201.564451, 32.817087)"><g><path d="M 1.171875 0.25 L 3.6875 -11.796875 L 5.890625 -11.34375 L 3.734375 -1.03125 L 9.0625 0.078125 L 8.703125 1.8125 Z M 1.171875 0.25 "/></g></g></g><g fill="#000000" fill-opacity="1"><g transform="translate(217.902504, 36.869181)"><g><path d="M 1.140625 0.390625 L 5.203125 -11.234375 L 7.328125 -10.484375 L 3.265625 1.140625 Z M 1.140625 0.390625 "/></g></g></g><g fill="#000000" fill-opacity="1"><g transform="translate(228.898099, 40.910122)"><g><path d="M 5.71875 3.234375 C 4.6875 2.691406 3.910156 1.984375 3.390625 1.109375 C 2.878906 0.242188 2.628906 -0.710938 2.640625 -1.765625 C 2.648438 -2.816406 2.945312 -3.898438 3.53125 -5.015625 C 4.113281 -6.140625 4.847656 -7.007812 5.734375 -7.625 C 6.617188 -8.25 7.597656 -8.585938 8.671875 -8.640625 C 9.742188 -8.703125 10.835938 -8.441406 11.953125 -7.859375 C 13.234375 -7.179688 14.132812 -6.316406 14.65625 -5.265625 C 15.175781 -4.222656 15.273438 -3.09375 14.953125 -1.875 L 12.734375 -3.046875 C 12.828125 -3.640625 12.734375 -4.191406 12.453125 -4.703125 C 12.171875 -5.222656 11.679688 -5.664062 10.984375 -6.03125 C 9.898438 -6.601562 8.878906 -6.695312 7.921875 -6.3125 C 6.972656 -5.9375 6.179688 -5.144531 5.546875 -3.9375 C 4.921875 -2.738281 4.726562 -1.65625 4.96875 -0.6875 C 5.207031 0.28125 5.828125 1.03125 6.828125 1.5625 C 7.816406 2.070312 8.703125 2.191406 9.484375 1.921875 C 10.273438 1.648438 10.953125 1.109375 11.515625 0.296875 L 8.75 -1.140625 L 9.53125 -2.625 L 14.3125 -0.125 L 11.171875 5.859375 L 9.328125 4.890625 L 9.921875 3.375 C 9.296875 3.707031 8.644531 3.875 7.96875 3.875 C 7.289062 3.882812 6.539062 3.671875 5.71875 3.234375 Z M 5.71875 3.234375 "/></g></g></g><g fill="#000000" fill-opacity="1"><g transform="translate(246.687709, 50.99512)"><g><path d="M 0.953125 0.734375 L 8.53125 -8.96875 L 10.296875 -7.578125 L 7.140625 -3.53125 L 11.484375 -0.140625 L 14.640625 -4.1875 L 16.421875 -2.796875 L 8.84375 6.90625 L 7.0625 5.515625 L 10.359375 1.296875 L 6.015625 -2.09375 L 2.71875 2.125 Z M 0.953125 0.734375 "/></g></g></g><g fill="#000000" fill-opacity="1"><g transform="translate(261.515697, 63.424986)"><g><path d="M 2.734375 3 L 10.484375 -4.09375 L 8.0625 -6.75 L 9.390625 -7.96875 L 15.78125 -0.984375 L 14.453125 0.234375 L 12.015625 -2.4375 L 4.265625 4.65625 Z M 2.734375 3 "/></g></g></g><g fill="#000000" fill-opacity="1"><g transform="translate(272.834631, 76.611013)"><g><path d="M 2.78125 4.625 C 2.28125 3.875 1.96875 3.125 1.84375 2.375 C 1.726562 1.625 1.804688 0.921875 2.078125 0.265625 C 2.359375 -0.378906 2.832031 -0.9375 3.5 -1.40625 L 4.8125 0.578125 C 4.351562 0.921875 4.066406 1.359375 3.953125 1.890625 C 3.835938 2.429688 3.96875 2.988281 4.34375 3.5625 C 4.675781 4.070312 5.054688 4.394531 5.484375 4.53125 C 5.921875 4.664062 6.34375 4.601562 6.75 4.34375 C 7.175781 4.0625 7.421875 3.710938 7.484375 3.296875 C 7.554688 2.878906 7.519531 2.410156 7.375 1.890625 C 7.226562 1.367188 7.078125 0.800781 6.921875 0.1875 C 6.679688 -0.78125 6.640625 -1.613281 6.796875 -2.3125 C 6.953125 -3.007812 7.382812 -3.59375 8.09375 -4.0625 C 8.6875 -4.476562 9.300781 -4.675781 9.9375 -4.65625 C 10.570312 -4.644531 11.179688 -4.460938 11.765625 -4.109375 C 12.347656 -3.753906 12.863281 -3.238281 13.3125 -2.5625 C 13.757812 -1.875 14.03125 -1.1875 14.125 -0.5 C 14.226562 0.175781 14.160156 0.8125 13.921875 1.40625 C 13.679688 2 13.257812 2.503906 12.65625 2.921875 L 11.328125 0.90625 C 11.691406 0.664062 11.925781 0.320312 12.03125 -0.125 C 12.132812 -0.582031 12.03125 -1.050781 11.71875 -1.53125 C 11.445312 -1.957031 11.113281 -2.238281 10.71875 -2.375 C 10.320312 -2.519531 9.921875 -2.457031 9.515625 -2.1875 C 9.179688 -1.96875 8.984375 -1.679688 8.921875 -1.328125 C 8.859375 -0.984375 8.878906 -0.578125 8.984375 -0.109375 C 9.097656 0.347656 9.234375 0.867188 9.390625 1.453125 C 9.554688 2.078125 9.660156 2.675781 9.703125 3.25 C 9.742188 3.832031 9.65625 4.375 9.4375 4.875 C 9.21875 5.382812 8.800781 5.835938 8.1875 6.234375 C 7.644531 6.585938 7.054688 6.78125 6.421875 6.8125 C 5.785156 6.84375 5.144531 6.679688 4.5 6.328125 C 3.863281 5.972656 3.289062 5.40625 2.78125 4.625 Z M 2.78125 4.625 "/></g></g></g><g fill="#000000" fill-opacity="1"><g transform="translate(118.404966, 134.979114)"><g><path d="M 0.875 0 L 0.875 -8.203125 L 3.390625 -8.203125 C 4.835938 -8.203125 5.898438 -7.832031 6.578125 -7.09375 C 7.265625 -6.363281 7.609375 -5.359375 7.609375 -4.078125 C 7.609375 -2.816406 7.265625 -1.820312 6.578125 -1.09375 C 5.898438 -0.363281 4.835938 0 3.390625 0 Z M 1.859375 -0.828125 L 3.359375 -0.828125 C 4.160156 -0.828125 4.796875 -0.957031 5.265625 -1.21875 C 5.742188 -1.476562 6.082031 -1.851562 6.28125 -2.34375 C 6.488281 -2.832031 6.59375 -3.410156 6.59375 -4.078125 C 6.59375 -4.765625 6.488281 -5.351562 6.28125 -5.84375 C 6.082031 -6.34375 5.742188 -6.722656 5.265625 -6.984375 C 4.796875 -7.253906 4.160156 -7.390625 3.359375 -7.390625 L 1.859375 -7.390625 Z M 1.859375 -0.828125 "/></g></g></g><g fill="#000000" fill-opacity="1"><g transform="translate(127.664122, 134.979114)"><g><path d="M 3.421875 0.140625 C 2.867188 0.140625 2.375 0.015625 1.9375 -0.234375 C 1.507812 -0.492188 1.171875 -0.847656 0.921875 -1.296875 C 0.679688 -1.753906 0.5625 -2.289062 0.5625 -2.90625 C 0.5625 -3.519531 0.679688 -4.050781 0.921875 -4.5 C 1.171875 -4.957031 1.507812 -5.3125 1.9375 -5.5625 C 2.375 -5.820312 2.878906 -5.953125 3.453125 -5.953125 C 4.015625 -5.953125 4.5 -5.820312 4.90625 -5.5625 C 5.3125 -5.3125 5.625 -4.976562 5.84375 -4.5625 C 6.0625 -4.15625 6.171875 -3.710938 6.171875 -3.234375 C 6.171875 -3.148438 6.171875 -3.0625 6.171875 -2.96875 C 6.171875 -2.882812 6.171875 -2.789062 6.171875 -2.6875 L 1.53125 -2.6875 C 1.5625 -2.238281 1.664062 -1.867188 1.84375 -1.578125 C 2.03125 -1.285156 2.257812 -1.0625 2.53125 -0.90625 C 2.8125 -0.757812 3.109375 -0.6875 3.421875 -0.6875 C 3.828125 -0.6875 4.164062 -0.78125 4.4375 -0.96875 C 4.71875 -1.15625 4.921875 -1.410156 5.046875 -1.734375 L 6.015625 -1.734375 C 5.859375 -1.191406 5.554688 -0.742188 5.109375 -0.390625 C 4.671875 -0.0351562 4.109375 0.140625 3.421875 0.140625 Z M 3.421875 -5.125 C 2.953125 -5.125 2.535156 -4.976562 2.171875 -4.6875 C 1.804688 -4.40625 1.597656 -3.992188 1.546875 -3.453125 L 5.203125 -3.453125 C 5.179688 -3.972656 5 -4.378906 4.65625 -4.671875 C 4.320312 -4.972656 3.910156 -5.125 3.421875 -5.125 Z M 3.421875 -5.125 "/></g></g></g><g fill="#000000" fill-opacity="1"><g transform="translate(135.434824, 134.979114)"><g><path d="M 0.8125 0 L 0.8125 -8.4375 L 1.796875 -8.4375 L 1.796875 0 Z M 0.8125 0 "/></g></g></g><g fill="#000000" fill-opacity="1"><g transform="translate(139.138644, 134.979114)"><g><path d="M 1.40625 -7.109375 C 1.207031 -7.109375 1.046875 -7.171875 0.921875 -7.296875 C 0.796875 -7.421875 0.734375 -7.582031 0.734375 -7.78125 C 0.734375 -7.96875 0.796875 -8.125 0.921875 -8.25 C 1.046875 -8.375 1.207031 -8.4375 1.40625 -8.4375 C 1.59375 -8.4375 1.753906 -8.375 1.890625 -8.25 C 2.023438 -8.125 2.09375 -7.96875 2.09375 -7.78125 C 2.09375 -7.582031 2.023438 -7.421875 1.890625 -7.296875 C 1.753906 -7.171875 1.59375 -7.109375 1.40625 -7.109375 Z M 0.921875 0 L 0.921875 -5.8125 L 1.90625 -5.8125 L 1.90625 0 Z M 0.921875 0 "/></g></g></g><g fill="#000000" fill-opacity="1"><g transform="translate(143.041705, 134.979114)"><g><path d="M 3.109375 -1.828125 C 2.773438 -1.828125 2.472656 -1.867188 2.203125 -1.953125 L 1.625 -1.40625 C 1.707031 -1.34375 1.8125 -1.289062 1.9375 -1.25 C 2.070312 -1.207031 2.257812 -1.164062 2.5 -1.125 C 2.738281 -1.09375 3.078125 -1.054688 3.515625 -1.015625 C 4.296875 -0.960938 4.851562 -0.785156 5.1875 -0.484375 C 5.53125 -0.179688 5.703125 0.21875 5.703125 0.71875 C 5.703125 1.050781 5.609375 1.367188 5.421875 1.671875 C 5.234375 1.984375 4.953125 2.234375 4.578125 2.421875 C 4.203125 2.617188 3.71875 2.71875 3.125 2.71875 C 2.59375 2.71875 2.125 2.648438 1.71875 2.515625 C 1.3125 2.378906 0.992188 2.171875 0.765625 1.890625 C 0.546875 1.617188 0.4375 1.269531 0.4375 0.84375 C 0.4375 0.625 0.492188 0.382812 0.609375 0.125 C 0.722656 -0.125 0.941406 -0.363281 1.265625 -0.59375 C 1.097656 -0.65625 0.953125 -0.726562 0.828125 -0.8125 C 0.703125 -0.894531 0.59375 -0.988281 0.5 -1.09375 L 0.5 -1.359375 L 1.484375 -2.34375 C 1.023438 -2.738281 0.796875 -3.253906 0.796875 -3.890625 C 0.796875 -4.273438 0.882812 -4.625 1.0625 -4.9375 C 1.25 -5.25 1.515625 -5.492188 1.859375 -5.671875 C 2.203125 -5.859375 2.617188 -5.953125 3.109375 -5.953125 C 3.441406 -5.953125 3.742188 -5.90625 4.015625 -5.8125 L 6.171875 -5.8125 L 6.171875 -5.078125 L 5.078125 -5.03125 C 5.304688 -4.695312 5.421875 -4.316406 5.421875 -3.890625 C 5.421875 -3.503906 5.328125 -3.15625 5.140625 -2.84375 C 4.953125 -2.53125 4.6875 -2.28125 4.34375 -2.09375 C 4.007812 -1.914062 3.597656 -1.828125 3.109375 -1.828125 Z M 3.109375 -2.640625 C 3.523438 -2.640625 3.851562 -2.742188 4.09375 -2.953125 C 4.34375 -3.171875 4.46875 -3.484375 4.46875 -3.890625 C 4.46875 -4.285156 4.34375 -4.59375 4.09375 -4.8125 C 3.851562 -5.03125 3.523438 -5.140625 3.109375 -5.140625 C 2.679688 -5.140625 2.34375 -5.03125 2.09375 -4.8125 C 1.851562 -4.59375 1.734375 -4.285156 1.734375 -3.890625 C 1.734375 -3.484375 1.851562 -3.171875 2.09375 -2.953125 C 2.34375 -2.742188 2.679688 -2.640625 3.109375 -2.640625 Z M 1.390625 0.75 C 1.390625 1.144531 1.550781 1.4375 1.875 1.625 C 2.207031 1.8125 2.625 1.90625 3.125 1.90625 C 3.601562 1.90625 3.988281 1.800781 4.28125 1.59375 C 4.570312 1.382812 4.71875 1.101562 4.71875 0.75 C 4.71875 0.5 4.613281 0.28125 4.40625 0.09375 C 4.207031 -0.0820312 3.835938 -0.1875 3.296875 -0.21875 C 2.867188 -0.25 2.5 -0.289062 2.1875 -0.34375 C 1.863281 -0.164062 1.648438 0.0195312 1.546875 0.21875 C 1.441406 0.414062 1.390625 0.59375 1.390625 0.75 Z M 1.390625 0.75 "/></g></g></g><g fill="#000000" fill-opacity="1"><g transform="translate(150.613166, 134.979114)"><g><path d="M 0.8125 0 L 0.8125 -8.4375 L 1.796875 -8.4375 L 1.796875 -4.8125 C 1.992188 -5.175781 2.269531 -5.457031 2.625 -5.65625 C 2.988281 -5.851562 3.378906 -5.953125 3.796875 -5.953125 C 4.472656 -5.953125 5.015625 -5.742188 5.421875 -5.328125 C 5.828125 -4.910156 6.03125 -4.269531 6.03125 -3.40625 L 6.03125 0 L 5.046875 0 L 5.046875 -3.296875 C 5.046875 -4.503906 4.5625 -5.109375 3.59375 -5.109375 C 3.082031 -5.109375 2.65625 -4.925781 2.3125 -4.5625 C 1.96875 -4.195312 1.796875 -3.679688 1.796875 -3.015625 L 1.796875 0 Z M 0.8125 0 "/></g></g></g><g fill="#000000" fill-opacity="1"><g transform="translate(158.419026, 134.979114)"><g><path d="M 3.109375 0 C 2.578125 0 2.15625 -0.128906 1.84375 -0.390625 C 1.539062 -0.648438 1.390625 -1.113281 1.390625 -1.78125 L 1.390625 -4.984375 L 0.390625 -4.984375 L 0.390625 -5.8125 L 1.390625 -5.8125 L 1.53125 -7.203125 L 2.375 -7.203125 L 2.375 -5.8125 L 4.09375 -5.8125 L 4.09375 -4.984375 L 2.375 -4.984375 L 2.375 -1.78125 C 2.375 -1.414062 2.445312 -1.164062 2.59375 -1.03125 C 2.75 -0.90625 3.015625 -0.84375 3.390625 -0.84375 L 4 -0.84375 L 4 0 Z M 3.109375 0 "/></g></g></g><g fill="#000000" fill-opacity="1"><g transform="translate(164.056664, 134.979114)"><g/></g></g><g fill="#000000" fill-opacity="1"><g transform="translate(168.264452, 134.979114)"><g><path d="M 0.875 0 L 0.875 -8.203125 L 1.859375 -8.203125 L 1.859375 0 Z M 0.875 0 "/></g></g></g><g fill="#000000" fill-opacity="1"><g transform="translate(172.085477, 134.979114)"><g><path d="M 0.8125 0 L 0.8125 -5.8125 L 1.703125 -5.8125 L 1.765625 -4.765625 C 1.953125 -5.140625 2.21875 -5.429688 2.5625 -5.640625 C 2.914062 -5.847656 3.316406 -5.953125 3.765625 -5.953125 C 4.453125 -5.953125 5 -5.742188 5.40625 -5.328125 C 5.820312 -4.910156 6.03125 -4.269531 6.03125 -3.40625 L 6.03125 0 L 5.046875 0 L 5.046875 -3.296875 C 5.046875 -4.503906 4.546875 -5.109375 3.546875 -5.109375 C 3.046875 -5.109375 2.628906 -4.925781 2.296875 -4.5625 C 1.960938 -4.195312 1.796875 -3.679688 1.796875 -3.015625 L 1.796875 0 Z M 0.8125 0 "/></g></g></g><g fill="#000000" fill-opacity="1"><g transform="translate(179.89134, 134.979114)"><g/></g></g><g fill="#000000" fill-opacity="1"><g transform="translate(184.099127, 134.979114)"><g><path d="M 0.875 0 L 0.875 -8.203125 L 5.9375 -8.203125 L 5.9375 -7.390625 L 1.859375 -7.390625 L 1.859375 -4.53125 L 5.59375 -4.53125 L 5.59375 -3.734375 L 1.859375 -3.734375 L 1.859375 -0.8125 L 5.9375 -0.8125 L 5.9375 0 Z M 0.875 0 "/></g></g></g><g fill="#000000" fill-opacity="1"><g transform="translate(191.811226, 134.979114)"><g><path d="M 2.484375 0 L 0.28125 -5.8125 L 1.3125 -5.8125 L 3.0625 -0.953125 L 4.8125 -5.8125 L 5.828125 -5.8125 L 3.625 0 Z M 2.484375 0 "/></g></g></g><g fill="#000000" fill-opacity="1"><g transform="translate(199.019358, 134.979114)"><g><path d="M 3.421875 0.140625 C 2.867188 0.140625 2.375 0.015625 1.9375 -0.234375 C 1.507812 -0.492188 1.171875 -0.847656 0.921875 -1.296875 C 0.679688 -1.753906 0.5625 -2.289062 0.5625 -2.90625 C 0.5625 -3.519531 0.679688 -4.050781 0.921875 -4.5 C 1.171875 -4.957031 1.507812 -5.3125 1.9375 -5.5625 C 2.375 -5.820312 2.878906 -5.953125 3.453125 -5.953125 C 4.015625 -5.953125 4.5 -5.820312 4.90625 -5.5625 C 5.3125 -5.3125 5.625 -4.976562 5.84375 -4.5625 C 6.0625 -4.15625 6.171875 -3.710938 6.171875 -3.234375 C 6.171875 -3.148438 6.171875 -3.0625 6.171875 -2.96875 C 6.171875 -2.882812 6.171875 -2.789062 6.171875 -2.6875 L 1.53125 -2.6875 C 1.5625 -2.238281 1.664062 -1.867188 1.84375 -1.578125 C 2.03125 -1.285156 2.257812 -1.0625 2.53125 -0.90625 C 2.8125 -0.757812 3.109375 -0.6875 3.421875 -0.6875 C 3.828125 -0.6875 4.164062 -0.78125 4.4375 -0.96875 C 4.71875 -1.15625 4.921875 -1.410156 5.046875 -1.734375 L 6.015625 -1.734375 C 5.859375 -1.191406 5.554688 -0.742188 5.109375 -0.390625 C 4.671875 -0.0351562 4.109375 0.140625 3.421875 0.140625 Z M 3.421875 -5.125 C 2.953125 -5.125 2.535156 -4.976562 2.171875 -4.6875 C 1.804688 -4.40625 1.597656 -3.992188 1.546875 -3.453125 L 5.203125 -3.453125 C 5.179688 -3.972656 5 -4.378906 4.65625 -4.671875 C 4.320312 -4.972656 3.910156 -5.125 3.421875 -5.125 Z M 3.421875 -5.125 "/></g></g></g><g fill="#000000" fill-opacity="1"><g transform="translate(206.790059, 134.979114)"><g><path d="M 0.8125 0 L 0.8125 -5.8125 L 1.703125 -5.8125 L 1.78125 -4.703125 C 1.957031 -5.085938 2.226562 -5.390625 2.59375 -5.609375 C 2.96875 -5.835938 3.425781 -5.953125 3.96875 -5.953125 L 3.96875 -4.921875 L 3.6875 -4.921875 C 3.34375 -4.921875 3.023438 -4.859375 2.734375 -4.734375 C 2.453125 -4.617188 2.222656 -4.414062 2.046875 -4.125 C 1.878906 -3.832031 1.796875 -3.4375 1.796875 -2.9375 L 1.796875 0 Z M 0.8125 0 "/></g></g></g><g fill="#000000" fill-opacity="1"><g transform="translate(212.146413, 134.979114)"><g><path d="M 1.4375 2.578125 L 2.890625 -0.5625 L 2.546875 -0.5625 L 0.234375 -5.8125 L 1.296875 -5.8125 L 3.21875 -1.296875 L 5.265625 -5.8125 L 6.28125 -5.8125 L 2.46875 2.578125 Z M 1.4375 2.578125 "/></g></g></g><g fill="#000000" fill-opacity="1"><g transform="translate(219.764752, 134.979114)"><g/></g></g><g fill="#000000" fill-opacity="1"><g transform="translate(223.972535, 134.979114)"><g><path d="M 0.875 0 L 0.875 -8.203125 L 3.75 -8.203125 C 4.332031 -8.203125 4.8125 -8.109375 5.1875 -7.921875 C 5.5625 -7.742188 5.84375 -7.492188 6.03125 -7.171875 C 6.21875 -6.859375 6.3125 -6.507812 6.3125 -6.125 C 6.3125 -5.59375 6.171875 -5.171875 5.890625 -4.859375 C 5.609375 -4.554688 5.265625 -4.347656 4.859375 -4.234375 C 5.171875 -4.179688 5.453125 -4.0625 5.703125 -3.875 C 5.953125 -3.6875 6.144531 -3.453125 6.28125 -3.171875 C 6.425781 -2.890625 6.5 -2.578125 6.5 -2.234375 C 6.5 -1.828125 6.394531 -1.453125 6.1875 -1.109375 C 5.988281 -0.765625 5.691406 -0.492188 5.296875 -0.296875 C 4.898438 -0.0976562 4.414062 0 3.84375 0 Z M 1.859375 -4.625 L 3.6875 -4.625 C 4.207031 -4.625 4.609375 -4.742188 4.890625 -4.984375 C 5.171875 -5.234375 5.3125 -5.578125 5.3125 -6.015625 C 5.3125 -6.429688 5.171875 -6.765625 4.890625 -7.015625 C 4.617188 -7.265625 4.203125 -7.390625 3.640625 -7.390625 L 1.859375 -7.390625 Z M 1.859375 -0.828125 L 3.734375 -0.828125 C 4.296875 -0.828125 4.726562 -0.957031 5.03125 -1.21875 C 5.34375 -1.476562 5.5 -1.84375 5.5 -2.3125 C 5.5 -2.769531 5.335938 -3.132812 5.015625 -3.40625 C 4.691406 -3.6875 4.257812 -3.828125 3.71875 -3.828125 L 1.859375 -3.828125 Z M 1.859375 -0.828125 "/></g></g></g><g fill="#000000" fill-opacity="1"><g transform="translate(232.129997, 134.979114)"><g><path d="M 1.40625 -7.109375 C 1.207031 -7.109375 1.046875 -7.171875 0.921875 -7.296875 C 0.796875 -7.421875 0.734375 -7.582031 0.734375 -7.78125 C 0.734375 -7.96875 0.796875 -8.125 0.921875 -8.25 C 1.046875 -8.375 1.207031 -8.4375 1.40625 -8.4375 C 1.59375 -8.4375 1.753906 -8.375 1.890625 -8.25 C 2.023438 -8.125 2.09375 -7.96875 2.09375 -7.78125 C 2.09375 -7.582031 2.023438 -7.421875 1.890625 -7.296875 C 1.753906 -7.171875 1.59375 -7.109375 1.40625 -7.109375 Z M 0.921875 0 L 0.921875 -5.8125 L 1.90625 -5.8125 L 1.90625 0 Z M 0.921875 0 "/></g></g></g><g fill="#000000" fill-opacity="1"><g transform="translate(236.033056, 134.979114)"><g><path d="M 3.109375 0 C 2.578125 0 2.15625 -0.128906 1.84375 -0.390625 C 1.539062 -0.648438 1.390625 -1.113281 1.390625 -1.78125 L 1.390625 -4.984375 L 0.390625 -4.984375 L 0.390625 -5.8125 L 1.390625 -5.8125 L 1.53125 -7.203125 L 2.375 -7.203125 L 2.375 -5.8125 L 4.09375 -5.8125 L 4.09375 -4.984375 L 2.375 -4.984375 L 2.375 -1.78125 C 2.375 -1.414062 2.445312 -1.164062 2.59375 -1.03125 C 2.75 -0.90625 3.015625 -0.84375 3.390625 -0.84375 L 4 -0.84375 L 4 0 Z M 3.109375 0 "/></g></g></g><g fill="#000000" fill-opacity="1"><g transform="translate(241.67069, 134.979114)"><g><path d="M 3.421875 0.140625 C 2.867188 0.140625 2.375 0.015625 1.9375 -0.234375 C 1.507812 -0.492188 1.171875 -0.847656 0.921875 -1.296875 C 0.679688 -1.753906 0.5625 -2.289062 0.5625 -2.90625 C 0.5625 -3.519531 0.679688 -4.050781 0.921875 -4.5 C 1.171875 -4.957031 1.507812 -5.3125 1.9375 -5.5625 C 2.375 -5.820312 2.878906 -5.953125 3.453125 -5.953125 C 4.015625 -5.953125 4.5 -5.820312 4.90625 -5.5625 C 5.3125 -5.3125 5.625 -4.976562 5.84375 -4.5625 C 6.0625 -4.15625 6.171875 -3.710938 6.171875 -3.234375 C 6.171875 -3.148438 6.171875 -3.0625 6.171875 -2.96875 C 6.171875 -2.882812 6.171875 -2.789062 6.171875 -2.6875 L 1.53125 -2.6875 C 1.5625 -2.238281 1.664062 -1.867188 1.84375 -1.578125 C 2.03125 -1.285156 2.257812 -1.0625 2.53125 -0.90625 C 2.8125 -0.757812 3.109375 -0.6875 3.421875 -0.6875 C 3.828125 -0.6875 4.164062 -0.78125 4.4375 -0.96875 C 4.71875 -1.15625 4.921875 -1.410156 5.046875 -1.734375 L 6.015625 -1.734375 C 5.859375 -1.191406 5.554688 -0.742188 5.109375 -0.390625 C 4.671875 -0.0351562 4.109375 0.140625 3.421875 0.140625 Z M 3.421875 -5.125 C 2.953125 -5.125 2.535156 -4.976562 2.171875 -4.6875 C 1.804688 -4.40625 1.597656 -3.992188 1.546875 -3.453125 L 5.203125 -3.453125 C 5.179688 -3.972656 5 -4.378906 4.65625 -4.671875 C 4.320312 -4.972656 3.910156 -5.125 3.421875 -5.125 Z M 3.421875 -5.125 "/></g></g></g></svg>