<svg xmlns="http://www.w3.org/2000/svg" xmlns:xlink="http://www.w3.org/1999/xlink" width="500" zoomAndPan="magnify" viewBox="0 0 375 374.999991" height="500" preserveAspectRatio="xMidYMid meet" version="1.0"><defs><g/><clipPath id="2509f8e3a9"><path d="M 62 159 L 313.925781 159 L 313.925781 246 L 62 246 Z M 62 159 " clip-rule="nonzero"/></clipPath></defs><g clip-path="url(#2509f8e3a9)"><path fill="#000000" d="M 174.203125 245.503906 C 158.121094 245.503906 143.703125 243.523438 134.914062 238.941406 C 119.105469 230.636719 113.566406 226.484375 112.957031 222 C 112.65625 219.785156 113.660156 217.613281 116.058594 215.355469 C 120.855469 210.816406 128.738281 214.941406 137.0625 219.316406 C 141.691406 221.75 146.476562 224.257812 150.511719 225.101562 C 154.769531 225.988281 156.523438 223.425781 159.058594 219.203125 C 161.59375 214.984375 164.570312 209.902344 172.164062 211.507812 C 178.65625 212.894531 180.433594 217.542969 181.90625 221.28125 C 183.589844 225.65625 184.511719 228.0625 191.554688 225.542969 C 196.910156 223.472656 201.617188 220.398438 205.679688 216.324219 C 210.050781 212.382812 213.824219 208.976562 219.917969 211.175781 C 222.613281 212.199219 225.074219 213.628906 227.304688 215.46875 C 230.804688 218.152344 232.566406 219.507812 239.554688 214.816406 C 244.113281 211.773438 248.828125 209.003906 253.710938 206.511719 C 252.949219 204.574219 252.082031 202.664062 251.257812 200.824219 L 250.664062 199.523438 C 247.90625 193.476562 239.96875 189.640625 232.925781 186.265625 L 230.390625 185.046875 C 230.507812 185.996094 230.519531 186.949219 230.433594 187.902344 C 230.34375 188.855469 230.15625 189.789062 229.867188 190.699219 C 229.578125 191.613281 229.195312 192.484375 228.71875 193.3125 C 228.242188 194.144531 227.683594 194.910156 227.042969 195.621094 C 222.230469 200.867188 218.261719 202.859375 215.546875 201.390625 C 212.585938 199.785156 212.144531 194.664062 214.253906 186.167969 C 218.097656 170.734375 215.148438 167.898438 205.75 163.703125 C 203.84375 162.890625 201.859375 162.433594 199.792969 162.332031 C 197.726562 162.226562 195.707031 162.488281 193.730469 163.109375 C 196.378906 169.542969 201.574219 192.175781 194.351562 197.335938 C 193.742188 197.824219 193.054688 198.128906 192.285156 198.25 C 191.511719 198.367188 190.765625 198.285156 190.039062 198 C 185.40625 196.105469 182.898438 185.738281 181.066406 175.855469 L 181.066406 175.511719 C 180.613281 173.683594 179.839844 172.003906 178.742188 170.476562 C 177.648438 168.949219 176.308594 167.675781 174.726562 166.664062 C 173.785156 166.054688 172.789062 165.546875 171.742188 165.140625 C 170.695312 164.738281 169.617188 164.445312 168.507812 164.265625 C 167.402344 164.085938 166.289062 164.023438 165.167969 164.074219 C 164.046875 164.125 162.941406 164.292969 161.855469 164.574219 C 160.953125 164.710938 160.082031 164.96875 159.253906 165.347656 C 158.421875 165.726562 157.65625 166.214844 156.964844 166.8125 C 156.269531 167.410156 155.667969 168.089844 155.164062 168.855469 C 154.660156 169.621094 154.273438 170.441406 154 171.316406 C 159.734375 173.03125 166.871094 180.726562 170.539062 187.925781 C 173.433594 193.585938 173.777344 198.222656 171.488281 200.960938 C 166.898438 206.5 159.511719 200.726562 152.992188 195.632812 C 149.6875 193.03125 146.269531 190.359375 143.441406 189.226562 C 136.648438 186.457031 126.382812 182.304688 114.667969 205.335938 C 113.449219 207.835938 111.957031 210.160156 110.195312 212.3125 C 108.433594 214.460938 106.449219 216.378906 104.238281 218.058594 C 102.03125 219.742188 99.65625 221.144531 97.121094 222.269531 C 94.585938 223.394531 91.953125 224.207031 89.226562 224.714844 C 84.664062 225.574219 80.078125 225.734375 75.46875 225.199219 C 70.859375 224.664062 66.433594 223.453125 62.1875 221.570312 L 63.34375 219.066406 C 76.246094 225.003906 100.925781 226.179688 112.214844 204.078125 C 123.984375 180.796875 134.980469 182.875 144.378906 186.636719 C 147.578125 187.925781 151.148438 190.789062 154.605469 193.433594 C 161.730469 198.96875 166.609375 202.417969 169.296875 199.175781 C 170.800781 197.363281 170.332031 193.722656 168 189.171875 C 164.320312 181.945312 157.417969 175.082031 152.980469 173.945312 C 151.890625 177.101562 150.691406 180.3125 147.039062 182.25 C 144.808594 183.496094 143.113281 183.632812 141.996094 182.722656 C 141.429688 182.265625 140.617188 181.144531 141.335938 178.859375 C 141.710938 177.816406 142.21875 176.84375 142.859375 175.9375 C 143.5 175.035156 144.25 174.234375 145.109375 173.535156 C 145.964844 172.839844 146.902344 172.269531 147.917969 171.828125 C 148.929688 171.390625 149.984375 171.09375 151.078125 170.941406 C 152.457031 167.175781 154.550781 163.328125 161.152344 161.835938 C 162.414062 161.515625 163.695312 161.332031 164.996094 161.277344 C 166.296875 161.222656 167.585938 161.300781 168.871094 161.515625 C 170.15625 161.730469 171.402344 162.070312 172.617188 162.542969 C 173.832031 163.011719 174.984375 163.601562 176.078125 164.3125 C 177.976562 165.527344 179.578125 167.058594 180.882812 168.902344 C 182.1875 170.746094 183.097656 172.769531 183.617188 174.96875 L 183.617188 175.300781 C 185.902344 187.59375 188.371094 194.359375 190.921875 195.398438 C 191.210938 195.507812 191.511719 195.535156 191.816406 195.472656 C 192.125 195.410156 192.390625 195.269531 192.617188 195.054688 C 197.90625 191.289062 193.730469 169.875 190.933594 163.898438 L 189.292969 164.480469 C 186.539062 165.449219 184.386719 166.222656 182.582031 165.683594 C 182.324219 165.640625 182.078125 165.550781 181.851562 165.421875 C 181.621094 165.289062 181.421875 165.125 181.253906 164.921875 C 181.082031 164.722656 180.953125 164.496094 180.859375 164.25 C 180.769531 164.003906 180.722656 163.746094 180.722656 163.480469 C 180.722656 161.613281 183.355469 160.132812 185.726562 159.550781 C 186.796875 159.199219 187.890625 159.117188 189.003906 159.316406 C 190.117188 159.511719 191.121094 159.957031 192.007812 160.660156 C 194.40625 159.820312 196.875 159.441406 199.414062 159.527344 C 201.953125 159.609375 204.390625 160.148438 206.726562 161.144531 C 217.644531 166.015625 220.796875 170.625 216.773438 186.804688 C 214.816406 194.691406 215.507812 198.25 216.773438 198.902344 C 218.042969 199.550781 220.910156 198.125 224.917969 193.683594 C 225.53125 192.996094 226.046875 192.246094 226.464844 191.429688 C 226.886719 190.609375 227.199219 189.753906 227.402344 188.855469 C 227.609375 187.960938 227.699219 187.050781 227.675781 186.132812 C 227.652344 185.214844 227.511719 184.3125 227.261719 183.425781 C 223.457031 181.335938 220.855469 179.273438 220.703125 176.507812 C 220.578125 174.277344 221.625 173.601562 222.257812 173.390625 C 224.4375 172.671875 226.65625 175.71875 227.511719 177.058594 C 228.414062 178.46875 229.109375 179.972656 229.605469 181.570312 C 230.984375 182.304688 232.527344 182.957031 234.042969 183.757812 C 241.5 187.34375 249.960938 191.398438 253.089844 198.359375 L 253.679688 199.660156 C 254.480469 201.449219 255.335938 203.328125 256.105469 205.296875 C 267.367188 199.980469 279.371094 196.992188 288.726562 201.144531 C 293.8125 203.425781 297.121094 207.066406 300.042969 210.265625 C 305.914062 216.714844 309.800781 220.992188 324.132812 211.648438 L 325.621094 213.972656 C 309.34375 224.507812 303.832031 218.457031 298.058594 212.0625 C 295.191406 208.90625 292.214844 205.65625 287.652344 203.605469 C 279.09375 199.773438 267.808594 202.679688 257.097656 207.757812 C 258.710938 212.660156 259.429688 217.847656 257.195312 222.71875 C 254.441406 228.921875 247.316406 233.597656 235.65625 237.019531 C 215.546875 242.589844 195.0625 245.417969 174.203125 245.503906 Z M 121.324219 216.1875 C 120.039062 216.117188 118.914062 216.511719 117.945312 217.363281 C 115.6875 219.496094 115.578125 220.824219 115.6875 221.628906 C 116.195312 225.351562 124.257812 230.261719 136.179688 236.476562 C 155.597656 246.609375 203.777344 243.535156 234.871094 234.445312 C 245.714844 231.261719 252.207031 227.082031 254.6875 221.640625 C 256.492188 217.683594 255.96875 213.335938 254.605469 209.074219 C 249.929688 211.492188 245.40625 214.179688 241.042969 217.128906 C 232.773438 222.664062 229.824219 220.90625 225.59375 217.667969 C 223.589844 216.007812 221.378906 214.710938 218.953125 213.78125 C 214.402344 212.144531 211.648438 214.625 207.484375 218.375 C 203.152344 222.695312 198.136719 225.953125 192.4375 228.144531 C 182.925781 231.578125 181.011719 226.636719 179.332031 222.292969 C 177.953125 218.691406 176.574219 215.289062 171.585938 214.222656 C 165.976562 213.019531 163.851562 216.546875 161.414062 220.628906 C 158.976562 224.714844 156.328125 229.128906 149.960938 227.8125 C 145.539062 226.886719 140.578125 224.285156 135.792969 221.777344 C 130.597656 219.011719 125.085938 216.1875 121.324219 216.1875 Z M 150.015625 173.945312 C 148.914062 174.296875 147.910156 174.832031 147 175.542969 C 146.089844 176.257812 145.332031 177.109375 144.726562 178.097656 C 144.191406 178.832031 143.878906 179.65625 143.789062 180.5625 C 144.496094 180.464844 145.152344 180.226562 145.757812 179.84375 C 148.128906 178.457031 149.136719 176.394531 150.015625 173.945312 Z M 223.5 176.394531 C 223.832031 177.566406 224.519531 178.457031 225.566406 179.066406 C 225.019531 178.066406 224.328125 177.175781 223.5 176.394531 Z M 188.027344 162.027344 C 186.738281 162.074219 185.53125 162.417969 184.414062 163.066406 C 185.652344 162.835938 186.855469 162.492188 188.027344 162.027344 Z M 188.027344 162.027344 " fill-opacity="1" fill-rule="nonzero"/></g><g fill="#000000" fill-opacity="1"><g transform="translate(58.083541, 198.721369)"><g><path d="M 2.90625 -4.125 L -13.390625 -10.15625 L -11.5 -12.859375 L 1.171875 -7.625 L -7.703125 -18.234375 L -5.765625 -20.984375 L 7.15625 -16.125 L -2.03125 -26.296875 L -0.125 -29 L 10.984375 -15.59375 L 8.890625 -12.625 L -3.21875 -17.0625 L 4.984375 -7.078125 Z M 2.90625 -4.125 "/></g></g></g><g fill="#000000" fill-opacity="1"><g transform="translate(78.375668, 172.137884)"><g><path d="M 0.390625 -0.375 L -6.703125 -16.796875 L -4.1875 -19.171875 L 11.828125 -11.21875 L 9.453125 -8.96875 L 5.8125 -10.875 L 1.0625 -6.359375 L 2.734375 -2.59375 Z M 0 -8.671875 L 3.53125 -12.03125 L -3.03125 -15.40625 Z M 0 -8.671875 "/></g></g></g><g fill="#000000" fill-opacity="1"><g transform="translate(98.030961, 154.70497)"><g><path d="M 1.34375 -0.90625 L -8 -14.859375 L -2.859375 -18.296875 C -1.742188 -19.046875 -0.703125 -19.472656 0.265625 -19.578125 C 1.242188 -19.691406 2.128906 -19.546875 2.921875 -19.140625 C 3.710938 -18.734375 4.375 -18.132812 4.90625 -17.34375 C 5.46875 -16.5 5.765625 -15.578125 5.796875 -14.578125 C 5.828125 -13.578125 5.476562 -12.597656 4.75 -11.640625 L 11.546875 -7.734375 L 8.625 -5.78125 L 2.328125 -9.53125 L 0.21875 -8.125 L 3.90625 -2.625 Z M -1.03125 -10 L 1.390625 -11.609375 C 2.234375 -12.179688 2.710938 -12.804688 2.828125 -13.484375 C 2.941406 -14.171875 2.773438 -14.847656 2.328125 -15.515625 C 1.878906 -16.179688 1.328125 -16.582031 0.671875 -16.71875 C 0.0234375 -16.863281 -0.738281 -16.640625 -1.625 -16.046875 L -4.015625 -14.453125 Z M -1.03125 -10 "/></g></g></g><g fill="#000000" fill-opacity="1"><g transform="translate(118.547681, 141.645118)"><g><path d="M 1.484375 -0.640625 L -5.171875 -16.0625 L -1.8125 -17.515625 L 7.3125 -9.859375 L 7.9375 -21.734375 L 11.296875 -23.1875 L 17.953125 -7.765625 L 15.125 -6.53125 L 10.53125 -17.171875 L 9.890625 -6.890625 L 7.671875 -5.921875 L -0.28125 -12.5 L 4.3125 -1.859375 Z M 1.484375 -0.640625 "/></g></g></g><g fill="#000000" fill-opacity="1"><g transform="translate(147.261422, 130.683432)"><g/></g></g><g fill="#000000" fill-opacity="1"><g transform="translate(162.247125, 127.076481)"><g><path d="M 1.609375 -0.1875 L -0.3125 -16.875 L 5.40625 -17.53125 C 7.351562 -17.75 9 -17.585938 10.34375 -17.046875 C 11.695312 -16.503906 12.75 -15.640625 13.5 -14.453125 C 14.25 -13.273438 14.722656 -11.847656 14.921875 -10.171875 C 15.109375 -8.492188 14.96875 -6.992188 14.5 -5.671875 C 14.039062 -4.347656 13.21875 -3.265625 12.03125 -2.421875 C 10.84375 -1.585938 9.273438 -1.0625 7.328125 -0.84375 Z M 4.375 -3.15625 L 6.875 -3.453125 C 8.28125 -3.609375 9.359375 -3.957031 10.109375 -4.5 C 10.867188 -5.050781 11.375 -5.769531 11.625 -6.65625 C 11.882812 -7.550781 11.945312 -8.601562 11.8125 -9.8125 C 11.675781 -11.007812 11.378906 -12.015625 10.921875 -12.828125 C 10.472656 -13.648438 9.816406 -14.242188 8.953125 -14.609375 C 8.097656 -14.972656 6.96875 -15.078125 5.5625 -14.921875 L 3.0625 -14.625 Z M 4.375 -3.15625 "/></g></g></g><g fill="#000000" fill-opacity="1"><g transform="translate(188.694027, 124.967737)"><g><path d="M 1.625 0.078125 L 2.5 -16.703125 L 13.453125 -16.125 L 13.328125 -13.65625 L 5.453125 -14.0625 L 5.203125 -9.453125 L 12.359375 -9.09375 L 12.234375 -6.6875 L 5.078125 -7.046875 L 4.828125 -2.21875 L 12.703125 -1.8125 L 12.578125 0.65625 Z M 1.625 0.078125 "/></g></g></g><g fill="#000000" fill-opacity="1"><g transform="translate(212.051758, 126.943054)"><g><path d="M 1.59375 0.328125 L 5.03125 -16.109375 L 8.046875 -15.484375 L 5.09375 -1.40625 L 12.375 0.125 L 11.890625 2.484375 Z M 1.59375 0.328125 "/></g></g></g><g fill="#000000" fill-opacity="1"><g transform="translate(234.35071, 132.473538)"><g><path d="M 1.53125 0.53125 L 7.0625 -15.328125 L 9.96875 -14.3125 L 4.4375 1.546875 Z M 1.53125 0.53125 "/></g></g></g><g fill="#000000" fill-opacity="1"><g transform="translate(249.35799, 137.988799)"><g><path d="M 7.8125 4.421875 C 6.414062 3.679688 5.359375 2.71875 4.640625 1.53125 C 3.929688 0.351562 3.582031 -0.957031 3.59375 -2.40625 C 3.601562 -3.851562 4.007812 -5.332031 4.8125 -6.84375 C 5.613281 -8.375 6.625 -9.566406 7.84375 -10.421875 C 9.0625 -11.273438 10.398438 -11.738281 11.859375 -11.8125 C 13.316406 -11.894531 14.8125 -11.535156 16.34375 -10.734375 C 18.082031 -9.816406 19.300781 -8.640625 20 -7.203125 C 20.707031 -5.765625 20.847656 -4.222656 20.421875 -2.578125 L 17.390625 -4.171875 C 17.515625 -4.972656 17.378906 -5.722656 16.984375 -6.421875 C 16.597656 -7.128906 15.941406 -7.726562 15.015625 -8.21875 C 13.515625 -9 12.113281 -9.128906 10.8125 -8.609375 C 9.519531 -8.097656 8.441406 -7.019531 7.578125 -5.375 C 6.710938 -3.738281 6.445312 -2.257812 6.78125 -0.9375 C 7.113281 0.382812 7.96875 1.40625 9.34375 2.125 C 10.695312 2.832031 11.90625 3 12.96875 2.625 C 14.03125 2.257812 14.945312 1.519531 15.71875 0.40625 L 11.953125 -1.5625 L 13.015625 -3.59375 L 19.515625 -0.1875 L 15.234375 7.984375 L 12.734375 6.671875 L 13.546875 4.609375 C 12.691406 5.054688 11.800781 5.28125 10.875 5.28125 C 9.957031 5.289062 8.9375 5.003906 7.8125 4.421875 Z M 7.8125 4.421875 "/></g></g></g><g fill="#000000" fill-opacity="1"><g transform="translate(273.638094, 151.753275)"><g><path d="M 1.28125 1 L 11.625 -12.234375 L 14.046875 -10.34375 L 9.75 -4.84375 L 15.6875 -0.203125 L 19.984375 -5.703125 L 22.40625 -3.8125 L 12.0625 9.421875 L 9.640625 7.53125 L 14.140625 1.765625 L 8.203125 -2.875 L 3.703125 2.890625 Z M 1.28125 1 "/></g></g></g><g fill="#000000" fill-opacity="1"><g transform="translate(293.875956, 168.71813)"><g><path d="M 3.75 4.09375 L 14.328125 -5.578125 L 11.015625 -9.203125 L 12.828125 -10.875 L 21.515625 -1.359375 L 19.703125 0.3125 L 16.390625 -3.3125 L 5.8125 6.359375 Z M 3.75 4.09375 "/></g></g></g><g fill="#000000" fill-opacity="1"><g transform="translate(309.324626, 186.715021)"><g><path d="M 3.828125 6.3125 C 3.140625 5.28125 2.710938 4.253906 2.546875 3.234375 C 2.390625 2.210938 2.488281 1.257812 2.84375 0.375 C 3.207031 -0.507812 3.859375 -1.273438 4.796875 -1.921875 L 6.578125 0.78125 C 5.941406 1.226562 5.546875 1.828125 5.390625 2.578125 C 5.234375 3.328125 5.421875 4.097656 5.953125 4.890625 C 6.390625 5.566406 6.90625 5.992188 7.5 6.171875 C 8.101562 6.359375 8.675781 6.273438 9.21875 5.921875 C 9.789062 5.535156 10.117188 5.0625 10.203125 4.5 C 10.285156 3.9375 10.234375 3.289062 10.046875 2.5625 C 9.867188 1.84375 9.671875 1.078125 9.453125 0.265625 C 9.117188 -1.054688 9.054688 -2.195312 9.265625 -3.15625 C 9.484375 -4.113281 10.078125 -4.910156 11.046875 -5.546875 C 11.878906 -6.109375 12.722656 -6.378906 13.578125 -6.359375 C 14.429688 -6.347656 15.257812 -6.097656 16.0625 -5.609375 C 16.863281 -5.117188 17.566406 -4.414062 18.171875 -3.5 C 18.796875 -2.5625 19.171875 -1.625 19.296875 -0.6875 C 19.429688 0.25 19.332031 1.117188 19 1.921875 C 18.675781 2.722656 18.101562 3.410156 17.28125 3.984375 L 15.46875 1.234375 C 15.957031 0.898438 16.269531 0.425781 16.40625 -0.1875 C 16.550781 -0.8125 16.410156 -1.445312 15.984375 -2.09375 C 15.617188 -2.664062 15.164062 -3.046875 14.625 -3.234375 C 14.09375 -3.429688 13.550781 -3.347656 13 -2.984375 C 12.53125 -2.671875 12.253906 -2.273438 12.171875 -1.796875 C 12.097656 -1.328125 12.132812 -0.78125 12.28125 -0.15625 C 12.425781 0.46875 12.609375 1.179688 12.828125 1.984375 C 13.035156 2.835938 13.171875 3.65625 13.234375 4.4375 C 13.304688 5.226562 13.1875 5.96875 12.875 6.65625 C 12.570312 7.351562 12.007812 7.972656 11.1875 8.515625 C 10.457031 8.992188 9.65625 9.253906 8.78125 9.296875 C 7.90625 9.335938 7.035156 9.113281 6.171875 8.625 C 5.304688 8.144531 4.523438 7.375 3.828125 6.3125 Z M 3.828125 6.3125 "/></g></g></g><g fill="#000000" fill-opacity="1"><g transform="translate(98.551867, 266.378536)"><g><path d="M 1.1875 0 L 1.1875 -11.203125 L 4.625 -11.203125 C 6.59375 -11.203125 8.046875 -10.695312 8.984375 -9.6875 C 9.921875 -8.6875 10.390625 -7.3125 10.390625 -5.5625 C 10.390625 -3.84375 9.921875 -2.484375 8.984375 -1.484375 C 8.046875 -0.492188 6.59375 0 4.625 0 Z M 2.53125 -1.125 L 4.59375 -1.125 C 5.675781 -1.125 6.539062 -1.300781 7.1875 -1.65625 C 7.832031 -2.007812 8.289062 -2.519531 8.5625 -3.1875 C 8.84375 -3.851562 8.984375 -4.644531 8.984375 -5.5625 C 8.984375 -6.5 8.84375 -7.300781 8.5625 -7.96875 C 8.289062 -8.644531 7.832031 -9.164062 7.1875 -9.53125 C 6.539062 -9.894531 5.675781 -10.078125 4.59375 -10.078125 L 2.53125 -10.078125 Z M 2.53125 -1.125 "/></g></g></g><g fill="#000000" fill-opacity="1"><g transform="translate(111.189191, 266.378536)"><g><path d="M 4.671875 0.1875 C 3.910156 0.1875 3.238281 0.015625 2.65625 -0.328125 C 2.070312 -0.671875 1.609375 -1.148438 1.265625 -1.765625 C 0.929688 -2.390625 0.765625 -3.125 0.765625 -3.96875 C 0.765625 -4.800781 0.929688 -5.53125 1.265625 -6.15625 C 1.597656 -6.78125 2.054688 -7.265625 2.640625 -7.609375 C 3.234375 -7.953125 3.921875 -8.125 4.703125 -8.125 C 5.472656 -8.125 6.132812 -7.953125 6.6875 -7.609375 C 7.25 -7.265625 7.679688 -6.804688 7.984375 -6.234375 C 8.285156 -5.671875 8.4375 -5.066406 8.4375 -4.421875 C 8.4375 -4.296875 8.429688 -4.175781 8.421875 -4.0625 C 8.421875 -3.945312 8.421875 -3.8125 8.421875 -3.65625 L 2.09375 -3.65625 C 2.125 -3.050781 2.265625 -2.546875 2.515625 -2.140625 C 2.765625 -1.742188 3.078125 -1.441406 3.453125 -1.234375 C 3.835938 -1.035156 4.242188 -0.9375 4.671875 -0.9375 C 5.222656 -0.9375 5.6875 -1.066406 6.0625 -1.328125 C 6.4375 -1.585938 6.707031 -1.9375 6.875 -2.375 L 8.203125 -2.375 C 7.992188 -1.632812 7.585938 -1.019531 6.984375 -0.53125 C 6.378906 -0.0507812 5.609375 0.1875 4.671875 0.1875 Z M 4.671875 -6.984375 C 4.035156 -6.984375 3.46875 -6.789062 2.96875 -6.40625 C 2.46875 -6.019531 2.179688 -5.453125 2.109375 -4.703125 L 7.109375 -4.703125 C 7.078125 -5.421875 6.832031 -5.976562 6.375 -6.375 C 5.914062 -6.78125 5.347656 -6.984375 4.671875 -6.984375 Z M 4.671875 -6.984375 "/></g></g></g><g fill="#000000" fill-opacity="1"><g transform="translate(121.795005, 266.378536)"><g><path d="M 1.109375 0 L 1.109375 -11.515625 L 2.453125 -11.515625 L 2.453125 0 Z M 1.109375 0 "/></g></g></g><g fill="#000000" fill-opacity="1"><g transform="translate(126.850149, 266.378536)"><g><path d="M 1.921875 -9.703125 C 1.648438 -9.703125 1.425781 -9.785156 1.25 -9.953125 C 1.070312 -10.128906 0.984375 -10.351562 0.984375 -10.625 C 0.984375 -10.882812 1.070312 -11.097656 1.25 -11.265625 C 1.425781 -11.429688 1.648438 -11.515625 1.921875 -11.515625 C 2.171875 -11.515625 2.382812 -11.429688 2.5625 -11.265625 C 2.75 -11.097656 2.84375 -10.882812 2.84375 -10.625 C 2.84375 -10.351562 2.75 -10.128906 2.5625 -9.953125 C 2.382812 -9.785156 2.171875 -9.703125 1.921875 -9.703125 Z M 1.25 0 L 1.25 -7.9375 L 2.59375 -7.9375 L 2.59375 0 Z M 1.25 0 "/></g></g></g><g fill="#000000" fill-opacity="1"><g transform="translate(132.177227, 266.378536)"><g><path d="M 4.234375 -2.5 C 3.785156 -2.5 3.378906 -2.554688 3.015625 -2.671875 L 2.203125 -1.921875 C 2.328125 -1.835938 2.472656 -1.765625 2.640625 -1.703125 C 2.816406 -1.640625 3.070312 -1.582031 3.40625 -1.53125 C 3.738281 -1.488281 4.203125 -1.441406 4.796875 -1.390625 C 5.867188 -1.316406 6.632812 -1.070312 7.09375 -0.65625 C 7.550781 -0.238281 7.78125 0.300781 7.78125 0.96875 C 7.78125 1.425781 7.65625 1.863281 7.40625 2.28125 C 7.15625 2.695312 6.769531 3.039062 6.25 3.3125 C 5.726562 3.582031 5.0625 3.71875 4.25 3.71875 C 3.539062 3.71875 2.90625 3.625 2.34375 3.4375 C 1.789062 3.25 1.359375 2.960938 1.046875 2.578125 C 0.742188 2.203125 0.59375 1.726562 0.59375 1.15625 C 0.59375 0.851562 0.671875 0.523438 0.828125 0.171875 C 0.992188 -0.171875 1.296875 -0.492188 1.734375 -0.796875 C 1.492188 -0.890625 1.289062 -0.992188 1.125 -1.109375 C 0.957031 -1.222656 0.804688 -1.347656 0.671875 -1.484375 L 0.671875 -1.859375 L 2.03125 -3.203125 C 1.40625 -3.734375 1.09375 -4.4375 1.09375 -5.3125 C 1.09375 -5.832031 1.210938 -6.304688 1.453125 -6.734375 C 1.703125 -7.160156 2.0625 -7.5 2.53125 -7.75 C 3 -8 3.566406 -8.125 4.234375 -8.125 C 4.691406 -8.125 5.109375 -8.0625 5.484375 -7.9375 L 8.421875 -7.9375 L 8.421875 -6.921875 L 6.921875 -6.859375 C 7.234375 -6.410156 7.390625 -5.894531 7.390625 -5.3125 C 7.390625 -4.789062 7.265625 -4.316406 7.015625 -3.890625 C 6.765625 -3.460938 6.40625 -3.125 5.9375 -2.875 C 5.476562 -2.625 4.910156 -2.5 4.234375 -2.5 Z M 4.234375 -3.59375 C 4.804688 -3.59375 5.257812 -3.738281 5.59375 -4.03125 C 5.925781 -4.332031 6.09375 -4.757812 6.09375 -5.3125 C 6.09375 -5.851562 5.925781 -6.269531 5.59375 -6.5625 C 5.257812 -6.863281 4.804688 -7.015625 4.234375 -7.015625 C 3.660156 -7.015625 3.207031 -6.863281 2.875 -6.5625 C 2.539062 -6.269531 2.375 -5.851562 2.375 -5.3125 C 2.375 -4.757812 2.539062 -4.332031 2.875 -4.03125 C 3.207031 -3.738281 3.660156 -3.59375 4.234375 -3.59375 Z M 1.90625 1.03125 C 1.90625 1.5625 2.128906 1.957031 2.578125 2.21875 C 3.023438 2.476562 3.582031 2.609375 4.25 2.609375 C 4.914062 2.609375 5.445312 2.460938 5.84375 2.171875 C 6.25 1.890625 6.453125 1.507812 6.453125 1.03125 C 6.453125 0.6875 6.3125 0.390625 6.03125 0.140625 C 5.75 -0.109375 5.238281 -0.253906 4.5 -0.296875 C 3.90625 -0.347656 3.394531 -0.40625 2.96875 -0.46875 C 2.53125 -0.226562 2.242188 0.0234375 2.109375 0.296875 C 1.972656 0.566406 1.90625 0.8125 1.90625 1.03125 Z M 1.90625 1.03125 "/></g></g></g><g fill="#000000" fill-opacity="1"><g transform="translate(142.511107, 266.378536)"><g><path d="M 1.109375 0 L 1.109375 -11.515625 L 2.453125 -11.515625 L 2.453125 -6.578125 C 2.710938 -7.066406 3.085938 -7.445312 3.578125 -7.71875 C 4.066406 -7.988281 4.601562 -8.125 5.1875 -8.125 C 6.101562 -8.125 6.835938 -7.835938 7.390625 -7.265625 C 7.941406 -6.703125 8.21875 -5.828125 8.21875 -4.640625 L 8.21875 0 L 6.890625 0 L 6.890625 -4.5 C 6.890625 -6.144531 6.222656 -6.96875 4.890625 -6.96875 C 4.203125 -6.96875 3.625 -6.71875 3.15625 -6.21875 C 2.6875 -5.726562 2.453125 -5.023438 2.453125 -4.109375 L 2.453125 0 Z M 1.109375 0 "/></g></g></g><g fill="#000000" fill-opacity="1"><g transform="translate(153.164906, 266.378536)"><g><path d="M 4.234375 0 C 3.515625 0 2.945312 -0.175781 2.53125 -0.53125 C 2.113281 -0.882812 1.90625 -1.519531 1.90625 -2.4375 L 1.90625 -6.796875 L 0.53125 -6.796875 L 0.53125 -7.9375 L 1.90625 -7.9375 L 2.078125 -9.84375 L 3.25 -9.84375 L 3.25 -7.9375 L 5.578125 -7.9375 L 5.578125 -6.796875 L 3.25 -6.796875 L 3.25 -2.4375 C 3.25 -1.9375 3.347656 -1.597656 3.546875 -1.421875 C 3.753906 -1.242188 4.113281 -1.15625 4.625 -1.15625 L 5.453125 -1.15625 L 5.453125 0 Z M 4.234375 0 "/></g></g></g><g fill="#000000" fill-opacity="1"><g transform="translate(160.859415, 266.378536)"><g/></g></g><g fill="#000000" fill-opacity="1"><g transform="translate(166.602398, 266.378536)"><g><path d="M 1.1875 0 L 1.1875 -11.203125 L 2.53125 -11.203125 L 2.53125 0 Z M 1.1875 0 "/></g></g></g><g fill="#000000" fill-opacity="1"><g transform="translate(171.81751, 266.378536)"><g><path d="M 1.109375 0 L 1.109375 -7.9375 L 2.3125 -7.9375 L 2.40625 -6.515625 C 2.65625 -7.015625 3.019531 -7.40625 3.5 -7.6875 C 3.976562 -7.976562 4.523438 -8.125 5.140625 -8.125 C 6.078125 -8.125 6.820312 -7.835938 7.375 -7.265625 C 7.9375 -6.703125 8.21875 -5.828125 8.21875 -4.640625 L 8.21875 0 L 6.875 0 L 6.875 -4.5 C 6.875 -6.144531 6.191406 -6.96875 4.828125 -6.96875 C 4.148438 -6.96875 3.582031 -6.71875 3.125 -6.21875 C 2.675781 -5.726562 2.453125 -5.023438 2.453125 -4.109375 L 2.453125 0 Z M 1.109375 0 "/></g></g></g><g fill="#000000" fill-opacity="1"><g transform="translate(182.471312, 266.378536)"><g/></g></g><g fill="#000000" fill-opacity="1"><g transform="translate(188.214295, 266.378536)"><g><path d="M 1.1875 0 L 1.1875 -11.203125 L 8.109375 -11.203125 L 8.109375 -10.09375 L 2.53125 -10.09375 L 2.53125 -6.1875 L 7.625 -6.1875 L 7.625 -5.109375 L 2.53125 -5.109375 L 2.53125 -1.109375 L 8.109375 -1.109375 L 8.109375 0 Z M 1.1875 0 "/></g></g></g><g fill="#000000" fill-opacity="1"><g transform="translate(198.740123, 266.378536)"><g><path d="M 3.390625 0 L 0.390625 -7.9375 L 1.796875 -7.9375 L 4.171875 -1.296875 L 6.578125 -7.9375 L 7.953125 -7.9375 L 4.9375 0 Z M 3.390625 0 "/></g></g></g><g fill="#000000" fill-opacity="1"><g transform="translate(208.578116, 266.378536)"><g><path d="M 4.671875 0.1875 C 3.910156 0.1875 3.238281 0.015625 2.65625 -0.328125 C 2.070312 -0.671875 1.609375 -1.148438 1.265625 -1.765625 C 0.929688 -2.390625 0.765625 -3.125 0.765625 -3.96875 C 0.765625 -4.800781 0.929688 -5.53125 1.265625 -6.15625 C 1.597656 -6.78125 2.054688 -7.265625 2.640625 -7.609375 C 3.234375 -7.953125 3.921875 -8.125 4.703125 -8.125 C 5.472656 -8.125 6.132812 -7.953125 6.6875 -7.609375 C 7.25 -7.265625 7.679688 -6.804688 7.984375 -6.234375 C 8.285156 -5.671875 8.4375 -5.066406 8.4375 -4.421875 C 8.4375 -4.296875 8.429688 -4.175781 8.421875 -4.0625 C 8.421875 -3.945312 8.421875 -3.8125 8.421875 -3.65625 L 2.09375 -3.65625 C 2.125 -3.050781 2.265625 -2.546875 2.515625 -2.140625 C 2.765625 -1.742188 3.078125 -1.441406 3.453125 -1.234375 C 3.835938 -1.035156 4.242188 -0.9375 4.671875 -0.9375 C 5.222656 -0.9375 5.6875 -1.066406 6.0625 -1.328125 C 6.4375 -1.585938 6.707031 -1.9375 6.875 -2.375 L 8.203125 -2.375 C 7.992188 -1.632812 7.585938 -1.019531 6.984375 -0.53125 C 6.378906 -0.0507812 5.609375 0.1875 4.671875 0.1875 Z M 4.671875 -6.984375 C 4.035156 -6.984375 3.46875 -6.789062 2.96875 -6.40625 C 2.46875 -6.019531 2.179688 -5.453125 2.109375 -4.703125 L 7.109375 -4.703125 C 7.078125 -5.421875 6.832031 -5.976562 6.375 -6.375 C 5.914062 -6.78125 5.347656 -6.984375 4.671875 -6.984375 Z M 4.671875 -6.984375 "/></g></g></g><g fill="#000000" fill-opacity="1"><g transform="translate(219.183928, 266.378536)"><g><path d="M 1.109375 0 L 1.109375 -7.9375 L 2.3125 -7.9375 L 2.4375 -6.421875 C 2.675781 -6.941406 3.046875 -7.351562 3.546875 -7.65625 C 4.046875 -7.96875 4.664062 -8.125 5.40625 -8.125 L 5.40625 -6.71875 L 5.046875 -6.71875 C 4.578125 -6.71875 4.144531 -6.632812 3.75 -6.46875 C 3.351562 -6.300781 3.035156 -6.019531 2.796875 -5.625 C 2.566406 -5.238281 2.453125 -4.695312 2.453125 -4 L 2.453125 0 Z M 1.109375 0 "/></g></g></g><g fill="#000000" fill-opacity="1"><g transform="translate(226.494528, 266.378536)"><g><path d="M 1.96875 3.515625 L 3.9375 -0.765625 L 3.46875 -0.765625 L 0.3125 -7.9375 L 1.78125 -7.9375 L 4.40625 -1.765625 L 7.1875 -7.9375 L 8.578125 -7.9375 L 3.375 3.515625 Z M 1.96875 3.515625 "/></g></g></g><g fill="#000000" fill-opacity="1"><g transform="translate(236.892388, 266.378536)"><g/></g></g><g fill="#000000" fill-opacity="1"><g transform="translate(242.635365, 266.378536)"><g><path d="M 1.1875 0 L 1.1875 -11.203125 L 5.125 -11.203125 C 5.90625 -11.203125 6.554688 -11.078125 7.078125 -10.828125 C 7.597656 -10.578125 7.984375 -10.234375 8.234375 -9.796875 C 8.492188 -9.367188 8.625 -8.890625 8.625 -8.359375 C 8.625 -7.628906 8.425781 -7.054688 8.03125 -6.640625 C 7.644531 -6.222656 7.179688 -5.9375 6.640625 -5.78125 C 7.054688 -5.695312 7.429688 -5.523438 7.765625 -5.265625 C 8.109375 -5.015625 8.378906 -4.695312 8.578125 -4.3125 C 8.773438 -3.9375 8.875 -3.519531 8.875 -3.0625 C 8.875 -2.488281 8.734375 -1.96875 8.453125 -1.5 C 8.179688 -1.039062 7.773438 -0.675781 7.234375 -0.40625 C 6.691406 -0.132812 6.03125 0 5.25 0 Z M 2.53125 -6.296875 L 5.03125 -6.296875 C 5.738281 -6.296875 6.285156 -6.460938 6.671875 -6.796875 C 7.054688 -7.140625 7.25 -7.609375 7.25 -8.203125 C 7.25 -8.773438 7.054688 -9.226562 6.671875 -9.5625 C 6.296875 -9.90625 5.726562 -10.078125 4.96875 -10.078125 L 2.53125 -10.078125 Z M 2.53125 -1.125 L 5.109375 -1.125 C 5.867188 -1.125 6.457031 -1.300781 6.875 -1.65625 C 7.289062 -2.007812 7.5 -2.507812 7.5 -3.15625 C 7.5 -3.78125 7.28125 -4.28125 6.84375 -4.65625 C 6.40625 -5.039062 5.816406 -5.234375 5.078125 -5.234375 L 2.53125 -5.234375 Z M 2.53125 -1.125 "/></g></g></g><g fill="#000000" fill-opacity="1"><g transform="translate(253.769047, 266.378536)"><g><path d="M 1.921875 -9.703125 C 1.648438 -9.703125 1.425781 -9.785156 1.25 -9.953125 C 1.070312 -10.128906 0.984375 -10.351562 0.984375 -10.625 C 0.984375 -10.882812 1.070312 -11.097656 1.25 -11.265625 C 1.425781 -11.429688 1.648438 -11.515625 1.921875 -11.515625 C 2.171875 -11.515625 2.382812 -11.429688 2.5625 -11.265625 C 2.75 -11.097656 2.84375 -10.882812 2.84375 -10.625 C 2.84375 -10.351562 2.75 -10.128906 2.5625 -9.953125 C 2.382812 -9.785156 2.171875 -9.703125 1.921875 -9.703125 Z M 1.25 0 L 1.25 -7.9375 L 2.59375 -7.9375 L 2.59375 0 Z M 1.25 0 "/></g></g></g><g fill="#000000" fill-opacity="1"><g transform="translate(259.096122, 266.378536)"><g><path d="M 4.234375 0 C 3.515625 0 2.945312 -0.175781 2.53125 -0.53125 C 2.113281 -0.882812 1.90625 -1.519531 1.90625 -2.4375 L 1.90625 -6.796875 L 0.53125 -6.796875 L 0.53125 -7.9375 L 1.90625 -7.9375 L 2.078125 -9.84375 L 3.25 -9.84375 L 3.25 -7.9375 L 5.578125 -7.9375 L 5.578125 -6.796875 L 3.25 -6.796875 L 3.25 -2.4375 C 3.25 -1.9375 3.347656 -1.597656 3.546875 -1.421875 C 3.753906 -1.242188 4.113281 -1.15625 4.625 -1.15625 L 5.453125 -1.15625 L 5.453125 0 Z M 4.234375 0 "/></g></g></g><g fill="#000000" fill-opacity="1"><g transform="translate(266.790626, 266.378536)"><g><path d="M 4.671875 0.1875 C 3.910156 0.1875 3.238281 0.015625 2.65625 -0.328125 C 2.070312 -0.671875 1.609375 -1.148438 1.265625 -1.765625 C 0.929688 -2.390625 0.765625 -3.125 0.765625 -3.96875 C 0.765625 -4.800781 0.929688 -5.53125 1.265625 -6.15625 C 1.597656 -6.78125 2.054688 -7.265625 2.640625 -7.609375 C 3.234375 -7.953125 3.921875 -8.125 4.703125 -8.125 C 5.472656 -8.125 6.132812 -7.953125 6.6875 -7.609375 C 7.25 -7.265625 7.679688 -6.804688 7.984375 -6.234375 C 8.285156 -5.671875 8.4375 -5.066406 8.4375 -4.421875 C 8.4375 -4.296875 8.429688 -4.175781 8.421875 -4.0625 C 8.421875 -3.945312 8.421875 -3.8125 8.421875 -3.65625 L 2.09375 -3.65625 C 2.125 -3.050781 2.265625 -2.546875 2.515625 -2.140625 C 2.765625 -1.742188 3.078125 -1.441406 3.453125 -1.234375 C 3.835938 -1.035156 4.242188 -0.9375 4.671875 -0.9375 C 5.222656 -0.9375 5.6875 -1.066406 6.0625 -1.328125 C 6.4375 -1.585938 6.707031 -1.9375 6.875 -2.375 L 8.203125 -2.375 C 7.992188 -1.632812 7.585938 -1.019531 6.984375 -0.53125 C 6.378906 -0.0507812 5.609375 0.1875 4.671875 0.1875 Z M 4.671875 -6.984375 C 4.035156 -6.984375 3.46875 -6.789062 2.96875 -6.40625 C 2.46875 -6.019531 2.179688 -5.453125 2.109375 -4.703125 L 7.109375 -4.703125 C 7.078125 -5.421875 6.832031 -5.976562 6.375 -6.375 C 5.914062 -6.78125 5.347656 -6.984375 4.671875 -6.984375 Z M 4.671875 -6.984375 "/></g></g></g></svg>