<svg xmlns="http://www.w3.org/2000/svg" xmlns:xlink="http://www.w3.org/1999/xlink" width="500" zoomAndPan="magnify" viewBox="0 0 375 149.999998" height="200" preserveAspectRatio="xMidYMid meet" version="1.0"><defs><g/><clipPath id="8a4698efe4"><path d="M 91.019531 56.160156 L 276.269531 56.160156 L 276.269531 119.910156 L 91.019531 119.910156 Z M 91.019531 56.160156 " clip-rule="nonzero"/></clipPath></defs><g clip-path="url(#8a4698efe4)"><path fill="#000000" d="M 173.71875 119.148438 C 161.953125 119.148438 151.410156 117.710938 144.976562 114.378906 C 133.414062 108.347656 129.359375 105.332031 128.917969 102.074219 C 128.695312 100.464844 129.429688 98.886719 131.183594 97.246094 C 134.695312 93.949219 140.460938 96.945312 146.550781 100.121094 C 149.9375 101.890625 153.433594 103.710938 156.386719 104.324219 C 159.503906 104.96875 160.785156 103.109375 162.640625 100.042969 C 164.492188 96.976562 166.671875 93.285156 172.226562 94.453125 C 176.972656 95.457031 178.273438 98.835938 179.355469 101.550781 C 180.582031 104.726562 181.257812 106.476562 186.410156 104.648438 C 190.328125 103.140625 193.773438 100.910156 196.742188 97.949219 C 199.941406 95.085938 202.703125 92.609375 207.15625 94.210938 C 209.128906 94.953125 210.929688 95.992188 212.5625 97.328125 C 215.121094 99.277344 216.414062 100.261719 221.523438 96.855469 C 224.855469 94.640625 228.308594 92.628906 231.878906 90.820312 C 231.324219 89.414062 230.6875 88.027344 230.082031 86.6875 L 229.648438 85.742188 C 227.632812 81.347656 221.824219 78.5625 216.675781 76.109375 L 214.820312 75.226562 C 214.992188 76.621094 214.863281 77.992188 214.4375 79.332031 C 214.007812 80.675781 213.320312 81.867188 212.371094 82.90625 C 208.851562 86.71875 205.949219 88.167969 203.960938 87.101562 C 201.792969 85.933594 201.472656 82.214844 203.015625 76.039062 C 205.828125 64.828125 203.667969 62.765625 196.792969 59.71875 C 195.402344 59.128906 193.949219 58.796875 192.4375 58.722656 C 190.925781 58.648438 189.449219 58.835938 188.003906 59.289062 C 189.9375 63.964844 193.738281 80.402344 188.457031 84.15625 C 188.011719 84.511719 187.507812 84.730469 186.945312 84.816406 C 186.378906 84.902344 185.832031 84.84375 185.300781 84.636719 C 181.914062 83.261719 180.078125 75.730469 178.738281 68.550781 L 178.738281 68.296875 C 178.40625 66.96875 177.839844 65.75 177.039062 64.640625 C 176.238281 63.53125 175.257812 62.609375 174.101562 61.871094 C 172.707031 60.972656 171.191406 60.394531 169.554688 60.128906 C 167.914062 59.863281 166.292969 59.941406 164.683594 60.355469 C 164.023438 60.453125 163.390625 60.640625 162.78125 60.914062 C 162.171875 61.191406 161.613281 61.546875 161.105469 61.980469 C 160.597656 62.410156 160.160156 62.90625 159.792969 63.460938 C 159.421875 64.019531 159.140625 64.613281 158.9375 65.25 C 163.132812 66.496094 168.355469 72.089844 171.035156 77.316406 C 173.152344 81.429688 173.40625 84.796875 171.730469 86.789062 C 168.375 90.8125 162.972656 86.617188 158.203125 82.917969 C 155.785156 81.027344 153.285156 79.085938 151.214844 78.261719 C 146.246094 76.25 138.734375 73.234375 130.167969 89.964844 C 129.273438 91.785156 128.183594 93.472656 126.894531 95.035156 C 125.605469 96.59375 124.152344 97.988281 122.539062 99.210938 C 120.921875 100.433594 119.1875 101.453125 117.332031 102.269531 C 115.476562 103.085938 113.550781 103.675781 111.558594 104.042969 C 108.21875 104.667969 104.867188 104.785156 101.492188 104.398438 C 98.121094 104.007812 94.882812 103.128906 91.777344 101.761719 L 92.625 99.941406 C 102.058594 104.253906 120.117188 105.109375 128.371094 89.050781 C 136.980469 72.140625 145.027344 73.648438 151.902344 76.382812 C 154.242188 77.316406 156.851562 79.398438 159.382812 81.320312 C 164.59375 85.339844 168.164062 87.84375 170.128906 85.492188 C 171.226562 84.175781 170.886719 81.53125 169.179688 78.222656 C 166.488281 72.972656 161.4375 67.984375 158.191406 67.160156 C 157.398438 69.453125 156.519531 71.785156 153.847656 73.195312 C 152.214844 74.101562 150.976562 74.199219 150.15625 73.535156 C 149.746094 73.203125 149.148438 72.390625 149.675781 70.730469 C 149.949219 69.972656 150.320312 69.265625 150.789062 68.609375 C 151.257812 67.953125 151.804688 67.371094 152.433594 66.863281 C 153.0625 66.359375 153.746094 65.945312 154.488281 65.625 C 155.230469 65.304688 156 65.089844 156.800781 64.980469 C 157.808594 62.246094 159.34375 59.449219 164.171875 58.363281 C 166.039062 57.894531 167.917969 57.816406 169.816406 58.132812 C 171.714844 58.445312 173.472656 59.121094 175.089844 60.164062 C 176.476562 61.046875 177.648438 62.15625 178.605469 63.496094 C 179.558594 64.835938 180.222656 66.304688 180.605469 67.90625 L 180.605469 68.148438 C 182.277344 77.074219 184.082031 81.992188 185.945312 82.746094 C 186.160156 82.828125 186.378906 82.84375 186.601562 82.800781 C 186.828125 82.753906 187.019531 82.652344 187.1875 82.496094 C 191.058594 79.761719 188.003906 64.207031 185.957031 59.863281 L 184.757812 60.285156 C 182.742188 60.988281 181.167969 61.550781 179.847656 61.160156 C 179.457031 61.09375 179.132812 60.910156 178.875 60.605469 C 178.617188 60.304688 178.488281 59.957031 178.488281 59.558594 C 178.488281 58.203125 180.410156 57.125 182.144531 56.703125 C 182.929688 56.445312 183.730469 56.390625 184.546875 56.53125 C 185.359375 56.675781 186.09375 57 186.742188 57.507812 C 188.496094 56.898438 190.304688 56.625 192.160156 56.6875 C 194.015625 56.746094 195.800781 57.136719 197.511719 57.859375 C 205.496094 61.398438 207.804688 64.75 204.859375 76.503906 C 203.425781 82.234375 203.933594 84.820312 204.859375 85.292969 C 205.785156 85.761719 207.882812 84.726562 210.816406 81.5 C 211.261719 81 211.640625 80.457031 211.949219 79.863281 C 212.257812 79.269531 212.484375 78.644531 212.632812 77.996094 C 212.785156 77.34375 212.851562 76.683594 212.832031 76.015625 C 212.816406 75.347656 212.714844 74.691406 212.53125 74.050781 C 209.75 72.53125 207.84375 71.03125 207.730469 69.023438 C 207.640625 67.402344 208.40625 66.910156 208.871094 66.757812 C 210.464844 66.238281 212.085938 68.449219 212.710938 69.425781 C 213.371094 70.445312 213.882812 71.539062 214.246094 72.703125 C 215.253906 73.234375 216.382812 73.707031 217.492188 74.289062 C 222.945312 76.894531 229.136719 79.839844 231.421875 84.898438 L 231.855469 85.84375 C 232.441406 87.140625 233.066406 88.507812 233.632812 89.9375 C 241.867188 86.074219 250.648438 83.902344 257.492188 86.921875 C 261.214844 88.578125 263.632812 91.222656 265.769531 93.546875 C 270.066406 98.230469 272.90625 101.339844 283.390625 94.550781 L 284.480469 96.242188 C 272.574219 103.894531 268.542969 99.5 264.320312 94.855469 C 262.222656 92.5625 260.042969 90.199219 256.707031 88.710938 C 250.445312 85.925781 242.191406 88.035156 234.355469 91.726562 C 235.535156 95.285156 236.0625 99.058594 234.425781 102.597656 C 232.410156 107.101562 227.199219 110.5 218.671875 112.984375 C 203.960938 117.03125 188.976562 119.085938 173.71875 119.148438 Z M 135.035156 97.851562 C 134.097656 97.800781 133.273438 98.085938 132.566406 98.703125 C 130.914062 100.253906 130.832031 101.21875 130.914062 101.800781 C 131.285156 104.507812 137.183594 108.074219 145.902344 112.589844 C 160.109375 119.953125 195.351562 117.71875 218.097656 111.113281 C 226.03125 108.800781 230.777344 105.761719 232.59375 101.8125 C 233.914062 98.9375 233.53125 95.777344 232.53125 92.679688 C 229.109375 94.4375 225.804688 96.390625 222.613281 98.535156 C 216.5625 102.554688 214.40625 101.277344 211.3125 98.925781 C 209.847656 97.71875 208.226562 96.777344 206.453125 96.101562 C 203.125 94.914062 201.109375 96.714844 198.0625 99.4375 C 194.894531 102.578125 191.226562 104.941406 187.054688 106.539062 C 180.097656 109.03125 178.699219 105.441406 177.46875 102.285156 C 176.460938 99.671875 175.453125 97.195312 171.800781 96.421875 C 167.699219 95.546875 166.148438 98.113281 164.363281 101.078125 C 162.578125 104.042969 160.644531 107.25 155.984375 106.296875 C 152.75 105.621094 149.121094 103.730469 145.621094 101.914062 C 141.820312 99.902344 137.789062 97.851562 135.035156 97.851562 Z M 156.027344 67.160156 C 154.359375 67.6875 153.070312 68.695312 152.152344 70.179688 C 151.761719 70.710938 151.535156 71.308594 151.46875 71.96875 C 151.988281 71.898438 152.46875 71.722656 152.910156 71.445312 C 154.644531 70.441406 155.378906 68.941406 156.027344 67.160156 Z M 209.777344 68.941406 C 210.019531 69.792969 210.523438 70.4375 211.292969 70.882812 C 210.890625 70.15625 210.386719 69.507812 209.777344 68.941406 Z M 183.828125 58.503906 C 182.886719 58.535156 182.007812 58.789062 181.1875 59.257812 C 182.09375 59.089844 182.972656 58.839844 183.828125 58.503906 Z M 183.828125 58.503906 " fill-opacity="1" fill-rule="nonzero"/></g><g fill="#000000" fill-opacity="1"><g transform="translate(88.754509, 85.407849)"><g><path d="M 2.125 -3.015625 L -9.8125 -7.453125 L -8.421875 -9.421875 L 0.859375 -5.59375 L -5.640625 -13.359375 L -4.21875 -15.390625 L 5.234375 -11.8125 L -1.484375 -19.265625 L -0.09375 -21.25 L 8.046875 -11.421875 L 6.5 -9.234375 L -2.34375 -12.5 L 3.65625 -5.1875 Z M 2.125 -3.015625 "/></g></g></g><g fill="#000000" fill-opacity="1"><g transform="translate(103.622212, 65.930583)"><g><path d="M 0.296875 -0.28125 L -4.90625 -12.3125 L -3.078125 -14.0625 L 8.65625 -8.21875 L 6.921875 -6.578125 L 4.265625 -7.953125 L 0.78125 -4.65625 L 2 -1.90625 Z M 0 -6.359375 L 2.59375 -8.8125 L -2.21875 -11.28125 Z M 0 -6.359375 "/></g></g></g><g fill="#000000" fill-opacity="1"><g transform="translate(118.023321, 53.157783)"><g><path d="M 1 -0.671875 L -5.859375 -10.90625 L -2.109375 -13.421875 C -1.296875 -13.960938 -0.53125 -14.269531 0.1875 -14.34375 C 0.914062 -14.425781 1.566406 -14.316406 2.140625 -14.015625 C 2.722656 -13.710938 3.207031 -13.273438 3.59375 -12.703125 C 4.007812 -12.078125 4.222656 -11.398438 4.234375 -10.671875 C 4.253906 -9.941406 3.992188 -9.226562 3.453125 -8.53125 L 8.453125 -5.65625 L 6.3125 -4.234375 L 1.703125 -6.984375 L 0.171875 -5.953125 L 2.875 -1.921875 Z M -0.75 -7.328125 L 1.015625 -8.515625 C 1.628906 -8.929688 1.976562 -9.382812 2.0625 -9.875 C 2.15625 -10.375 2.039062 -10.867188 1.71875 -11.359375 C 1.382812 -11.847656 0.976562 -12.140625 0.5 -12.234375 C 0.0195312 -12.335938 -0.535156 -12.175781 -1.171875 -11.75 L -2.921875 -10.578125 Z M -0.75 -7.328125 "/></g></g></g><g fill="#000000" fill-opacity="1"><g transform="translate(133.055573, 43.589043)"><g><path d="M 1.109375 -0.484375 L -3.78125 -11.78125 L -1.328125 -12.828125 L 5.359375 -7.21875 L 5.8125 -15.921875 L 8.265625 -16.984375 L 13.15625 -5.6875 L 11.09375 -4.796875 L 7.734375 -12.578125 L 7.25 -5.0625 L 5.609375 -4.359375 L -0.1875 -9.15625 L 3.171875 -1.375 Z M 1.109375 -0.484375 "/></g></g></g><g fill="#000000" fill-opacity="1"><g transform="translate(154.093664, 35.557599)"><g/></g></g><g fill="#000000" fill-opacity="1"><g transform="translate(165.073413, 32.914847)"><g><path d="M 1.1875 -0.140625 L -0.21875 -12.375 L 3.953125 -12.84375 C 5.390625 -13.007812 6.597656 -12.890625 7.578125 -12.484375 C 8.566406 -12.085938 9.335938 -11.457031 9.890625 -10.59375 C 10.441406 -9.726562 10.785156 -8.675781 10.921875 -7.4375 C 11.066406 -6.207031 10.96875 -5.109375 10.625 -4.140625 C 10.289062 -3.179688 9.6875 -2.394531 8.8125 -1.78125 C 7.945312 -1.164062 6.796875 -0.773438 5.359375 -0.609375 Z M 3.21875 -2.3125 L 5.046875 -2.53125 C 6.066406 -2.644531 6.851562 -2.898438 7.40625 -3.296875 C 7.957031 -3.703125 8.328125 -4.226562 8.515625 -4.875 C 8.703125 -5.53125 8.742188 -6.300781 8.640625 -7.1875 C 8.546875 -8.0625 8.332031 -8.796875 8 -9.390625 C 7.664062 -9.992188 7.179688 -10.429688 6.546875 -10.703125 C 5.921875 -10.972656 5.097656 -11.050781 4.078125 -10.9375 L 2.25 -10.71875 Z M 3.21875 -2.3125 "/></g></g></g><g fill="#000000" fill-opacity="1"><g transform="translate(184.450627, 31.369808)"><g><path d="M 1.203125 0.0625 L 1.84375 -12.234375 L 9.859375 -11.8125 L 9.765625 -10 L 4 -10.3125 L 3.828125 -6.9375 L 9.0625 -6.65625 L 8.96875 -4.90625 L 3.734375 -5.1875 L 3.546875 -1.640625 L 9.3125 -1.328125 L 9.21875 0.484375 Z M 1.203125 0.0625 "/></g></g></g><g fill="#000000" fill-opacity="1"><g transform="translate(201.564451, 32.817087)"><g><path d="M 1.171875 0.25 L 3.6875 -11.796875 L 5.890625 -11.34375 L 3.734375 -1.03125 L 9.0625 0.078125 L 8.703125 1.8125 Z M 1.171875 0.25 "/></g></g></g><g fill="#000000" fill-opacity="1"><g transform="translate(217.902504, 36.869181)"><g><path d="M 1.140625 0.390625 L 5.203125 -11.234375 L 7.328125 -10.484375 L 3.265625 1.140625 Z M 1.140625 0.390625 "/></g></g></g><g fill="#000000" fill-opacity="1"><g transform="translate(228.898099, 40.910122)"><g><path d="M 5.71875 3.234375 C 4.6875 2.691406 3.910156 1.984375 3.390625 1.109375 C 2.878906 0.242188 2.628906 -0.710938 2.640625 -1.765625 C 2.648438 -2.816406 2.945312 -3.898438 3.53125 -5.015625 C 4.113281 -6.140625 4.847656 -7.007812 5.734375 -7.625 C 6.617188 -8.25 7.597656 -8.585938 8.671875 -8.640625 C 9.742188 -8.703125 10.835938 -8.441406 11.953125 -7.859375 C 13.234375 -7.179688 14.132812 -6.316406 14.65625 -5.265625 C 15.175781 -4.222656 15.273438 -3.09375 14.953125 -1.875 L 12.734375 -3.046875 C 12.828125 -3.640625 12.734375 -4.191406 12.453125 -4.703125 C 12.171875 -5.222656 11.679688 -5.664062 10.984375 -6.03125 C 9.898438 -6.601562 8.878906 -6.695312 7.921875 -6.3125 C 6.972656 -5.9375 6.179688 -5.144531 5.546875 -3.9375 C 4.921875 -2.738281 4.726562 -1.65625 4.96875 -0.6875 C 5.207031 0.28125 5.828125 1.03125 6.828125 1.5625 C 7.816406 2.070312 8.703125 2.191406 9.484375 1.921875 C 10.273438 1.648438 10.953125 1.109375 11.515625 0.296875 L 8.75 -1.140625 L 9.53125 -2.625 L 14.3125 -0.125 L 11.171875 5.859375 L 9.328125 4.890625 L 9.921875 3.375 C 9.296875 3.707031 8.644531 3.875 7.96875 3.875 C 7.289062 3.882812 6.539062 3.671875 5.71875 3.234375 Z M 5.71875 3.234375 "/></g></g></g><g fill="#000000" fill-opacity="1"><g transform="translate(246.687709, 50.99512)"><g><path d="M 0.953125 0.734375 L 8.53125 -8.96875 L 10.296875 -7.578125 L 7.140625 -3.53125 L 11.484375 -0.140625 L 14.640625 -4.1875 L 16.421875 -2.796875 L 8.84375 6.90625 L 7.0625 5.515625 L 10.359375 1.296875 L 6.015625 -2.09375 L 2.71875 2.125 Z M 0.953125 0.734375 "/></g></g></g><g fill="#000000" fill-opacity="1"><g transform="translate(261.515697, 63.424986)"><g><path d="M 2.734375 3 L 10.484375 -4.09375 L 8.0625 -6.75 L 9.390625 -7.96875 L 15.78125 -0.984375 L 14.453125 0.234375 L 12.015625 -2.4375 L 4.265625 4.65625 Z M 2.734375 3 "/></g></g></g><g fill="#000000" fill-opacity="1"><g transform="translate(272.834631, 76.611013)"><g><path d="M 2.78125 4.625 C 2.28125 3.875 1.96875 3.125 1.84375 2.375 C 1.726562 1.625 1.804688 0.921875 2.078125 0.265625 C 2.359375 -0.378906 2.832031 -0.9375 3.5 -1.40625 L 4.8125 0.578125 C 4.351562 0.921875 4.066406 1.359375 3.953125 1.890625 C 3.835938 2.429688 3.96875 2.988281 4.34375 3.5625 C 4.675781 4.070312 5.054688 4.394531 5.484375 4.53125 C 5.921875 4.664062 6.34375 4.601562 6.75 4.34375 C 7.175781 4.0625 7.421875 3.710938 7.484375 3.296875 C 7.554688 2.878906 7.519531 2.410156 7.375 1.890625 C 7.226562 1.367188 7.078125 0.800781 6.921875 0.1875 C 6.679688 -0.78125 6.640625 -1.613281 6.796875 -2.3125 C 6.953125 -3.007812 7.382812 -3.59375 8.09375 -4.0625 C 8.6875 -4.476562 9.300781 -4.675781 9.9375 -4.65625 C 10.570312 -4.644531 11.179688 -4.460938 11.765625 -4.109375 C 12.347656 -3.753906 12.863281 -3.238281 13.3125 -2.5625 C 13.757812 -1.875 14.03125 -1.1875 14.125 -0.5 C 14.226562 0.175781 14.160156 0.8125 13.921875 1.40625 C 13.679688 2 13.257812 2.503906 12.65625 2.921875 L 11.328125 0.90625 C 11.691406 0.664062 11.925781 0.320312 12.03125 -0.125 C 12.132812 -0.582031 12.03125 -1.050781 11.71875 -1.53125 C 11.445312 -1.957031 11.113281 -2.238281 10.71875 -2.375 C 10.320312 -2.519531 9.921875 -2.457031 9.515625 -2.1875 C 9.179688 -1.96875 8.984375 -1.679688 8.921875 -1.328125 C 8.859375 -0.984375 8.878906 -0.578125 8.984375 -0.109375 C 9.097656 0.347656 9.234375 0.867188 9.390625 1.453125 C 9.554688 2.078125 9.660156 2.675781 9.703125 3.25 C 9.742188 3.832031 9.65625 4.375 9.4375 4.875 C 9.21875 5.382812 8.800781 5.835938 8.1875 6.234375 C 7.644531 6.585938 7.054688 6.78125 6.421875 6.8125 C 5.785156 6.84375 5.144531 6.679688 4.5 6.328125 C 3.863281 5.972656 3.289062 5.40625 2.78125 4.625 Z M 2.78125 4.625 "/></g></g></g><g fill="#000000" fill-opacity="1"><g transform="translate(94.708371, 139.49133)"><g><path d="M 1.234375 0 L 1.234375 -11.703125 L 4.828125 -11.703125 C 6.890625 -11.703125 8.40625 -11.175781 9.375 -10.125 C 10.351562 -9.082031 10.84375 -7.644531 10.84375 -5.8125 C 10.84375 -4.019531 10.351562 -2.601562 9.375 -1.5625 C 8.40625 -0.519531 6.890625 0 4.828125 0 Z M 2.640625 -1.171875 L 4.796875 -1.171875 C 5.929688 -1.171875 6.835938 -1.359375 7.515625 -1.734375 C 8.191406 -2.109375 8.671875 -2.640625 8.953125 -3.328125 C 9.242188 -4.023438 9.390625 -4.851562 9.390625 -5.8125 C 9.390625 -6.800781 9.242188 -7.644531 8.953125 -8.34375 C 8.671875 -9.039062 8.191406 -9.578125 7.515625 -9.953125 C 6.835938 -10.335938 5.929688 -10.53125 4.796875 -10.53125 L 2.640625 -10.53125 Z M 2.640625 -1.171875 "/></g></g></g><g fill="#000000" fill-opacity="1"><g transform="translate(107.911085, 139.49133)"><g><path d="M 4.875 0.203125 C 4.082031 0.203125 3.378906 0.0195312 2.765625 -0.34375 C 2.160156 -0.707031 1.679688 -1.210938 1.328125 -1.859375 C 0.972656 -2.503906 0.796875 -3.265625 0.796875 -4.140625 C 0.796875 -5.015625 0.96875 -5.773438 1.3125 -6.421875 C 1.664062 -7.078125 2.148438 -7.585938 2.765625 -7.953125 C 3.378906 -8.316406 4.097656 -8.5 4.921875 -8.5 C 5.722656 -8.5 6.414062 -8.316406 7 -7.953125 C 7.582031 -7.585938 8.03125 -7.109375 8.34375 -6.515625 C 8.65625 -5.929688 8.8125 -5.296875 8.8125 -4.609375 C 8.8125 -4.492188 8.804688 -4.375 8.796875 -4.25 C 8.796875 -4.125 8.796875 -3.984375 8.796875 -3.828125 L 2.1875 -3.828125 C 2.21875 -3.191406 2.363281 -2.664062 2.625 -2.25 C 2.894531 -1.832031 3.226562 -1.515625 3.625 -1.296875 C 4.019531 -1.085938 4.4375 -0.984375 4.875 -0.984375 C 5.457031 -0.984375 5.941406 -1.113281 6.328125 -1.375 C 6.722656 -1.644531 7.007812 -2.007812 7.1875 -2.46875 L 8.578125 -2.46875 C 8.359375 -1.707031 7.929688 -1.070312 7.296875 -0.5625 C 6.671875 -0.0507812 5.863281 0.203125 4.875 0.203125 Z M 4.875 -7.3125 C 4.207031 -7.3125 3.613281 -7.101562 3.09375 -6.6875 C 2.582031 -6.28125 2.285156 -5.691406 2.203125 -4.921875 L 7.421875 -4.921875 C 7.390625 -5.660156 7.132812 -6.242188 6.65625 -6.671875 C 6.175781 -7.097656 5.582031 -7.3125 4.875 -7.3125 Z M 4.875 -7.3125 "/></g></g></g><g fill="#000000" fill-opacity="1"><g transform="translate(118.991514, 139.49133)"><g><path d="M 1.15625 0 L 1.15625 -12.03125 L 2.5625 -12.03125 L 2.5625 0 Z M 1.15625 0 "/></g></g></g><g fill="#000000" fill-opacity="1"><g transform="translate(124.27328, 139.49133)"><g><path d="M 2 -10.125 C 1.726562 -10.125 1.5 -10.21875 1.3125 -10.40625 C 1.125 -10.59375 1.03125 -10.820312 1.03125 -11.09375 C 1.03125 -11.363281 1.125 -11.585938 1.3125 -11.765625 C 1.5 -11.941406 1.726562 -12.03125 2 -12.03125 C 2.269531 -12.03125 2.5 -11.941406 2.6875 -11.765625 C 2.875 -11.585938 2.96875 -11.363281 2.96875 -11.09375 C 2.96875 -10.820312 2.875 -10.59375 2.6875 -10.40625 C 2.5 -10.21875 2.269531 -10.125 2 -10.125 Z M 1.296875 0 L 1.296875 -8.296875 L 2.703125 -8.296875 L 2.703125 0 Z M 1.296875 0 "/></g></g></g><g fill="#000000" fill-opacity="1"><g transform="translate(129.839122, 139.49133)"><g><path d="M 4.4375 -2.609375 C 3.96875 -2.609375 3.535156 -2.671875 3.140625 -2.796875 L 2.3125 -2 C 2.425781 -1.914062 2.578125 -1.84375 2.765625 -1.78125 C 2.953125 -1.71875 3.21875 -1.660156 3.5625 -1.609375 C 3.90625 -1.554688 4.390625 -1.503906 5.015625 -1.453125 C 6.128906 -1.378906 6.925781 -1.125 7.40625 -0.6875 C 7.882812 -0.25 8.125 0.316406 8.125 1.015625 C 8.125 1.492188 7.992188 1.953125 7.734375 2.390625 C 7.472656 2.828125 7.070312 3.179688 6.53125 3.453125 C 5.988281 3.734375 5.296875 3.875 4.453125 3.875 C 3.703125 3.875 3.035156 3.773438 2.453125 3.578125 C 1.878906 3.390625 1.429688 3.097656 1.109375 2.703125 C 0.785156 2.304688 0.625 1.804688 0.625 1.203125 C 0.625 0.890625 0.707031 0.550781 0.875 0.1875 C 1.039062 -0.164062 1.351562 -0.507812 1.8125 -0.84375 C 1.5625 -0.9375 1.347656 -1.039062 1.171875 -1.15625 C 1.003906 -1.28125 0.847656 -1.414062 0.703125 -1.5625 L 0.703125 -1.9375 L 2.125 -3.34375 C 1.46875 -3.90625 1.140625 -4.640625 1.140625 -5.546875 C 1.140625 -6.097656 1.265625 -6.59375 1.515625 -7.03125 C 1.773438 -7.476562 2.148438 -7.832031 2.640625 -8.09375 C 3.128906 -8.363281 3.726562 -8.5 4.4375 -8.5 C 4.914062 -8.5 5.347656 -8.429688 5.734375 -8.296875 L 8.796875 -8.296875 L 8.796875 -7.234375 L 7.234375 -7.171875 C 7.554688 -6.703125 7.71875 -6.160156 7.71875 -5.546875 C 7.71875 -5.003906 7.585938 -4.507812 7.328125 -4.0625 C 7.066406 -3.613281 6.691406 -3.257812 6.203125 -3 C 5.722656 -2.738281 5.132812 -2.609375 4.4375 -2.609375 Z M 4.4375 -3.765625 C 5.019531 -3.765625 5.488281 -3.914062 5.84375 -4.21875 C 6.195312 -4.53125 6.375 -4.972656 6.375 -5.546875 C 6.375 -6.117188 6.195312 -6.554688 5.84375 -6.859375 C 5.488281 -7.171875 5.019531 -7.328125 4.4375 -7.328125 C 3.832031 -7.328125 3.351562 -7.171875 3 -6.859375 C 2.644531 -6.554688 2.46875 -6.117188 2.46875 -5.546875 C 2.46875 -4.972656 2.644531 -4.53125 3 -4.21875 C 3.351562 -3.914062 3.832031 -3.765625 4.4375 -3.765625 Z M 1.984375 1.0625 C 1.984375 1.625 2.21875 2.039062 2.6875 2.3125 C 3.15625 2.582031 3.742188 2.71875 4.453125 2.71875 C 5.140625 2.71875 5.691406 2.566406 6.109375 2.265625 C 6.523438 1.972656 6.734375 1.570312 6.734375 1.0625 C 6.734375 0.707031 6.585938 0.398438 6.296875 0.140625 C 6.015625 -0.117188 5.484375 -0.269531 4.703125 -0.3125 C 4.085938 -0.363281 3.554688 -0.421875 3.109375 -0.484375 C 2.648438 -0.234375 2.347656 0.03125 2.203125 0.3125 C 2.054688 0.59375 1.984375 0.84375 1.984375 1.0625 Z M 1.984375 1.0625 "/></g></g></g><g fill="#000000" fill-opacity="1"><g transform="translate(140.635475, 139.49133)"><g><path d="M 1.15625 0 L 1.15625 -12.03125 L 2.5625 -12.03125 L 2.5625 -6.875 C 2.832031 -7.382812 3.222656 -7.78125 3.734375 -8.0625 C 4.253906 -8.351562 4.816406 -8.5 5.421875 -8.5 C 6.378906 -8.5 7.144531 -8.195312 7.71875 -7.59375 C 8.300781 -7 8.59375 -6.082031 8.59375 -4.84375 L 8.59375 0 L 7.203125 0 L 7.203125 -4.703125 C 7.203125 -6.429688 6.503906 -7.296875 5.109375 -7.296875 C 4.390625 -7.296875 3.785156 -7.035156 3.296875 -6.515625 C 2.804688 -5.992188 2.5625 -5.253906 2.5625 -4.296875 L 2.5625 0 Z M 1.15625 0 "/></g></g></g><g fill="#000000" fill-opacity="1"><g transform="translate(151.766041, 139.49133)"><g><path d="M 4.4375 0 C 3.675781 0 3.078125 -0.179688 2.640625 -0.546875 C 2.203125 -0.921875 1.984375 -1.585938 1.984375 -2.546875 L 1.984375 -7.109375 L 0.546875 -7.109375 L 0.546875 -8.296875 L 1.984375 -8.296875 L 2.171875 -10.28125 L 3.390625 -10.28125 L 3.390625 -8.296875 L 5.828125 -8.296875 L 5.828125 -7.109375 L 3.390625 -7.109375 L 3.390625 -2.546875 C 3.390625 -2.015625 3.492188 -1.65625 3.703125 -1.46875 C 3.921875 -1.289062 4.296875 -1.203125 4.828125 -1.203125 L 5.703125 -1.203125 L 5.703125 0 Z M 4.4375 0 "/></g></g></g><g fill="#000000" fill-opacity="1"><g transform="translate(159.805097, 139.49133)"><g/></g></g><g fill="#000000" fill-opacity="1"><g transform="translate(165.805423, 139.49133)"><g><path d="M 1.234375 0 L 1.234375 -11.703125 L 2.640625 -11.703125 L 2.640625 0 Z M 1.234375 0 "/></g></g></g><g fill="#000000" fill-opacity="1"><g transform="translate(171.254292, 139.49133)"><g><path d="M 1.15625 0 L 1.15625 -8.296875 L 2.421875 -8.296875 L 2.515625 -6.796875 C 2.773438 -7.328125 3.15625 -7.742188 3.65625 -8.046875 C 4.15625 -8.347656 4.722656 -8.5 5.359375 -8.5 C 6.347656 -8.5 7.132812 -8.195312 7.71875 -7.59375 C 8.300781 -7 8.59375 -6.082031 8.59375 -4.84375 L 8.59375 0 L 7.1875 0 L 7.1875 -4.703125 C 7.1875 -6.429688 6.472656 -7.296875 5.046875 -7.296875 C 4.335938 -7.296875 3.742188 -7.035156 3.265625 -6.515625 C 2.796875 -5.992188 2.5625 -5.253906 2.5625 -4.296875 L 2.5625 0 Z M 1.15625 0 "/></g></g></g><g fill="#000000" fill-opacity="1"><g transform="translate(182.384856, 139.49133)"><g/></g></g><g fill="#000000" fill-opacity="1"><g transform="translate(188.385181, 139.49133)"><g><path d="M 1.234375 0 L 1.234375 -11.703125 L 8.46875 -11.703125 L 8.46875 -10.546875 L 2.640625 -10.546875 L 2.640625 -6.46875 L 7.96875 -6.46875 L 7.96875 -5.328125 L 2.640625 -5.328125 L 2.640625 -1.15625 L 8.46875 -1.15625 L 8.46875 0 Z M 1.234375 0 "/></g></g></g><g fill="#000000" fill-opacity="1"><g transform="translate(199.38206, 139.49133)"><g><path d="M 3.546875 0 L 0.40625 -8.296875 L 1.875 -8.296875 L 4.359375 -1.359375 L 6.875 -8.296875 L 8.3125 -8.296875 L 5.171875 0 Z M 3.546875 0 "/></g></g></g><g fill="#000000" fill-opacity="1"><g transform="translate(209.660376, 139.49133)"><g><path d="M 4.875 0.203125 C 4.082031 0.203125 3.378906 0.0195312 2.765625 -0.34375 C 2.160156 -0.707031 1.679688 -1.210938 1.328125 -1.859375 C 0.972656 -2.503906 0.796875 -3.265625 0.796875 -4.140625 C 0.796875 -5.015625 0.96875 -5.773438 1.3125 -6.421875 C 1.664062 -7.078125 2.148438 -7.585938 2.765625 -7.953125 C 3.378906 -8.316406 4.097656 -8.5 4.921875 -8.5 C 5.722656 -8.5 6.414062 -8.316406 7 -7.953125 C 7.582031 -7.585938 8.03125 -7.109375 8.34375 -6.515625 C 8.65625 -5.929688 8.8125 -5.296875 8.8125 -4.609375 C 8.8125 -4.492188 8.804688 -4.375 8.796875 -4.25 C 8.796875 -4.125 8.796875 -3.984375 8.796875 -3.828125 L 2.1875 -3.828125 C 2.21875 -3.191406 2.363281 -2.664062 2.625 -2.25 C 2.894531 -1.832031 3.226562 -1.515625 3.625 -1.296875 C 4.019531 -1.085938 4.4375 -0.984375 4.875 -0.984375 C 5.457031 -0.984375 5.941406 -1.113281 6.328125 -1.375 C 6.722656 -1.644531 7.007812 -2.007812 7.1875 -2.46875 L 8.578125 -2.46875 C 8.359375 -1.707031 7.929688 -1.070312 7.296875 -0.5625 C 6.671875 -0.0507812 5.863281 0.203125 4.875 0.203125 Z M 4.875 -7.3125 C 4.207031 -7.3125 3.613281 -7.101562 3.09375 -6.6875 C 2.582031 -6.28125 2.285156 -5.691406 2.203125 -4.921875 L 7.421875 -4.921875 C 7.390625 -5.660156 7.132812 -6.242188 6.65625 -6.671875 C 6.175781 -7.097656 5.582031 -7.3125 4.875 -7.3125 Z M 4.875 -7.3125 "/></g></g></g><g fill="#000000" fill-opacity="1"><g transform="translate(220.740808, 139.49133)"><g><path d="M 1.15625 0 L 1.15625 -8.296875 L 2.421875 -8.296875 L 2.546875 -6.703125 C 2.796875 -7.253906 3.179688 -7.691406 3.703125 -8.015625 C 4.234375 -8.335938 4.882812 -8.5 5.65625 -8.5 L 5.65625 -7.015625 L 5.265625 -7.015625 C 4.773438 -7.015625 4.320312 -6.925781 3.90625 -6.75 C 3.5 -6.582031 3.171875 -6.289062 2.921875 -5.875 C 2.679688 -5.46875 2.5625 -4.90625 2.5625 -4.1875 L 2.5625 0 Z M 1.15625 0 "/></g></g></g><g fill="#000000" fill-opacity="1"><g transform="translate(228.378801, 139.49133)"><g><path d="M 2.0625 3.671875 L 4.109375 -0.796875 L 3.625 -0.796875 L 0.328125 -8.296875 L 1.859375 -8.296875 L 4.59375 -1.84375 L 7.5 -8.296875 L 8.96875 -8.296875 L 3.53125 3.671875 Z M 2.0625 3.671875 "/></g></g></g><g fill="#000000" fill-opacity="1"><g transform="translate(239.242001, 139.49133)"><g/></g></g><g fill="#000000" fill-opacity="1"><g transform="translate(245.242333, 139.49133)"><g><path d="M 1.234375 0 L 1.234375 -11.703125 L 5.34375 -11.703125 C 6.175781 -11.703125 6.859375 -11.570312 7.390625 -11.3125 C 7.929688 -11.050781 8.335938 -10.691406 8.609375 -10.234375 C 8.878906 -9.785156 9.015625 -9.285156 9.015625 -8.734375 C 9.015625 -7.972656 8.8125 -7.375 8.40625 -6.9375 C 8 -6.5 7.507812 -6.195312 6.9375 -6.03125 C 7.375 -5.957031 7.769531 -5.785156 8.125 -5.515625 C 8.476562 -5.242188 8.757812 -4.90625 8.96875 -4.5 C 9.175781 -4.101562 9.28125 -3.664062 9.28125 -3.1875 C 9.28125 -2.601562 9.132812 -2.066406 8.84375 -1.578125 C 8.550781 -1.097656 8.117188 -0.710938 7.546875 -0.421875 C 6.984375 -0.140625 6.296875 0 5.484375 0 Z M 2.640625 -6.59375 L 5.25 -6.59375 C 6 -6.59375 6.570312 -6.765625 6.96875 -7.109375 C 7.375 -7.460938 7.578125 -7.953125 7.578125 -8.578125 C 7.578125 -9.171875 7.378906 -9.644531 6.984375 -10 C 6.585938 -10.351562 5.992188 -10.53125 5.203125 -10.53125 L 2.640625 -10.53125 Z M 2.640625 -1.171875 L 5.328125 -1.171875 C 6.128906 -1.171875 6.75 -1.359375 7.1875 -1.734375 C 7.625 -2.109375 7.84375 -2.628906 7.84375 -3.296875 C 7.84375 -3.953125 7.613281 -4.476562 7.15625 -4.875 C 6.695312 -5.269531 6.078125 -5.46875 5.296875 -5.46875 L 2.640625 -5.46875 Z M 2.640625 -1.171875 "/></g></g></g><g fill="#000000" fill-opacity="1"><g transform="translate(256.874233, 139.49133)"><g><path d="M 2 -10.125 C 1.726562 -10.125 1.5 -10.21875 1.3125 -10.40625 C 1.125 -10.59375 1.03125 -10.820312 1.03125 -11.09375 C 1.03125 -11.363281 1.125 -11.585938 1.3125 -11.765625 C 1.5 -11.941406 1.726562 -12.03125 2 -12.03125 C 2.269531 -12.03125 2.5 -11.941406 2.6875 -11.765625 C 2.875 -11.585938 2.96875 -11.363281 2.96875 -11.09375 C 2.96875 -10.820312 2.875 -10.59375 2.6875 -10.40625 C 2.5 -10.21875 2.269531 -10.125 2 -10.125 Z M 1.296875 0 L 1.296875 -8.296875 L 2.703125 -8.296875 L 2.703125 0 Z M 1.296875 0 "/></g></g></g><g fill="#000000" fill-opacity="1"><g transform="translate(262.440078, 139.49133)"><g><path d="M 4.4375 0 C 3.675781 0 3.078125 -0.179688 2.640625 -0.546875 C 2.203125 -0.921875 1.984375 -1.585938 1.984375 -2.546875 L 1.984375 -7.109375 L 0.546875 -7.109375 L 0.546875 -8.296875 L 1.984375 -8.296875 L 2.171875 -10.28125 L 3.390625 -10.28125 L 3.390625 -8.296875 L 5.828125 -8.296875 L 5.828125 -7.109375 L 3.390625 -7.109375 L 3.390625 -2.546875 C 3.390625 -2.015625 3.492188 -1.65625 3.703125 -1.46875 C 3.921875 -1.289062 4.296875 -1.203125 4.828125 -1.203125 L 5.703125 -1.203125 L 5.703125 0 Z M 4.4375 0 "/></g></g></g><g fill="#000000" fill-opacity="1"><g transform="translate(270.47914, 139.49133)"><g><path d="M 4.875 0.203125 C 4.082031 0.203125 3.378906 0.0195312 2.765625 -0.34375 C 2.160156 -0.707031 1.679688 -1.210938 1.328125 -1.859375 C 0.972656 -2.503906 0.796875 -3.265625 0.796875 -4.140625 C 0.796875 -5.015625 0.96875 -5.773438 1.3125 -6.421875 C 1.664062 -7.078125 2.148438 -7.585938 2.765625 -7.953125 C 3.378906 -8.316406 4.097656 -8.5 4.921875 -8.5 C 5.722656 -8.5 6.414062 -8.316406 7 -7.953125 C 7.582031 -7.585938 8.03125 -7.109375 8.34375 -6.515625 C 8.65625 -5.929688 8.8125 -5.296875 8.8125 -4.609375 C 8.8125 -4.492188 8.804688 -4.375 8.796875 -4.25 C 8.796875 -4.125 8.796875 -3.984375 8.796875 -3.828125 L 2.1875 -3.828125 C 2.21875 -3.191406 2.363281 -2.664062 2.625 -2.25 C 2.894531 -1.832031 3.226562 -1.515625 3.625 -1.296875 C 4.019531 -1.085938 4.4375 -0.984375 4.875 -0.984375 C 5.457031 -0.984375 5.941406 -1.113281 6.328125 -1.375 C 6.722656 -1.644531 7.007812 -2.007812 7.1875 -2.46875 L 8.578125 -2.46875 C 8.359375 -1.707031 7.929688 -1.070312 7.296875 -0.5625 C 6.671875 -0.0507812 5.863281 0.203125 4.875 0.203125 Z M 4.875 -7.3125 C 4.207031 -7.3125 3.613281 -7.101562 3.09375 -6.6875 C 2.582031 -6.28125 2.285156 -5.691406 2.203125 -4.921875 L 7.421875 -4.921875 C 7.390625 -5.660156 7.132812 -6.242188 6.65625 -6.671875 C 6.175781 -7.097656 5.582031 -7.3125 4.875 -7.3125 Z M 4.875 -7.3125 "/></g></g></g></svg>