<svg xmlns="http://www.w3.org/2000/svg" xmlns:xlink="http://www.w3.org/1999/xlink" width="500" zoomAndPan="magnify" viewBox="0 0 375 374.999991" height="500" preserveAspectRatio="xMidYMid meet" version="1.0"><defs><clipPath id="997a3bcb34"><path d="M 40.679688 144.335938 L 335.433594 144.335938 L 335.433594 246 L 40.679688 246 Z M 40.679688 144.335938 " clip-rule="nonzero"/></clipPath></defs><g clip-path="url(#997a3bcb34)"><path fill="#000000" d="M 171.957031 245.546875 C 153.140625 245.546875 136.273438 243.230469 125.988281 237.867188 C 107.492188 228.152344 101.011719 223.292969 100.300781 218.046875 C 99.949219 215.457031 101.121094 212.914062 103.929688 210.273438 C 109.542969 204.960938 118.765625 209.789062 128.503906 214.90625 C 133.917969 217.753906 139.519531 220.6875 144.238281 221.675781 C 149.222656 222.714844 151.273438 219.714844 154.238281 214.773438 C 157.207031 209.839844 160.6875 203.894531 169.574219 205.773438 C 177.167969 207.394531 179.246094 212.832031 180.972656 217.207031 C 182.941406 222.324219 184.019531 225.140625 192.257812 222.191406 C 198.527344 219.769531 204.03125 216.171875 208.785156 211.40625 C 213.898438 206.796875 218.316406 202.808594 225.445312 205.382812 C 228.597656 206.582031 231.476562 208.253906 234.085938 210.40625 C 238.183594 213.546875 240.242188 215.132812 248.417969 209.644531 C 253.753906 206.082031 259.269531 202.84375 264.980469 199.925781 C 264.089844 197.660156 263.078125 195.425781 262.113281 193.273438 L 261.417969 191.75 C 258.191406 184.675781 248.902344 180.1875 240.664062 176.238281 L 237.699219 174.8125 C 237.835938 175.921875 237.847656 177.039062 237.746094 178.152344 C 237.644531 179.269531 237.421875 180.359375 237.085938 181.425781 C 236.746094 182.496094 236.300781 183.515625 235.742188 184.484375 C 235.183594 185.457031 234.53125 186.351562 233.78125 187.183594 C 228.148438 193.320312 223.507812 195.652344 220.332031 193.933594 C 216.867188 192.054688 216.351562 186.0625 218.816406 176.125 C 223.316406 158.066406 219.863281 154.75 208.867188 149.839844 C 206.636719 148.890625 204.316406 148.355469 201.898438 148.234375 C 199.480469 148.113281 197.117188 148.417969 194.804688 149.144531 C 197.902344 156.671875 203.984375 183.152344 195.53125 189.191406 C 194.820312 189.761719 194.015625 190.117188 193.113281 190.261719 C 192.210938 190.398438 191.335938 190.300781 190.484375 189.96875 C 185.066406 187.75 182.132812 175.621094 179.988281 164.058594 L 179.988281 163.65625 C 179.457031 161.515625 178.554688 159.550781 177.269531 157.765625 C 175.988281 155.976562 174.421875 154.488281 172.570312 153.304688 C 171.46875 152.589844 170.304688 151.996094 169.078125 151.523438 C 167.855469 151.050781 166.59375 150.707031 165.292969 150.5 C 164 150.289062 162.699219 150.214844 161.386719 150.273438 C 160.074219 150.332031 158.78125 150.53125 157.511719 150.859375 C 156.457031 151.019531 155.4375 151.320312 154.46875 151.765625 C 153.496094 152.207031 152.597656 152.777344 151.789062 153.476562 C 150.976562 154.175781 150.273438 154.972656 149.683594 155.867188 C 149.09375 156.765625 148.640625 157.722656 148.320312 158.746094 C 155.03125 160.753906 163.378906 169.757812 167.671875 178.179688 C 171.058594 184.804688 171.460938 190.226562 168.78125 193.433594 C 163.410156 199.914062 154.769531 193.15625 147.140625 187.199219 C 143.273438 184.152344 139.277344 181.027344 135.96875 179.703125 C 128.019531 176.460938 116.007812 171.605469 102.300781 198.550781 C 100.875 201.476562 99.128906 204.195312 97.070312 206.714844 C 95.007812 209.226562 92.6875 211.472656 90.097656 213.4375 C 87.515625 215.40625 84.738281 217.046875 81.773438 218.363281 C 78.804688 219.679688 75.726562 220.628906 72.535156 221.222656 C 67.199219 222.230469 61.832031 222.417969 56.4375 221.789062 C 51.046875 221.164062 45.867188 219.746094 40.898438 217.542969 L 42.253906 214.613281 C 57.347656 221.5625 86.222656 222.9375 99.433594 197.078125 C 113.203125 169.839844 126.066406 172.269531 137.0625 176.671875 C 140.808594 178.179688 144.984375 181.53125 149.027344 184.625 C 157.367188 191.101562 163.074219 195.136719 166.21875 191.34375 C 167.976562 189.222656 167.429688 184.964844 164.699219 179.636719 C 160.394531 171.183594 152.320312 163.152344 147.128906 161.824219 C 145.851562 165.515625 144.449219 169.273438 140.175781 171.539062 C 137.566406 172.996094 135.582031 173.15625 134.277344 172.09375 C 133.613281 171.558594 132.664062 170.246094 133.503906 167.574219 C 133.941406 166.351562 134.535156 165.214844 135.285156 164.15625 C 136.035156 163.097656 136.914062 162.160156 137.917969 161.34375 C 138.917969 160.53125 140.015625 159.863281 141.203125 159.347656 C 142.386719 158.835938 143.621094 158.488281 144.902344 158.308594 C 146.515625 153.902344 148.964844 149.402344 156.6875 147.65625 C 158.164062 147.28125 159.664062 147.066406 161.1875 147.003906 C 162.707031 146.9375 164.214844 147.03125 165.71875 147.28125 C 167.222656 147.53125 168.679688 147.929688 170.101562 148.484375 C 171.523438 149.03125 172.871094 149.722656 174.152344 150.554688 C 176.375 151.972656 178.246094 153.765625 179.773438 155.921875 C 181.300781 158.082031 182.363281 160.449219 182.972656 163.019531 L 182.972656 163.410156 C 185.644531 177.792969 188.535156 185.707031 191.519531 186.921875 C 191.859375 187.050781 192.210938 187.082031 192.566406 187.011719 C 192.925781 186.9375 193.238281 186.773438 193.503906 186.519531 C 199.691406 182.117188 194.804688 157.0625 191.53125 150.070312 L 189.613281 150.75 C 186.390625 151.882812 183.875 152.789062 181.761719 152.15625 C 181.460938 152.105469 181.171875 152 180.90625 151.851562 C 180.636719 151.695312 180.402344 151.503906 180.207031 151.265625 C 180.007812 151.03125 179.855469 150.769531 179.746094 150.480469 C 179.640625 150.191406 179.585938 149.890625 179.585938 149.578125 C 179.585938 147.394531 182.667969 145.664062 185.441406 144.980469 C 186.691406 144.570312 187.972656 144.472656 189.273438 144.707031 C 190.578125 144.9375 191.753906 145.457031 192.789062 146.28125 C 195.597656 145.296875 198.484375 144.855469 201.453125 144.953125 C 204.425781 145.050781 207.277344 145.679688 210.011719 146.847656 C 222.785156 152.546875 226.472656 157.9375 221.765625 176.867188 C 219.476562 186.097656 220.285156 190.261719 221.765625 191.023438 C 223.25 191.78125 226.605469 190.113281 231.292969 184.917969 C 232.011719 184.113281 232.617188 183.234375 233.105469 182.28125 C 233.597656 181.320312 233.964844 180.320312 234.203125 179.269531 C 234.445312 178.222656 234.546875 177.15625 234.519531 176.082031 C 234.492188 175.007812 234.328125 173.953125 234.035156 172.914062 C 229.585938 170.46875 226.542969 168.058594 226.363281 164.820312 C 226.21875 162.210938 227.441406 161.421875 228.183594 161.175781 C 230.734375 160.332031 233.328125 163.898438 234.328125 165.464844 C 235.386719 167.117188 236.199219 168.875 236.777344 170.746094 C 238.390625 171.605469 240.199219 172.367188 241.972656 173.304688 C 250.695312 177.5 260.59375 182.242188 264.253906 190.386719 L 264.945312 191.910156 C 265.882812 194.003906 266.882812 196.203125 267.785156 198.503906 C 280.960938 192.285156 295.003906 188.789062 305.949219 193.648438 C 311.902344 196.316406 315.773438 200.574219 319.191406 204.316406 C 326.058594 211.863281 330.609375 216.867188 347.375 205.9375 L 349.117188 208.65625 C 330.074219 220.980469 323.625 213.902344 316.871094 206.421875 C 313.515625 202.726562 310.03125 198.925781 304.695312 196.527344 C 294.679688 192.042969 281.476562 195.441406 268.945312 201.382812 C 270.832031 207.121094 271.671875 213.1875 269.058594 218.886719 C 265.835938 226.144531 257.5 231.617188 243.859375 235.621094 C 220.332031 242.136719 196.363281 245.445312 171.957031 245.546875 Z M 110.089844 211.246094 C 108.585938 211.164062 107.269531 211.625 106.136719 212.621094 C 103.496094 215.117188 103.367188 216.671875 103.496094 217.613281 C 104.089844 221.96875 113.523438 227.714844 127.472656 234.984375 C 150.191406 246.839844 206.558594 243.242188 242.941406 232.609375 C 255.628906 228.882812 263.222656 223.992188 266.125 217.628906 C 268.238281 212.996094 267.625 207.910156 266.027344 202.925781 C 260.558594 205.753906 255.265625 208.898438 250.160156 212.347656 C 240.484375 218.824219 237.035156 216.769531 232.085938 212.980469 C 229.742188 211.035156 227.152344 209.519531 224.316406 208.429688 C 218.992188 206.515625 215.769531 209.417969 210.898438 213.804688 C 205.828125 218.859375 199.960938 222.671875 193.292969 225.238281 C 182.164062 229.253906 179.925781 223.472656 177.960938 218.390625 C 176.347656 214.175781 174.734375 210.195312 168.894531 208.949219 C 162.332031 207.539062 159.847656 211.667969 156.996094 216.441406 C 154.144531 221.222656 151.042969 226.386719 143.59375 224.847656 C 138.421875 223.765625 132.617188 220.722656 127.019531 217.785156 C 120.941406 214.550781 114.492188 211.246094 110.089844 211.246094 Z M 143.660156 161.824219 C 142.371094 162.234375 141.195312 162.859375 140.128906 163.691406 C 139.066406 164.527344 138.179688 165.527344 137.472656 166.683594 C 136.84375 167.539062 136.480469 168.503906 136.375 169.566406 C 137.199219 169.453125 137.96875 169.171875 138.675781 168.726562 C 141.453125 167.101562 142.628906 164.6875 143.660156 161.824219 Z M 229.636719 164.6875 C 230.023438 166.058594 230.828125 167.101562 232.054688 167.816406 C 231.414062 166.644531 230.605469 165.601562 229.636719 164.6875 Z M 188.132812 147.878906 C 186.625 147.933594 185.210938 148.335938 183.90625 149.09375 C 185.355469 148.824219 186.761719 148.421875 188.132812 147.878906 Z M 188.132812 147.878906 " fill-opacity="1" fill-rule="nonzero"/></g><path fill="#000000" d="M 84.679688 178.632812 L 71.734375 174.609375 L 73.089844 172.433594 L 83.199219 175.980469 L 75.8125 168.101562 L 77.21875 165.851562 L 87.496094 169.105469 L 79.890625 161.574219 L 81.261719 159.382812 L 90.492188 169.34375 L 88.976562 171.757812 L 79.378906 168.8125 L 86.179688 176.21875 Z M 84.679688 178.632812 " fill-opacity="1" fill-rule="nonzero"/><path fill="#000000" d="M 97.671875 159.941406 L 91.4375 147.4375 L 93.285156 145.480469 L 106.101562 151.019531 L 104.363281 152.867188 L 101.4375 151.53125 L 97.910156 155.261719 L 99.410156 158.113281 Z M 97.015625 153.507812 L 99.628906 150.746094 L 94.363281 148.386719 Z M 97.015625 153.507812 " fill-opacity="1" fill-rule="nonzero"/><path fill="#000000" d="M 113.085938 144.972656 L 105.207031 134.5 L 109.046875 131.609375 C 109.886719 130.980469 110.691406 130.605469 111.460938 130.496094 C 112.214844 130.375 112.902344 130.453125 113.523438 130.734375 C 114.15625 131.003906 114.695312 131.425781 115.132812 132.011719 C 115.617188 132.660156 115.894531 133.375 115.957031 134.152344 C 116.015625 134.917969 115.78125 135.695312 115.261719 136.472656 L 120.726562 139.234375 L 118.515625 140.878906 L 113.46875 138.210938 L 111.898438 139.398438 L 115.007812 143.53125 Z M 110.839844 137.988281 L 112.648438 136.636719 C 113.277344 136.160156 113.625 135.660156 113.691406 135.121094 C 113.761719 134.585938 113.609375 134.054688 113.234375 133.53125 C 112.851562 133.046875 112.410156 132.761719 111.898438 132.6875 C 111.378906 132.617188 110.78125 132.824219 110.125 133.308594 L 108.332031 134.664062 Z M 110.839844 137.988281 " fill-opacity="1" fill-rule="nonzero"/><path fill="#000000" d="M 128.777344 134.046875 L 122.929688 122.3125 L 125.453125 121.050781 L 132.910156 126.625 L 132.890625 117.339844 L 135.433594 116.078125 L 141.285156 127.816406 L 139.125 128.894531 L 135.085938 120.792969 L 135.050781 128.839844 L 133.347656 129.699219 L 126.878906 124.871094 L 130.917969 132.96875 Z M 128.777344 134.046875 " fill-opacity="1" fill-rule="nonzero"/><path fill="#000000" d="M 162.554688 121.117188 L 160.363281 108.191406 L 164.765625 107.441406 C 166.277344 107.1875 167.566406 107.25 168.625 107.625 C 169.695312 107.988281 170.550781 108.621094 171.183594 109.507812 C 171.828125 110.398438 172.261719 111.496094 172.480469 112.796875 C 172.703125 114.105469 172.652344 115.28125 172.335938 116.328125 C 172.03125 117.363281 171.429688 118.238281 170.542969 118.941406 C 169.667969 119.636719 168.46875 120.109375 166.960938 120.367188 Z M 164.566406 118.683594 L 166.503906 118.355469 C 167.574219 118.171875 168.394531 117.855469 168.972656 117.40625 C 169.542969 116.941406 169.910156 116.359375 170.070312 115.648438 C 170.222656 114.945312 170.222656 114.128906 170.070312 113.199219 C 169.910156 112.277344 169.636719 111.507812 169.246094 110.898438 C 168.867188 110.273438 168.332031 109.84375 167.636719 109.597656 C 166.953125 109.34375 166.074219 109.304688 165.003906 109.488281 L 163.066406 109.816406 Z M 164.566406 118.683594 " fill-opacity="1" fill-rule="nonzero"/><path fill="#000000" d="M 183.230469 118.5625 L 183.195312 105.453125 L 191.75 105.433594 L 191.769531 107.371094 L 185.609375 107.390625 L 185.609375 110.972656 L 191.203125 110.957031 L 191.203125 112.839844 L 185.609375 112.855469 L 185.625 116.640625 L 191.785156 116.621094 L 191.785156 118.542969 Z M 183.230469 118.5625 " fill-opacity="1" fill-rule="nonzero"/><path fill="#000000" d="M 201.625 119.320312 L 203.601562 106.359375 L 205.976562 106.707031 L 204.277344 117.820312 L 210 118.699219 L 209.722656 120.546875 Z M 201.625 119.320312 " fill-opacity="1" fill-rule="nonzero"/><path fill="#000000" d="M 219.304688 122.859375 L 222.941406 110.261719 L 225.246094 110.9375 L 221.609375 123.535156 Z M 219.304688 122.859375 " fill-opacity="1" fill-rule="nonzero"/><path fill="#000000" d="M 236.394531 129.324219 C 235.269531 128.8125 234.40625 128.101562 233.796875 127.203125 C 233.1875 126.3125 232.855469 125.3125 232.8125 124.1875 C 232.773438 123.054688 233.03125 121.882812 233.578125 120.675781 C 234.136719 119.445312 234.875 118.472656 235.789062 117.75 C 236.703125 117.035156 237.71875 116.617188 238.84375 116.507812 C 239.976562 116.390625 241.152344 116.609375 242.371094 117.167969 C 243.769531 117.800781 244.777344 118.664062 245.386719 119.761719 C 246.011719 120.851562 246.191406 122.042969 245.9375 123.34375 L 243.488281 122.230469 C 243.558594 121.601562 243.421875 121.019531 243.085938 120.492188 C 242.757812 119.960938 242.210938 119.519531 241.457031 119.175781 C 240.273438 118.628906 239.183594 118.589844 238.1875 119.050781 C 237.199219 119.515625 236.402344 120.402344 235.808594 121.71875 C 235.195312 123.035156 235.046875 124.199219 235.351562 125.210938 C 235.667969 126.21875 236.375 126.972656 237.472656 127.476562 C 238.554688 127.976562 239.507812 128.054688 240.324219 127.714844 C 241.136719 127.386719 241.828125 126.769531 242.390625 125.867188 L 239.375 124.496094 L 240.125 122.871094 L 245.332031 125.246094 L 242.335938 131.792969 L 240.324219 130.878906 L 240.855469 129.25 C 240.21875 129.625 239.542969 129.835938 238.824219 129.871094 C 238.101562 129.917969 237.292969 129.734375 236.394531 129.324219 Z M 236.394531 129.324219 " fill-opacity="1" fill-rule="nonzero"/><path fill="#000000" d="M 250.796875 136.722656 L 258.292969 125.972656 L 260.269531 127.34375 L 257.160156 131.804688 L 261.96875 135.167969 L 265.074219 130.710938 L 267.050781 132.082031 L 259.554688 142.828125 L 257.582031 141.457031 L 260.851562 136.777344 L 256.042969 133.414062 L 252.773438 138.09375 Z M 250.796875 136.722656 " fill-opacity="1" fill-rule="nonzero"/><path fill="#000000" d="M 269.441406 151.480469 L 277.265625 143.507812 L 274.539062 140.839844 L 275.894531 139.449219 L 283.078125 146.488281 L 281.726562 147.878906 L 278.984375 145.191406 L 271.160156 153.160156 Z M 269.441406 151.480469 " fill-opacity="1" fill-rule="nonzero"/><path fill="#000000" d="M 282.46875 166.652344 C 281.894531 165.894531 281.523438 165.125 281.355469 164.332031 C 281.179688 163.539062 281.21875 162.789062 281.464844 162.082031 C 281.707031 161.378906 282.183594 160.757812 282.890625 160.21875 L 284.390625 162.25 C 283.898438 162.625 283.613281 163.109375 283.53125 163.691406 C 283.441406 164.277344 283.621094 164.867188 284.058594 165.464844 C 284.449219 165.976562 284.875 166.292969 285.339844 166.417969 C 285.800781 166.535156 286.238281 166.445312 286.65625 166.140625 C 287.082031 165.8125 287.320312 165.429688 287.367188 164.992188 C 287.429688 164.550781 287.367188 164.058594 287.1875 163.511719 C 287.003906 162.960938 286.808594 162.363281 286.601562 161.71875 C 286.28125 160.707031 286.183594 159.824219 286.308594 159.066406 C 286.441406 158.3125 286.867188 157.667969 287.589844 157.128906 C 288.21875 156.644531 288.871094 156.394531 289.542969 156.378906 C 290.210938 156.355469 290.867188 156.523438 291.5 156.875 C 292.132812 157.230469 292.710938 157.75 293.238281 158.445312 C 293.75 159.152344 294.078125 159.867188 294.222656 160.585938 C 294.371094 161.292969 294.335938 161.964844 294.113281 162.613281 C 293.894531 163.257812 293.480469 163.824219 292.871094 164.3125 L 291.355469 162.25 C 291.707031 161.957031 291.921875 161.566406 291.996094 161.078125 C 292.078125 160.59375 291.9375 160.105469 291.574219 159.617188 C 291.289062 159.175781 290.933594 158.898438 290.496094 158.773438 C 290.054688 158.65625 289.636719 158.746094 289.234375 159.050781 C 288.878906 159.304688 288.683594 159.625 288.648438 160 C 288.613281 160.367188 288.65625 160.796875 288.796875 161.28125 C 288.925781 161.769531 289.097656 162.3125 289.308594 162.925781 C 289.511719 163.582031 289.652344 164.214844 289.726562 164.824219 C 289.808594 165.433594 289.75 166.015625 289.542969 166.5625 C 289.335938 167.109375 288.921875 167.613281 288.300781 168.082031 C 287.738281 168.492188 287.121094 168.730469 286.453125 168.792969 C 285.78125 168.867188 285.09375 168.722656 284.390625 168.371094 C 283.695312 168.03125 283.054688 167.457031 282.46875 166.652344 Z M 282.46875 166.652344 " fill-opacity="1" fill-rule="nonzero"/><path fill="#000000" d="M 114.628906 266.65625 L 114.628906 256.820312 L 117.648438 256.820312 C 119.375 256.820312 120.648438 257.269531 121.46875 258.15625 C 122.28125 259.03125 122.691406 260.238281 122.691406 261.773438 C 122.691406 263.273438 122.28125 264.460938 121.46875 265.339844 C 120.648438 266.21875 119.375 266.65625 117.648438 266.65625 Z M 115.800781 265.667969 L 117.609375 265.667969 C 118.570312 265.667969 119.332031 265.519531 119.894531 265.210938 C 120.46875 264.894531 120.875 264.445312 121.121094 263.859375 C 121.363281 263.273438 121.484375 262.578125 121.484375 261.773438 C 121.484375 260.949219 121.363281 260.238281 121.121094 259.652344 C 120.875 259.058594 120.46875 258.601562 119.894531 258.28125 C 119.332031 257.96875 118.570312 257.808594 117.609375 257.808594 L 115.800781 257.808594 Z M 115.800781 265.667969 " fill-opacity="1" fill-rule="nonzero"/><path fill="#000000" d="M 128.773438 266.820312 C 128.117188 266.820312 127.523438 266.664062 127 266.363281 C 126.488281 266.0625 126.085938 265.640625 125.796875 265.101562 C 125.503906 264.554688 125.355469 263.914062 125.355469 263.183594 C 125.355469 262.453125 125.492188 261.8125 125.777344 261.261719 C 126.070312 260.714844 126.476562 260.289062 127 259.984375 C 127.523438 259.683594 128.125 259.527344 128.8125 259.527344 C 129.480469 259.527344 130.058594 259.683594 130.546875 259.984375 C 131.046875 260.289062 131.425781 260.691406 131.683594 261.191406 C 131.945312 261.679688 132.085938 262.210938 132.085938 262.78125 C 132.085938 262.882812 132.074219 262.980469 132.066406 263.089844 C 132.066406 263.191406 132.066406 263.304688 132.066406 263.4375 L 126.527344 263.4375 C 126.550781 263.976562 126.671875 264.421875 126.890625 264.773438 C 127.113281 265.128906 127.386719 265.394531 127.714844 265.578125 C 128.054688 265.75 128.410156 265.832031 128.773438 265.832031 C 129.257812 265.832031 129.671875 265.722656 130 265.503906 C 130.328125 265.277344 130.566406 264.964844 130.714844 264.570312 L 131.882812 264.570312 C 131.699219 265.222656 131.339844 265.753906 130.804688 266.179688 C 130.277344 266.609375 129.601562 266.820312 128.773438 266.820312 Z M 128.773438 260.511719 C 128.214844 260.511719 127.714844 260.6875 127.277344 261.023438 C 126.847656 261.367188 126.601562 261.867188 126.527344 262.523438 L 130.914062 262.523438 C 130.886719 261.902344 130.675781 261.417969 130.273438 261.0625 C 129.871094 260.695312 129.371094 260.511719 128.773438 260.511719 Z M 128.773438 260.511719 " fill-opacity="1" fill-rule="nonzero"/><path fill="#000000" d="M 134.957031 256.546875 L 136.144531 256.546875 L 136.144531 266.65625 L 134.957031 266.65625 Z M 134.957031 256.546875 " fill-opacity="1" fill-rule="nonzero"/><path fill="#000000" d="M 140.105469 258.15625 C 139.875 258.15625 139.675781 258.078125 139.523438 257.917969 C 139.375 257.761719 139.304688 257.566406 139.304688 257.332031 C 139.304688 257.113281 139.375 256.929688 139.523438 256.785156 C 139.675781 256.628906 139.875 256.546875 140.105469 256.546875 C 140.335938 256.546875 140.53125 256.628906 140.691406 256.785156 C 140.847656 256.929688 140.929688 257.113281 140.929688 257.332031 C 140.929688 257.566406 140.847656 257.761719 140.691406 257.917969 C 140.53125 258.078125 140.335938 258.15625 140.105469 258.15625 Z M 139.523438 266.65625 L 139.523438 259.691406 L 140.691406 259.691406 L 140.691406 266.65625 Z M 139.523438 266.65625 " fill-opacity="1" fill-rule="nonzero"/><path fill="#000000" d="M 146.828125 264.460938 C 146.429688 264.460938 146.0625 264.417969 145.734375 264.316406 L 145.039062 264.972656 C 145.132812 265.046875 145.261719 265.109375 145.421875 265.15625 C 145.578125 265.207031 145.796875 265.257812 146.082031 265.304688 C 146.371094 265.339844 146.78125 265.386719 147.304688 265.429688 C 148.242188 265.503906 148.914062 265.722656 149.316406 266.089844 C 149.71875 266.445312 149.917969 266.917969 149.917969 267.515625 C 149.917969 267.917969 149.808594 268.300781 149.589844 268.667969 C 149.371094 269.03125 149.03125 269.328125 148.585938 269.5625 C 148.132812 269.792969 147.546875 269.910156 146.828125 269.910156 C 146.207031 269.910156 145.652344 269.824219 145.167969 269.652344 C 144.675781 269.496094 144.292969 269.25 144.015625 268.921875 C 143.746094 268.59375 143.613281 268.171875 143.613281 267.660156 C 143.613281 267.40625 143.675781 267.121094 143.8125 266.820312 C 143.960938 266.519531 144.226562 266.230469 144.617188 265.960938 C 144.40625 265.878906 144.234375 265.789062 144.085938 265.6875 C 143.941406 265.589844 143.804688 265.480469 143.6875 265.359375 L 143.6875 265.027344 L 144.890625 263.839844 C 144.328125 263.378906 144.050781 262.761719 144.050781 261.996094 C 144.050781 261.53125 144.160156 261.117188 144.378906 260.75 C 144.601562 260.375 144.910156 260.074219 145.3125 259.855469 C 145.722656 259.636719 146.230469 259.527344 146.828125 259.527344 C 147.230469 259.527344 147.589844 259.582031 147.910156 259.691406 L 150.484375 259.691406 L 150.484375 260.566406 L 149.1875 260.640625 C 149.453125 261.035156 149.589844 261.480469 149.589844 261.996094 C 149.589844 262.460938 149.480469 262.882812 149.261719 263.253906 C 149.042969 263.621094 148.722656 263.914062 148.3125 264.132812 C 147.910156 264.351562 147.414062 264.460938 146.828125 264.460938 Z M 146.828125 263.492188 C 147.3125 263.492188 147.707031 263.367188 148 263.109375 C 148.300781 262.851562 148.457031 262.484375 148.457031 261.996094 C 148.457031 261.519531 148.300781 261.152344 148 260.898438 C 147.707031 260.640625 147.3125 260.511719 146.828125 260.511719 C 146.316406 260.511719 145.914062 260.640625 145.625 260.898438 C 145.332031 261.152344 145.183594 261.519531 145.183594 261.996094 C 145.183594 262.484375 145.332031 262.851562 145.625 263.109375 C 145.914062 263.367188 146.316406 263.492188 146.828125 263.492188 Z M 144.765625 267.550781 C 144.765625 268.027344 144.957031 268.375 145.347656 268.59375 C 145.75 268.824219 146.246094 268.941406 146.828125 268.941406 C 147.414062 268.941406 147.882812 268.8125 148.238281 268.558594 C 148.589844 268.308594 148.769531 267.976562 148.769531 267.550781 C 148.769531 267.257812 148.644531 266.996094 148.402344 266.765625 C 148.15625 266.546875 147.707031 266.417969 147.050781 266.382812 C 146.539062 266.34375 146.089844 266.304688 145.714844 266.253906 C 145.320312 266.464844 145.066406 266.679688 144.945312 266.910156 C 144.824219 267.152344 144.765625 267.367188 144.765625 267.550781 Z M 144.765625 267.550781 " fill-opacity="1" fill-rule="nonzero"/><path fill="#000000" d="M 153.140625 266.65625 L 153.140625 256.546875 L 154.328125 256.546875 L 154.328125 260.878906 C 154.554688 260.453125 154.886719 260.125 155.316406 259.890625 C 155.738281 259.648438 156.210938 259.527344 156.722656 259.527344 C 157.527344 259.527344 158.171875 259.777344 158.660156 260.277344 C 159.144531 260.777344 159.390625 261.546875 159.390625 262.578125 L 159.390625 266.65625 L 158.222656 266.65625 L 158.222656 262.707031 C 158.222656 261.257812 157.636719 260.53125 156.464844 260.53125 C 155.855469 260.53125 155.34375 260.75 154.929688 261.191406 C 154.527344 261.628906 154.328125 262.25 154.328125 263.054688 L 154.328125 266.65625 Z M 153.140625 266.65625 " fill-opacity="1" fill-rule="nonzero"/><path fill="#000000" d="M 165.25 266.65625 C 164.601562 266.65625 164.097656 266.503906 163.734375 266.199219 C 163.367188 265.882812 163.183594 265.320312 163.183594 264.515625 L 163.183594 260.695312 L 161.976562 260.695312 L 161.976562 259.691406 L 163.183594 259.691406 L 163.347656 258.027344 L 164.371094 258.027344 L 164.371094 259.691406 L 166.421875 259.691406 L 166.421875 260.695312 L 164.371094 260.695312 L 164.371094 264.515625 C 164.371094 264.957031 164.457031 265.257812 164.628906 265.414062 C 164.8125 265.574219 165.128906 265.652344 165.578125 265.652344 L 166.3125 265.652344 L 166.3125 266.65625 Z M 165.25 266.65625 " fill-opacity="1" fill-rule="nonzero"/><path fill="#000000" d="M 174.996094 258.15625 C 174.761719 258.15625 174.566406 258.078125 174.410156 257.917969 C 174.265625 257.761719 174.191406 257.566406 174.191406 257.332031 C 174.191406 257.113281 174.265625 256.929688 174.410156 256.785156 C 174.566406 256.628906 174.761719 256.546875 174.996094 256.546875 C 175.226562 256.546875 175.421875 256.628906 175.582031 256.785156 C 175.738281 256.929688 175.820312 257.113281 175.820312 257.332031 C 175.820312 257.566406 175.738281 257.761719 175.582031 257.917969 C 175.421875 258.078125 175.226562 258.15625 174.996094 258.15625 Z M 174.410156 266.65625 L 174.410156 259.691406 L 175.582031 259.691406 L 175.582031 266.65625 Z M 174.410156 266.65625 " fill-opacity="1" fill-rule="nonzero"/><path fill="#000000" d="M 178.960938 266.65625 L 178.960938 259.691406 L 180.019531 259.691406 L 180.09375 260.933594 C 180.320312 260.496094 180.644531 260.15625 181.0625 259.910156 C 181.488281 259.652344 181.964844 259.527344 182.503906 259.527344 C 183.320312 259.527344 183.972656 259.777344 184.460938 260.277344 C 184.960938 260.777344 185.210938 261.546875 185.210938 262.578125 L 185.210938 266.65625 L 184.023438 266.65625 L 184.023438 262.707031 C 184.023438 261.257812 183.425781 260.53125 182.230469 260.53125 C 181.632812 260.53125 181.132812 260.75 180.730469 261.191406 C 180.339844 261.628906 180.148438 262.25 180.148438 263.054688 L 180.148438 266.65625 Z M 178.960938 266.65625 " fill-opacity="1" fill-rule="nonzero"/><path fill="#000000" d="M 193.421875 266.65625 L 193.421875 256.820312 L 199.492188 256.820312 L 199.492188 257.789062 L 194.59375 257.789062 L 194.59375 261.226562 L 199.070312 261.226562 L 199.070312 262.175781 L 194.59375 262.175781 L 194.59375 265.6875 L 199.492188 265.6875 L 199.492188 266.65625 Z M 193.421875 266.65625 " fill-opacity="1" fill-rule="nonzero"/><path fill="#000000" d="M 204.597656 266.65625 L 201.949219 259.691406 L 203.191406 259.691406 L 205.277344 265.523438 L 207.394531 259.691406 L 208.601562 259.691406 L 205.953125 266.65625 Z M 204.597656 266.65625 " fill-opacity="1" fill-rule="nonzero"/><path fill="#000000" d="M 214.347656 266.820312 C 213.691406 266.820312 213.097656 266.664062 212.574219 266.363281 C 212.0625 266.0625 211.660156 265.640625 211.371094 265.101562 C 211.078125 264.554688 210.929688 263.914062 210.929688 263.183594 C 210.929688 262.453125 211.066406 261.8125 211.351562 261.261719 C 211.644531 260.714844 212.050781 260.289062 212.574219 259.984375 C 213.097656 259.683594 213.699219 259.527344 214.386719 259.527344 C 215.054688 259.527344 215.632812 259.683594 216.121094 259.984375 C 216.621094 260.289062 217 260.691406 217.257812 261.191406 C 217.519531 261.679688 217.65625 262.210938 217.65625 262.78125 C 217.65625 262.882812 217.648438 262.980469 217.640625 263.089844 C 217.640625 263.191406 217.640625 263.304688 217.640625 263.4375 L 212.101562 263.4375 C 212.125 263.976562 212.246094 264.421875 212.464844 264.773438 C 212.6875 265.128906 212.960938 265.394531 213.289062 265.578125 C 213.628906 265.75 213.984375 265.832031 214.347656 265.832031 C 214.832031 265.832031 215.246094 265.722656 215.574219 265.503906 C 215.902344 265.277344 216.140625 264.964844 216.285156 264.570312 L 217.457031 264.570312 C 217.273438 265.222656 216.914062 265.753906 216.378906 266.179688 C 215.851562 266.609375 215.175781 266.820312 214.347656 266.820312 Z M 214.347656 260.511719 C 213.785156 260.511719 213.289062 260.6875 212.851562 261.023438 C 212.421875 261.367188 212.171875 261.867188 212.101562 262.523438 L 216.488281 262.523438 C 216.460938 261.902344 216.25 261.417969 215.847656 261.0625 C 215.445312 260.695312 214.941406 260.511719 214.347656 260.511719 Z M 214.347656 260.511719 " fill-opacity="1" fill-rule="nonzero"/><path fill="#000000" d="M 220.53125 266.65625 L 220.53125 259.691406 L 221.59375 259.691406 L 221.703125 261.023438 C 221.90625 260.5625 222.230469 260.199219 222.671875 259.929688 C 223.117188 259.664062 223.667969 259.527344 224.316406 259.527344 L 224.316406 260.75 L 223.988281 260.75 C 223.570312 260.75 223.1875 260.824219 222.835938 260.96875 C 222.492188 261.117188 222.21875 261.367188 222.011719 261.71875 C 221.816406 262.0625 221.71875 262.539062 221.71875 263.144531 L 221.71875 266.65625 Z M 220.53125 266.65625 " fill-opacity="1" fill-rule="nonzero"/><path fill="#000000" d="M 227.699219 269.746094 L 229.433594 265.980469 L 229.03125 265.980469 L 226.253906 259.691406 L 227.53125 259.691406 L 229.835938 265.121094 L 232.285156 259.691406 L 233.511719 259.691406 L 228.941406 269.746094 Z M 227.699219 269.746094 " fill-opacity="1" fill-rule="nonzero"/><path fill="#000000" d="M 241.1875 266.65625 L 241.1875 256.820312 L 244.640625 256.820312 C 245.335938 256.820312 245.910156 256.929688 246.359375 257.148438 C 246.808594 257.367188 247.148438 257.675781 247.367188 258.0625 C 247.59375 258.441406 247.714844 258.863281 247.714844 259.324219 C 247.714844 259.960938 247.539062 260.457031 247.203125 260.824219 C 246.859375 261.191406 246.453125 261.445312 245.976562 261.59375 C 246.34375 261.65625 246.671875 261.800781 246.964844 262.03125 C 247.265625 262.25 247.503906 262.535156 247.675781 262.871094 C 247.847656 263.199219 247.933594 263.566406 247.933594 263.96875 C 247.933594 264.472656 247.808594 264.929688 247.566406 265.339844 C 247.320312 265.742188 246.964844 266.066406 246.488281 266.308594 C 246.011719 266.542969 245.433594 266.65625 244.753906 266.65625 Z M 242.355469 261.117188 L 244.550781 261.117188 C 245.183594 261.117188 245.667969 260.96875 245.996094 260.679688 C 246.332031 260.386719 246.507812 259.980469 246.507812 259.453125 C 246.507812 258.953125 246.332031 258.558594 245.996094 258.265625 C 245.667969 257.964844 245.171875 257.808594 244.515625 257.808594 L 242.355469 257.808594 Z M 242.355469 265.667969 L 244.625 265.667969 C 245.292969 265.667969 245.8125 265.519531 246.179688 265.210938 C 246.542969 264.894531 246.726562 264.457031 246.726562 263.894531 C 246.726562 263.339844 246.53125 262.890625 246.140625 262.5625 C 245.761719 262.230469 245.246094 262.066406 244.585938 262.066406 L 242.355469 262.066406 Z M 242.355469 265.667969 " fill-opacity="1" fill-rule="nonzero"/><path fill="#000000" d="M 251.597656 258.15625 C 251.367188 258.15625 251.167969 258.078125 251.015625 257.917969 C 250.867188 257.761719 250.792969 257.566406 250.792969 257.332031 C 250.792969 257.113281 250.867188 256.929688 251.015625 256.785156 C 251.167969 256.628906 251.367188 256.546875 251.597656 256.546875 C 251.828125 256.546875 252.023438 256.628906 252.183594 256.785156 C 252.339844 256.929688 252.421875 257.113281 252.421875 257.332031 C 252.421875 257.566406 252.339844 257.761719 252.183594 257.917969 C 252.023438 258.078125 251.828125 258.15625 251.597656 258.15625 Z M 251.015625 266.65625 L 251.015625 259.691406 L 252.183594 259.691406 L 252.183594 266.65625 Z M 251.015625 266.65625 " fill-opacity="1" fill-rule="nonzero"/><path fill="#000000" d="M 258.320312 266.65625 C 257.671875 266.65625 257.171875 266.503906 256.804688 266.199219 C 256.4375 265.882812 256.257812 265.320312 256.257812 264.515625 L 256.257812 260.695312 L 255.050781 260.695312 L 255.050781 259.691406 L 256.257812 259.691406 L 256.421875 258.027344 L 257.445312 258.027344 L 257.445312 259.691406 L 259.492188 259.691406 L 259.492188 260.695312 L 257.445312 260.695312 L 257.445312 264.515625 C 257.445312 264.957031 257.527344 265.257812 257.699219 265.414062 C 257.882812 265.574219 258.199219 265.652344 258.652344 265.652344 L 259.382812 265.652344 L 259.382812 266.65625 Z M 258.320312 266.65625 " fill-opacity="1" fill-rule="nonzero"/><path fill="#000000" d="M 265.441406 266.820312 C 264.78125 266.820312 264.1875 266.664062 263.667969 266.363281 C 263.15625 266.0625 262.753906 265.640625 262.460938 265.101562 C 262.167969 264.554688 262.023438 263.914062 262.023438 263.183594 C 262.023438 262.453125 262.160156 261.8125 262.441406 261.261719 C 262.734375 260.714844 263.140625 260.289062 263.667969 259.984375 C 264.1875 259.683594 264.792969 259.527344 265.476562 259.527344 C 266.144531 259.527344 266.726562 259.683594 267.214844 259.984375 C 267.710938 260.289062 268.089844 260.691406 268.347656 261.191406 C 268.613281 261.679688 268.75 262.210938 268.75 262.78125 C 268.75 262.882812 268.742188 262.980469 268.730469 263.089844 C 268.730469 263.191406 268.730469 263.304688 268.730469 263.4375 L 263.191406 263.4375 C 263.214844 263.976562 263.339844 264.421875 263.558594 264.773438 C 263.777344 265.128906 264.050781 265.394531 264.378906 265.578125 C 264.71875 265.75 265.074219 265.832031 265.441406 265.832031 C 265.925781 265.832031 266.335938 265.722656 266.664062 265.503906 C 266.996094 265.277344 267.234375 264.964844 267.378906 264.570312 L 268.546875 264.570312 C 268.367188 265.222656 268.003906 265.753906 267.46875 266.179688 C 266.945312 266.609375 266.269531 266.820312 265.441406 266.820312 Z M 265.441406 260.511719 C 264.878906 260.511719 264.378906 260.6875 263.941406 261.023438 C 263.511719 261.367188 263.265625 261.867188 263.191406 262.523438 L 267.578125 262.523438 C 267.550781 261.902344 267.34375 261.417969 266.941406 261.0625 C 266.539062 260.695312 266.035156 260.511719 265.441406 260.511719 Z M 265.441406 260.511719 " fill-opacity="1" fill-rule="nonzero"/></svg>