<svg xmlns="http://www.w3.org/2000/svg" xmlns:xlink="http://www.w3.org/1999/xlink" width="200" zoomAndPan="magnify" viewBox="0 0 150 149.999998" height="200" preserveAspectRatio="xMidYMid meet" version="1.0"><defs><clipPath id="75a882860d"><path d="M 24.800781 63.699219 L 125.570312 63.699219 L 125.570312 98.5 L 24.800781 98.5 Z M 24.800781 63.699219 " clip-rule="nonzero"/></clipPath></defs><g clip-path="url(#75a882860d)"><path fill="#000000" d="M 69.679688 98.300781 C 63.25 98.300781 57.480469 97.511719 53.964844 95.675781 C 47.640625 92.355469 45.425781 90.695312 45.183594 88.902344 C 45.0625 88.015625 45.464844 87.144531 46.421875 86.242188 C 48.34375 84.425781 51.496094 86.078125 54.824219 87.828125 C 56.675781 88.800781 58.589844 89.804688 60.203125 90.140625 C 61.90625 90.496094 62.609375 89.472656 63.625 87.78125 C 64.636719 86.09375 65.828125 84.0625 68.867188 84.703125 C 71.460938 85.257812 72.171875 87.117188 72.761719 88.613281 C 73.4375 90.363281 73.804688 91.324219 76.621094 90.316406 C 78.765625 89.488281 80.648438 88.261719 82.273438 86.628906 C 84.019531 85.054688 85.53125 83.691406 87.96875 84.570312 C 89.046875 84.980469 90.03125 85.550781 90.921875 86.289062 C 92.320312 87.363281 93.027344 87.902344 95.820312 86.027344 C 97.644531 84.808594 99.53125 83.703125 101.484375 82.707031 C 101.179688 81.929688 100.832031 81.167969 100.503906 80.429688 L 100.265625 79.910156 C 99.164062 77.492188 95.988281 75.957031 93.171875 74.605469 L 92.15625 74.121094 C 92.203125 74.5 92.207031 74.878906 92.171875 75.261719 C 92.136719 75.644531 92.0625 76.015625 91.945312 76.378906 C 91.832031 76.746094 91.679688 77.09375 91.488281 77.425781 C 91.296875 77.757812 91.074219 78.066406 90.816406 78.347656 C 88.890625 80.449219 87.304688 81.246094 86.21875 80.65625 C 85.035156 80.015625 84.859375 77.964844 85.703125 74.566406 C 87.238281 68.394531 86.058594 67.261719 82.300781 65.582031 C 81.539062 65.257812 80.742188 65.074219 79.917969 65.035156 C 79.089844 64.992188 78.28125 65.097656 77.492188 65.34375 C 78.550781 67.917969 80.628906 76.972656 77.742188 79.035156 C 77.496094 79.230469 77.222656 79.351562 76.914062 79.402344 C 76.605469 79.449219 76.304688 79.414062 76.015625 79.300781 C 74.164062 78.542969 73.160156 74.394531 72.425781 70.441406 L 72.425781 70.304688 C 72.246094 69.574219 71.9375 68.902344 71.496094 68.292969 C 71.058594 67.679688 70.523438 67.171875 69.890625 66.765625 C 69.515625 66.523438 69.117188 66.320312 68.695312 66.15625 C 68.277344 65.996094 67.847656 65.878906 67.402344 65.808594 C 66.960938 65.734375 66.515625 65.710938 66.066406 65.730469 C 65.617188 65.75 65.175781 65.816406 64.742188 65.929688 C 64.382812 65.984375 64.03125 66.089844 63.703125 66.238281 C 63.367188 66.390625 63.0625 66.585938 62.785156 66.824219 C 62.507812 67.066406 62.265625 67.335938 62.066406 67.644531 C 61.863281 67.949219 61.710938 68.277344 61.601562 68.628906 C 63.894531 69.3125 66.75 72.390625 68.214844 75.269531 C 69.375 77.535156 69.511719 79.390625 68.59375 80.484375 C 66.757812 82.699219 63.804688 80.390625 61.195312 78.355469 C 59.875 77.3125 58.507812 76.246094 57.375 75.792969 C 54.660156 74.683594 50.554688 73.023438 45.867188 82.234375 C 45.378906 83.234375 44.78125 84.164062 44.078125 85.027344 C 43.375 85.886719 42.578125 86.652344 41.695312 87.324219 C 40.8125 87.996094 39.863281 88.558594 38.847656 89.007812 C 37.835938 89.457031 36.78125 89.785156 35.691406 89.988281 C 33.867188 90.332031 32.03125 90.394531 30.1875 90.179688 C 28.34375 89.964844 26.574219 89.480469 24.875 88.730469 L 25.335938 87.726562 C 30.5 90.101562 40.371094 90.574219 44.886719 81.730469 C 49.59375 72.417969 53.992188 73.25 57.75 74.753906 C 59.03125 75.269531 60.460938 76.417969 61.84375 77.472656 C 64.691406 79.6875 66.644531 81.066406 67.71875 79.769531 C 68.320312 79.046875 68.132812 77.589844 67.199219 75.769531 C 65.726562 72.878906 62.96875 70.132812 61.191406 69.679688 C 60.757812 70.941406 60.277344 72.226562 58.816406 73 C 57.921875 73.5 57.246094 73.554688 56.796875 73.191406 C 56.570312 73.007812 56.246094 72.558594 56.535156 71.644531 C 56.683594 71.226562 56.886719 70.839844 57.144531 70.476562 C 57.398438 70.113281 57.699219 69.792969 58.042969 69.515625 C 58.386719 69.238281 58.761719 69.007812 59.167969 68.832031 C 59.570312 68.65625 59.992188 68.539062 60.429688 68.476562 C 60.984375 66.972656 61.820312 65.433594 64.460938 64.835938 C 64.964844 64.707031 65.476562 64.632812 66 64.613281 C 66.519531 64.589844 67.035156 64.621094 67.546875 64.707031 C 68.0625 64.792969 68.5625 64.929688 69.046875 65.117188 C 69.53125 65.304688 69.992188 65.542969 70.429688 65.824219 C 71.191406 66.3125 71.832031 66.925781 72.351562 67.660156 C 72.875 68.398438 73.238281 69.207031 73.445312 70.089844 L 73.445312 70.222656 C 74.359375 75.136719 75.347656 77.84375 76.367188 78.261719 C 76.484375 78.304688 76.605469 78.316406 76.726562 78.289062 C 76.851562 78.265625 76.957031 78.207031 77.046875 78.121094 C 79.164062 76.617188 77.492188 68.050781 76.375 65.660156 L 75.71875 65.894531 C 74.617188 66.28125 73.753906 66.589844 73.03125 66.375 C 72.929688 66.355469 72.832031 66.320312 72.742188 66.269531 C 72.648438 66.214844 72.570312 66.152344 72.5 66.070312 C 72.433594 65.988281 72.382812 65.898438 72.34375 65.800781 C 72.308594 65.703125 72.289062 65.597656 72.289062 65.492188 C 72.289062 64.746094 73.34375 64.152344 74.289062 63.921875 C 74.71875 63.78125 75.15625 63.746094 75.601562 63.828125 C 76.046875 63.90625 76.449219 64.082031 76.804688 64.363281 C 77.761719 64.027344 78.75 63.878906 79.765625 63.910156 C 80.78125 63.945312 81.757812 64.160156 82.691406 64.558594 C 87.058594 66.507812 88.320312 68.351562 86.710938 74.824219 C 85.925781 77.976562 86.203125 79.402344 86.710938 79.660156 C 87.21875 79.921875 88.363281 79.351562 89.96875 77.574219 C 90.210938 77.300781 90.417969 77 90.585938 76.671875 C 90.753906 76.34375 90.878906 76.003906 90.960938 75.644531 C 91.042969 75.285156 91.078125 74.921875 91.070312 74.554688 C 91.0625 74.1875 91.003906 73.824219 90.90625 73.472656 C 89.382812 72.636719 88.34375 71.808594 88.28125 70.703125 C 88.230469 69.8125 88.648438 69.542969 88.902344 69.457031 C 89.773438 69.167969 90.664062 70.386719 91.003906 70.925781 C 91.367188 71.488281 91.644531 72.089844 91.84375 72.730469 C 92.394531 73.023438 93.011719 73.285156 93.617188 73.605469 C 96.601562 75.039062 99.984375 76.660156 101.234375 79.445312 L 101.472656 79.964844 C 101.792969 80.679688 102.132812 81.433594 102.441406 82.21875 C 106.945312 80.09375 111.75 78.898438 115.492188 80.558594 C 117.523438 81.472656 118.847656 82.925781 120.015625 84.207031 C 122.367188 86.785156 123.921875 88.496094 129.652344 84.761719 L 130.25 85.691406 C 123.738281 89.902344 121.53125 87.484375 119.222656 84.925781 C 118.078125 83.664062 116.886719 82.363281 115.0625 81.542969 C 111.636719 80.011719 107.125 81.171875 102.839844 83.203125 C 103.484375 85.164062 103.773438 87.238281 102.878906 89.1875 C 101.777344 91.667969 98.925781 93.539062 94.261719 94.910156 C 86.21875 97.136719 78.023438 98.269531 69.679688 98.300781 Z M 48.53125 86.574219 C 48.015625 86.546875 47.566406 86.707031 47.179688 87.046875 C 46.273438 87.898438 46.230469 88.429688 46.273438 88.753906 C 46.476562 90.242188 49.703125 92.207031 54.472656 94.691406 C 62.238281 98.746094 81.511719 97.515625 93.949219 93.878906 C 98.285156 92.605469 100.882812 90.933594 101.875 88.757812 C 102.597656 87.175781 102.386719 85.433594 101.84375 83.730469 C 99.972656 84.699219 98.164062 85.773438 96.417969 86.953125 C 93.109375 89.167969 91.929688 88.464844 90.238281 87.167969 C 89.4375 86.503906 88.550781 85.984375 87.582031 85.613281 C 85.761719 84.957031 84.660156 85.949219 82.992188 87.449219 C 81.261719 89.179688 79.253906 90.480469 76.976562 91.359375 C 73.171875 92.730469 72.40625 90.753906 71.734375 89.019531 C 71.179688 87.578125 70.628906 86.214844 68.632812 85.789062 C 66.390625 85.308594 65.539062 86.71875 64.566406 88.351562 C 63.589844 89.988281 62.53125 91.753906 59.984375 91.226562 C 58.214844 90.855469 56.230469 89.816406 54.316406 88.8125 C 52.238281 87.707031 50.035156 86.574219 48.53125 86.574219 Z M 60.007812 69.679688 C 59.566406 69.820312 59.164062 70.035156 58.800781 70.316406 C 58.4375 70.605469 58.132812 70.945312 57.890625 71.339844 C 57.675781 71.632812 57.550781 71.964844 57.515625 72.324219 C 57.796875 72.285156 58.0625 72.191406 58.304688 72.039062 C 59.25 71.484375 59.65625 70.660156 60.007812 69.679688 Z M 89.398438 70.660156 C 89.53125 71.128906 89.808594 71.484375 90.226562 71.726562 C 90.007812 71.328125 89.730469 70.972656 89.398438 70.660156 Z M 75.210938 64.910156 C 74.695312 64.929688 74.210938 65.066406 73.765625 65.328125 C 74.261719 65.234375 74.742188 65.097656 75.210938 64.910156 Z M 75.210938 64.910156 " fill-opacity="1" fill-rule="nonzero"/></g><path fill="#000000" d="M 39.84375 75.425781 L 35.417969 74.050781 L 35.878906 73.304688 L 39.335938 74.519531 L 36.8125 71.824219 L 37.292969 71.054688 L 40.804688 72.167969 L 38.203125 69.59375 L 38.671875 68.84375 L 41.828125 72.25 L 41.3125 73.074219 L 38.03125 72.070312 L 40.355469 74.601562 Z M 39.84375 75.425781 " fill-opacity="1" fill-rule="nonzero"/><path fill="#000000" d="M 44.285156 69.035156 L 42.152344 64.761719 L 42.785156 64.089844 L 47.164062 65.984375 L 46.570312 66.617188 L 45.570312 66.160156 L 44.367188 67.433594 L 44.878906 68.410156 Z M 44.058594 66.835938 L 44.953125 65.890625 L 43.152344 65.085938 Z M 44.058594 66.835938 " fill-opacity="1" fill-rule="nonzero"/><path fill="#000000" d="M 49.554688 63.917969 L 46.859375 60.335938 L 48.171875 59.347656 C 48.460938 59.132812 48.734375 59.003906 48.996094 58.96875 C 49.253906 58.925781 49.492188 58.953125 49.703125 59.050781 C 49.917969 59.140625 50.105469 59.285156 50.253906 59.488281 C 50.417969 59.707031 50.511719 59.953125 50.535156 60.21875 C 50.554688 60.480469 50.476562 60.746094 50.296875 61.011719 L 52.167969 61.957031 L 51.410156 62.519531 L 49.683594 61.605469 L 49.148438 62.011719 L 50.210938 63.425781 Z M 48.785156 61.53125 L 49.402344 61.066406 C 49.621094 60.90625 49.738281 60.734375 49.761719 60.550781 C 49.785156 60.367188 49.730469 60.183594 49.605469 60.003906 C 49.472656 59.839844 49.324219 59.742188 49.148438 59.71875 C 48.96875 59.691406 48.765625 59.765625 48.542969 59.929688 L 47.929688 60.394531 Z M 48.785156 61.53125 " fill-opacity="1" fill-rule="nonzero"/><path fill="#000000" d="M 54.917969 60.183594 L 52.917969 56.171875 L 53.78125 55.738281 L 56.332031 57.644531 L 56.324219 54.46875 L 57.195312 54.039062 L 59.195312 58.050781 L 58.457031 58.421875 L 57.074219 55.652344 L 57.0625 58.402344 L 56.480469 58.695312 L 54.269531 57.046875 L 55.648438 59.8125 Z M 54.917969 60.183594 " fill-opacity="1" fill-rule="nonzero"/><path fill="#000000" d="M 66.464844 55.761719 L 65.714844 51.34375 L 67.222656 51.085938 C 67.738281 51 68.179688 51.019531 68.542969 51.148438 C 68.90625 51.273438 69.199219 51.488281 69.417969 51.792969 C 69.636719 52.097656 69.785156 52.472656 69.859375 52.917969 C 69.933594 53.363281 69.917969 53.765625 69.808594 54.125 C 69.707031 54.480469 69.5 54.777344 69.199219 55.019531 C 68.898438 55.253906 68.488281 55.417969 67.972656 55.503906 Z M 67.152344 54.929688 L 67.816406 54.816406 C 68.183594 54.753906 68.464844 54.648438 68.660156 54.492188 C 68.855469 54.335938 68.980469 54.136719 69.035156 53.894531 C 69.089844 53.652344 69.089844 53.371094 69.035156 53.054688 C 68.980469 52.738281 68.886719 52.476562 68.753906 52.269531 C 68.625 52.054688 68.441406 51.910156 68.203125 51.824219 C 67.96875 51.738281 67.667969 51.722656 67.304688 51.785156 L 66.640625 51.898438 Z M 67.152344 54.929688 " fill-opacity="1" fill-rule="nonzero"/><path fill="#000000" d="M 73.535156 54.886719 L 73.523438 50.40625 L 76.449219 50.402344 L 76.453125 51.0625 L 74.347656 51.070312 L 74.347656 52.292969 L 76.261719 52.289062 L 76.261719 52.933594 L 74.347656 52.9375 L 74.355469 54.230469 L 76.460938 54.226562 L 76.460938 54.882812 Z M 73.535156 54.886719 " fill-opacity="1" fill-rule="nonzero"/><path fill="#000000" d="M 79.824219 55.148438 L 80.5 50.714844 L 81.3125 50.835938 L 80.730469 54.636719 L 82.6875 54.933594 L 82.59375 55.566406 Z M 79.824219 55.148438 " fill-opacity="1" fill-rule="nonzero"/><path fill="#000000" d="M 85.867188 56.355469 L 87.113281 52.050781 L 87.898438 52.28125 L 86.65625 56.589844 Z M 85.867188 56.355469 " fill-opacity="1" fill-rule="nonzero"/><path fill="#000000" d="M 91.710938 58.566406 C 91.328125 58.390625 91.03125 58.148438 90.824219 57.84375 C 90.613281 57.539062 90.5 57.195312 90.484375 56.8125 C 90.472656 56.421875 90.5625 56.023438 90.75 55.609375 C 90.9375 55.191406 91.191406 54.859375 91.503906 54.609375 C 91.816406 54.367188 92.164062 54.222656 92.546875 54.1875 C 92.9375 54.144531 93.335938 54.21875 93.753906 54.410156 C 94.234375 54.628906 94.578125 54.921875 94.785156 55.296875 C 95 55.671875 95.0625 56.078125 94.972656 56.523438 L 94.136719 56.140625 C 94.160156 55.925781 94.113281 55.726562 94 55.546875 C 93.886719 55.367188 93.699219 55.214844 93.441406 55.097656 C 93.039062 54.910156 92.664062 54.898438 92.324219 55.054688 C 91.984375 55.214844 91.714844 55.515625 91.511719 55.96875 C 91.300781 56.417969 91.25 56.816406 91.355469 57.160156 C 91.460938 57.507812 91.703125 57.765625 92.078125 57.9375 C 92.449219 58.105469 92.773438 58.132812 93.054688 58.015625 C 93.332031 57.90625 93.570312 57.695312 93.761719 57.386719 L 92.730469 56.917969 L 92.984375 56.359375 L 94.765625 57.171875 L 93.742188 59.410156 L 93.054688 59.097656 L 93.234375 58.542969 C 93.019531 58.671875 92.789062 58.742188 92.542969 58.753906 C 92.296875 58.769531 92.019531 58.707031 91.710938 58.566406 Z M 91.710938 58.566406 " fill-opacity="1" fill-rule="nonzero"/><path fill="#000000" d="M 96.636719 61.097656 L 99.199219 57.421875 L 99.871094 57.890625 L 98.808594 59.417969 L 100.453125 60.566406 L 101.515625 59.042969 L 102.191406 59.511719 L 99.628906 63.183594 L 98.953125 62.714844 L 100.074219 61.117188 L 98.429688 59.964844 L 97.308594 61.566406 Z M 96.636719 61.097656 " fill-opacity="1" fill-rule="nonzero"/><path fill="#000000" d="M 103.007812 66.140625 L 105.683594 63.417969 L 104.753906 62.503906 L 105.214844 62.03125 L 107.671875 64.4375 L 107.207031 64.910156 L 106.269531 63.992188 L 103.597656 66.71875 Z M 103.007812 66.140625 " fill-opacity="1" fill-rule="nonzero"/><path fill="#000000" d="M 107.464844 71.332031 C 107.265625 71.070312 107.140625 70.808594 107.082031 70.535156 C 107.023438 70.265625 107.035156 70.007812 107.121094 69.769531 C 107.203125 69.527344 107.363281 69.316406 107.605469 69.128906 L 108.121094 69.824219 C 107.953125 69.953125 107.855469 70.117188 107.824219 70.316406 C 107.796875 70.519531 107.855469 70.71875 108.007812 70.925781 C 108.140625 71.097656 108.285156 71.207031 108.445312 71.25 C 108.601562 71.289062 108.753906 71.257812 108.894531 71.15625 C 109.039062 71.042969 109.121094 70.910156 109.136719 70.761719 C 109.160156 70.613281 109.136719 70.441406 109.074219 70.253906 C 109.011719 70.066406 108.945312 69.863281 108.875 69.644531 C 108.765625 69.296875 108.734375 68.996094 108.777344 68.738281 C 108.820312 68.480469 108.964844 68.257812 109.214844 68.074219 C 109.429688 67.910156 109.652344 67.824219 109.882812 67.816406 C 110.109375 67.808594 110.332031 67.867188 110.550781 67.988281 C 110.765625 68.109375 110.964844 68.285156 111.144531 68.523438 C 111.320312 68.765625 111.433594 69.011719 111.480469 69.253906 C 111.53125 69.496094 111.519531 69.726562 111.445312 69.949219 C 111.371094 70.167969 111.226562 70.363281 111.019531 70.53125 L 110.5 69.824219 C 110.621094 69.722656 110.695312 69.589844 110.71875 69.425781 C 110.746094 69.257812 110.699219 69.089844 110.574219 68.925781 C 110.480469 68.773438 110.355469 68.679688 110.207031 68.636719 C 110.058594 68.597656 109.914062 68.628906 109.777344 68.730469 C 109.652344 68.816406 109.589844 68.925781 109.574219 69.054688 C 109.5625 69.179688 109.578125 69.328125 109.625 69.492188 C 109.671875 69.660156 109.730469 69.847656 109.800781 70.054688 C 109.871094 70.28125 109.917969 70.496094 109.945312 70.707031 C 109.972656 70.914062 109.953125 71.113281 109.882812 71.300781 C 109.808594 71.488281 109.667969 71.660156 109.457031 71.816406 C 109.265625 71.957031 109.054688 72.039062 108.824219 72.0625 C 108.597656 72.085938 108.359375 72.039062 108.121094 71.917969 C 107.882812 71.800781 107.664062 71.605469 107.464844 71.332031 Z M 107.464844 71.332031 " fill-opacity="1" fill-rule="nonzero"/><path fill="#000000" d="M 50.082031 105.519531 L 50.082031 102.15625 L 51.113281 102.15625 C 51.703125 102.15625 52.140625 102.308594 52.417969 102.613281 C 52.699219 102.914062 52.839844 103.324219 52.839844 103.851562 C 52.839844 104.363281 52.699219 104.769531 52.417969 105.070312 C 52.140625 105.367188 51.703125 105.519531 51.113281 105.519531 Z M 50.480469 105.179688 L 51.101562 105.179688 C 51.429688 105.179688 51.691406 105.128906 51.882812 105.023438 C 52.078125 104.917969 52.214844 104.761719 52.300781 104.5625 C 52.382812 104.363281 52.425781 104.125 52.425781 103.851562 C 52.425781 103.566406 52.382812 103.324219 52.300781 103.125 C 52.214844 102.921875 52.078125 102.765625 51.882812 102.65625 C 51.691406 102.546875 51.429688 102.492188 51.101562 102.492188 L 50.480469 102.492188 Z M 50.480469 105.179688 " fill-opacity="1" fill-rule="nonzero"/><path fill="#000000" d="M 54.917969 105.574219 C 54.691406 105.574219 54.488281 105.523438 54.3125 105.417969 C 54.136719 105.316406 54 105.171875 53.898438 104.988281 C 53.800781 104.800781 53.75 104.582031 53.75 104.332031 C 53.75 104.082031 53.796875 103.863281 53.894531 103.675781 C 53.992188 103.488281 54.132812 103.34375 54.3125 103.238281 C 54.488281 103.132812 54.695312 103.082031 54.929688 103.082031 C 55.160156 103.082031 55.355469 103.132812 55.523438 103.238281 C 55.695312 103.34375 55.824219 103.480469 55.910156 103.648438 C 56.003906 103.816406 56.050781 104 56.050781 104.195312 C 56.050781 104.226562 56.046875 104.261719 56.042969 104.300781 C 56.042969 104.335938 56.042969 104.375 56.042969 104.417969 L 54.148438 104.417969 C 54.15625 104.601562 54.199219 104.753906 54.273438 104.875 C 54.347656 104.996094 54.441406 105.085938 54.554688 105.148438 C 54.671875 105.210938 54.792969 105.238281 54.917969 105.238281 C 55.082031 105.238281 55.222656 105.199219 55.335938 105.125 C 55.449219 105.046875 55.53125 104.941406 55.582031 104.804688 L 55.980469 104.804688 C 55.917969 105.027344 55.792969 105.210938 55.613281 105.355469 C 55.433594 105.503906 55.199219 105.574219 54.917969 105.574219 Z M 54.917969 103.417969 C 54.726562 103.417969 54.554688 103.476562 54.40625 103.59375 C 54.257812 103.710938 54.175781 103.882812 54.148438 104.105469 L 55.648438 104.105469 C 55.640625 103.894531 55.566406 103.726562 55.429688 103.605469 C 55.292969 103.480469 55.121094 103.417969 54.917969 103.417969 Z M 54.917969 103.417969 " fill-opacity="1" fill-rule="nonzero"/><path fill="#000000" d="M 57.03125 102.0625 L 57.4375 102.0625 L 57.4375 105.519531 L 57.03125 105.519531 Z M 57.03125 102.0625 " fill-opacity="1" fill-rule="nonzero"/><path fill="#000000" d="M 58.792969 102.613281 C 58.710938 102.613281 58.644531 102.585938 58.59375 102.53125 C 58.542969 102.476562 58.515625 102.410156 58.515625 102.332031 C 58.515625 102.257812 58.542969 102.195312 58.59375 102.144531 C 58.644531 102.089844 58.710938 102.0625 58.792969 102.0625 C 58.871094 102.0625 58.9375 102.089844 58.992188 102.144531 C 59.046875 102.195312 59.074219 102.257812 59.074219 102.332031 C 59.074219 102.410156 59.046875 102.476562 58.992188 102.53125 C 58.9375 102.585938 58.871094 102.613281 58.792969 102.613281 Z M 58.59375 105.519531 L 58.59375 103.136719 L 58.992188 103.136719 L 58.992188 105.519531 Z M 58.59375 105.519531 " fill-opacity="1" fill-rule="nonzero"/><path fill="#000000" d="M 61.089844 104.769531 C 60.953125 104.769531 60.828125 104.753906 60.714844 104.71875 L 60.476562 104.945312 C 60.511719 104.96875 60.554688 104.992188 60.609375 105.007812 C 60.664062 105.023438 60.738281 105.039062 60.835938 105.054688 C 60.933594 105.070312 61.074219 105.085938 61.253906 105.101562 C 61.574219 105.125 61.804688 105.199219 61.941406 105.324219 C 62.078125 105.445312 62.148438 105.609375 62.148438 105.8125 C 62.148438 105.949219 62.109375 106.082031 62.035156 106.207031 C 61.960938 106.332031 61.84375 106.433594 61.691406 106.511719 C 61.535156 106.589844 61.335938 106.632812 61.089844 106.632812 C 60.878906 106.632812 60.6875 106.601562 60.523438 106.542969 C 60.355469 106.488281 60.222656 106.40625 60.128906 106.292969 C 60.035156 106.179688 59.992188 106.039062 59.992188 105.863281 C 59.992188 105.773438 60.011719 105.679688 60.058594 105.574219 C 60.109375 105.472656 60.199219 105.375 60.335938 105.28125 C 60.261719 105.253906 60.203125 105.222656 60.152344 105.1875 C 60.101562 105.15625 60.054688 105.117188 60.015625 105.074219 L 60.015625 104.960938 L 60.429688 104.554688 C 60.234375 104.398438 60.140625 104.1875 60.140625 103.925781 C 60.140625 103.765625 60.179688 103.625 60.253906 103.5 C 60.328125 103.371094 60.433594 103.269531 60.570312 103.195312 C 60.710938 103.117188 60.886719 103.082031 61.089844 103.082031 C 61.226562 103.082031 61.351562 103.101562 61.460938 103.136719 L 62.339844 103.136719 L 62.339844 103.4375 L 61.898438 103.460938 C 61.988281 103.597656 62.035156 103.75 62.035156 103.925781 C 62.035156 104.085938 61.996094 104.226562 61.921875 104.355469 C 61.847656 104.480469 61.738281 104.582031 61.597656 104.65625 C 61.460938 104.730469 61.289062 104.769531 61.089844 104.769531 Z M 61.089844 104.4375 C 61.257812 104.4375 61.390625 104.394531 61.492188 104.304688 C 61.59375 104.21875 61.648438 104.09375 61.648438 103.925781 C 61.648438 103.761719 61.59375 103.636719 61.492188 103.550781 C 61.390625 103.460938 61.257812 103.417969 61.089844 103.417969 C 60.914062 103.417969 60.777344 103.460938 60.679688 103.550781 C 60.578125 103.636719 60.527344 103.761719 60.527344 103.925781 C 60.527344 104.09375 60.578125 104.21875 60.679688 104.304688 C 60.777344 104.394531 60.914062 104.4375 61.089844 104.4375 Z M 60.382812 105.824219 C 60.382812 105.988281 60.449219 106.105469 60.585938 106.179688 C 60.722656 106.257812 60.890625 106.300781 61.089844 106.300781 C 61.289062 106.300781 61.449219 106.257812 61.570312 106.167969 C 61.691406 106.085938 61.753906 105.96875 61.753906 105.824219 C 61.753906 105.726562 61.710938 105.632812 61.628906 105.554688 C 61.542969 105.480469 61.390625 105.4375 61.164062 105.425781 C 60.992188 105.414062 60.835938 105.398438 60.710938 105.382812 C 60.574219 105.453125 60.488281 105.527344 60.445312 105.605469 C 60.40625 105.6875 60.382812 105.761719 60.382812 105.824219 Z M 60.382812 105.824219 " fill-opacity="1" fill-rule="nonzero"/><path fill="#000000" d="M 63.246094 105.519531 L 63.246094 102.0625 L 63.652344 102.0625 L 63.652344 103.542969 C 63.730469 103.398438 63.84375 103.285156 63.992188 103.207031 C 64.136719 103.125 64.296875 103.082031 64.472656 103.082031 C 64.746094 103.082031 64.96875 103.167969 65.136719 103.335938 C 65.300781 103.507812 65.386719 103.773438 65.386719 104.125 L 65.386719 105.519531 L 64.984375 105.519531 L 64.984375 104.167969 C 64.984375 103.671875 64.785156 103.425781 64.386719 103.425781 C 64.175781 103.425781 64 103.5 63.859375 103.648438 C 63.722656 103.800781 63.652344 104.011719 63.652344 104.289062 L 63.652344 105.519531 Z M 63.246094 105.519531 " fill-opacity="1" fill-rule="nonzero"/><path fill="#000000" d="M 67.386719 105.519531 C 67.167969 105.519531 66.996094 105.46875 66.871094 105.363281 C 66.746094 105.253906 66.683594 105.0625 66.683594 104.789062 L 66.683594 103.480469 L 66.269531 103.480469 L 66.269531 103.136719 L 66.683594 103.136719 L 66.738281 102.570312 L 67.089844 102.570312 L 67.089844 103.136719 L 67.789062 103.136719 L 67.789062 103.480469 L 67.089844 103.480469 L 67.089844 104.789062 C 67.089844 104.9375 67.117188 105.039062 67.175781 105.09375 C 67.238281 105.148438 67.347656 105.175781 67.5 105.175781 L 67.75 105.175781 L 67.75 105.519531 Z M 67.386719 105.519531 " fill-opacity="1" fill-rule="nonzero"/><path fill="#000000" d="M 70.71875 102.613281 C 70.640625 102.613281 70.574219 102.585938 70.519531 102.53125 C 70.46875 102.476562 70.445312 102.410156 70.445312 102.332031 C 70.445312 102.257812 70.46875 102.195312 70.519531 102.144531 C 70.574219 102.089844 70.640625 102.0625 70.71875 102.0625 C 70.796875 102.0625 70.867188 102.089844 70.921875 102.144531 C 70.972656 102.195312 71 102.257812 71 102.332031 C 71 102.410156 70.972656 102.476562 70.921875 102.53125 C 70.867188 102.585938 70.796875 102.613281 70.71875 102.613281 Z M 70.519531 105.519531 L 70.519531 103.136719 L 70.921875 103.136719 L 70.921875 105.519531 Z M 70.519531 105.519531 " fill-opacity="1" fill-rule="nonzero"/><path fill="#000000" d="M 72.074219 105.519531 L 72.074219 103.136719 L 72.4375 103.136719 L 72.460938 103.5625 C 72.539062 103.414062 72.652344 103.296875 72.792969 103.210938 C 72.9375 103.125 73.101562 103.082031 73.289062 103.082031 C 73.566406 103.082031 73.789062 103.167969 73.957031 103.335938 C 74.125 103.507812 74.210938 103.773438 74.210938 104.125 L 74.210938 105.519531 L 73.804688 105.519531 L 73.804688 104.167969 C 73.804688 103.671875 73.601562 103.425781 73.195312 103.425781 C 72.988281 103.425781 72.820312 103.5 72.679688 103.648438 C 72.546875 103.800781 72.480469 104.011719 72.480469 104.289062 L 72.480469 105.519531 Z M 72.074219 105.519531 " fill-opacity="1" fill-rule="nonzero"/><path fill="#000000" d="M 77.019531 105.519531 L 77.019531 102.15625 L 79.09375 102.15625 L 79.09375 102.488281 L 77.417969 102.488281 L 77.417969 103.664062 L 78.949219 103.664062 L 78.949219 103.988281 L 77.417969 103.988281 L 77.417969 105.1875 L 79.09375 105.1875 L 79.09375 105.519531 Z M 77.019531 105.519531 " fill-opacity="1" fill-rule="nonzero"/><path fill="#000000" d="M 80.839844 105.519531 L 79.933594 103.136719 L 80.359375 103.136719 L 81.070312 105.132812 L 81.796875 103.136719 L 82.210938 103.136719 L 81.304688 105.519531 Z M 80.839844 105.519531 " fill-opacity="1" fill-rule="nonzero"/><path fill="#000000" d="M 84.175781 105.574219 C 83.949219 105.574219 83.746094 105.523438 83.566406 105.417969 C 83.394531 105.316406 83.253906 105.171875 83.15625 104.988281 C 83.054688 104.800781 83.003906 104.582031 83.003906 104.332031 C 83.003906 104.082031 83.050781 103.863281 83.148438 103.675781 C 83.25 103.488281 83.386719 103.34375 83.566406 103.238281 C 83.746094 103.132812 83.953125 103.082031 84.1875 103.082031 C 84.414062 103.082031 84.613281 103.132812 84.78125 103.238281 C 84.949219 103.34375 85.082031 103.480469 85.167969 103.648438 C 85.257812 103.816406 85.304688 104 85.304688 104.195312 C 85.304688 104.226562 85.300781 104.261719 85.300781 104.300781 C 85.300781 104.335938 85.300781 104.375 85.300781 104.417969 L 83.40625 104.417969 C 83.414062 104.601562 83.457031 104.753906 83.53125 104.875 C 83.605469 104.996094 83.699219 105.085938 83.8125 105.148438 C 83.925781 105.210938 84.050781 105.238281 84.175781 105.238281 C 84.339844 105.238281 84.480469 105.199219 84.59375 105.125 C 84.707031 105.046875 84.785156 104.941406 84.835938 104.804688 L 85.238281 104.804688 C 85.175781 105.027344 85.050781 105.210938 84.867188 105.355469 C 84.6875 105.503906 84.457031 105.574219 84.175781 105.574219 Z M 84.175781 103.417969 C 83.980469 103.417969 83.8125 103.476562 83.660156 103.59375 C 83.515625 103.710938 83.429688 103.882812 83.40625 104.105469 L 84.90625 104.105469 C 84.894531 103.894531 84.824219 103.726562 84.6875 103.605469 C 84.550781 103.480469 84.378906 103.417969 84.175781 103.417969 Z M 84.175781 103.417969 " fill-opacity="1" fill-rule="nonzero"/><path fill="#000000" d="M 86.289062 105.519531 L 86.289062 103.136719 L 86.648438 103.136719 L 86.6875 103.59375 C 86.757812 103.4375 86.867188 103.3125 87.019531 103.21875 C 87.171875 103.128906 87.359375 103.082031 87.582031 103.082031 L 87.582031 103.5 L 87.46875 103.5 C 87.328125 103.5 87.195312 103.523438 87.074219 103.574219 C 86.957031 103.625 86.863281 103.710938 86.792969 103.832031 C 86.726562 103.949219 86.695312 104.109375 86.695312 104.320312 L 86.695312 105.519531 Z M 86.289062 105.519531 " fill-opacity="1" fill-rule="nonzero"/><path fill="#000000" d="M 88.738281 106.574219 L 89.332031 105.289062 L 89.195312 105.289062 L 88.242188 103.136719 L 88.679688 103.136719 L 89.46875 104.992188 L 90.304688 103.136719 L 90.726562 103.136719 L 89.164062 106.574219 Z M 88.738281 106.574219 " fill-opacity="1" fill-rule="nonzero"/><path fill="#000000" d="M 93.347656 105.519531 L 93.347656 102.15625 L 94.53125 102.15625 C 94.769531 102.15625 94.964844 102.195312 95.117188 102.269531 C 95.269531 102.34375 95.386719 102.449219 95.460938 102.582031 C 95.539062 102.710938 95.582031 102.855469 95.582031 103.011719 C 95.582031 103.230469 95.519531 103.398438 95.40625 103.523438 C 95.289062 103.648438 95.148438 103.738281 94.988281 103.789062 C 95.113281 103.808594 95.222656 103.859375 95.324219 103.9375 C 95.425781 104.011719 95.507812 104.109375 95.566406 104.226562 C 95.625 104.335938 95.65625 104.460938 95.65625 104.601562 C 95.65625 104.773438 95.613281 104.929688 95.53125 105.070312 C 95.445312 105.207031 95.324219 105.316406 95.160156 105.398438 C 95 105.480469 94.800781 105.519531 94.566406 105.519531 Z M 93.75 103.625 L 94.5 103.625 C 94.714844 103.625 94.878906 103.574219 94.992188 103.476562 C 95.109375 103.375 95.167969 103.234375 95.167969 103.054688 C 95.167969 102.886719 95.109375 102.75 94.992188 102.648438 C 94.878906 102.546875 94.710938 102.492188 94.488281 102.492188 L 93.75 102.492188 Z M 93.75 105.179688 L 94.523438 105.179688 C 94.753906 105.179688 94.929688 105.128906 95.054688 105.023438 C 95.179688 104.917969 95.242188 104.765625 95.242188 104.574219 C 95.242188 104.382812 95.175781 104.230469 95.042969 104.117188 C 94.914062 104.007812 94.738281 103.949219 94.511719 103.949219 L 93.75 103.949219 Z M 93.75 105.179688 " fill-opacity="1" fill-rule="nonzero"/><path fill="#000000" d="M 96.910156 102.613281 C 96.828125 102.613281 96.761719 102.585938 96.707031 102.53125 C 96.660156 102.476562 96.632812 102.410156 96.632812 102.332031 C 96.632812 102.257812 96.660156 102.195312 96.707031 102.144531 C 96.761719 102.089844 96.828125 102.0625 96.910156 102.0625 C 96.988281 102.0625 97.054688 102.089844 97.109375 102.144531 C 97.160156 102.195312 97.191406 102.257812 97.191406 102.332031 C 97.191406 102.410156 97.160156 102.476562 97.109375 102.53125 C 97.054688 102.585938 96.988281 102.613281 96.910156 102.613281 Z M 96.707031 105.519531 L 96.707031 103.136719 L 97.109375 103.136719 L 97.109375 105.519531 Z M 96.707031 105.519531 " fill-opacity="1" fill-rule="nonzero"/><path fill="#000000" d="M 99.207031 105.519531 C 98.984375 105.519531 98.8125 105.46875 98.6875 105.363281 C 98.5625 105.253906 98.5 105.0625 98.5 104.789062 L 98.5 103.480469 L 98.089844 103.480469 L 98.089844 103.136719 L 98.5 103.136719 L 98.558594 102.570312 L 98.90625 102.570312 L 98.90625 103.136719 L 99.605469 103.136719 L 99.605469 103.480469 L 98.90625 103.480469 L 98.90625 104.789062 C 98.90625 104.9375 98.933594 105.039062 98.996094 105.09375 C 99.058594 105.148438 99.164062 105.175781 99.320312 105.175781 L 99.570312 105.175781 L 99.570312 105.519531 Z M 99.207031 105.519531 " fill-opacity="1" fill-rule="nonzero"/><path fill="#000000" d="M 101.640625 105.574219 C 101.417969 105.574219 101.214844 105.523438 101.035156 105.417969 C 100.859375 105.316406 100.722656 105.171875 100.621094 104.988281 C 100.523438 104.800781 100.472656 104.582031 100.472656 104.332031 C 100.472656 104.082031 100.519531 103.863281 100.617188 103.675781 C 100.714844 103.488281 100.855469 103.34375 101.035156 103.238281 C 101.214844 103.132812 101.417969 103.082031 101.652344 103.082031 C 101.882812 103.082031 102.082031 103.132812 102.246094 103.238281 C 102.417969 103.34375 102.546875 103.480469 102.636719 103.648438 C 102.726562 103.816406 102.773438 104 102.773438 104.195312 C 102.773438 104.226562 102.769531 104.261719 102.765625 104.300781 C 102.765625 104.335938 102.765625 104.375 102.765625 104.417969 L 100.871094 104.417969 C 100.878906 104.601562 100.921875 104.753906 100.996094 104.875 C 101.074219 104.996094 101.167969 105.085938 101.277344 105.148438 C 101.394531 105.210938 101.515625 105.238281 101.640625 105.238281 C 101.808594 105.238281 101.949219 105.199219 102.058594 105.125 C 102.171875 105.046875 102.253906 104.941406 102.304688 104.804688 L 102.703125 104.804688 C 102.640625 105.027344 102.519531 105.210938 102.335938 105.355469 C 102.15625 105.503906 101.925781 105.574219 101.640625 105.574219 Z M 101.640625 103.417969 C 101.449219 103.417969 101.277344 103.476562 101.128906 103.59375 C 100.980469 103.710938 100.898438 103.882812 100.871094 104.105469 L 102.371094 104.105469 C 102.363281 103.894531 102.292969 103.726562 102.152344 103.605469 C 102.015625 103.480469 101.84375 103.417969 101.640625 103.417969 Z M 101.640625 103.417969 " fill-opacity="1" fill-rule="nonzero"/></svg>