<svg xmlns="http://www.w3.org/2000/svg" xmlns:xlink="http://www.w3.org/1999/xlink" width="100" zoomAndPan="magnify" viewBox="0 0 75 74.999997" height="100" preserveAspectRatio="xMidYMid meet" version="1.0"><defs><clipPath id="329322bee1"><path d="M 3.351562 25.164062 L 72.378906 25.164062 L 72.378906 49 L 3.351562 49 Z M 3.351562 25.164062 " clip-rule="nonzero"/></clipPath></defs><g clip-path="url(#329322bee1)"><path fill="#000000" d="M 34.09375 48.863281 C 29.6875 48.863281 25.738281 48.324219 23.328125 47.066406 C 18.996094 44.792969 17.480469 43.652344 17.3125 42.425781 C 17.230469 41.816406 17.503906 41.222656 18.160156 40.605469 C 19.476562 39.359375 21.636719 40.492188 23.917969 41.691406 C 25.183594 42.355469 26.496094 43.042969 27.601562 43.273438 C 28.769531 43.519531 29.25 42.816406 29.945312 41.660156 C 30.636719 40.503906 31.453125 39.109375 33.535156 39.550781 C 35.3125 39.929688 35.800781 41.203125 36.203125 42.226562 C 36.664062 43.425781 36.917969 44.085938 38.847656 43.394531 C 40.316406 42.828125 41.605469 41.984375 42.71875 40.871094 C 43.914062 39.789062 44.949219 38.855469 46.621094 39.460938 C 47.359375 39.738281 48.03125 40.132812 48.644531 40.636719 C 49.601562 41.371094 50.085938 41.742188 52 40.457031 C 53.25 39.621094 54.539062 38.863281 55.878906 38.179688 C 55.667969 37.648438 55.433594 37.125 55.207031 36.621094 L 55.042969 36.265625 C 54.289062 34.609375 52.113281 33.558594 50.183594 32.632812 L 49.488281 32.300781 C 49.519531 32.558594 49.523438 32.820312 49.5 33.082031 C 49.476562 33.34375 49.425781 33.597656 49.34375 33.847656 C 49.265625 34.097656 49.160156 34.335938 49.03125 34.566406 C 48.898438 34.792969 48.746094 35.003906 48.570312 35.195312 C 47.253906 36.632812 46.164062 37.179688 45.421875 36.777344 C 44.609375 36.339844 44.488281 34.933594 45.066406 32.605469 C 46.121094 28.378906 45.3125 27.601562 42.738281 26.453125 C 42.214844 26.230469 41.671875 26.105469 41.105469 26.074219 C 40.539062 26.046875 39.984375 26.117188 39.445312 26.289062 C 40.167969 28.050781 41.59375 34.253906 39.613281 35.667969 C 39.445312 35.800781 39.257812 35.882812 39.046875 35.917969 C 38.835938 35.949219 38.632812 35.925781 38.433594 35.847656 C 37.164062 35.328125 36.476562 32.488281 35.972656 29.78125 L 35.972656 29.6875 C 35.851562 29.1875 35.636719 28.726562 35.335938 28.308594 C 35.039062 27.890625 34.671875 27.539062 34.238281 27.261719 C 33.980469 27.097656 33.707031 26.957031 33.417969 26.84375 C 33.132812 26.734375 32.835938 26.65625 32.53125 26.605469 C 32.230469 26.554688 31.925781 26.539062 31.617188 26.554688 C 31.3125 26.566406 31.007812 26.613281 30.710938 26.691406 C 30.464844 26.726562 30.222656 26.796875 29.996094 26.902344 C 29.769531 27.007812 29.558594 27.140625 29.371094 27.304688 C 29.179688 27.46875 29.015625 27.652344 28.875 27.863281 C 28.738281 28.074219 28.632812 28.296875 28.558594 28.539062 C 30.128906 29.007812 32.085938 31.117188 33.089844 33.089844 C 33.882812 34.640625 33.976562 35.910156 33.347656 36.660156 C 32.09375 38.179688 30.066406 36.597656 28.28125 35.199219 C 27.375 34.488281 26.441406 33.753906 25.664062 33.445312 C 23.804688 32.6875 20.992188 31.546875 17.78125 37.859375 C 17.445312 38.542969 17.039062 39.179688 16.554688 39.769531 C 16.074219 40.359375 15.527344 40.882812 14.921875 41.34375 C 14.316406 41.804688 13.667969 42.191406 12.972656 42.5 C 12.277344 42.808594 11.558594 43.03125 10.808594 43.167969 C 9.558594 43.402344 8.304688 43.449219 7.039062 43.300781 C 5.777344 43.15625 4.566406 42.824219 3.402344 42.308594 L 3.71875 41.621094 C 7.253906 43.246094 14.015625 43.570312 17.109375 37.515625 C 20.332031 31.136719 23.347656 31.703125 25.921875 32.734375 C 26.796875 33.089844 27.777344 33.875 28.722656 34.597656 C 30.675781 36.113281 32.011719 37.058594 32.75 36.171875 C 33.160156 35.675781 33.03125 34.675781 32.394531 33.429688 C 31.386719 31.449219 29.496094 29.570312 28.277344 29.257812 C 27.980469 30.121094 27.652344 31.003906 26.652344 31.535156 C 26.039062 31.875 25.574219 31.914062 25.269531 31.664062 C 25.113281 31.539062 24.890625 31.230469 25.085938 30.605469 C 25.191406 30.320312 25.328125 30.050781 25.503906 29.804688 C 25.679688 29.554688 25.886719 29.335938 26.121094 29.144531 C 26.355469 28.953125 26.613281 28.796875 26.890625 28.679688 C 27.167969 28.558594 27.457031 28.476562 27.757812 28.433594 C 28.136719 27.402344 28.707031 26.347656 30.515625 25.941406 C 30.863281 25.851562 31.214844 25.800781 31.570312 25.785156 C 31.925781 25.773438 32.28125 25.792969 32.632812 25.851562 C 32.984375 25.910156 33.324219 26.003906 33.660156 26.132812 C 33.992188 26.261719 34.308594 26.421875 34.605469 26.617188 C 35.128906 26.953125 35.566406 27.371094 35.921875 27.875 C 36.28125 28.382812 36.53125 28.9375 36.671875 29.539062 L 36.671875 29.628906 C 37.300781 32.996094 37.976562 34.851562 38.675781 35.136719 C 38.753906 35.167969 38.835938 35.171875 38.917969 35.15625 C 39.003906 35.140625 39.078125 35.101562 39.140625 35.042969 C 40.589844 34.011719 39.445312 28.144531 38.675781 26.503906 L 38.226562 26.664062 C 37.472656 26.929688 36.882812 27.140625 36.390625 26.996094 C 36.320312 26.984375 36.25 26.957031 36.1875 26.921875 C 36.125 26.886719 36.070312 26.839844 36.023438 26.785156 C 35.976562 26.730469 35.941406 26.667969 35.917969 26.601562 C 35.894531 26.535156 35.878906 26.464844 35.878906 26.390625 C 35.878906 25.878906 36.601562 25.472656 37.25 25.3125 C 37.542969 25.21875 37.84375 25.195312 38.148438 25.25 C 38.453125 25.304688 38.730469 25.425781 38.972656 25.617188 C 39.628906 25.386719 40.304688 25.285156 41 25.308594 C 41.695312 25.328125 42.363281 25.476562 43.003906 25.75 C 45.996094 27.085938 46.859375 28.347656 45.757812 32.78125 C 45.222656 34.941406 45.410156 35.917969 45.757812 36.097656 C 46.105469 36.273438 46.890625 35.882812 47.988281 34.667969 C 48.15625 34.476562 48.296875 34.273438 48.414062 34.046875 C 48.527344 33.824219 48.613281 33.589844 48.671875 33.34375 C 48.726562 33.097656 48.75 32.847656 48.746094 32.597656 C 48.738281 32.347656 48.699219 32.097656 48.632812 31.855469 C 47.589844 31.28125 46.875 30.71875 46.835938 29.960938 C 46.800781 29.347656 47.085938 29.164062 47.261719 29.105469 C 47.859375 28.910156 48.464844 29.742188 48.699219 30.109375 C 48.945312 30.496094 49.136719 30.910156 49.273438 31.347656 C 49.652344 31.546875 50.074219 31.726562 50.488281 31.945312 C 52.53125 32.929688 54.851562 34.039062 55.707031 35.949219 L 55.871094 36.304688 C 56.089844 36.792969 56.324219 37.308594 56.535156 37.847656 C 59.621094 36.390625 62.910156 35.574219 65.472656 36.710938 C 66.867188 37.335938 67.773438 38.332031 68.574219 39.210938 C 70.183594 40.976562 71.246094 42.148438 75.175781 39.589844 L 75.582031 40.226562 C 71.121094 43.113281 69.613281 41.453125 68.03125 39.703125 C 67.246094 38.835938 66.429688 37.945312 65.179688 37.386719 C 62.832031 36.335938 59.742188 37.132812 56.804688 38.523438 C 57.25 39.867188 57.445312 41.289062 56.832031 42.621094 C 56.078125 44.320312 54.125 45.601562 50.929688 46.539062 C 45.421875 48.066406 39.808594 48.839844 34.09375 48.863281 Z M 19.605469 40.832031 C 19.253906 40.8125 18.945312 40.921875 18.679688 41.15625 C 18.058594 41.738281 18.03125 42.101562 18.058594 42.324219 C 18.199219 43.34375 20.410156 44.6875 23.675781 46.390625 C 28.996094 49.167969 42.195312 48.324219 50.714844 45.835938 C 53.6875 44.960938 55.464844 43.816406 56.144531 42.328125 C 56.640625 41.242188 56.496094 40.050781 56.125 38.882812 C 54.84375 39.546875 53.601562 40.28125 52.40625 41.089844 C 50.140625 42.605469 49.332031 42.125 48.175781 41.238281 C 47.625 40.78125 47.019531 40.429688 46.355469 40.171875 C 45.109375 39.722656 44.351562 40.402344 43.210938 41.433594 C 42.027344 42.617188 40.652344 43.507812 39.089844 44.109375 C 36.484375 45.050781 35.960938 43.695312 35.5 42.503906 C 35.121094 41.519531 34.742188 40.585938 33.375 40.292969 C 31.839844 39.964844 31.257812 40.929688 30.589844 42.050781 C 29.921875 43.167969 29.195312 44.378906 27.449219 44.015625 C 26.238281 43.765625 24.878906 43.050781 23.570312 42.363281 C 22.144531 41.605469 20.636719 40.832031 19.605469 40.832031 Z M 27.464844 29.257812 C 27.164062 29.355469 26.890625 29.5 26.640625 29.695312 C 26.390625 29.890625 26.183594 30.125 26.015625 30.394531 C 25.871094 30.597656 25.785156 30.824219 25.761719 31.070312 C 25.953125 31.042969 26.132812 30.980469 26.300781 30.875 C 26.949219 30.496094 27.226562 29.929688 27.464844 29.257812 Z M 47.601562 29.929688 C 47.691406 30.25 47.878906 30.496094 48.167969 30.660156 C 48.015625 30.386719 47.828125 30.144531 47.601562 29.929688 Z M 37.882812 25.992188 C 37.527344 26.003906 37.199219 26.097656 36.890625 26.277344 C 37.230469 26.214844 37.558594 26.121094 37.882812 25.992188 Z M 37.882812 25.992188 " fill-opacity="1" fill-rule="nonzero"/></g><path fill="#000000" d="M 13.652344 33.195312 L 10.621094 32.253906 L 10.9375 31.742188 L 13.308594 32.574219 L 11.578125 30.726562 L 11.90625 30.203125 L 14.3125 30.964844 L 12.53125 29.199219 L 12.851562 28.6875 L 15.015625 31.019531 L 14.660156 31.585938 L 12.410156 30.894531 L 14.003906 32.628906 Z M 13.652344 33.195312 " fill-opacity="1" fill-rule="nonzero"/><path fill="#000000" d="M 16.695312 28.816406 L 15.238281 25.890625 L 15.667969 25.429688 L 18.671875 26.726562 L 18.265625 27.160156 L 17.578125 26.847656 L 16.753906 27.722656 L 17.101562 28.390625 Z M 16.542969 27.308594 L 17.15625 26.664062 L 15.921875 26.113281 Z M 16.542969 27.308594 " fill-opacity="1" fill-rule="nonzero"/><path fill="#000000" d="M 20.304688 25.3125 L 18.460938 22.859375 L 19.359375 22.183594 C 19.558594 22.035156 19.746094 21.945312 19.925781 21.921875 C 20.101562 21.894531 20.261719 21.910156 20.410156 21.976562 C 20.558594 22.039062 20.683594 22.140625 20.785156 22.277344 C 20.898438 22.429688 20.964844 22.59375 20.980469 22.777344 C 20.992188 22.957031 20.9375 23.140625 20.816406 23.320312 L 22.097656 23.96875 L 21.578125 24.351562 L 20.394531 23.726562 L 20.027344 24.007812 L 20.757812 24.972656 Z M 19.78125 23.675781 L 20.203125 23.359375 C 20.351562 23.25 20.433594 23.128906 20.449219 23.003906 C 20.464844 22.878906 20.429688 22.753906 20.339844 22.632812 C 20.25 22.519531 20.148438 22.453125 20.027344 22.433594 C 19.90625 22.417969 19.765625 22.46875 19.613281 22.582031 L 19.191406 22.898438 Z M 19.78125 23.675781 " fill-opacity="1" fill-rule="nonzero"/><path fill="#000000" d="M 23.980469 22.753906 L 22.613281 20.003906 L 23.203125 19.710938 L 24.949219 21.015625 L 24.945312 18.839844 L 25.539062 18.542969 L 26.910156 21.292969 L 26.40625 21.546875 L 25.457031 19.648438 L 25.449219 21.535156 L 25.050781 21.734375 L 23.535156 20.605469 L 24.480469 22.5 Z M 23.980469 22.753906 " fill-opacity="1" fill-rule="nonzero"/><path fill="#000000" d="M 31.890625 19.726562 L 31.378906 16.699219 L 32.410156 16.523438 C 32.761719 16.460938 33.066406 16.476562 33.3125 16.566406 C 33.5625 16.652344 33.761719 16.796875 33.914062 17.007812 C 34.0625 17.214844 34.164062 17.472656 34.214844 17.777344 C 34.265625 18.082031 34.253906 18.359375 34.183594 18.601562 C 34.109375 18.847656 33.96875 19.050781 33.761719 19.214844 C 33.558594 19.378906 33.277344 19.488281 32.921875 19.550781 Z M 32.363281 19.15625 L 32.816406 19.078125 C 33.066406 19.035156 33.257812 18.960938 33.394531 18.855469 C 33.527344 18.746094 33.613281 18.609375 33.652344 18.445312 C 33.6875 18.28125 33.6875 18.089844 33.652344 17.871094 C 33.613281 17.65625 33.550781 17.476562 33.457031 17.332031 C 33.371094 17.1875 33.246094 17.085938 33.082031 17.027344 C 32.921875 16.96875 32.714844 16.960938 32.464844 17 L 32.011719 17.078125 Z M 32.363281 19.15625 " fill-opacity="1" fill-rule="nonzero"/><path fill="#000000" d="M 36.734375 19.125 L 36.726562 16.058594 L 38.726562 16.050781 L 38.734375 16.507812 L 37.289062 16.511719 L 37.289062 17.351562 L 38.601562 17.34375 L 38.601562 17.785156 L 37.289062 17.789062 L 37.292969 18.675781 L 38.738281 18.671875 L 38.738281 19.121094 Z M 36.734375 19.125 " fill-opacity="1" fill-rule="nonzero"/><path fill="#000000" d="M 41.042969 19.304688 L 41.503906 16.269531 L 42.058594 16.351562 L 41.660156 18.953125 L 43.003906 19.160156 L 42.9375 19.589844 Z M 41.042969 19.304688 " fill-opacity="1" fill-rule="nonzero"/><path fill="#000000" d="M 45.179688 20.132812 L 46.035156 17.183594 L 46.574219 17.339844 L 45.722656 20.289062 Z M 45.179688 20.132812 " fill-opacity="1" fill-rule="nonzero"/><path fill="#000000" d="M 49.183594 21.648438 C 48.921875 21.527344 48.71875 21.359375 48.574219 21.148438 C 48.433594 20.941406 48.355469 20.707031 48.34375 20.445312 C 48.335938 20.179688 48.394531 19.90625 48.523438 19.621094 C 48.65625 19.332031 48.828125 19.105469 49.042969 18.9375 C 49.257812 18.769531 49.492188 18.671875 49.757812 18.644531 C 50.023438 18.617188 50.296875 18.667969 50.582031 18.800781 C 50.910156 18.949219 51.144531 19.152344 51.289062 19.40625 C 51.433594 19.664062 51.476562 19.941406 51.417969 20.246094 L 50.84375 19.984375 C 50.863281 19.839844 50.828125 19.703125 50.75 19.578125 C 50.671875 19.453125 50.546875 19.351562 50.371094 19.269531 C 50.09375 19.140625 49.835938 19.132812 49.601562 19.242188 C 49.371094 19.351562 49.1875 19.558594 49.046875 19.867188 C 48.902344 20.175781 48.867188 20.445312 48.941406 20.683594 C 49.011719 20.921875 49.179688 21.097656 49.4375 21.214844 C 49.691406 21.332031 49.914062 21.347656 50.105469 21.269531 C 50.292969 21.191406 50.457031 21.046875 50.585938 20.835938 L 49.882812 20.515625 L 50.058594 20.136719 L 51.277344 20.691406 L 50.574219 22.226562 L 50.105469 22.011719 L 50.226562 21.628906 C 50.078125 21.71875 49.921875 21.765625 49.753906 21.773438 C 49.582031 21.785156 49.394531 21.742188 49.183594 21.648438 Z M 49.183594 21.648438 " fill-opacity="1" fill-rule="nonzero"/><path fill="#000000" d="M 52.558594 23.378906 L 54.3125 20.863281 L 54.773438 21.183594 L 54.046875 22.226562 L 55.171875 23.015625 L 55.902344 21.972656 L 56.363281 22.292969 L 54.609375 24.808594 L 54.144531 24.488281 L 54.910156 23.394531 L 53.785156 22.605469 L 53.019531 23.699219 Z M 52.558594 23.378906 " fill-opacity="1" fill-rule="nonzero"/><path fill="#000000" d="M 56.921875 26.835938 L 58.753906 24.96875 L 58.117188 24.34375 L 58.433594 24.019531 L 60.117188 25.667969 L 59.800781 25.992188 L 59.15625 25.363281 L 57.324219 27.230469 Z M 56.921875 26.835938 " fill-opacity="1" fill-rule="nonzero"/><path fill="#000000" d="M 59.972656 30.390625 C 59.839844 30.210938 59.753906 30.03125 59.710938 29.84375 C 59.671875 29.660156 59.679688 29.484375 59.738281 29.320312 C 59.796875 29.152344 59.90625 29.007812 60.074219 28.882812 L 60.421875 29.359375 C 60.308594 29.445312 60.242188 29.558594 60.222656 29.695312 C 60.203125 29.832031 60.242188 29.972656 60.347656 30.109375 C 60.4375 30.230469 60.535156 30.304688 60.644531 30.332031 C 60.753906 30.363281 60.855469 30.339844 60.953125 30.269531 C 61.054688 30.191406 61.109375 30.101562 61.121094 30 C 61.136719 29.898438 61.121094 29.78125 61.078125 29.652344 C 61.035156 29.523438 60.988281 29.382812 60.941406 29.234375 C 60.867188 28.996094 60.84375 28.789062 60.871094 28.613281 C 60.902344 28.4375 61.003906 28.285156 61.171875 28.160156 C 61.320312 28.046875 61.472656 27.988281 61.628906 27.984375 C 61.785156 27.976562 61.941406 28.015625 62.089844 28.097656 C 62.238281 28.183594 62.371094 28.304688 62.496094 28.46875 C 62.617188 28.632812 62.691406 28.800781 62.726562 28.96875 C 62.761719 29.132812 62.753906 29.292969 62.699219 29.441406 C 62.648438 29.59375 62.550781 29.726562 62.410156 29.839844 L 62.054688 29.359375 C 62.136719 29.289062 62.1875 29.199219 62.203125 29.082031 C 62.222656 28.96875 62.191406 28.855469 62.105469 28.742188 C 62.039062 28.636719 61.957031 28.574219 61.851562 28.542969 C 61.75 28.515625 61.652344 28.539062 61.558594 28.609375 C 61.472656 28.667969 61.429688 28.742188 61.421875 28.832031 C 61.414062 28.917969 61.421875 29.015625 61.457031 29.128906 C 61.484375 29.246094 61.527344 29.371094 61.574219 29.515625 C 61.625 29.671875 61.65625 29.816406 61.671875 29.960938 C 61.691406 30.101562 61.679688 30.238281 61.628906 30.367188 C 61.582031 30.496094 61.484375 30.613281 61.339844 30.722656 C 61.207031 30.820312 61.0625 30.875 60.90625 30.890625 C 60.75 30.90625 60.589844 30.875 60.421875 30.792969 C 60.261719 30.710938 60.109375 30.578125 59.972656 30.390625 Z M 59.972656 30.390625 " fill-opacity="1" fill-rule="nonzero"/><path fill="#000000" d="M 20.667969 53.808594 L 20.667969 51.503906 L 21.375 51.503906 C 21.777344 51.503906 22.078125 51.609375 22.269531 51.816406 C 22.460938 52.023438 22.554688 52.304688 22.554688 52.664062 C 22.554688 53.015625 22.460938 53.292969 22.269531 53.5 C 22.078125 53.707031 21.777344 53.808594 21.375 53.808594 Z M 20.941406 53.578125 L 21.367188 53.578125 C 21.589844 53.578125 21.769531 53.542969 21.902344 53.46875 C 22.035156 53.394531 22.128906 53.289062 22.1875 53.152344 C 22.246094 53.015625 22.273438 52.855469 22.273438 52.664062 C 22.273438 52.472656 22.246094 52.304688 22.1875 52.167969 C 22.128906 52.03125 22.035156 51.921875 21.902344 51.847656 C 21.769531 51.773438 21.589844 51.738281 21.367188 51.738281 L 20.941406 51.738281 Z M 20.941406 53.578125 " fill-opacity="1" fill-rule="nonzero"/><path fill="#000000" d="M 23.980469 53.847656 C 23.828125 53.847656 23.6875 53.8125 23.566406 53.738281 C 23.445312 53.667969 23.351562 53.570312 23.28125 53.445312 C 23.214844 53.316406 23.179688 53.167969 23.179688 52.996094 C 23.179688 52.824219 23.210938 52.675781 23.277344 52.546875 C 23.347656 52.417969 23.441406 52.316406 23.566406 52.246094 C 23.6875 52.175781 23.828125 52.140625 23.988281 52.140625 C 24.144531 52.140625 24.28125 52.175781 24.394531 52.246094 C 24.511719 52.316406 24.601562 52.410156 24.660156 52.527344 C 24.722656 52.644531 24.753906 52.765625 24.753906 52.902344 C 24.753906 52.925781 24.753906 52.949219 24.75 52.972656 C 24.75 52.996094 24.75 53.023438 24.75 53.054688 L 23.453125 53.054688 C 23.460938 53.179688 23.488281 53.285156 23.539062 53.367188 C 23.589844 53.449219 23.65625 53.511719 23.730469 53.554688 C 23.8125 53.597656 23.894531 53.617188 23.980469 53.617188 C 24.09375 53.617188 24.191406 53.589844 24.265625 53.539062 C 24.34375 53.484375 24.398438 53.414062 24.433594 53.320312 L 24.707031 53.320312 C 24.664062 53.472656 24.582031 53.597656 24.457031 53.695312 C 24.332031 53.796875 24.175781 53.847656 23.980469 53.847656 Z M 23.980469 52.371094 C 23.847656 52.371094 23.730469 52.410156 23.628906 52.488281 C 23.527344 52.570312 23.472656 52.6875 23.453125 52.839844 L 24.480469 52.839844 C 24.476562 52.695312 24.425781 52.582031 24.332031 52.5 C 24.238281 52.414062 24.121094 52.371094 23.980469 52.371094 Z M 23.980469 52.371094 " fill-opacity="1" fill-rule="nonzero"/><path fill="#000000" d="M 25.429688 51.441406 L 25.707031 51.441406 L 25.707031 53.808594 L 25.429688 53.808594 Z M 25.429688 51.441406 " fill-opacity="1" fill-rule="nonzero"/><path fill="#000000" d="M 26.632812 51.816406 C 26.578125 51.816406 26.535156 51.800781 26.496094 51.761719 C 26.464844 51.726562 26.445312 51.679688 26.445312 51.625 C 26.445312 51.574219 26.464844 51.53125 26.496094 51.496094 C 26.535156 51.460938 26.578125 51.441406 26.632812 51.441406 C 26.6875 51.441406 26.734375 51.460938 26.769531 51.496094 C 26.808594 51.53125 26.828125 51.574219 26.828125 51.625 C 26.828125 51.679688 26.808594 51.726562 26.769531 51.761719 C 26.734375 51.800781 26.6875 51.816406 26.632812 51.816406 Z M 26.496094 53.808594 L 26.496094 52.175781 L 26.769531 52.175781 L 26.769531 53.808594 Z M 26.496094 53.808594 " fill-opacity="1" fill-rule="nonzero"/><path fill="#000000" d="M 28.207031 53.292969 C 28.113281 53.292969 28.027344 53.285156 27.953125 53.261719 L 27.789062 53.414062 C 27.8125 53.433594 27.839844 53.445312 27.878906 53.457031 C 27.914062 53.46875 27.96875 53.480469 28.03125 53.492188 C 28.101562 53.5 28.195312 53.511719 28.320312 53.523438 C 28.539062 53.539062 28.695312 53.589844 28.789062 53.675781 C 28.886719 53.757812 28.933594 53.871094 28.933594 54.007812 C 28.933594 54.105469 28.90625 54.195312 28.855469 54.28125 C 28.804688 54.363281 28.722656 54.433594 28.621094 54.488281 C 28.515625 54.542969 28.375 54.570312 28.207031 54.570312 C 28.0625 54.570312 27.933594 54.550781 27.820312 54.511719 C 27.703125 54.472656 27.613281 54.417969 27.550781 54.339844 C 27.484375 54.261719 27.457031 54.164062 27.457031 54.042969 C 27.457031 53.984375 27.46875 53.917969 27.503906 53.847656 C 27.535156 53.777344 27.597656 53.707031 27.691406 53.644531 C 27.640625 53.625 27.601562 53.605469 27.566406 53.582031 C 27.53125 53.558594 27.5 53.535156 27.472656 53.503906 L 27.472656 53.425781 L 27.753906 53.148438 C 27.625 53.042969 27.558594 52.898438 27.558594 52.714844 C 27.558594 52.609375 27.582031 52.511719 27.636719 52.425781 C 27.6875 52.335938 27.757812 52.265625 27.851562 52.214844 C 27.949219 52.164062 28.070312 52.140625 28.207031 52.140625 C 28.304688 52.140625 28.386719 52.152344 28.460938 52.175781 L 29.066406 52.175781 L 29.066406 52.382812 L 28.761719 52.398438 C 28.824219 52.492188 28.855469 52.597656 28.855469 52.714844 C 28.855469 52.824219 28.828125 52.925781 28.777344 53.011719 C 28.726562 53.097656 28.652344 53.167969 28.554688 53.21875 C 28.460938 53.269531 28.34375 53.292969 28.207031 53.292969 Z M 28.207031 53.066406 C 28.320312 53.066406 28.414062 53.039062 28.484375 52.976562 C 28.554688 52.917969 28.589844 52.832031 28.589844 52.714844 C 28.589844 52.605469 28.554688 52.519531 28.484375 52.460938 C 28.414062 52.398438 28.320312 52.371094 28.207031 52.371094 C 28.089844 52.371094 27.996094 52.398438 27.925781 52.460938 C 27.859375 52.519531 27.824219 52.605469 27.824219 52.714844 C 27.824219 52.832031 27.859375 52.917969 27.925781 52.976562 C 27.996094 53.039062 28.089844 53.066406 28.207031 53.066406 Z M 27.726562 54.019531 C 27.726562 54.128906 27.769531 54.210938 27.863281 54.261719 C 27.957031 54.316406 28.070312 54.34375 28.207031 54.34375 C 28.34375 54.34375 28.453125 54.3125 28.539062 54.253906 C 28.621094 54.195312 28.664062 54.117188 28.664062 54.019531 C 28.664062 53.949219 28.632812 53.886719 28.578125 53.835938 C 28.519531 53.78125 28.414062 53.753906 28.261719 53.746094 C 28.140625 53.734375 28.035156 53.726562 27.949219 53.714844 C 27.855469 53.761719 27.796875 53.8125 27.769531 53.867188 C 27.738281 53.925781 27.726562 53.976562 27.726562 54.019531 Z M 27.726562 54.019531 " fill-opacity="1" fill-rule="nonzero"/><path fill="#000000" d="M 29.6875 53.808594 L 29.6875 51.441406 L 29.964844 51.441406 L 29.964844 52.457031 C 30.019531 52.355469 30.09375 52.277344 30.195312 52.222656 C 30.296875 52.167969 30.40625 52.140625 30.527344 52.140625 C 30.714844 52.140625 30.863281 52.199219 30.980469 52.3125 C 31.09375 52.433594 31.152344 52.613281 31.152344 52.855469 L 31.152344 53.808594 L 30.875 53.808594 L 30.875 52.882812 C 30.875 52.542969 30.738281 52.375 30.464844 52.375 C 30.320312 52.375 30.203125 52.425781 30.105469 52.527344 C 30.011719 52.632812 29.964844 52.777344 29.964844 52.964844 L 29.964844 53.808594 Z M 29.6875 53.808594 " fill-opacity="1" fill-rule="nonzero"/><path fill="#000000" d="M 32.523438 53.808594 C 32.371094 53.808594 32.253906 53.773438 32.167969 53.703125 C 32.082031 53.628906 32.039062 53.496094 32.039062 53.308594 L 32.039062 52.414062 L 31.757812 52.414062 L 31.757812 52.175781 L 32.039062 52.175781 L 32.078125 51.789062 L 32.316406 51.789062 L 32.316406 52.175781 L 32.796875 52.175781 L 32.796875 52.414062 L 32.316406 52.414062 L 32.316406 53.308594 C 32.316406 53.410156 32.335938 53.480469 32.378906 53.515625 C 32.417969 53.554688 32.492188 53.574219 32.601562 53.574219 L 32.769531 53.574219 L 32.769531 53.808594 Z M 32.523438 53.808594 " fill-opacity="1" fill-rule="nonzero"/><path fill="#000000" d="M 34.804688 51.816406 C 34.75 51.816406 34.703125 51.800781 34.667969 51.761719 C 34.632812 51.726562 34.617188 51.679688 34.617188 51.625 C 34.617188 51.574219 34.632812 51.53125 34.667969 51.496094 C 34.703125 51.460938 34.75 51.441406 34.804688 51.441406 C 34.859375 51.441406 34.90625 51.460938 34.941406 51.496094 C 34.976562 51.53125 34.996094 51.574219 34.996094 51.625 C 34.996094 51.679688 34.976562 51.726562 34.941406 51.761719 C 34.90625 51.800781 34.859375 51.816406 34.804688 51.816406 Z M 34.667969 53.808594 L 34.667969 52.175781 L 34.941406 52.175781 L 34.941406 53.808594 Z M 34.667969 53.808594 " fill-opacity="1" fill-rule="nonzero"/><path fill="#000000" d="M 35.734375 53.808594 L 35.734375 52.175781 L 35.980469 52.175781 L 36 52.46875 C 36.050781 52.367188 36.128906 52.285156 36.226562 52.230469 C 36.324219 52.167969 36.4375 52.140625 36.5625 52.140625 C 36.753906 52.140625 36.90625 52.199219 37.023438 52.3125 C 37.136719 52.433594 37.195312 52.613281 37.195312 52.855469 L 37.195312 53.808594 L 36.917969 53.808594 L 36.917969 52.882812 C 36.917969 52.542969 36.777344 52.375 36.5 52.375 C 36.359375 52.375 36.242188 52.425781 36.148438 52.527344 C 36.054688 52.632812 36.011719 52.777344 36.011719 52.964844 L 36.011719 53.808594 Z M 35.734375 53.808594 " fill-opacity="1" fill-rule="nonzero"/><path fill="#000000" d="M 39.121094 53.808594 L 39.121094 51.503906 L 40.542969 51.503906 L 40.542969 51.730469 L 39.394531 51.730469 L 39.394531 52.535156 L 40.441406 52.535156 L 40.441406 52.757812 L 39.394531 52.757812 L 39.394531 53.582031 L 40.542969 53.582031 L 40.542969 53.808594 Z M 39.121094 53.808594 " fill-opacity="1" fill-rule="nonzero"/><path fill="#000000" d="M 41.738281 53.808594 L 41.117188 52.175781 L 41.40625 52.175781 L 41.894531 53.542969 L 42.394531 52.175781 L 42.675781 52.175781 L 42.054688 53.808594 Z M 41.738281 53.808594 " fill-opacity="1" fill-rule="nonzero"/><path fill="#000000" d="M 44.019531 53.847656 C 43.867188 53.847656 43.726562 53.8125 43.605469 53.738281 C 43.484375 53.667969 43.390625 53.570312 43.324219 53.445312 C 43.253906 53.316406 43.21875 53.167969 43.21875 52.996094 C 43.21875 52.824219 43.253906 52.675781 43.320312 52.546875 C 43.386719 52.417969 43.484375 52.316406 43.605469 52.246094 C 43.726562 52.175781 43.867188 52.140625 44.03125 52.140625 C 44.1875 52.140625 44.320312 52.175781 44.4375 52.246094 C 44.554688 52.316406 44.640625 52.410156 44.703125 52.527344 C 44.761719 52.644531 44.796875 52.765625 44.796875 52.902344 C 44.796875 52.925781 44.792969 52.949219 44.792969 52.972656 C 44.792969 52.996094 44.792969 53.023438 44.792969 53.054688 L 43.496094 53.054688 C 43.5 53.179688 43.527344 53.285156 43.578125 53.367188 C 43.632812 53.449219 43.695312 53.511719 43.773438 53.554688 C 43.851562 53.597656 43.933594 53.617188 44.019531 53.617188 C 44.132812 53.617188 44.230469 53.589844 44.308594 53.539062 C 44.382812 53.484375 44.441406 53.414062 44.476562 53.320312 L 44.75 53.320312 C 44.707031 53.472656 44.621094 53.597656 44.496094 53.695312 C 44.371094 53.796875 44.214844 53.847656 44.019531 53.847656 Z M 44.019531 52.371094 C 43.890625 52.371094 43.773438 52.410156 43.667969 52.488281 C 43.570312 52.570312 43.511719 52.6875 43.496094 52.839844 L 44.523438 52.839844 C 44.515625 52.695312 44.464844 52.582031 44.371094 52.5 C 44.277344 52.414062 44.160156 52.371094 44.019531 52.371094 Z M 44.019531 52.371094 " fill-opacity="1" fill-rule="nonzero"/><path fill="#000000" d="M 45.46875 53.808594 L 45.46875 52.175781 L 45.71875 52.175781 L 45.742188 52.488281 C 45.789062 52.382812 45.867188 52.296875 45.96875 52.234375 C 46.074219 52.171875 46.203125 52.140625 46.355469 52.140625 L 46.355469 52.425781 L 46.277344 52.425781 C 46.179688 52.425781 46.089844 52.441406 46.007812 52.476562 C 45.929688 52.511719 45.863281 52.570312 45.816406 52.652344 C 45.769531 52.734375 45.746094 52.84375 45.746094 52.988281 L 45.746094 53.808594 Z M 45.46875 53.808594 " fill-opacity="1" fill-rule="nonzero"/><path fill="#000000" d="M 47.148438 54.53125 L 47.554688 53.648438 L 47.460938 53.648438 L 46.808594 52.175781 L 47.109375 52.175781 L 47.648438 53.449219 L 48.222656 52.175781 L 48.507812 52.175781 L 47.4375 54.53125 Z M 47.148438 54.53125 " fill-opacity="1" fill-rule="nonzero"/><path fill="#000000" d="M 50.304688 53.808594 L 50.304688 51.503906 L 51.113281 51.503906 C 51.277344 51.503906 51.410156 51.53125 51.519531 51.582031 C 51.621094 51.632812 51.703125 51.707031 51.753906 51.796875 C 51.804688 51.886719 51.835938 51.984375 51.835938 52.089844 C 51.835938 52.242188 51.792969 52.355469 51.714844 52.441406 C 51.632812 52.527344 51.539062 52.589844 51.429688 52.621094 C 51.511719 52.636719 51.589844 52.671875 51.660156 52.726562 C 51.730469 52.777344 51.785156 52.84375 51.824219 52.921875 C 51.867188 53 51.886719 53.085938 51.886719 53.179688 C 51.886719 53.296875 51.855469 53.402344 51.800781 53.5 C 51.742188 53.59375 51.660156 53.671875 51.546875 53.726562 C 51.4375 53.78125 51.300781 53.808594 51.140625 53.808594 Z M 50.578125 52.511719 L 51.09375 52.511719 C 51.242188 52.511719 51.355469 52.476562 51.433594 52.410156 C 51.511719 52.339844 51.550781 52.246094 51.550781 52.121094 C 51.550781 52.003906 51.511719 51.910156 51.433594 51.84375 C 51.355469 51.773438 51.238281 51.738281 51.085938 51.738281 L 50.578125 51.738281 Z M 50.578125 53.578125 L 51.109375 53.578125 C 51.265625 53.578125 51.390625 53.542969 51.476562 53.46875 C 51.558594 53.394531 51.601562 53.292969 51.601562 53.160156 C 51.601562 53.03125 51.558594 52.925781 51.464844 52.847656 C 51.378906 52.773438 51.257812 52.734375 51.101562 52.734375 L 50.578125 52.734375 Z M 50.578125 53.578125 " fill-opacity="1" fill-rule="nonzero"/><path fill="#000000" d="M 52.746094 51.816406 C 52.691406 51.816406 52.644531 51.800781 52.605469 51.761719 C 52.574219 51.726562 52.554688 51.679688 52.554688 51.625 C 52.554688 51.574219 52.574219 51.53125 52.605469 51.496094 C 52.644531 51.460938 52.691406 51.441406 52.746094 51.441406 C 52.796875 51.441406 52.84375 51.460938 52.882812 51.496094 C 52.917969 51.53125 52.9375 51.574219 52.9375 51.625 C 52.9375 51.679688 52.917969 51.726562 52.882812 51.761719 C 52.84375 51.800781 52.796875 51.816406 52.746094 51.816406 Z M 52.605469 53.808594 L 52.605469 52.175781 L 52.882812 52.175781 L 52.882812 53.808594 Z M 52.605469 53.808594 " fill-opacity="1" fill-rule="nonzero"/><path fill="#000000" d="M 54.320312 53.808594 C 54.167969 53.808594 54.050781 53.773438 53.964844 53.703125 C 53.878906 53.628906 53.835938 53.496094 53.835938 53.308594 L 53.835938 52.414062 L 53.550781 52.414062 L 53.550781 52.175781 L 53.835938 52.175781 L 53.875 51.789062 L 54.113281 51.789062 L 54.113281 52.175781 L 54.59375 52.175781 L 54.59375 52.414062 L 54.113281 52.414062 L 54.113281 53.308594 C 54.113281 53.410156 54.132812 53.480469 54.171875 53.515625 C 54.214844 53.554688 54.289062 53.574219 54.394531 53.574219 L 54.566406 53.574219 L 54.566406 53.808594 Z M 54.320312 53.808594 " fill-opacity="1" fill-rule="nonzero"/><path fill="#000000" d="M 55.984375 53.847656 C 55.832031 53.847656 55.691406 53.8125 55.570312 53.738281 C 55.449219 53.667969 55.355469 53.570312 55.289062 53.445312 C 55.21875 53.316406 55.183594 53.167969 55.183594 52.996094 C 55.183594 52.824219 55.21875 52.675781 55.285156 52.546875 C 55.351562 52.417969 55.449219 52.316406 55.570312 52.246094 C 55.691406 52.175781 55.832031 52.140625 55.996094 52.140625 C 56.152344 52.140625 56.285156 52.175781 56.402344 52.246094 C 56.519531 52.316406 56.605469 52.410156 56.667969 52.527344 C 56.730469 52.644531 56.761719 52.765625 56.761719 52.902344 C 56.761719 52.925781 56.757812 52.949219 56.757812 52.972656 C 56.757812 52.996094 56.757812 53.023438 56.757812 53.054688 L 55.460938 53.054688 C 55.464844 53.179688 55.492188 53.285156 55.546875 53.367188 C 55.597656 53.449219 55.660156 53.511719 55.738281 53.554688 C 55.816406 53.597656 55.898438 53.617188 55.984375 53.617188 C 56.097656 53.617188 56.195312 53.589844 56.273438 53.539062 C 56.351562 53.484375 56.40625 53.414062 56.441406 53.320312 L 56.714844 53.320312 C 56.671875 53.472656 56.585938 53.597656 56.460938 53.695312 C 56.339844 53.796875 56.179688 53.847656 55.984375 53.847656 Z M 55.984375 52.371094 C 55.855469 52.371094 55.738281 52.410156 55.636719 52.488281 C 55.535156 52.570312 55.476562 52.6875 55.460938 52.839844 L 56.488281 52.839844 C 56.480469 52.695312 56.429688 52.582031 56.335938 52.5 C 56.242188 52.414062 56.125 52.371094 55.984375 52.371094 Z M 55.984375 52.371094 " fill-opacity="1" fill-rule="nonzero"/></svg>