<svg xmlns="http://www.w3.org/2000/svg" xmlns:xlink="http://www.w3.org/1999/xlink" width="100" zoomAndPan="magnify" viewBox="0 0 75 74.999997" height="100" preserveAspectRatio="xMidYMid meet" version="1.0"><defs><clipPath id="8a8465f0f9"><path d="M 12.398438 31.800781 L 62.785156 31.800781 L 62.785156 49.199219 L 12.398438 49.199219 Z M 12.398438 31.800781 " clip-rule="nonzero"/></clipPath></defs><g clip-path="url(#8a8465f0f9)"><path fill="#000000" d="M 34.839844 49.101562 C 31.625 49.101562 28.742188 48.703125 26.984375 47.789062 C 23.820312 46.128906 22.714844 45.296875 22.589844 44.398438 C 22.53125 43.957031 22.730469 43.523438 23.210938 43.070312 C 24.171875 42.164062 25.746094 42.988281 27.414062 43.863281 C 28.339844 44.351562 29.296875 44.851562 30.101562 45.019531 C 30.953125 45.199219 31.304688 44.683594 31.8125 43.839844 C 32.320312 42.996094 32.914062 41.980469 34.433594 42.300781 C 35.730469 42.578125 36.085938 43.507812 36.382812 44.257812 C 36.71875 45.132812 36.902344 45.613281 38.3125 45.109375 C 39.382812 44.695312 40.324219 44.078125 41.136719 43.265625 C 42.011719 42.476562 42.765625 41.796875 43.984375 42.234375 C 44.523438 42.441406 45.015625 42.726562 45.460938 43.09375 C 46.160156 43.628906 46.511719 43.902344 47.910156 42.964844 C 48.824219 42.355469 49.765625 41.800781 50.742188 41.300781 C 50.589844 40.914062 50.417969 40.53125 50.25 40.164062 L 50.132812 39.90625 C 49.582031 38.695312 47.992188 37.929688 46.585938 37.253906 L 46.078125 37.007812 C 46.101562 37.199219 46.105469 37.390625 46.085938 37.582031 C 46.070312 37.769531 46.03125 37.957031 45.972656 38.140625 C 45.914062 38.324219 45.839844 38.496094 45.742188 38.664062 C 45.648438 38.828125 45.535156 38.980469 45.410156 39.125 C 44.445312 40.171875 43.652344 40.570312 43.109375 40.277344 C 42.515625 39.957031 42.429688 38.933594 42.851562 37.234375 C 43.621094 34.148438 43.03125 33.578125 41.148438 32.742188 C 40.769531 32.578125 40.371094 32.488281 39.957031 32.464844 C 39.546875 32.445312 39.140625 32.496094 38.746094 32.621094 C 39.277344 33.910156 40.316406 38.433594 38.871094 39.46875 C 38.75 39.566406 38.609375 39.625 38.457031 39.648438 C 38.300781 39.671875 38.152344 39.65625 38.007812 39.601562 C 37.082031 39.222656 36.578125 37.148438 36.214844 35.171875 L 36.214844 35.101562 C 36.121094 34.738281 35.96875 34.402344 35.75 34.09375 C 35.53125 33.789062 35.261719 33.535156 34.945312 33.332031 C 34.757812 33.210938 34.558594 33.109375 34.347656 33.027344 C 34.140625 32.949219 33.921875 32.890625 33.703125 32.851562 C 33.480469 32.816406 33.257812 32.804688 33.035156 32.816406 C 32.808594 32.824219 32.589844 32.859375 32.371094 32.914062 C 32.191406 32.941406 32.015625 32.992188 31.851562 33.070312 C 31.683594 33.144531 31.53125 33.242188 31.394531 33.363281 C 31.253906 33.480469 31.132812 33.617188 31.03125 33.769531 C 30.933594 33.925781 30.855469 34.089844 30.800781 34.261719 C 31.945312 34.605469 33.375 36.144531 34.109375 37.585938 C 34.6875 38.71875 34.753906 39.644531 34.296875 40.191406 C 33.378906 41.300781 31.902344 40.144531 30.597656 39.125 C 29.9375 38.605469 29.253906 38.070312 28.6875 37.84375 C 27.328125 37.292969 25.277344 36.460938 22.933594 41.066406 C 22.691406 41.566406 22.390625 42.03125 22.039062 42.460938 C 21.6875 42.890625 21.289062 43.277344 20.847656 43.613281 C 20.40625 43.949219 19.929688 44.230469 19.425781 44.453125 C 18.917969 44.679688 18.390625 44.839844 17.84375 44.941406 C 16.933594 45.113281 16.015625 45.148438 15.09375 45.039062 C 14.171875 44.933594 13.285156 44.691406 12.4375 44.3125 L 12.667969 43.8125 C 15.25 45 20.183594 45.234375 22.441406 40.816406 C 24.796875 36.160156 26.996094 36.574219 28.875 37.328125 C 29.515625 37.585938 30.230469 38.15625 30.921875 38.6875 C 32.347656 39.792969 33.320312 40.484375 33.859375 39.835938 C 34.160156 39.472656 34.066406 38.746094 33.601562 37.835938 C 32.863281 36.390625 31.484375 35.015625 30.597656 34.789062 C 30.378906 35.421875 30.136719 36.0625 29.40625 36.449219 C 28.960938 36.699219 28.621094 36.726562 28.398438 36.542969 C 28.285156 36.453125 28.125 36.230469 28.265625 35.773438 C 28.34375 35.5625 28.445312 35.367188 28.570312 35.1875 C 28.699219 35.007812 28.851562 34.847656 29.023438 34.707031 C 29.191406 34.566406 29.378906 34.453125 29.582031 34.367188 C 29.785156 34.277344 29.996094 34.21875 30.214844 34.1875 C 30.492188 33.433594 30.910156 32.664062 32.230469 32.367188 C 32.484375 32.304688 32.738281 32.265625 33 32.253906 C 33.257812 32.246094 33.515625 32.261719 33.773438 32.304688 C 34.03125 32.347656 34.28125 32.414062 34.523438 32.507812 C 34.765625 32.601562 34.996094 32.71875 35.214844 32.863281 C 35.59375 33.105469 35.914062 33.410156 36.175781 33.78125 C 36.4375 34.148438 36.621094 34.554688 36.722656 34.992188 L 36.722656 35.058594 C 37.179688 37.519531 37.675781 38.871094 38.183594 39.078125 C 38.242188 39.101562 38.300781 39.105469 38.363281 39.09375 C 38.425781 39.082031 38.476562 39.054688 38.523438 39.011719 C 39.582031 38.257812 38.746094 33.976562 38.1875 32.78125 L 37.859375 32.894531 C 37.308594 33.089844 36.878906 33.246094 36.515625 33.136719 C 36.464844 33.128906 36.414062 33.109375 36.371094 33.085938 C 36.324219 33.058594 36.285156 33.023438 36.25 32.984375 C 36.214844 32.945312 36.191406 32.898438 36.171875 32.851562 C 36.152344 32.800781 36.144531 32.75 36.144531 32.695312 C 36.144531 32.324219 36.671875 32.027344 37.144531 31.910156 C 37.359375 31.839844 37.578125 31.824219 37.800781 31.863281 C 38.023438 31.902344 38.222656 31.992188 38.402344 32.132812 C 38.882812 31.964844 39.375 31.886719 39.882812 31.90625 C 40.390625 31.921875 40.878906 32.03125 41.34375 32.230469 C 43.527344 33.203125 44.160156 34.125 43.355469 37.359375 C 42.964844 38.9375 43.101562 39.648438 43.355469 39.78125 C 43.609375 39.910156 44.183594 39.625 44.984375 38.738281 C 45.105469 38.597656 45.210938 38.449219 45.292969 38.285156 C 45.378906 38.121094 45.441406 37.949219 45.480469 37.769531 C 45.523438 37.59375 45.539062 37.410156 45.535156 37.226562 C 45.53125 37.042969 45.503906 36.863281 45.453125 36.683594 C 44.691406 36.265625 44.171875 35.855469 44.140625 35.300781 C 44.117188 34.855469 44.324219 34.71875 44.453125 34.679688 C 44.886719 34.535156 45.332031 35.144531 45.503906 35.410156 C 45.683594 35.695312 45.820312 35.996094 45.921875 36.3125 C 46.195312 36.460938 46.503906 36.589844 46.808594 36.75 C 48.300781 37.46875 49.992188 38.28125 50.617188 39.671875 L 50.734375 39.933594 C 50.894531 40.289062 51.066406 40.664062 51.222656 41.058594 C 53.472656 39.996094 55.875 39.398438 57.746094 40.230469 C 58.761719 40.683594 59.425781 41.414062 60.007812 42.054688 C 61.183594 43.34375 61.960938 44.199219 64.828125 42.328125 L 65.125 42.792969 C 61.867188 44.902344 60.765625 43.691406 59.613281 42.414062 C 59.039062 41.78125 58.441406 41.132812 57.53125 40.722656 C 55.820312 39.953125 53.5625 40.535156 51.417969 41.550781 C 51.742188 42.53125 51.886719 43.570312 51.4375 44.542969 C 50.886719 45.785156 49.464844 46.71875 47.132812 47.402344 C 43.109375 48.519531 39.011719 49.082031 34.839844 49.101562 Z M 24.265625 43.238281 C 24.007812 43.222656 23.78125 43.300781 23.589844 43.472656 C 23.136719 43.898438 23.117188 44.164062 23.136719 44.324219 C 23.238281 45.070312 24.851562 46.050781 27.234375 47.296875 C 31.121094 49.320312 40.753906 48.707031 46.972656 46.890625 C 49.144531 46.253906 50.441406 45.417969 50.9375 44.328125 C 51.296875 43.535156 51.195312 42.667969 50.921875 41.816406 C 49.984375 42.296875 49.082031 42.835938 48.207031 43.425781 C 46.554688 44.53125 45.964844 44.179688 45.117188 43.535156 C 44.71875 43.203125 44.277344 42.941406 43.789062 42.757812 C 42.878906 42.429688 42.328125 42.925781 41.496094 43.675781 C 40.628906 44.539062 39.628906 45.191406 38.488281 45.628906 C 36.585938 46.316406 36.203125 45.328125 35.867188 44.457031 C 35.589844 43.738281 35.316406 43.058594 34.316406 42.84375 C 33.195312 42.605469 32.769531 43.308594 32.28125 44.125 C 31.796875 44.941406 31.265625 45.824219 29.992188 45.5625 C 29.109375 45.378906 28.117188 44.855469 27.160156 44.355469 C 26.121094 43.800781 25.015625 43.238281 24.265625 43.238281 Z M 30.003906 34.789062 C 29.78125 34.859375 29.582031 34.964844 29.398438 35.109375 C 29.21875 35.25 29.066406 35.421875 28.945312 35.621094 C 28.839844 35.765625 28.777344 35.929688 28.757812 36.113281 C 28.898438 36.09375 29.03125 36.046875 29.152344 35.96875 C 29.625 35.691406 29.828125 35.277344 30.003906 34.789062 Z M 44.699219 35.277344 C 44.765625 35.511719 44.902344 35.691406 45.113281 35.8125 C 45.003906 35.613281 44.867188 35.433594 44.699219 35.277344 Z M 37.605469 32.40625 C 37.347656 32.414062 37.105469 32.484375 36.882812 32.613281 C 37.128906 32.566406 37.371094 32.5 37.605469 32.40625 Z M 37.605469 32.40625 " fill-opacity="1" fill-rule="nonzero"/></g><path fill="#000000" d="M 19.921875 37.664062 L 17.707031 36.976562 L 17.941406 36.601562 L 19.667969 37.210938 L 18.40625 35.863281 L 18.644531 35.476562 L 20.402344 36.035156 L 19.101562 34.746094 L 19.335938 34.371094 L 20.914062 36.074219 L 20.65625 36.488281 L 19.015625 35.984375 L 20.175781 37.25 Z M 19.921875 37.664062 " fill-opacity="1" fill-rule="nonzero"/><path fill="#000000" d="M 22.140625 34.46875 L 21.078125 32.328125 L 21.390625 31.996094 L 23.582031 32.941406 L 23.285156 33.257812 L 22.785156 33.03125 L 22.183594 33.667969 L 22.4375 34.15625 Z M 22.03125 33.367188 L 22.476562 32.894531 L 21.578125 32.492188 Z M 22.03125 33.367188 " fill-opacity="1" fill-rule="nonzero"/><path fill="#000000" d="M 24.777344 31.910156 L 23.429688 30.117188 L 24.085938 29.625 C 24.230469 29.515625 24.367188 29.453125 24.5 29.433594 C 24.628906 29.414062 24.746094 29.425781 24.851562 29.472656 C 24.960938 29.519531 25.050781 29.59375 25.128906 29.691406 C 25.210938 29.804688 25.257812 29.925781 25.269531 30.058594 C 25.277344 30.191406 25.238281 30.324219 25.148438 30.457031 L 26.082031 30.925781 L 25.707031 31.207031 L 24.84375 30.753906 L 24.574219 30.957031 L 25.105469 31.660156 Z M 24.394531 30.714844 L 24.703125 30.484375 C 24.808594 30.402344 24.871094 30.316406 24.878906 30.222656 C 24.894531 30.132812 24.867188 30.042969 24.800781 29.953125 C 24.738281 29.871094 24.660156 29.820312 24.574219 29.808594 C 24.484375 29.796875 24.382812 29.832031 24.269531 29.914062 L 23.964844 30.144531 Z M 24.394531 30.714844 " fill-opacity="1" fill-rule="nonzero"/><path fill="#000000" d="M 27.460938 30.042969 L 26.460938 28.035156 L 26.890625 27.820312 L 28.164062 28.773438 L 28.164062 27.183594 L 28.597656 26.96875 L 29.597656 28.976562 L 29.226562 29.160156 L 28.539062 27.777344 L 28.53125 29.152344 L 28.242188 29.296875 L 27.132812 28.472656 L 27.824219 29.855469 Z M 27.460938 30.042969 " fill-opacity="1" fill-rule="nonzero"/><path fill="#000000" d="M 33.234375 27.832031 L 32.859375 25.621094 L 33.613281 25.492188 C 33.871094 25.449219 34.089844 25.460938 34.269531 25.523438 C 34.453125 25.585938 34.601562 25.695312 34.707031 25.847656 C 34.820312 26 34.894531 26.1875 34.929688 26.410156 C 34.96875 26.632812 34.960938 26.832031 34.90625 27.011719 C 34.851562 27.1875 34.75 27.339844 34.597656 27.457031 C 34.449219 27.578125 34.246094 27.660156 33.988281 27.703125 Z M 33.578125 27.414062 L 33.910156 27.359375 C 34.089844 27.328125 34.230469 27.273438 34.332031 27.195312 C 34.429688 27.117188 34.492188 27.015625 34.519531 26.894531 C 34.542969 26.777344 34.542969 26.636719 34.519531 26.476562 C 34.492188 26.320312 34.445312 26.1875 34.378906 26.082031 C 34.3125 25.976562 34.222656 25.902344 34.101562 25.863281 C 33.984375 25.816406 33.835938 25.8125 33.652344 25.84375 L 33.320312 25.898438 Z M 33.578125 27.414062 " fill-opacity="1" fill-rule="nonzero"/><path fill="#000000" d="M 36.769531 27.394531 L 36.761719 25.152344 L 38.222656 25.148438 L 38.226562 25.480469 L 37.175781 25.484375 L 37.175781 26.097656 L 38.128906 26.09375 L 38.128906 26.414062 L 37.175781 26.417969 L 37.175781 27.066406 L 38.230469 27.0625 L 38.230469 27.390625 Z M 36.769531 27.394531 " fill-opacity="1" fill-rule="nonzero"/><path fill="#000000" d="M 39.910156 27.523438 L 40.25 25.308594 L 40.65625 25.367188 L 40.363281 27.265625 L 41.34375 27.417969 L 41.296875 27.734375 Z M 39.910156 27.523438 " fill-opacity="1" fill-rule="nonzero"/><path fill="#000000" d="M 42.933594 28.128906 L 43.554688 25.976562 L 43.949219 26.089844 L 43.328125 28.242188 Z M 42.933594 28.128906 " fill-opacity="1" fill-rule="nonzero"/><path fill="#000000" d="M 45.855469 29.234375 C 45.664062 29.144531 45.515625 29.023438 45.410156 28.871094 C 45.308594 28.71875 45.25 28.546875 45.242188 28.355469 C 45.238281 28.160156 45.28125 27.960938 45.375 27.753906 C 45.46875 27.546875 45.597656 27.378906 45.753906 27.253906 C 45.910156 27.132812 46.082031 27.0625 46.273438 27.042969 C 46.46875 27.023438 46.667969 27.058594 46.878906 27.15625 C 47.117188 27.265625 47.289062 27.410156 47.394531 27.597656 C 47.5 27.785156 47.53125 27.988281 47.488281 28.210938 L 47.066406 28.019531 C 47.082031 27.914062 47.058594 27.8125 47 27.722656 C 46.941406 27.632812 46.851562 27.558594 46.722656 27.5 C 46.519531 27.40625 46.332031 27.398438 46.160156 27.476562 C 45.992188 27.558594 45.855469 27.707031 45.753906 27.933594 C 45.652344 28.160156 45.625 28.359375 45.675781 28.53125 C 45.730469 28.703125 45.851562 28.832031 46.039062 28.917969 C 46.226562 29.003906 46.386719 29.015625 46.527344 28.957031 C 46.667969 28.902344 46.785156 28.796875 46.878906 28.644531 L 46.363281 28.410156 L 46.492188 28.128906 L 47.382812 28.535156 L 46.871094 29.65625 L 46.527344 29.5 L 46.617188 29.222656 C 46.507812 29.285156 46.394531 29.320312 46.269531 29.328125 C 46.148438 29.335938 46.007812 29.304688 45.855469 29.234375 Z M 45.855469 29.234375 " fill-opacity="1" fill-rule="nonzero"/><path fill="#000000" d="M 48.316406 30.5 L 49.597656 28.660156 L 49.9375 28.894531 L 49.40625 29.65625 L 50.226562 30.234375 L 50.757812 29.46875 L 51.09375 29.703125 L 49.8125 31.542969 L 49.476562 31.308594 L 50.035156 30.507812 L 49.214844 29.933594 L 48.65625 30.734375 Z M 48.316406 30.5 " fill-opacity="1" fill-rule="nonzero"/><path fill="#000000" d="M 51.503906 33.019531 L 52.839844 31.660156 L 52.375 31.203125 L 52.605469 30.964844 L 53.835938 32.167969 L 53.605469 32.40625 L 53.136719 31.945312 L 51.796875 33.308594 Z M 51.503906 33.019531 " fill-opacity="1" fill-rule="nonzero"/><path fill="#000000" d="M 53.730469 35.613281 C 53.632812 35.484375 53.570312 35.351562 53.539062 35.21875 C 53.511719 35.082031 53.515625 34.953125 53.558594 34.832031 C 53.601562 34.714844 53.683594 34.605469 53.804688 34.515625 L 54.058594 34.863281 C 53.976562 34.925781 53.925781 35.007812 53.914062 35.109375 C 53.898438 35.207031 53.929688 35.308594 54.003906 35.410156 C 54.070312 35.5 54.140625 35.554688 54.222656 35.574219 C 54.300781 35.59375 54.375 35.578125 54.445312 35.527344 C 54.519531 35.472656 54.558594 35.40625 54.570312 35.332031 C 54.578125 35.253906 54.570312 35.171875 54.539062 35.078125 C 54.507812 34.984375 54.472656 34.882812 54.4375 34.769531 C 54.382812 34.597656 54.367188 34.449219 54.386719 34.316406 C 54.410156 34.1875 54.484375 34.078125 54.605469 33.988281 C 54.714844 33.902344 54.824219 33.859375 54.941406 33.859375 C 55.054688 33.855469 55.167969 33.882812 55.273438 33.941406 C 55.382812 34.003906 55.480469 34.09375 55.570312 34.210938 C 55.660156 34.332031 55.714844 34.453125 55.742188 34.578125 C 55.765625 34.699219 55.757812 34.8125 55.722656 34.925781 C 55.683594 35.035156 55.613281 35.132812 55.507812 35.214844 L 55.25 34.863281 C 55.308594 34.8125 55.347656 34.746094 55.359375 34.660156 C 55.375 34.578125 55.351562 34.496094 55.289062 34.410156 C 55.238281 34.335938 55.179688 34.289062 55.101562 34.269531 C 55.027344 34.246094 54.957031 34.261719 54.886719 34.316406 C 54.828125 34.359375 54.792969 34.414062 54.789062 34.476562 C 54.78125 34.539062 54.789062 34.613281 54.8125 34.695312 C 54.835938 34.78125 54.863281 34.871094 54.898438 34.976562 C 54.933594 35.089844 54.960938 35.199219 54.972656 35.300781 C 54.984375 35.40625 54.976562 35.503906 54.941406 35.597656 C 54.90625 35.691406 54.835938 35.777344 54.726562 35.859375 C 54.632812 35.929688 54.527344 35.96875 54.414062 35.980469 C 54.296875 35.992188 54.179688 35.96875 54.058594 35.910156 C 53.941406 35.851562 53.832031 35.753906 53.730469 35.613281 Z M 53.730469 35.613281 " fill-opacity="1" fill-rule="nonzero"/><path fill="#000000" d="M 25.039062 52.710938 L 25.039062 51.027344 L 25.554688 51.027344 C 25.851562 51.027344 26.070312 51.105469 26.210938 51.257812 C 26.347656 51.40625 26.417969 51.613281 26.417969 51.875 C 26.417969 52.132812 26.347656 52.335938 26.210938 52.484375 C 26.070312 52.632812 25.851562 52.710938 25.554688 52.710938 Z M 25.242188 52.539062 L 25.550781 52.539062 C 25.714844 52.539062 25.84375 52.515625 25.941406 52.460938 C 26.039062 52.410156 26.109375 52.332031 26.148438 52.230469 C 26.191406 52.132812 26.210938 52.011719 26.210938 51.875 C 26.210938 51.734375 26.191406 51.613281 26.148438 51.511719 C 26.109375 51.410156 26.039062 51.332031 25.941406 51.277344 C 25.84375 51.222656 25.714844 51.195312 25.550781 51.195312 L 25.242188 51.195312 Z M 25.242188 52.539062 " fill-opacity="1" fill-rule="nonzero"/><path fill="#000000" d="M 27.457031 52.738281 C 27.347656 52.738281 27.246094 52.710938 27.15625 52.660156 C 27.066406 52.609375 27 52.535156 26.949219 52.445312 C 26.898438 52.351562 26.875 52.242188 26.875 52.117188 C 26.875 51.992188 26.898438 51.882812 26.945312 51.789062 C 26.996094 51.695312 27.066406 51.621094 27.15625 51.570312 C 27.246094 51.515625 27.347656 51.492188 27.464844 51.492188 C 27.578125 51.492188 27.679688 51.515625 27.761719 51.570312 C 27.847656 51.621094 27.910156 51.691406 27.957031 51.773438 C 28 51.859375 28.023438 51.949219 28.023438 52.046875 C 28.023438 52.0625 28.023438 52.082031 28.019531 52.101562 C 28.019531 52.117188 28.019531 52.136719 28.019531 52.160156 L 27.074219 52.160156 C 27.078125 52.25 27.097656 52.328125 27.136719 52.386719 C 27.175781 52.449219 27.222656 52.492188 27.277344 52.523438 C 27.335938 52.554688 27.394531 52.570312 27.457031 52.570312 C 27.542969 52.570312 27.613281 52.550781 27.667969 52.511719 C 27.722656 52.472656 27.765625 52.421875 27.789062 52.351562 L 27.988281 52.351562 C 27.957031 52.464844 27.898438 52.554688 27.804688 52.628906 C 27.714844 52.703125 27.601562 52.738281 27.457031 52.738281 Z M 27.457031 51.660156 C 27.363281 51.660156 27.277344 51.6875 27.203125 51.746094 C 27.128906 51.804688 27.085938 51.890625 27.074219 52.003906 L 27.824219 52.003906 C 27.820312 51.898438 27.785156 51.8125 27.714844 51.753906 C 27.644531 51.691406 27.558594 51.660156 27.457031 51.660156 Z M 27.457031 51.660156 " fill-opacity="1" fill-rule="nonzero"/><path fill="#000000" d="M 28.515625 50.980469 L 28.71875 50.980469 L 28.71875 52.710938 L 28.515625 52.710938 Z M 28.515625 50.980469 " fill-opacity="1" fill-rule="nonzero"/><path fill="#000000" d="M 29.394531 51.257812 C 29.355469 51.257812 29.324219 51.242188 29.296875 51.214844 C 29.269531 51.1875 29.257812 51.15625 29.257812 51.117188 C 29.257812 51.078125 29.269531 51.046875 29.296875 51.023438 C 29.324219 50.996094 29.355469 50.980469 29.394531 50.980469 C 29.433594 50.980469 29.46875 50.996094 29.496094 51.023438 C 29.523438 51.046875 29.535156 51.078125 29.535156 51.117188 C 29.535156 51.15625 29.523438 51.1875 29.496094 51.214844 C 29.46875 51.242188 29.433594 51.257812 29.394531 51.257812 Z M 29.296875 52.710938 L 29.296875 51.519531 L 29.496094 51.519531 L 29.496094 52.710938 Z M 29.296875 52.710938 " fill-opacity="1" fill-rule="nonzero"/><path fill="#000000" d="M 30.546875 52.335938 C 30.476562 52.335938 30.414062 52.328125 30.359375 52.308594 L 30.238281 52.421875 C 30.253906 52.433594 30.277344 52.445312 30.304688 52.453125 C 30.332031 52.460938 30.367188 52.46875 30.417969 52.476562 C 30.46875 52.484375 30.535156 52.492188 30.625 52.5 C 30.785156 52.511719 30.902344 52.550781 30.96875 52.613281 C 31.039062 52.671875 31.074219 52.753906 31.074219 52.855469 C 31.074219 52.925781 31.054688 52.992188 31.015625 53.054688 C 30.980469 53.117188 30.921875 53.167969 30.84375 53.207031 C 30.769531 53.246094 30.667969 53.265625 30.546875 53.265625 C 30.4375 53.265625 30.34375 53.25 30.261719 53.222656 C 30.175781 53.195312 30.113281 53.152344 30.0625 53.097656 C 30.019531 53.039062 29.996094 52.96875 29.996094 52.882812 C 29.996094 52.835938 30.007812 52.789062 30.03125 52.738281 C 30.054688 52.6875 30.101562 52.636719 30.167969 52.589844 C 30.132812 52.578125 30.101562 52.5625 30.078125 52.542969 C 30.050781 52.527344 30.027344 52.507812 30.007812 52.488281 L 30.007812 52.429688 L 30.214844 52.226562 C 30.117188 52.148438 30.070312 52.042969 30.070312 51.914062 C 30.070312 51.832031 30.089844 51.761719 30.125 51.699219 C 30.164062 51.636719 30.21875 51.585938 30.285156 51.546875 C 30.355469 51.507812 30.441406 51.492188 30.546875 51.492188 C 30.613281 51.492188 30.675781 51.5 30.730469 51.519531 L 31.171875 51.519531 L 31.171875 51.667969 L 30.949219 51.679688 C 30.992188 51.75 31.015625 51.824219 31.015625 51.914062 C 31.015625 51.992188 31 52.0625 30.960938 52.128906 C 30.921875 52.191406 30.867188 52.242188 30.796875 52.277344 C 30.730469 52.316406 30.644531 52.335938 30.546875 52.335938 Z M 30.546875 52.167969 C 30.628906 52.167969 30.695312 52.148438 30.746094 52.101562 C 30.796875 52.058594 30.824219 51.996094 30.824219 51.914062 C 30.824219 51.832031 30.796875 51.769531 30.746094 51.726562 C 30.695312 51.679688 30.628906 51.660156 30.546875 51.660156 C 30.457031 51.660156 30.390625 51.679688 30.339844 51.726562 C 30.289062 51.769531 30.265625 51.832031 30.265625 51.914062 C 30.265625 51.996094 30.289062 52.058594 30.339844 52.101562 C 30.390625 52.148438 30.457031 52.167969 30.546875 52.167969 Z M 30.191406 52.863281 C 30.191406 52.945312 30.226562 53.003906 30.292969 53.039062 C 30.359375 53.078125 30.445312 53.101562 30.546875 53.101562 C 30.644531 53.101562 30.726562 53.078125 30.785156 53.035156 C 30.847656 52.992188 30.875 52.933594 30.875 52.863281 C 30.875 52.8125 30.855469 52.765625 30.8125 52.726562 C 30.773438 52.691406 30.695312 52.667969 30.582031 52.664062 C 30.496094 52.65625 30.417969 52.648438 30.355469 52.640625 C 30.289062 52.675781 30.242188 52.714844 30.222656 52.753906 C 30.203125 52.792969 30.191406 52.832031 30.191406 52.863281 Z M 30.191406 52.863281 " fill-opacity="1" fill-rule="nonzero"/><path fill="#000000" d="M 31.625 52.710938 L 31.625 50.980469 L 31.828125 50.980469 L 31.828125 51.722656 C 31.867188 51.648438 31.921875 51.59375 31.996094 51.554688 C 32.066406 51.511719 32.148438 51.492188 32.234375 51.492188 C 32.375 51.492188 32.484375 51.535156 32.566406 51.617188 C 32.648438 51.703125 32.691406 51.835938 32.691406 52.011719 L 32.691406 52.710938 L 32.492188 52.710938 L 32.492188 52.035156 C 32.492188 51.785156 32.390625 51.664062 32.191406 51.664062 C 32.085938 51.664062 32 51.699219 31.929688 51.773438 C 31.859375 51.851562 31.828125 51.957031 31.828125 52.09375 L 31.828125 52.710938 Z M 31.625 52.710938 " fill-opacity="1" fill-rule="nonzero"/><path fill="#000000" d="M 33.695312 52.710938 C 33.582031 52.710938 33.496094 52.683594 33.433594 52.632812 C 33.371094 52.578125 33.339844 52.480469 33.339844 52.34375 L 33.339844 51.691406 L 33.132812 51.691406 L 33.132812 51.519531 L 33.339844 51.519531 L 33.367188 51.234375 L 33.542969 51.234375 L 33.542969 51.519531 L 33.894531 51.519531 L 33.894531 51.691406 L 33.542969 51.691406 L 33.542969 52.34375 C 33.542969 52.417969 33.558594 52.46875 33.585938 52.496094 C 33.617188 52.523438 33.671875 52.539062 33.75 52.539062 L 33.875 52.539062 L 33.875 52.710938 Z M 33.695312 52.710938 " fill-opacity="1" fill-rule="nonzero"/><path fill="#000000" d="M 35.359375 51.257812 C 35.320312 51.257812 35.285156 51.242188 35.261719 51.214844 C 35.234375 51.1875 35.222656 51.15625 35.222656 51.117188 C 35.222656 51.078125 35.234375 51.046875 35.261719 51.023438 C 35.285156 50.996094 35.320312 50.980469 35.359375 50.980469 C 35.398438 50.980469 35.433594 50.996094 35.460938 51.023438 C 35.488281 51.046875 35.5 51.078125 35.5 51.117188 C 35.5 51.15625 35.488281 51.1875 35.460938 51.214844 C 35.433594 51.242188 35.398438 51.257812 35.359375 51.257812 Z M 35.261719 52.710938 L 35.261719 51.519531 L 35.460938 51.519531 L 35.460938 52.710938 Z M 35.261719 52.710938 " fill-opacity="1" fill-rule="nonzero"/><path fill="#000000" d="M 36.039062 52.710938 L 36.039062 51.519531 L 36.21875 51.519531 L 36.230469 51.730469 C 36.269531 51.65625 36.324219 51.597656 36.398438 51.554688 C 36.46875 51.511719 36.550781 51.492188 36.644531 51.492188 C 36.78125 51.492188 36.894531 51.535156 36.976562 51.617188 C 37.0625 51.703125 37.105469 51.835938 37.105469 52.011719 L 37.105469 52.710938 L 36.902344 52.710938 L 36.902344 52.035156 C 36.902344 51.785156 36.800781 51.664062 36.597656 51.664062 C 36.496094 51.664062 36.410156 51.699219 36.339844 51.773438 C 36.273438 51.851562 36.242188 51.957031 36.242188 52.09375 L 36.242188 52.710938 Z M 36.039062 52.710938 " fill-opacity="1" fill-rule="nonzero"/><path fill="#000000" d="M 38.511719 52.710938 L 38.511719 51.027344 L 39.546875 51.027344 L 39.546875 51.195312 L 38.710938 51.195312 L 38.710938 51.78125 L 39.476562 51.78125 L 39.476562 51.945312 L 38.710938 51.945312 L 38.710938 52.542969 L 39.546875 52.542969 L 39.546875 52.710938 Z M 38.511719 52.710938 " fill-opacity="1" fill-rule="nonzero"/><path fill="#000000" d="M 40.421875 52.710938 L 39.96875 51.519531 L 40.179688 51.519531 L 40.535156 52.515625 L 40.898438 51.519531 L 41.105469 51.519531 L 40.652344 52.710938 Z M 40.421875 52.710938 " fill-opacity="1" fill-rule="nonzero"/><path fill="#000000" d="M 42.085938 52.738281 C 41.972656 52.738281 41.871094 52.710938 41.785156 52.660156 C 41.695312 52.609375 41.628906 52.535156 41.578125 52.445312 C 41.527344 52.351562 41.503906 52.242188 41.503906 52.117188 C 41.503906 51.992188 41.527344 51.882812 41.574219 51.789062 C 41.625 51.695312 41.695312 51.621094 41.785156 51.570312 C 41.871094 51.515625 41.976562 51.492188 42.09375 51.492188 C 42.207031 51.492188 42.304688 51.515625 42.390625 51.570312 C 42.476562 51.621094 42.539062 51.691406 42.582031 51.773438 C 42.628906 51.859375 42.652344 51.949219 42.652344 52.046875 C 42.652344 52.0625 42.652344 52.082031 42.648438 52.101562 C 42.648438 52.117188 42.648438 52.136719 42.648438 52.160156 L 41.703125 52.160156 C 41.707031 52.25 41.726562 52.328125 41.765625 52.386719 C 41.800781 52.449219 41.847656 52.492188 41.90625 52.523438 C 41.964844 52.554688 42.023438 52.570312 42.085938 52.570312 C 42.167969 52.570312 42.238281 52.550781 42.296875 52.511719 C 42.351562 52.472656 42.394531 52.421875 42.417969 52.351562 L 42.617188 52.351562 C 42.585938 52.464844 42.523438 52.554688 42.433594 52.628906 C 42.34375 52.703125 42.226562 52.738281 42.085938 52.738281 Z M 42.085938 51.660156 C 41.992188 51.660156 41.90625 51.6875 41.832031 51.746094 C 41.757812 51.804688 41.714844 51.890625 41.703125 52.003906 L 42.453125 52.003906 C 42.449219 51.898438 42.410156 51.8125 42.34375 51.753906 C 42.273438 51.691406 42.1875 51.660156 42.085938 51.660156 Z M 42.085938 51.660156 " fill-opacity="1" fill-rule="nonzero"/><path fill="#000000" d="M 43.144531 52.710938 L 43.144531 51.519531 L 43.324219 51.519531 L 43.34375 51.746094 C 43.378906 51.667969 43.433594 51.605469 43.507812 51.558594 C 43.585938 51.515625 43.679688 51.492188 43.789062 51.492188 L 43.789062 51.699219 L 43.734375 51.699219 C 43.664062 51.699219 43.597656 51.710938 43.539062 51.738281 C 43.480469 51.761719 43.433594 51.804688 43.398438 51.867188 C 43.363281 51.925781 43.347656 52.003906 43.347656 52.109375 L 43.347656 52.710938 Z M 43.144531 52.710938 " fill-opacity="1" fill-rule="nonzero"/><path fill="#000000" d="M 44.367188 53.238281 L 44.664062 52.59375 L 44.597656 52.59375 L 44.121094 51.519531 L 44.339844 51.519531 L 44.734375 52.445312 L 45.152344 51.519531 L 45.363281 51.519531 L 44.582031 53.238281 Z M 44.367188 53.238281 " fill-opacity="1" fill-rule="nonzero"/><path fill="#000000" d="M 46.675781 52.710938 L 46.675781 51.027344 L 47.265625 51.027344 C 47.382812 51.027344 47.480469 51.046875 47.558594 51.085938 C 47.636719 51.121094 47.695312 51.175781 47.730469 51.242188 C 47.769531 51.304688 47.789062 51.378906 47.789062 51.457031 C 47.789062 51.566406 47.761719 51.648438 47.703125 51.710938 C 47.644531 51.773438 47.574219 51.820312 47.492188 51.84375 C 47.554688 51.855469 47.613281 51.878906 47.664062 51.917969 C 47.714844 51.957031 47.753906 52.003906 47.785156 52.0625 C 47.8125 52.117188 47.828125 52.179688 47.828125 52.25 C 47.828125 52.335938 47.808594 52.414062 47.765625 52.484375 C 47.722656 52.554688 47.664062 52.609375 47.582031 52.648438 C 47.5 52.691406 47.402344 52.710938 47.285156 52.710938 Z M 46.875 51.761719 L 47.25 51.761719 C 47.359375 51.761719 47.441406 51.738281 47.496094 51.6875 C 47.554688 51.636719 47.585938 51.566406 47.585938 51.476562 C 47.585938 51.394531 47.554688 51.324219 47.496094 51.273438 C 47.441406 51.222656 47.355469 51.195312 47.242188 51.195312 L 46.875 51.195312 Z M 46.875 52.539062 L 47.261719 52.539062 C 47.375 52.539062 47.464844 52.515625 47.527344 52.460938 C 47.589844 52.410156 47.621094 52.332031 47.621094 52.238281 C 47.621094 52.140625 47.589844 52.066406 47.523438 52.007812 C 47.457031 51.953125 47.367188 51.925781 47.257812 51.925781 L 46.875 51.925781 Z M 46.875 52.539062 " fill-opacity="1" fill-rule="nonzero"/><path fill="#000000" d="M 48.453125 51.257812 C 48.414062 51.257812 48.382812 51.242188 48.355469 51.214844 C 48.328125 51.1875 48.316406 51.15625 48.316406 51.117188 C 48.316406 51.078125 48.328125 51.046875 48.355469 51.023438 C 48.382812 50.996094 48.414062 50.980469 48.453125 50.980469 C 48.492188 50.980469 48.527344 50.996094 48.554688 51.023438 C 48.582031 51.046875 48.59375 51.078125 48.59375 51.117188 C 48.59375 51.15625 48.582031 51.1875 48.554688 51.214844 C 48.527344 51.242188 48.492188 51.257812 48.453125 51.257812 Z M 48.355469 52.710938 L 48.355469 51.519531 L 48.554688 51.519531 L 48.554688 52.710938 Z M 48.355469 52.710938 " fill-opacity="1" fill-rule="nonzero"/><path fill="#000000" d="M 49.605469 52.710938 C 49.492188 52.710938 49.40625 52.683594 49.34375 52.632812 C 49.28125 52.578125 49.25 52.480469 49.25 52.34375 L 49.25 51.691406 L 49.042969 51.691406 L 49.042969 51.519531 L 49.25 51.519531 L 49.277344 51.234375 L 49.453125 51.234375 L 49.453125 51.519531 L 49.804688 51.519531 L 49.804688 51.691406 L 49.453125 51.691406 L 49.453125 52.34375 C 49.453125 52.417969 49.46875 52.46875 49.496094 52.496094 C 49.527344 52.523438 49.582031 52.539062 49.660156 52.539062 L 49.785156 52.539062 L 49.785156 52.710938 Z M 49.605469 52.710938 " fill-opacity="1" fill-rule="nonzero"/><path fill="#000000" d="M 50.820312 52.738281 C 50.707031 52.738281 50.605469 52.710938 50.515625 52.660156 C 50.429688 52.609375 50.359375 52.535156 50.3125 52.445312 C 50.261719 52.351562 50.234375 52.242188 50.234375 52.117188 C 50.234375 51.992188 50.257812 51.882812 50.308594 51.789062 C 50.359375 51.695312 50.425781 51.621094 50.515625 51.570312 C 50.605469 51.515625 50.710938 51.492188 50.828125 51.492188 C 50.941406 51.492188 51.039062 51.515625 51.125 51.570312 C 51.207031 51.621094 51.273438 51.691406 51.316406 51.773438 C 51.363281 51.859375 51.386719 51.949219 51.386719 52.046875 C 51.386719 52.0625 51.382812 52.082031 51.382812 52.101562 C 51.382812 52.117188 51.382812 52.136719 51.382812 52.160156 L 50.4375 52.160156 C 50.441406 52.25 50.460938 52.328125 50.5 52.386719 C 50.535156 52.449219 50.582031 52.492188 50.640625 52.523438 C 50.695312 52.554688 50.757812 52.570312 50.820312 52.570312 C 50.902344 52.570312 50.972656 52.550781 51.03125 52.511719 C 51.085938 52.472656 51.125 52.421875 51.152344 52.351562 L 51.351562 52.351562 C 51.320312 52.464844 51.257812 52.554688 51.167969 52.628906 C 51.078125 52.703125 50.960938 52.738281 50.820312 52.738281 Z M 50.820312 51.660156 C 50.722656 51.660156 50.640625 51.6875 50.5625 51.746094 C 50.492188 51.804688 50.449219 51.890625 50.4375 52.003906 L 51.1875 52.003906 C 51.179688 51.898438 51.144531 51.8125 51.078125 51.753906 C 51.007812 51.691406 50.921875 51.660156 50.820312 51.660156 Z M 50.820312 51.660156 " fill-opacity="1" fill-rule="nonzero"/></svg>