<svg width="1000" height="1000" viewBox="0 0 1000 1000" fill="none" xmlns="http://www.w3.org/2000/svg">
<mask id="mask0_183_6" style="mask-type:luminance" maskUnits="userSpaceOnUse" x="165" y="424" width="673" height="232">
<path d="M165.333 424H837.135V656H165.333V424Z" fill="white"/>
</mask>
<g mask="url(#mask0_183_6)">
<path d="M464.541 654.677C421.656 654.677 383.208 649.396 359.771 637.177C317.614 615.031 302.843 603.958 301.218 592C300.416 586.094 303.093 580.302 309.489 574.281C322.281 562.177 343.302 573.177 365.5 584.844C377.843 591.333 390.604 598.021 401.364 600.271C412.718 602.635 417.396 595.802 424.156 584.542C430.916 573.292 438.854 559.74 459.104 564.021C476.416 567.719 481.156 580.115 485.083 590.083C489.573 601.75 492.031 608.167 510.812 601.448C525.093 595.927 537.646 587.729 548.479 576.865C560.135 566.354 570.198 557.271 586.448 563.135C593.635 565.865 600.198 569.677 606.146 574.583C615.479 581.74 620.177 585.354 638.812 572.844C650.968 564.729 663.541 557.344 676.562 550.698C674.531 545.531 672.218 540.438 670.021 535.531L668.437 532.063C661.083 515.938 639.916 505.708 621.135 496.708L614.375 493.458C614.687 495.99 614.718 498.531 614.489 501.073C614.25 503.615 613.75 506.104 612.979 508.531C612.208 510.969 611.187 513.292 609.916 515.5C608.646 517.719 607.156 519.76 605.448 521.656C592.614 535.646 582.031 540.958 574.791 537.042C566.896 532.76 565.718 519.104 571.343 496.448C581.593 455.292 573.729 447.729 548.666 436.542C543.583 434.375 538.291 433.156 532.781 432.885C527.271 432.604 521.885 433.302 516.614 434.958C523.677 452.115 537.531 512.469 518.271 526.229C516.646 527.531 514.812 528.344 512.76 528.667C510.698 528.979 508.708 528.76 506.771 528C494.416 522.948 487.729 495.302 482.843 468.948V468.031C481.635 463.156 479.573 458.677 476.646 454.604C473.729 450.531 470.156 447.135 465.937 444.438C463.427 442.813 460.771 441.458 457.979 440.375C455.187 439.302 452.312 438.521 449.354 438.042C446.406 437.563 443.437 437.396 440.448 437.531C437.458 437.667 434.51 438.115 431.614 438.865C429.208 439.229 426.885 439.917 424.677 440.927C422.458 441.938 420.416 443.24 418.573 444.833C416.718 446.427 415.114 448.24 413.771 450.281C412.427 452.323 411.396 454.51 410.666 456.844C425.958 461.417 444.989 481.938 454.771 501.135C462.489 516.229 463.406 528.594 457.302 535.896C445.062 550.667 425.364 535.271 407.979 521.688C399.166 514.75 390.052 507.625 382.51 504.604C364.396 497.219 337.021 486.146 305.781 547.563C302.531 554.229 298.552 560.427 293.854 566.167C289.156 571.896 283.864 577.01 277.968 581.49C272.083 585.979 265.75 589.719 258.989 592.719C252.229 595.719 245.208 597.885 237.937 599.24C225.771 601.531 213.541 601.958 201.25 600.531C188.958 599.104 177.156 595.875 165.833 590.854L168.916 584.177C203.323 600.01 269.135 603.146 299.239 544.208C330.625 482.125 359.948 487.667 385.01 497.698C393.541 501.135 403.062 508.771 412.281 515.823C431.281 530.583 444.291 539.781 451.458 531.135C455.468 526.302 454.218 516.594 448 504.458C438.187 485.188 419.781 466.885 407.948 463.854C405.041 472.271 401.843 480.833 392.104 486C386.156 489.323 381.635 489.688 378.656 487.26C377.146 486.042 374.979 483.052 376.896 476.958C377.896 474.177 379.25 471.583 380.958 469.167C382.666 466.76 384.666 464.625 386.958 462.76C389.239 460.906 391.739 459.385 394.448 458.208C397.146 457.042 399.958 456.25 402.875 455.844C406.552 445.802 412.135 435.542 429.739 431.563C433.104 430.708 436.521 430.219 439.989 430.073C443.458 429.927 446.896 430.135 450.323 430.708C453.75 431.281 457.073 432.188 460.312 433.448C463.552 434.698 466.625 436.271 469.541 438.167C474.604 441.406 478.875 445.49 482.354 450.406C485.833 455.323 488.26 460.719 489.646 466.583V467.469C495.739 500.25 502.323 518.292 509.125 521.063C509.896 521.354 510.698 521.427 511.51 521.26C512.333 521.094 513.041 520.719 513.646 520.146C527.75 510.104 516.614 453 509.156 437.063L504.781 438.615C497.437 441.198 491.698 443.26 486.885 441.823C486.198 441.708 485.541 441.469 484.937 441.125C484.323 440.771 483.791 440.333 483.343 439.792C482.885 439.26 482.541 438.656 482.291 438C482.052 437.344 481.927 436.656 481.927 435.948C481.927 430.969 488.948 427.021 495.271 425.469C498.125 424.531 501.041 424.313 504.01 424.844C506.979 425.365 509.656 426.552 512.021 428.427C518.416 426.188 525 425.177 531.771 425.406C538.541 425.625 545.041 427.063 551.271 429.719C580.385 442.708 588.791 455 578.062 498.146C572.843 519.177 574.687 528.667 578.062 530.406C581.448 532.135 589.093 528.333 599.781 516.49C601.416 514.656 602.791 512.656 603.906 510.479C605.031 508.292 605.864 506.01 606.406 503.615C606.958 501.229 607.198 498.802 607.135 496.354C607.073 493.906 606.698 491.5 606.031 489.135C595.885 483.563 588.948 478.063 588.541 470.688C588.208 464.74 591 462.938 592.687 462.375C598.5 460.458 604.416 468.583 606.698 472.156C609.104 475.917 610.958 479.927 612.281 484.188C615.958 486.146 620.073 487.885 624.114 490.021C644 499.583 666.562 510.396 674.906 528.958L676.479 532.427C678.614 537.198 680.896 542.208 682.948 547.458C712.979 533.281 744.989 525.313 769.937 536.385C783.5 542.469 792.323 552.177 800.114 560.708C815.771 577.906 826.135 589.313 864.354 564.396L868.323 570.594C824.916 598.688 810.218 582.552 794.823 565.5C787.177 557.083 779.239 548.417 767.073 542.948C744.25 532.729 714.156 540.479 685.593 554.021C689.896 567.094 691.812 580.927 685.854 593.917C678.51 610.458 659.51 622.927 628.416 632.052C574.791 646.906 520.166 654.448 464.541 654.677ZM323.531 576.5C320.104 576.313 317.104 577.365 314.521 579.635C308.5 585.323 308.208 588.865 308.5 591.01C309.854 600.938 331.354 614.031 363.146 630.604C414.927 657.625 543.406 649.427 626.323 625.188C655.239 616.698 672.552 605.552 679.166 591.042C683.979 580.49 682.583 568.896 678.948 557.531C666.479 563.979 654.416 571.146 642.781 579.01C620.729 593.771 612.864 589.083 601.583 580.448C596.239 576.021 590.343 572.563 583.875 570.083C571.739 565.719 564.396 572.333 553.291 582.333C541.739 593.854 528.364 602.542 513.166 608.385C487.802 617.542 482.698 604.365 478.218 592.781C474.541 583.177 470.864 574.104 457.562 571.26C442.604 568.052 436.937 577.458 430.437 588.344C423.937 599.24 416.875 611.01 399.896 607.5C388.104 605.031 374.875 598.094 362.114 591.406C348.26 584.031 333.562 576.5 323.531 576.5ZM400.041 463.854C397.104 464.792 394.427 466.219 392 468.115C389.573 470.021 387.552 472.292 385.937 474.927C384.51 476.885 383.677 479.083 383.437 481.5C385.323 481.24 387.073 480.604 388.687 479.583C395.01 475.885 397.698 470.385 400.041 463.854ZM596 470.385C596.885 473.51 598.718 475.885 601.51 477.51C600.052 474.844 598.208 472.469 596 470.385ZM501.406 432.073C497.968 432.198 494.75 433.115 491.771 434.844C495.073 434.229 498.281 433.313 501.406 432.073Z" fill="black"/>
</g>
<path d="M265.614 502.163L236.114 492.996L239.198 488.038L262.239 496.121L245.406 478.163L248.614 473.038L272.031 480.454L254.698 463.288L257.823 458.288L278.864 480.996L275.406 486.496L253.531 479.788L269.031 496.663L265.614 502.163Z" fill="black"/>
<path d="M295.231 459.566L281.022 431.066L285.231 426.608L314.439 439.233L310.481 443.441L303.814 440.399L295.772 448.899L299.189 455.399L295.231 459.566ZM293.731 444.899L299.689 438.608L287.689 433.233L293.731 444.899Z" fill="black"/>
<path d="M330.361 425.45L312.402 401.575L321.152 394.991C323.069 393.554 324.902 392.7 326.652 392.45C328.371 392.179 329.944 392.356 331.361 392.991C332.798 393.606 334.027 394.575 335.027 395.908C336.132 397.387 336.757 399.012 336.902 400.783C337.038 402.533 336.507 404.304 335.319 406.075L347.777 412.366L342.736 416.116L331.236 410.033L327.652 412.741L334.736 422.158L330.361 425.45ZM325.236 409.533L329.361 406.45C330.798 405.366 331.59 404.221 331.736 402.991C331.902 401.773 331.548 400.564 330.694 399.366C329.829 398.262 328.819 397.616 327.652 397.45C326.465 397.283 325.111 397.762 323.611 398.866L319.527 401.95L325.236 409.533Z" fill="black"/>
<path d="M366.127 400.549L352.794 373.799L358.544 370.924L375.544 383.633L375.502 362.466L381.294 359.591L394.627 386.341L389.711 388.799L380.502 370.341L380.419 388.674L376.544 390.633L361.794 379.633L371.002 398.091L366.127 400.549Z" fill="black"/>
<path d="M443.111 371.073L438.111 341.615L448.153 339.907C451.59 339.323 454.528 339.469 456.945 340.323C459.382 341.157 461.33 342.594 462.778 344.615C464.247 346.646 465.236 349.146 465.736 352.115C466.236 355.094 466.122 357.771 465.403 360.157C464.705 362.521 463.34 364.511 461.32 366.115C459.32 367.698 456.59 368.782 453.153 369.365L443.111 371.073ZM447.695 365.532L452.111 364.782C454.549 364.365 456.424 363.646 457.736 362.615C459.038 361.563 459.872 360.23 460.236 358.615C460.59 357.011 460.59 355.146 460.236 353.032C459.872 350.928 459.247 349.178 458.361 347.782C457.497 346.365 456.278 345.386 454.695 344.823C453.132 344.24 451.132 344.157 448.695 344.573L444.278 345.323L447.695 365.532Z" fill="black"/>
<path d="M490.235 365.25L490.151 335.375L509.651 335.333L509.693 339.75L495.651 339.791V347.958L508.401 347.916V352.208L495.651 352.25L495.693 360.875L509.735 360.833V365.208L490.235 365.25Z" fill="black"/>
<path d="M532.16 366.983L536.66 337.441L542.077 338.233L538.202 363.566L551.243 365.566L550.618 369.775L532.16 366.983Z" fill="black"/>
<path d="M572.453 375.043L580.745 346.335L585.995 347.876L577.703 376.585L572.453 375.043Z" fill="black"/>
<path d="M611.404 389.78C608.841 388.614 606.873 386.999 605.487 384.947C604.091 382.916 603.341 380.634 603.237 378.072C603.154 375.489 603.737 372.822 604.987 370.072C606.258 367.27 607.946 365.051 610.029 363.405C612.112 361.77 614.425 360.822 616.987 360.572C619.571 360.301 622.248 360.801 625.029 362.072C628.216 363.52 630.508 365.489 631.904 367.989C633.321 370.468 633.737 373.187 633.154 376.155L627.571 373.614C627.737 372.176 627.425 370.853 626.654 369.655C625.904 368.437 624.664 367.437 622.946 366.655C620.248 365.405 617.758 365.312 615.487 366.364C613.237 367.426 611.425 369.447 610.071 372.447C608.675 375.447 608.331 378.103 609.029 380.405C609.748 382.707 611.362 384.426 613.862 385.572C616.331 386.707 618.498 386.884 620.362 386.114C622.216 385.364 623.789 383.957 625.071 381.905L618.196 378.78L619.904 375.072L631.779 380.489L624.946 395.405L620.362 393.322L621.571 389.614C620.123 390.468 618.581 390.947 616.946 391.03C615.3 391.134 613.456 390.718 611.404 389.78Z" fill="black"/>
<path d="M644.233 406.646L661.317 382.146L665.817 385.271L658.733 395.438L669.692 403.105L676.775 392.938L681.275 396.063L664.192 420.563L659.692 417.438L667.15 406.771L656.192 399.105L648.733 409.771L644.233 406.646Z" fill="black"/>
<path d="M686.723 440.277L704.556 422.11L698.348 416.027L701.431 412.86L717.806 428.902L714.723 432.068L708.473 425.943L690.639 444.11L686.723 440.277Z" fill="black"/>
<path d="M716.42 474.864C715.107 473.135 714.263 471.375 713.878 469.573C713.482 467.76 713.566 466.052 714.128 464.448C714.68 462.843 715.763 461.427 717.378 460.198L720.795 464.823C719.68 465.677 719.024 466.781 718.836 468.114C718.638 469.448 719.045 470.791 720.045 472.156C720.93 473.323 721.899 474.041 722.961 474.323C724.013 474.593 725.013 474.385 725.961 473.698C726.93 472.948 727.472 472.073 727.586 471.073C727.722 470.073 727.586 468.948 727.17 467.698C726.753 466.448 726.305 465.083 725.836 463.614C725.107 461.312 724.888 459.302 725.17 457.573C725.472 455.854 726.441 454.385 728.086 453.156C729.524 452.052 731.013 451.479 732.545 451.448C734.066 451.396 735.555 451.771 737.003 452.573C738.441 453.385 739.763 454.573 740.961 456.156C742.128 457.771 742.878 459.396 743.211 461.031C743.545 462.646 743.461 464.177 742.961 465.656C742.461 467.125 741.513 468.416 740.128 469.531L736.67 464.823C737.472 464.156 737.961 463.271 738.128 462.156C738.316 461.052 738.003 459.937 737.17 458.823C736.524 457.823 735.711 457.187 734.711 456.906C733.711 456.635 732.753 456.843 731.836 457.531C731.024 458.114 730.586 458.843 730.503 459.698C730.42 460.531 730.524 461.51 730.836 462.614C731.138 463.729 731.524 464.968 732.003 466.364C732.472 467.864 732.795 469.302 732.961 470.698C733.149 472.083 733.013 473.406 732.545 474.656C732.066 475.906 731.128 477.052 729.711 478.114C728.43 479.052 727.024 479.593 725.503 479.739C723.972 479.906 722.399 479.583 720.795 478.781C719.211 478 717.753 476.698 716.42 474.864Z" fill="black"/>
<path d="M333.88 702.789V680.372H340.755C344.692 680.372 347.599 681.393 349.463 683.414C351.317 685.414 352.255 688.164 352.255 691.664C352.255 695.08 351.317 697.789 349.463 699.789C347.599 701.789 344.692 702.789 340.755 702.789H333.88ZM336.547 700.539H340.672C342.859 700.539 344.599 700.195 345.88 699.497C347.182 698.778 348.109 697.747 348.672 696.414C349.224 695.08 349.505 693.497 349.505 691.664C349.505 689.778 349.224 688.164 348.672 686.83C348.109 685.476 347.182 684.435 345.88 683.705C344.599 682.987 342.859 682.622 340.672 682.622H336.547V700.539Z" fill="black"/>
<path d="M366.119 703.164C364.619 703.164 363.265 702.81 362.077 702.122C360.91 701.435 359.994 700.476 359.327 699.247C358.66 697.997 358.327 696.539 358.327 694.872C358.327 693.205 358.64 691.747 359.285 690.497C359.952 689.247 360.879 688.278 362.077 687.58C363.265 686.893 364.64 686.539 366.202 686.539C367.723 686.539 369.046 686.893 370.16 687.58C371.296 688.278 372.16 689.195 372.744 690.33C373.348 691.445 373.66 692.653 373.66 693.955C373.66 694.185 373.64 694.414 373.619 694.664C373.619 694.893 373.619 695.153 373.619 695.455H360.994C361.046 696.685 361.327 697.695 361.827 698.497C362.327 699.31 362.952 699.914 363.702 700.33C364.473 700.726 365.285 700.914 366.119 700.914C367.223 700.914 368.16 700.664 368.91 700.164C369.66 699.643 370.202 698.935 370.535 698.039H373.202C372.785 699.518 371.963 700.737 370.744 701.705C369.546 702.685 368.004 703.164 366.119 703.164ZM366.119 688.789C364.838 688.789 363.702 689.185 362.702 689.955C361.723 690.737 361.16 691.872 360.994 693.372H370.994C370.931 691.955 370.452 690.851 369.535 690.039C368.619 689.205 367.473 688.789 366.119 688.789Z" fill="black"/>
<path d="M380.21 702.789V679.747H382.918V702.789H380.21Z" fill="black"/>
<path d="M391.947 683.414C391.415 683.414 390.967 683.237 390.613 682.872C390.28 682.518 390.113 682.07 390.113 681.539C390.113 681.039 390.28 680.622 390.613 680.289C390.967 679.935 391.415 679.747 391.947 679.747C392.467 679.747 392.915 679.935 393.28 680.289C393.634 680.622 393.822 681.039 393.822 681.539C393.822 682.07 393.634 682.518 393.28 682.872C392.915 683.237 392.467 683.414 391.947 683.414ZM390.613 702.789V686.914H393.28V702.789H390.613Z" fill="black"/>
<path d="M407.269 697.789C406.352 697.789 405.519 697.685 404.769 697.455L403.186 698.955C403.404 699.122 403.696 699.268 404.061 699.372C404.415 699.487 404.915 699.601 405.561 699.705C406.227 699.789 407.154 699.893 408.352 699.997C410.488 700.164 412.019 700.664 412.936 701.497C413.852 702.31 414.311 703.382 414.311 704.747C414.311 705.664 414.061 706.539 413.561 707.372C413.061 708.205 412.29 708.882 411.269 709.414C410.238 709.935 408.904 710.205 407.269 710.205C405.852 710.205 404.581 710.007 403.477 709.622C402.363 709.257 401.488 708.705 400.852 707.955C400.238 707.205 399.936 706.247 399.936 705.08C399.936 704.497 400.081 703.851 400.394 703.164C400.727 702.476 401.331 701.82 402.227 701.205C401.748 701.018 401.352 700.81 401.019 700.58C400.686 700.362 400.373 700.112 400.102 699.83V699.08L402.852 696.372C401.571 695.32 400.936 693.914 400.936 692.164C400.936 691.112 401.186 690.164 401.686 689.33C402.186 688.476 402.894 687.789 403.811 687.289C404.748 686.789 405.904 686.539 407.269 686.539C408.186 686.539 408.998 686.664 409.727 686.914H415.602V688.914L412.644 689.08C413.248 689.976 413.561 690.997 413.561 692.164C413.561 693.226 413.311 694.185 412.811 695.039C412.311 695.872 411.581 696.539 410.644 697.039C409.727 697.539 408.602 697.789 407.269 697.789ZM407.269 695.58C408.373 695.58 409.269 695.289 409.936 694.705C410.623 694.122 410.977 693.278 410.977 692.164C410.977 691.08 410.623 690.247 409.936 689.664C409.269 689.08 408.373 688.789 407.269 688.789C406.102 688.789 405.186 689.08 404.519 689.664C403.852 690.247 403.519 691.08 403.519 692.164C403.519 693.278 403.852 694.122 404.519 694.705C405.186 695.289 406.102 695.58 407.269 695.58ZM402.561 704.83C402.561 705.914 402.998 706.705 403.894 707.205C404.811 707.726 405.936 707.997 407.269 707.997C408.602 707.997 409.665 707.705 410.477 707.122C411.279 706.56 411.686 705.799 411.686 704.83C411.686 704.164 411.404 703.56 410.852 703.039C410.29 702.539 409.269 702.247 407.769 702.164C406.602 702.08 405.581 701.987 404.727 701.872C403.831 702.351 403.248 702.841 402.977 703.372C402.696 703.924 402.561 704.414 402.561 704.83Z" fill="black"/>
<path d="M421.649 702.789V679.747H424.358V689.622C424.879 688.653 425.629 687.903 426.608 687.372C427.576 686.82 428.649 686.539 429.816 686.539C431.649 686.539 433.118 687.112 434.233 688.247C435.337 689.393 435.899 691.143 435.899 693.497V702.789H433.233V693.789C433.233 690.487 431.899 688.83 429.233 688.83C427.837 688.83 426.67 689.33 425.733 690.33C424.816 691.33 424.358 692.747 424.358 694.58V702.789H421.649Z" fill="black"/>
<path d="M449.253 702.789C447.774 702.789 446.628 702.445 445.795 701.747C444.962 701.028 444.545 699.747 444.545 697.914V689.205H441.795V686.914H444.545L444.92 683.122H447.253V686.914H451.92V689.205H447.253V697.914C447.253 698.914 447.441 699.601 447.837 699.955C448.253 700.32 448.972 700.497 450.003 700.497H451.67V702.789H449.253Z" fill="black"/>
<path d="M471.467 683.414C470.936 683.414 470.488 683.237 470.134 682.872C469.8 682.518 469.634 682.07 469.634 681.539C469.634 681.039 469.8 680.622 470.134 680.289C470.488 679.935 470.936 679.747 471.467 679.747C471.988 679.747 472.436 679.935 472.8 680.289C473.155 680.622 473.342 681.039 473.342 681.539C473.342 682.07 473.155 682.518 472.8 682.872C472.436 683.237 471.988 683.414 471.467 683.414ZM470.134 702.789V686.914H472.8V702.789H470.134Z" fill="black"/>
<path d="M480.498 702.789V686.914H482.915L483.081 689.747C483.602 688.747 484.342 687.976 485.29 687.414C486.258 686.83 487.352 686.539 488.581 686.539C490.436 686.539 491.925 687.112 493.04 688.247C494.175 689.393 494.748 691.143 494.748 693.497V702.789H492.04V693.789C492.04 690.487 490.675 688.83 487.956 688.83C486.592 688.83 485.456 689.33 484.54 690.33C483.644 691.33 483.206 692.747 483.206 694.58V702.789H480.498Z" fill="black"/>
<path d="M513.465 702.789V680.372H527.298V682.58H516.132V690.414H526.34V692.58H516.132V700.58H527.298V702.789H513.465Z" fill="black"/>
<path d="M538.937 702.789L532.896 686.914H535.729L540.479 700.205L545.312 686.914H548.062L542.021 702.789H538.937Z" fill="black"/>
<path d="M561.159 703.164C559.659 703.164 558.305 702.81 557.117 702.122C555.951 701.435 555.034 700.476 554.367 699.247C553.701 697.997 553.367 696.539 553.367 694.872C553.367 693.205 553.68 691.747 554.326 690.497C554.992 689.247 555.919 688.278 557.117 687.58C558.305 686.893 559.68 686.539 561.242 686.539C562.763 686.539 564.086 686.893 565.201 687.58C566.336 688.278 567.201 689.195 567.784 690.33C568.388 691.445 568.701 692.653 568.701 693.955C568.701 694.185 568.68 694.414 568.659 694.664C568.659 694.893 568.659 695.153 568.659 695.455H556.034C556.086 696.685 556.367 697.695 556.867 698.497C557.367 699.31 557.992 699.914 558.742 700.33C559.513 700.726 560.326 700.914 561.159 700.914C562.263 700.914 563.201 700.664 563.951 700.164C564.701 699.643 565.242 698.935 565.576 698.039H568.242C567.826 699.518 567.003 700.737 565.784 701.705C564.586 702.685 563.044 703.164 561.159 703.164ZM561.159 688.789C559.878 688.789 558.742 689.185 557.742 689.955C556.763 690.737 556.201 691.872 556.034 693.372H566.034C565.971 691.955 565.492 690.851 564.576 690.039C563.659 689.205 562.513 688.789 561.159 688.789Z" fill="black"/>
<path d="M575.25 702.789V686.914H577.667L577.917 689.955C578.385 688.903 579.125 688.07 580.125 687.455C581.146 686.851 582.396 686.539 583.875 686.539V689.33H583.125C582.177 689.33 581.302 689.497 580.5 689.83C579.719 690.164 579.094 690.737 578.625 691.539C578.177 692.32 577.958 693.403 577.958 694.789V702.789H575.25Z" fill="black"/>
<path d="M591.583 709.83L595.541 701.247H594.624L588.291 686.914H591.208L596.458 699.289L602.041 686.914H604.833L594.416 709.83H591.583Z" fill="black"/>
<path d="M622.329 702.789V680.372H630.204C631.787 680.372 633.09 680.622 634.121 681.122C635.142 681.622 635.912 682.32 636.412 683.205C636.933 684.07 637.204 685.028 637.204 686.08C637.204 687.528 636.808 688.664 636.037 689.497C635.256 690.33 634.329 690.914 633.246 691.247C634.079 691.393 634.829 691.726 635.496 692.247C636.183 692.747 636.725 693.393 637.121 694.164C637.506 694.914 637.704 695.747 637.704 696.664C637.704 697.81 637.423 698.851 636.871 699.789C636.308 700.705 635.496 701.445 634.412 701.997C633.329 702.528 632.006 702.789 630.454 702.789H622.329ZM624.996 690.164H629.996C631.433 690.164 632.537 689.83 633.287 689.164C634.058 688.497 634.454 687.57 634.454 686.372C634.454 685.237 634.058 684.33 633.287 683.664C632.537 682.976 631.412 682.622 629.912 682.622H624.996V690.164ZM624.996 700.539H630.162C631.683 700.539 632.871 700.195 633.704 699.497C634.537 698.778 634.954 697.778 634.954 696.497C634.954 695.226 634.506 694.205 633.621 693.455C632.756 692.705 631.579 692.33 630.079 692.33H624.996V700.539Z" fill="black"/>
<path d="M646.059 683.414C645.528 683.414 645.08 683.237 644.726 682.872C644.392 682.518 644.226 682.07 644.226 681.539C644.226 681.039 644.392 680.622 644.726 680.289C645.08 679.935 645.528 679.747 646.059 679.747C646.58 679.747 647.028 679.935 647.392 680.289C647.746 680.622 647.934 681.039 647.934 681.539C647.934 682.07 647.746 682.518 647.392 682.872C647.028 683.237 646.58 683.414 646.059 683.414ZM644.726 702.789V686.914H647.392V702.789H644.726Z" fill="black"/>
<path d="M661.382 702.789C659.903 702.789 658.757 702.445 657.924 701.747C657.09 701.028 656.674 699.747 656.674 697.914V689.205H653.924V686.914H656.674L657.049 683.122H659.382V686.914H664.049V689.205H659.382V697.914C659.382 698.914 659.57 699.601 659.965 699.955C660.382 700.32 661.101 700.497 662.132 700.497H663.799V702.789H661.382Z" fill="black"/>
<path d="M677.607 703.164C676.107 703.164 674.753 702.81 673.565 702.122C672.399 701.435 671.482 700.476 670.815 699.247C670.149 697.997 669.815 696.539 669.815 694.872C669.815 693.205 670.128 691.747 670.774 690.497C671.44 689.247 672.368 688.278 673.565 687.58C674.753 686.893 676.128 686.539 677.69 686.539C679.211 686.539 680.534 686.893 681.649 687.58C682.784 688.278 683.649 689.195 684.232 690.33C684.836 691.445 685.149 692.653 685.149 693.955C685.149 694.185 685.128 694.414 685.107 694.664C685.107 694.893 685.107 695.153 685.107 695.455H672.482C672.534 696.685 672.815 697.695 673.315 698.497C673.815 699.31 674.44 699.914 675.19 700.33C675.961 700.726 676.774 700.914 677.607 700.914C678.711 700.914 679.649 700.664 680.399 700.164C681.149 699.643 681.69 698.935 682.024 698.039H684.69C684.274 699.518 683.451 700.737 682.232 701.705C681.034 702.685 679.493 703.164 677.607 703.164ZM677.607 688.789C676.326 688.789 675.19 689.185 674.19 689.955C673.211 690.737 672.649 691.872 672.482 693.372H682.482C682.42 691.955 681.94 690.851 681.024 690.039C680.107 689.205 678.961 688.789 677.607 688.789Z" fill="black"/>
</svg>
