<svg xmlns="http://www.w3.org/2000/svg" xmlns:xlink="http://www.w3.org/1999/xlink" width="500" zoomAndPan="magnify" viewBox="0 0 375 374.999991" height="500" preserveAspectRatio="xMidYMid meet" version="1.0"><defs><g/><clipPath id="188109468e"><path d="M 62 159 L 313.925781 159 L 313.925781 246 L 62 246 Z M 62 159 " clip-rule="nonzero"/></clipPath></defs><g clip-path="url(#188109468e)"><path fill="#000000" d="M 174.203125 245.503906 C 158.121094 245.503906 143.703125 243.523438 134.914062 238.941406 C 119.105469 230.636719 113.566406 226.484375 112.957031 222 C 112.65625 219.785156 113.660156 217.613281 116.058594 215.355469 C 120.855469 210.816406 128.738281 214.941406 137.0625 219.316406 C 141.691406 221.75 146.476562 224.257812 150.511719 225.101562 C 154.769531 225.988281 156.523438 223.425781 159.058594 219.203125 C 161.59375 214.984375 164.570312 209.902344 172.164062 211.507812 C 178.65625 212.894531 180.433594 217.542969 181.90625 221.28125 C 183.589844 225.65625 184.511719 228.0625 191.554688 225.542969 C 196.910156 223.472656 201.617188 220.398438 205.679688 216.324219 C 210.050781 212.382812 213.824219 208.976562 219.917969 211.175781 C 222.613281 212.199219 225.074219 213.628906 227.304688 215.46875 C 230.804688 218.152344 232.566406 219.507812 239.554688 214.816406 C 244.113281 211.773438 248.828125 209.003906 253.710938 206.511719 C 252.949219 204.574219 252.082031 202.664062 251.257812 200.824219 L 250.664062 199.523438 C 247.90625 193.476562 239.96875 189.640625 232.925781 186.265625 L 230.390625 185.046875 C 230.507812 185.996094 230.519531 186.949219 230.433594 187.902344 C 230.34375 188.855469 230.15625 189.789062 229.867188 190.699219 C 229.578125 191.613281 229.195312 192.484375 228.71875 193.3125 C 228.242188 194.144531 227.683594 194.910156 227.042969 195.621094 C 222.230469 200.867188 218.261719 202.859375 215.546875 201.390625 C 212.585938 199.785156 212.144531 194.664062 214.253906 186.167969 C 218.097656 170.734375 215.148438 167.898438 205.75 163.703125 C 203.84375 162.890625 201.859375 162.433594 199.792969 162.332031 C 197.726562 162.226562 195.707031 162.488281 193.730469 163.109375 C 196.378906 169.542969 201.574219 192.175781 194.351562 197.335938 C 193.742188 197.824219 193.054688 198.128906 192.285156 198.25 C 191.511719 198.367188 190.765625 198.285156 190.039062 198 C 185.40625 196.105469 182.898438 185.738281 181.066406 175.855469 L 181.066406 175.511719 C 180.613281 173.683594 179.839844 172.003906 178.742188 170.476562 C 177.648438 168.949219 176.308594 167.675781 174.726562 166.664062 C 173.785156 166.054688 172.789062 165.546875 171.742188 165.140625 C 170.695312 164.738281 169.617188 164.445312 168.507812 164.265625 C 167.402344 164.085938 166.289062 164.023438 165.167969 164.074219 C 164.046875 164.125 162.941406 164.292969 161.855469 164.574219 C 160.953125 164.710938 160.082031 164.96875 159.253906 165.347656 C 158.421875 165.726562 157.65625 166.214844 156.964844 166.8125 C 156.269531 167.410156 155.667969 168.089844 155.164062 168.855469 C 154.660156 169.621094 154.273438 170.441406 154 171.316406 C 159.734375 173.03125 166.871094 180.726562 170.539062 187.925781 C 173.433594 193.585938 173.777344 198.222656 171.488281 200.960938 C 166.898438 206.5 159.511719 200.726562 152.992188 195.632812 C 149.6875 193.03125 146.269531 190.359375 143.441406 189.226562 C 136.648438 186.457031 126.382812 182.304688 114.667969 205.335938 C 113.449219 207.835938 111.957031 210.160156 110.195312 212.3125 C 108.433594 214.460938 106.449219 216.378906 104.238281 218.058594 C 102.03125 219.742188 99.65625 221.144531 97.121094 222.269531 C 94.585938 223.394531 91.953125 224.207031 89.226562 224.714844 C 84.664062 225.574219 80.078125 225.734375 75.46875 225.199219 C 70.859375 224.664062 66.433594 223.453125 62.1875 221.570312 L 63.34375 219.066406 C 76.246094 225.003906 100.925781 226.179688 112.214844 204.078125 C 123.984375 180.796875 134.980469 182.875 144.378906 186.636719 C 147.578125 187.925781 151.148438 190.789062 154.605469 193.433594 C 161.730469 198.96875 166.609375 202.417969 169.296875 199.175781 C 170.800781 197.363281 170.332031 193.722656 168 189.171875 C 164.320312 181.945312 157.417969 175.082031 152.980469 173.945312 C 151.890625 177.101562 150.691406 180.3125 147.039062 182.25 C 144.808594 183.496094 143.113281 183.632812 141.996094 182.722656 C 141.429688 182.265625 140.617188 181.144531 141.335938 178.859375 C 141.710938 177.816406 142.21875 176.84375 142.859375 175.9375 C 143.5 175.035156 144.25 174.234375 145.109375 173.535156 C 145.964844 172.839844 146.902344 172.269531 147.917969 171.828125 C 148.929688 171.390625 149.984375 171.09375 151.078125 170.941406 C 152.457031 167.175781 154.550781 163.328125 161.152344 161.835938 C 162.414062 161.515625 163.695312 161.332031 164.996094 161.277344 C 166.296875 161.222656 167.585938 161.300781 168.871094 161.515625 C 170.15625 161.730469 171.402344 162.070312 172.617188 162.542969 C 173.832031 163.011719 174.984375 163.601562 176.078125 164.3125 C 177.976562 165.527344 179.578125 167.058594 180.882812 168.902344 C 182.1875 170.746094 183.097656 172.769531 183.617188 174.96875 L 183.617188 175.300781 C 185.902344 187.59375 188.371094 194.359375 190.921875 195.398438 C 191.210938 195.507812 191.511719 195.535156 191.816406 195.472656 C 192.125 195.410156 192.390625 195.269531 192.617188 195.054688 C 197.90625 191.289062 193.730469 169.875 190.933594 163.898438 L 189.292969 164.480469 C 186.539062 165.449219 184.386719 166.222656 182.582031 165.683594 C 182.324219 165.640625 182.078125 165.550781 181.851562 165.421875 C 181.621094 165.289062 181.421875 165.125 181.253906 164.921875 C 181.082031 164.722656 180.953125 164.496094 180.859375 164.25 C 180.769531 164.003906 180.722656 163.746094 180.722656 163.480469 C 180.722656 161.613281 183.355469 160.132812 185.726562 159.550781 C 186.796875 159.199219 187.890625 159.117188 189.003906 159.316406 C 190.117188 159.511719 191.121094 159.957031 192.007812 160.660156 C 194.40625 159.820312 196.875 159.441406 199.414062 159.527344 C 201.953125 159.609375 204.390625 160.148438 206.726562 161.144531 C 217.644531 166.015625 220.796875 170.625 216.773438 186.804688 C 214.816406 194.691406 215.507812 198.25 216.773438 198.902344 C 218.042969 199.550781 220.910156 198.125 224.917969 193.683594 C 225.53125 192.996094 226.046875 192.246094 226.464844 191.429688 C 226.886719 190.609375 227.199219 189.753906 227.402344 188.855469 C 227.609375 187.960938 227.699219 187.050781 227.675781 186.132812 C 227.652344 185.214844 227.511719 184.3125 227.261719 183.425781 C 223.457031 181.335938 220.855469 179.273438 220.703125 176.507812 C 220.578125 174.277344 221.625 173.601562 222.257812 173.390625 C 224.4375 172.671875 226.65625 175.71875 227.511719 177.058594 C 228.414062 178.46875 229.109375 179.972656 229.605469 181.570312 C 230.984375 182.304688 232.527344 182.957031 234.042969 183.757812 C 241.5 187.34375 249.960938 191.398438 253.089844 198.359375 L 253.679688 199.660156 C 254.480469 201.449219 255.335938 203.328125 256.105469 205.296875 C 267.367188 199.980469 279.371094 196.992188 288.726562 201.144531 C 293.8125 203.425781 297.121094 207.066406 300.042969 210.265625 C 305.914062 216.714844 309.800781 220.992188 324.132812 211.648438 L 325.621094 213.972656 C 309.34375 224.507812 303.832031 218.457031 298.058594 212.0625 C 295.191406 208.90625 292.214844 205.65625 287.652344 203.605469 C 279.09375 199.773438 267.808594 202.679688 257.097656 207.757812 C 258.710938 212.660156 259.429688 217.847656 257.195312 222.71875 C 254.441406 228.921875 247.316406 233.597656 235.65625 237.019531 C 215.546875 242.589844 195.0625 245.417969 174.203125 245.503906 Z M 121.324219 216.1875 C 120.039062 216.117188 118.914062 216.511719 117.945312 217.363281 C 115.6875 219.496094 115.578125 220.824219 115.6875 221.628906 C 116.195312 225.351562 124.257812 230.261719 136.179688 236.476562 C 155.597656 246.609375 203.777344 243.535156 234.871094 234.445312 C 245.714844 231.261719 252.207031 227.082031 254.6875 221.640625 C 256.492188 217.683594 255.96875 213.335938 254.605469 209.074219 C 249.929688 211.492188 245.40625 214.179688 241.042969 217.128906 C 232.773438 222.664062 229.824219 220.90625 225.59375 217.667969 C 223.589844 216.007812 221.378906 214.710938 218.953125 213.78125 C 214.402344 212.144531 211.648438 214.625 207.484375 218.375 C 203.152344 222.695312 198.136719 225.953125 192.4375 228.144531 C 182.925781 231.578125 181.011719 226.636719 179.332031 222.292969 C 177.953125 218.691406 176.574219 215.289062 171.585938 214.222656 C 165.976562 213.019531 163.851562 216.546875 161.414062 220.628906 C 158.976562 224.714844 156.328125 229.128906 149.960938 227.8125 C 145.539062 226.886719 140.578125 224.285156 135.792969 221.777344 C 130.597656 219.011719 125.085938 216.1875 121.324219 216.1875 Z M 150.015625 173.945312 C 148.914062 174.296875 147.910156 174.832031 147 175.542969 C 146.089844 176.257812 145.332031 177.109375 144.726562 178.097656 C 144.191406 178.832031 143.878906 179.65625 143.789062 180.5625 C 144.496094 180.464844 145.152344 180.226562 145.757812 179.84375 C 148.128906 178.457031 149.136719 176.394531 150.015625 173.945312 Z M 223.5 176.394531 C 223.832031 177.566406 224.519531 178.457031 225.566406 179.066406 C 225.019531 178.066406 224.328125 177.175781 223.5 176.394531 Z M 188.027344 162.027344 C 186.738281 162.074219 185.53125 162.417969 184.414062 163.066406 C 185.652344 162.835938 186.855469 162.492188 188.027344 162.027344 Z M 188.027344 162.027344 " fill-opacity="1" fill-rule="nonzero"/></g><g fill="#000000" fill-opacity="1"><g transform="translate(97.824189, 191.154736)"><g><path d="M 1.78125 -2.84375 L -9.28125 -6.28125 L -8.125 -8.140625 L 0.515625 -5.109375 L -5.796875 -11.84375 L -4.59375 -13.765625 L 4.1875 -10.984375 L -2.3125 -17.421875 L -1.140625 -19.296875 L 6.75 -10.78125 L 5.453125 -8.71875 L -2.75 -11.234375 L 3.0625 -4.90625 Z M 1.78125 -2.84375 "/></g></g></g><g fill="#000000" fill-opacity="1"><g transform="translate(110.461677, 172.602808)"><g><path d="M 0.25 -0.265625 L -5.078125 -10.953125 L -3.5 -12.625 L 7.453125 -7.890625 L 5.96875 -6.3125 L 3.46875 -7.453125 L 0.453125 -4.265625 L 1.734375 -1.828125 Z M -0.3125 -5.765625 L 1.921875 -8.125 L -2.578125 -10.140625 Z M -0.3125 -5.765625 "/></g></g></g><g fill="#000000" fill-opacity="1"><g transform="translate(123.010374, 160.19992)"><g><path d="M 0.875 -0.65625 L -5.859375 -9.609375 L -2.578125 -12.078125 C -1.859375 -12.617188 -1.171875 -12.9375 -0.515625 -13.03125 C 0.128906 -13.132812 0.71875 -13.066406 1.25 -12.828125 C 1.789062 -12.597656 2.25 -12.234375 2.625 -11.734375 C 3.039062 -11.179688 3.273438 -10.570312 3.328125 -9.90625 C 3.378906 -9.25 3.179688 -8.585938 2.734375 -7.921875 L 7.40625 -5.5625 L 5.515625 -4.15625 L 1.203125 -6.4375 L -0.140625 -5.421875 L 2.515625 -1.890625 Z M -1.046875 -6.625 L 0.5 -7.78125 C 1.039062 -8.1875 1.335938 -8.617188 1.390625 -9.078125 C 1.453125 -9.535156 1.320312 -9.988281 1 -10.4375 C 0.675781 -10.851562 0.296875 -11.09375 -0.140625 -11.15625 C -0.585938 -11.21875 -1.09375 -11.039062 -1.65625 -10.625 L -3.1875 -9.46875 Z M -1.046875 -6.625 "/></g></g></g><g fill="#000000" fill-opacity="1"><g transform="translate(136.313326, 150.690348)"><g><path d="M 0.984375 -0.484375 L -4.015625 -10.515625 L -1.859375 -11.59375 L 4.515625 -6.828125 L 4.5 -14.765625 L 6.671875 -15.84375 L 11.671875 -5.8125 L 9.828125 -4.890625 L 6.375 -11.8125 L 6.34375 -4.9375 L 4.890625 -4.203125 L -0.640625 -8.328125 L 2.8125 -1.40625 Z M 0.984375 -0.484375 "/></g></g></g><g fill="#000000" fill-opacity="1"><g transform="translate(155.140112, 142.307791)"><g/></g></g><g fill="#000000" fill-opacity="1"><g transform="translate(165.088478, 139.340048)"><g><path d="M 1.078125 -0.1875 L -0.796875 -11.234375 L 2.96875 -11.875 C 4.257812 -12.09375 5.359375 -12.039062 6.265625 -11.71875 C 7.179688 -11.40625 7.910156 -10.867188 8.453125 -10.109375 C 9.003906 -9.347656 9.375 -8.410156 9.5625 -7.296875 C 9.75 -6.179688 9.707031 -5.175781 9.4375 -4.28125 C 9.175781 -3.394531 8.664062 -2.648438 7.90625 -2.046875 C 7.15625 -1.453125 6.132812 -1.046875 4.84375 -0.828125 Z M 2.796875 -2.265625 L 4.453125 -2.546875 C 5.367188 -2.703125 6.070312 -2.972656 6.5625 -3.359375 C 7.050781 -3.753906 7.363281 -4.253906 7.5 -4.859375 C 7.632812 -5.460938 7.632812 -6.160156 7.5 -6.953125 C 7.363281 -7.742188 7.128906 -8.398438 6.796875 -8.921875 C 6.472656 -9.453125 6.015625 -9.820312 5.421875 -10.03125 C 4.835938 -10.25 4.085938 -10.28125 3.171875 -10.125 L 1.515625 -9.84375 Z M 2.796875 -2.265625 "/></g></g></g><g fill="#000000" fill-opacity="1"><g transform="translate(182.744191, 136.968611)"><g><path d="M 1.09375 0 L 1.0625 -11.203125 L 8.375 -11.21875 L 8.390625 -9.5625 L 3.125 -9.546875 L 3.125 -6.484375 L 7.90625 -6.5 L 7.90625 -4.890625 L 3.125 -4.875 L 3.140625 -1.640625 L 8.40625 -1.65625 L 8.40625 -0.015625 Z M 1.09375 0 "/></g></g></g><g fill="#000000" fill-opacity="1"><g transform="translate(198.481875, 137.44678)"><g><path d="M 1.078125 0.171875 L 2.765625 -10.90625 L 4.796875 -10.609375 L 3.34375 -1.109375 L 8.234375 -0.359375 L 8 1.21875 Z M 1.078125 0.171875 "/></g></g></g><g fill="#000000" fill-opacity="1"><g transform="translate(213.623237, 140.344208)"><g><path d="M 1.046875 0.296875 L 4.15625 -10.46875 L 6.125 -9.890625 L 3.015625 0.875 Z M 1.046875 0.296875 "/></g></g></g><g fill="#000000" fill-opacity="1"><g transform="translate(223.917082, 143.511338)"><g><path d="M 5.359375 2.65625 C 4.398438 2.21875 3.660156 1.613281 3.140625 0.84375 C 2.617188 0.0820312 2.335938 -0.773438 2.296875 -1.734375 C 2.265625 -2.703125 2.484375 -3.703125 2.953125 -4.734375 C 3.429688 -5.785156 4.0625 -6.617188 4.84375 -7.234375 C 5.625 -7.847656 6.492188 -8.203125 7.453125 -8.296875 C 8.421875 -8.398438 9.425781 -8.210938 10.46875 -7.734375 C 11.664062 -7.191406 12.523438 -6.453125 13.046875 -5.515625 C 13.578125 -4.585938 13.734375 -3.566406 13.515625 -2.453125 L 11.421875 -3.40625 C 11.484375 -3.945312 11.367188 -4.441406 11.078125 -4.890625 C 10.796875 -5.347656 10.332031 -5.722656 9.6875 -6.015625 C 8.675781 -6.484375 7.742188 -6.519531 6.890625 -6.125 C 6.046875 -5.726562 5.367188 -4.96875 4.859375 -3.84375 C 4.335938 -2.71875 4.207031 -1.722656 4.46875 -0.859375 C 4.738281 0.00390625 5.34375 0.648438 6.28125 1.078125 C 7.207031 1.503906 8.019531 1.570312 8.71875 1.28125 C 9.414062 1 10.003906 0.472656 10.484375 -0.296875 L 7.90625 -1.46875 L 8.546875 -2.859375 L 13 -0.828125 L 10.4375 4.765625 L 8.71875 3.984375 L 9.171875 2.59375 C 8.628906 2.914062 8.050781 3.09375 7.4375 3.125 C 6.820312 3.164062 6.128906 3.007812 5.359375 2.65625 Z M 5.359375 2.65625 "/></g></g></g><g fill="#000000" fill-opacity="1"><g transform="translate(240.696836, 151.867357)"><g><path d="M 0.890625 0.625 L 7.296875 -8.5625 L 8.984375 -7.390625 L 6.328125 -3.578125 L 10.4375 -0.703125 L 13.09375 -4.515625 L 14.78125 -3.34375 L 8.375 5.84375 L 6.6875 4.671875 L 9.484375 0.671875 L 5.375 -2.203125 L 2.578125 1.796875 Z M 0.890625 0.625 "/></g></g></g><g fill="#000000" fill-opacity="1"><g transform="translate(254.880194, 162.509927)"><g><path d="M 2.640625 2.59375 L 9.328125 -4.21875 L 7 -6.5 L 8.15625 -7.6875 L 14.296875 -1.671875 L 13.140625 -0.484375 L 10.796875 -2.78125 L 4.109375 4.03125 Z M 2.640625 2.59375 "/></g></g></g><g fill="#000000" fill-opacity="1"><g transform="translate(265.891631, 174.027218)"><g><path d="M 2.765625 4.046875 C 2.273438 3.398438 1.957031 2.738281 1.8125 2.0625 C 1.664062 1.382812 1.695312 0.742188 1.90625 0.140625 C 2.113281 -0.460938 2.519531 -0.992188 3.125 -1.453125 L 4.40625 0.28125 C 3.988281 0.601562 3.742188 1.015625 3.671875 1.515625 C 3.597656 2.015625 3.75 2.519531 4.125 3.03125 C 4.457031 3.46875 4.820312 3.738281 5.21875 3.84375 C 5.613281 3.945312 5.988281 3.867188 6.34375 3.609375 C 6.707031 3.328125 6.910156 3 6.953125 2.625 C 7.003906 2.25 6.953125 1.828125 6.796875 1.359375 C 6.640625 0.890625 6.472656 0.378906 6.296875 -0.171875 C 6.023438 -1.035156 5.941406 -1.789062 6.046875 -2.4375 C 6.160156 -3.082031 6.523438 -3.632812 7.140625 -4.09375 C 7.679688 -4.507812 8.238281 -4.722656 8.8125 -4.734375 C 9.382812 -4.753906 9.941406 -4.613281 10.484375 -4.3125 C 11.023438 -4.007812 11.519531 -3.5625 11.96875 -2.96875 C 12.40625 -2.363281 12.6875 -1.753906 12.8125 -1.140625 C 12.9375 -0.535156 12.90625 0.0390625 12.71875 0.59375 C 12.53125 1.144531 12.175781 1.628906 11.65625 2.046875 L 10.359375 0.28125 C 10.660156 0.03125 10.84375 -0.300781 10.90625 -0.71875 C 10.976562 -1.132812 10.859375 -1.550781 10.546875 -1.96875 C 10.304688 -2.34375 10 -2.582031 9.625 -2.6875 C 9.25 -2.789062 8.890625 -2.710938 8.546875 -2.453125 C 8.242188 -2.234375 8.078125 -1.960938 8.046875 -1.640625 C 8.015625 -1.328125 8.054688 -0.960938 8.171875 -0.546875 C 8.285156 -0.128906 8.429688 0.335938 8.609375 0.859375 C 8.785156 1.421875 8.90625 1.960938 8.96875 2.484375 C 9.039062 3.003906 8.988281 3.5 8.8125 3.96875 C 8.632812 4.4375 8.28125 4.867188 7.75 5.265625 C 7.269531 5.617188 6.742188 5.820312 6.171875 5.875 C 5.597656 5.9375 5.007812 5.816406 4.40625 5.515625 C 3.8125 5.222656 3.265625 4.734375 2.765625 4.046875 Z M 2.765625 4.046875 "/></g></g></g><g fill="#000000" fill-opacity="1"><g transform="translate(274.979314, 187.358094)"><g/></g></g><g fill="#000000" fill-opacity="1"><g transform="translate(124.314402, 263.545735)"><g><path d="M 0.890625 0 L 0.890625 -8.40625 L 3.46875 -8.40625 C 4.945312 -8.40625 6.035156 -8.023438 6.734375 -7.265625 C 7.429688 -6.515625 7.78125 -5.484375 7.78125 -4.171875 C 7.78125 -2.890625 7.429688 -1.875 6.734375 -1.125 C 6.035156 -0.375 4.945312 0 3.46875 0 Z M 1.890625 -0.84375 L 3.4375 -0.84375 C 4.257812 -0.84375 4.910156 -0.972656 5.390625 -1.234375 C 5.878906 -1.503906 6.226562 -1.890625 6.4375 -2.390625 C 6.644531 -2.890625 6.75 -3.484375 6.75 -4.171875 C 6.75 -4.878906 6.644531 -5.484375 6.4375 -5.984375 C 6.226562 -6.492188 5.878906 -6.882812 5.390625 -7.15625 C 4.910156 -7.425781 4.257812 -7.5625 3.4375 -7.5625 L 1.890625 -7.5625 Z M 1.890625 -0.84375 "/></g></g></g><g fill="#000000" fill-opacity="1"><g transform="translate(133.794421, 263.545735)"><g><path d="M 3.5 0.140625 C 2.9375 0.140625 2.429688 0.0078125 1.984375 -0.25 C 1.546875 -0.507812 1.203125 -0.867188 0.953125 -1.328125 C 0.703125 -1.796875 0.578125 -2.34375 0.578125 -2.96875 C 0.578125 -3.59375 0.695312 -4.140625 0.9375 -4.609375 C 1.1875 -5.078125 1.535156 -5.441406 1.984375 -5.703125 C 2.429688 -5.960938 2.945312 -6.09375 3.53125 -6.09375 C 4.101562 -6.09375 4.597656 -5.960938 5.015625 -5.703125 C 5.441406 -5.441406 5.765625 -5.097656 5.984375 -4.671875 C 6.210938 -4.253906 6.328125 -3.800781 6.328125 -3.3125 C 6.328125 -3.226562 6.320312 -3.140625 6.3125 -3.046875 C 6.3125 -2.960938 6.3125 -2.863281 6.3125 -2.75 L 1.578125 -2.75 C 1.597656 -2.289062 1.703125 -1.910156 1.890625 -1.609375 C 2.078125 -1.304688 2.3125 -1.078125 2.59375 -0.921875 C 2.882812 -0.773438 3.1875 -0.703125 3.5 -0.703125 C 3.914062 -0.703125 4.265625 -0.796875 4.546875 -0.984375 C 4.828125 -1.179688 5.03125 -1.445312 5.15625 -1.78125 L 6.15625 -1.78125 C 6 -1.226562 5.691406 -0.769531 5.234375 -0.40625 C 4.785156 -0.0390625 4.207031 0.140625 3.5 0.140625 Z M 3.5 -5.25 C 3.019531 -5.25 2.59375 -5.101562 2.21875 -4.8125 C 1.851562 -4.519531 1.640625 -4.09375 1.578125 -3.53125 L 5.328125 -3.53125 C 5.304688 -4.0625 5.125 -4.476562 4.78125 -4.78125 C 4.4375 -5.09375 4.007812 -5.25 3.5 -5.25 Z M 3.5 -5.25 "/></g></g></g><g fill="#000000" fill-opacity="1"><g transform="translate(141.750441, 263.545735)"><g><path d="M 0.828125 0 L 0.828125 -8.640625 L 1.84375 -8.640625 L 1.84375 0 Z M 0.828125 0 "/></g></g></g><g fill="#000000" fill-opacity="1"><g transform="translate(145.54245, 263.545735)"><g><path d="M 1.4375 -7.265625 C 1.238281 -7.265625 1.070312 -7.332031 0.9375 -7.46875 C 0.8125 -7.601562 0.75 -7.769531 0.75 -7.96875 C 0.75 -8.15625 0.8125 -8.3125 0.9375 -8.4375 C 1.070312 -8.570312 1.238281 -8.640625 1.4375 -8.640625 C 1.632812 -8.640625 1.800781 -8.570312 1.9375 -8.4375 C 2.070312 -8.3125 2.140625 -8.15625 2.140625 -7.96875 C 2.140625 -7.769531 2.070312 -7.601562 1.9375 -7.46875 C 1.800781 -7.332031 1.632812 -7.265625 1.4375 -7.265625 Z M 0.9375 0 L 0.9375 -5.953125 L 1.9375 -5.953125 L 1.9375 0 Z M 0.9375 0 "/></g></g></g><g fill="#000000" fill-opacity="1"><g transform="translate(149.53846, 263.545735)"><g><path d="M 3.1875 -1.875 C 2.84375 -1.875 2.53125 -1.914062 2.25 -2 L 1.65625 -1.4375 C 1.738281 -1.375 1.847656 -1.320312 1.984375 -1.28125 C 2.117188 -1.238281 2.304688 -1.195312 2.546875 -1.15625 C 2.796875 -1.125 3.144531 -1.085938 3.59375 -1.046875 C 4.394531 -0.984375 4.96875 -0.796875 5.3125 -0.484375 C 5.65625 -0.179688 5.828125 0.222656 5.828125 0.734375 C 5.828125 1.078125 5.734375 1.40625 5.546875 1.71875 C 5.359375 2.03125 5.070312 2.285156 4.6875 2.484375 C 4.300781 2.679688 3.800781 2.78125 3.1875 2.78125 C 2.65625 2.78125 2.179688 2.707031 1.765625 2.5625 C 1.347656 2.425781 1.019531 2.21875 0.78125 1.9375 C 0.550781 1.65625 0.4375 1.296875 0.4375 0.859375 C 0.4375 0.640625 0.492188 0.398438 0.609375 0.140625 C 0.734375 -0.117188 0.960938 -0.363281 1.296875 -0.59375 C 1.117188 -0.664062 0.96875 -0.742188 0.84375 -0.828125 C 0.71875 -0.910156 0.601562 -1.003906 0.5 -1.109375 L 0.5 -1.390625 L 1.53125 -2.40625 C 1.050781 -2.800781 0.8125 -3.328125 0.8125 -3.984375 C 0.8125 -4.378906 0.90625 -4.734375 1.09375 -5.046875 C 1.28125 -5.367188 1.546875 -5.625 1.890625 -5.8125 C 2.242188 -6 2.675781 -6.09375 3.1875 -6.09375 C 3.53125 -6.09375 3.835938 -6.046875 4.109375 -5.953125 L 6.3125 -5.953125 L 6.3125 -5.203125 L 5.203125 -5.140625 C 5.429688 -4.804688 5.546875 -4.421875 5.546875 -3.984375 C 5.546875 -3.585938 5.453125 -3.226562 5.265625 -2.90625 C 5.078125 -2.59375 4.804688 -2.34375 4.453125 -2.15625 C 4.109375 -1.96875 3.6875 -1.875 3.1875 -1.875 Z M 3.1875 -2.703125 C 3.601562 -2.703125 3.9375 -2.8125 4.1875 -3.03125 C 4.445312 -3.25 4.578125 -3.566406 4.578125 -3.984375 C 4.578125 -4.390625 4.445312 -4.703125 4.1875 -4.921875 C 3.9375 -5.140625 3.601562 -5.25 3.1875 -5.25 C 2.75 -5.25 2.40625 -5.140625 2.15625 -4.921875 C 1.90625 -4.703125 1.78125 -4.390625 1.78125 -3.984375 C 1.78125 -3.566406 1.90625 -3.25 2.15625 -3.03125 C 2.40625 -2.8125 2.75 -2.703125 3.1875 -2.703125 Z M 1.421875 0.765625 C 1.421875 1.171875 1.585938 1.46875 1.921875 1.65625 C 2.265625 1.851562 2.6875 1.953125 3.1875 1.953125 C 3.6875 1.953125 4.085938 1.84375 4.390625 1.625 C 4.691406 1.414062 4.84375 1.128906 4.84375 0.765625 C 4.84375 0.515625 4.738281 0.289062 4.53125 0.09375 C 4.320312 -0.09375 3.9375 -0.203125 3.375 -0.234375 C 2.9375 -0.265625 2.554688 -0.300781 2.234375 -0.34375 C 1.898438 -0.164062 1.679688 0.0195312 1.578125 0.21875 C 1.472656 0.425781 1.421875 0.609375 1.421875 0.765625 Z M 1.421875 0.765625 "/></g></g></g><g fill="#000000" fill-opacity="1"><g transform="translate(157.290478, 263.545735)"><g><path d="M 0.828125 0 L 0.828125 -8.640625 L 1.84375 -8.640625 L 1.84375 -4.9375 C 2.039062 -5.300781 2.320312 -5.582031 2.6875 -5.78125 C 3.050781 -5.988281 3.453125 -6.09375 3.890625 -6.09375 C 4.578125 -6.09375 5.128906 -5.878906 5.546875 -5.453125 C 5.960938 -5.023438 6.171875 -4.367188 6.171875 -3.484375 L 6.171875 0 L 5.171875 0 L 5.171875 -3.375 C 5.171875 -4.613281 4.671875 -5.234375 3.671875 -5.234375 C 3.148438 -5.234375 2.710938 -5.046875 2.359375 -4.671875 C 2.015625 -4.296875 1.84375 -3.765625 1.84375 -3.078125 L 1.84375 0 Z M 0.828125 0 "/></g></g></g><g fill="#000000" fill-opacity="1"><g transform="translate(165.282502, 263.545735)"><g><path d="M 3.1875 0 C 2.632812 0 2.203125 -0.128906 1.890625 -0.390625 C 1.578125 -0.660156 1.421875 -1.140625 1.421875 -1.828125 L 1.421875 -5.09375 L 0.390625 -5.09375 L 0.390625 -5.953125 L 1.421875 -5.953125 L 1.5625 -7.375 L 2.4375 -7.375 L 2.4375 -5.953125 L 4.1875 -5.953125 L 4.1875 -5.09375 L 2.4375 -5.09375 L 2.4375 -1.828125 C 2.4375 -1.453125 2.507812 -1.195312 2.65625 -1.0625 C 2.8125 -0.925781 3.082031 -0.859375 3.46875 -0.859375 L 4.09375 -0.859375 L 4.09375 0 Z M 3.1875 0 "/></g></g></g><g fill="#000000" fill-opacity="1"><g transform="translate(171.054521, 263.545735)"><g/></g></g><g fill="#000000" fill-opacity="1"><g transform="translate(175.362532, 263.545735)"><g><path d="M 1.4375 -7.265625 C 1.238281 -7.265625 1.070312 -7.332031 0.9375 -7.46875 C 0.8125 -7.601562 0.75 -7.769531 0.75 -7.96875 C 0.75 -8.15625 0.8125 -8.3125 0.9375 -8.4375 C 1.070312 -8.570312 1.238281 -8.640625 1.4375 -8.640625 C 1.632812 -8.640625 1.800781 -8.570312 1.9375 -8.4375 C 2.070312 -8.3125 2.140625 -8.15625 2.140625 -7.96875 C 2.140625 -7.769531 2.070312 -7.601562 1.9375 -7.46875 C 1.800781 -7.332031 1.632812 -7.265625 1.4375 -7.265625 Z M 0.9375 0 L 0.9375 -5.953125 L 1.9375 -5.953125 L 1.9375 0 Z M 0.9375 0 "/></g></g></g><g fill="#000000" fill-opacity="1"><g transform="translate(179.358545, 263.545735)"><g><path d="M 0.828125 0 L 0.828125 -5.953125 L 1.734375 -5.953125 L 1.796875 -4.890625 C 1.992188 -5.265625 2.269531 -5.554688 2.625 -5.765625 C 2.988281 -5.984375 3.398438 -6.09375 3.859375 -6.09375 C 4.554688 -6.09375 5.113281 -5.878906 5.53125 -5.453125 C 5.957031 -5.023438 6.171875 -4.367188 6.171875 -3.484375 L 6.171875 0 L 5.15625 0 L 5.15625 -3.375 C 5.15625 -4.613281 4.644531 -5.234375 3.625 -5.234375 C 3.113281 -5.234375 2.6875 -5.046875 2.34375 -4.671875 C 2.007812 -4.296875 1.84375 -3.765625 1.84375 -3.078125 L 1.84375 0 Z M 0.828125 0 "/></g></g></g><g fill="#000000" fill-opacity="1"><g transform="translate(187.350572, 263.545735)"><g/></g></g><g fill="#000000" fill-opacity="1"><g transform="translate(191.658586, 263.545735)"><g><path d="M 0.890625 0 L 0.890625 -8.40625 L 6.078125 -8.40625 L 6.078125 -7.578125 L 1.890625 -7.578125 L 1.890625 -4.640625 L 5.71875 -4.640625 L 5.71875 -3.828125 L 1.890625 -3.828125 L 1.890625 -0.828125 L 6.078125 -0.828125 L 6.078125 0 Z M 0.890625 0 "/></g></g></g><g fill="#000000" fill-opacity="1"><g transform="translate(199.554608, 263.545735)"><g><path d="M 2.546875 0 L 0.28125 -5.953125 L 1.34375 -5.953125 L 3.125 -0.96875 L 4.9375 -5.953125 L 5.96875 -5.953125 L 3.703125 0 Z M 2.546875 0 "/></g></g></g><g fill="#000000" fill-opacity="1"><g transform="translate(206.934628, 263.545735)"><g><path d="M 3.5 0.140625 C 2.9375 0.140625 2.429688 0.0078125 1.984375 -0.25 C 1.546875 -0.507812 1.203125 -0.867188 0.953125 -1.328125 C 0.703125 -1.796875 0.578125 -2.34375 0.578125 -2.96875 C 0.578125 -3.59375 0.695312 -4.140625 0.9375 -4.609375 C 1.1875 -5.078125 1.535156 -5.441406 1.984375 -5.703125 C 2.429688 -5.960938 2.945312 -6.09375 3.53125 -6.09375 C 4.101562 -6.09375 4.597656 -5.960938 5.015625 -5.703125 C 5.441406 -5.441406 5.765625 -5.097656 5.984375 -4.671875 C 6.210938 -4.253906 6.328125 -3.800781 6.328125 -3.3125 C 6.328125 -3.226562 6.320312 -3.140625 6.3125 -3.046875 C 6.3125 -2.960938 6.3125 -2.863281 6.3125 -2.75 L 1.578125 -2.75 C 1.597656 -2.289062 1.703125 -1.910156 1.890625 -1.609375 C 2.078125 -1.304688 2.3125 -1.078125 2.59375 -0.921875 C 2.882812 -0.773438 3.1875 -0.703125 3.5 -0.703125 C 3.914062 -0.703125 4.265625 -0.796875 4.546875 -0.984375 C 4.828125 -1.179688 5.03125 -1.445312 5.15625 -1.78125 L 6.15625 -1.78125 C 6 -1.226562 5.691406 -0.769531 5.234375 -0.40625 C 4.785156 -0.0390625 4.207031 0.140625 3.5 0.140625 Z M 3.5 -5.25 C 3.019531 -5.25 2.59375 -5.101562 2.21875 -4.8125 C 1.851562 -4.519531 1.640625 -4.09375 1.578125 -3.53125 L 5.328125 -3.53125 C 5.304688 -4.0625 5.125 -4.476562 4.78125 -4.78125 C 4.4375 -5.09375 4.007812 -5.25 3.5 -5.25 Z M 3.5 -5.25 "/></g></g></g><g fill="#000000" fill-opacity="1"><g transform="translate(214.890652, 263.545735)"><g><path d="M 0.828125 0 L 0.828125 -5.953125 L 1.734375 -5.953125 L 1.828125 -4.8125 C 2.003906 -5.207031 2.28125 -5.519531 2.65625 -5.75 C 3.039062 -5.976562 3.507812 -6.09375 4.0625 -6.09375 L 4.0625 -5.046875 L 3.78125 -5.046875 C 3.425781 -5.046875 3.097656 -4.984375 2.796875 -4.859375 C 2.503906 -4.734375 2.269531 -4.519531 2.09375 -4.21875 C 1.925781 -3.925781 1.84375 -3.519531 1.84375 -3 L 1.84375 0 Z M 0.828125 0 "/></g></g></g><g fill="#000000" fill-opacity="1"><g transform="translate(220.374671, 263.545735)"><g><path d="M 1.46875 2.640625 L 2.953125 -0.578125 L 2.609375 -0.578125 L 0.234375 -5.953125 L 1.328125 -5.953125 L 3.296875 -1.3125 L 5.390625 -5.953125 L 6.4375 -5.953125 L 2.53125 2.640625 Z M 1.46875 2.640625 "/></g></g></g><g fill="#000000" fill-opacity="1"><g transform="translate(228.174689, 263.545735)"><g/></g></g><g fill="#000000" fill-opacity="1"><g transform="translate(232.482703, 263.545735)"><g><path d="M 0.890625 0 L 0.890625 -8.40625 L 3.84375 -8.40625 C 4.4375 -8.40625 4.925781 -8.3125 5.3125 -8.125 C 5.695312 -7.9375 5.984375 -7.675781 6.171875 -7.34375 C 6.367188 -7.019531 6.46875 -6.660156 6.46875 -6.265625 C 6.46875 -5.722656 6.320312 -5.296875 6.03125 -4.984375 C 5.738281 -4.671875 5.390625 -4.453125 4.984375 -4.328125 C 5.296875 -4.273438 5.578125 -4.148438 5.828125 -3.953125 C 6.085938 -3.765625 6.289062 -3.523438 6.4375 -3.234375 C 6.582031 -2.953125 6.65625 -2.640625 6.65625 -2.296875 C 6.65625 -1.867188 6.550781 -1.476562 6.34375 -1.125 C 6.132812 -0.78125 5.828125 -0.503906 5.421875 -0.296875 C 5.015625 -0.0976562 4.519531 0 3.9375 0 Z M 1.890625 -4.734375 L 3.765625 -4.734375 C 4.304688 -4.734375 4.71875 -4.859375 5 -5.109375 C 5.289062 -5.359375 5.4375 -5.707031 5.4375 -6.15625 C 5.4375 -6.582031 5.289062 -6.921875 5 -7.171875 C 4.71875 -7.429688 4.296875 -7.5625 3.734375 -7.5625 L 1.890625 -7.5625 Z M 1.890625 -0.84375 L 3.828125 -0.84375 C 4.398438 -0.84375 4.84375 -0.972656 5.15625 -1.234375 C 5.46875 -1.503906 5.625 -1.878906 5.625 -2.359375 C 5.625 -2.835938 5.457031 -3.21875 5.125 -3.5 C 4.800781 -3.78125 4.359375 -3.921875 3.796875 -3.921875 L 1.890625 -3.921875 Z M 1.890625 -0.84375 "/></g></g></g><g fill="#000000" fill-opacity="1"><g transform="translate(240.834726, 263.545735)"><g><path d="M 1.4375 -7.265625 C 1.238281 -7.265625 1.070312 -7.332031 0.9375 -7.46875 C 0.8125 -7.601562 0.75 -7.769531 0.75 -7.96875 C 0.75 -8.15625 0.8125 -8.3125 0.9375 -8.4375 C 1.070312 -8.570312 1.238281 -8.640625 1.4375 -8.640625 C 1.632812 -8.640625 1.800781 -8.570312 1.9375 -8.4375 C 2.070312 -8.3125 2.140625 -8.15625 2.140625 -7.96875 C 2.140625 -7.769531 2.070312 -7.601562 1.9375 -7.46875 C 1.800781 -7.332031 1.632812 -7.265625 1.4375 -7.265625 Z M 0.9375 0 L 0.9375 -5.953125 L 1.9375 -5.953125 L 1.9375 0 Z M 0.9375 0 "/></g></g></g><g fill="#000000" fill-opacity="1"><g transform="translate(244.83074, 263.545735)"><g><path d="M 3.1875 0 C 2.632812 0 2.203125 -0.128906 1.890625 -0.390625 C 1.578125 -0.660156 1.421875 -1.140625 1.421875 -1.828125 L 1.421875 -5.09375 L 0.390625 -5.09375 L 0.390625 -5.953125 L 1.421875 -5.953125 L 1.5625 -7.375 L 2.4375 -7.375 L 2.4375 -5.953125 L 4.1875 -5.953125 L 4.1875 -5.09375 L 2.4375 -5.09375 L 2.4375 -1.828125 C 2.4375 -1.453125 2.507812 -1.195312 2.65625 -1.0625 C 2.8125 -0.925781 3.082031 -0.859375 3.46875 -0.859375 L 4.09375 -0.859375 L 4.09375 0 Z M 3.1875 0 "/></g></g></g><g fill="#000000" fill-opacity="1"><g transform="translate(250.602762, 263.545735)"><g><path d="M 3.5 0.140625 C 2.9375 0.140625 2.429688 0.0078125 1.984375 -0.25 C 1.546875 -0.507812 1.203125 -0.867188 0.953125 -1.328125 C 0.703125 -1.796875 0.578125 -2.34375 0.578125 -2.96875 C 0.578125 -3.59375 0.695312 -4.140625 0.9375 -4.609375 C 1.1875 -5.078125 1.535156 -5.441406 1.984375 -5.703125 C 2.429688 -5.960938 2.945312 -6.09375 3.53125 -6.09375 C 4.101562 -6.09375 4.597656 -5.960938 5.015625 -5.703125 C 5.441406 -5.441406 5.765625 -5.097656 5.984375 -4.671875 C 6.210938 -4.253906 6.328125 -3.800781 6.328125 -3.3125 C 6.328125 -3.226562 6.320312 -3.140625 6.3125 -3.046875 C 6.3125 -2.960938 6.3125 -2.863281 6.3125 -2.75 L 1.578125 -2.75 C 1.597656 -2.289062 1.703125 -1.910156 1.890625 -1.609375 C 2.078125 -1.304688 2.3125 -1.078125 2.59375 -0.921875 C 2.882812 -0.773438 3.1875 -0.703125 3.5 -0.703125 C 3.914062 -0.703125 4.265625 -0.796875 4.546875 -0.984375 C 4.828125 -1.179688 5.03125 -1.445312 5.15625 -1.78125 L 6.15625 -1.78125 C 6 -1.226562 5.691406 -0.769531 5.234375 -0.40625 C 4.785156 -0.0390625 4.207031 0.140625 3.5 0.140625 Z M 3.5 -5.25 C 3.019531 -5.25 2.59375 -5.101562 2.21875 -4.8125 C 1.851562 -4.519531 1.640625 -4.09375 1.578125 -3.53125 L 5.328125 -3.53125 C 5.304688 -4.0625 5.125 -4.476562 4.78125 -4.78125 C 4.4375 -5.09375 4.007812 -5.25 3.5 -5.25 Z M 3.5 -5.25 "/></g></g></g></svg>